<?xml version="1.0" encoding="UTF-8"?>
<svg width="1000px" height="120px" viewBox="0 0 1000 120" version="1.1" xmlns="http://www.w3.org/2000/svg" xmlns:xlink="http://www.w3.org/1999/xlink">
    <title>编组 16</title>
    <g id="everweb" stroke="none" stroke-width="1" fill="none" fill-rule="evenodd">
        <g id="首页" transform="translate(-460.000000, -1343.000000)">
            <g id="编组-17" transform="translate(0.000000, 1080.000000)">
                <g id="编组-16" transform="translate(460.000000, 263.000000)">
                    <g id="编组-14">
                        <rect id="矩形" fill="#D8D8D8" opacity="0" x="0" y="0" width="128" height="120"></rect>
                        <path d="M64,14 C76.1502645,14 86,23.8497355 86,36 C86,48.1502645 76.1502645,58 64,58 C51.8497355,58 42,48.1502645 42,36 C42,23.8497355 51.8497355,14 64,14 Z M64,25.4782609 C58.1890039,25.4782609 53.4782609,30.1890039 53.4782609,36 C53.4782609,41.8109961 58.1890039,46.5217391 64,46.5217391 C69.8109961,46.5217391 74.5217391,41.8109961 74.5217391,36 C74.5217391,30.1890039 69.8109961,25.4782609 64,25.4782609 Z" id="形状结合" fill="#000000"></path>
                        <text id="用户界面/体验设计" font-family="STSongti-SC-Regular, Songti SC" font-size="14" font-weight="normal" fill="#000000" fill-opacity="0.8">
                            <tspan x="18.5" y="85">用户界面/体验</tspan>
                            <tspan x="50" y="105">设计</tspan>
                        </text>
                    </g>
                    <g id="编组-14备份" transform="translate(218.000000, 0.000000)">
                        <rect id="矩形" fill="#D8D8D8" opacity="0" x="0" y="0" width="128" height="120"></rect>
                        <path d="M64,16 C75.045695,16 84,24.954305 84,36 L84,48 C84,52.418278 80.418278,56 76,56 L64,56 C52.954305,56 44,47.045695 44,36 L44,24 C44,19.581722 47.581722,16 52,16 L64,16 Z M54,21 C51.2385763,21 49,23.2385763 49,26 C49,28.7614237 51.2385763,31 54,31 C56.7614237,31 59,28.7614237 59,26 C59,23.2385763 56.7614237,21 54,21 Z" id="形状结合" fill="#000000"></path>
                        <text id="品牌设计" font-family="STSongti-SC-Regular, Songti SC" font-size="14" font-weight="normal" fill="#000000" fill-opacity="0.8">
                            <tspan x="36" y="85">品牌设计</tspan>
                        </text>
                    </g>
                    <g id="编组-14备份-2" transform="translate(436.000000, 0.000000)">
                        <rect id="矩形" fill="#D8D8D8" opacity="0" x="0" y="0" width="128" height="120"></rect>
                        <g id="编组-15" transform="translate(44.000000, 17.000000)" fill="#000000">
                            <rect id="矩形" x="0" y="0" width="40" height="11"></rect>
                            <polygon id="矩形备份-5" points="0 26 19 26 19 37 0 37"></polygon>
                            <path d="M21,26 L36,26 L40,30 L40,37 L40,37 L21,37 L21,26 Z" id="矩形备份-8" opacity="0.300000012"></path>
                            <path d="M0,13 L15,13 L19,17 L19,24 L19,24 L0,24 L0,13 Z" id="矩形备份-6" opacity="0.300000012"></path>
                            <rect id="矩形备份-7" x="21" y="13" width="19" height="11"></rect>
                        </g>
                        <text id="设计管理" font-family="STSongti-SC-Regular, Songti SC" font-size="14" font-weight="normal" fill="#000000" fill-opacity="0.8">
                            <tspan x="36" y="85">设计管理</tspan>
                        </text>
                    </g>
                    <g id="编组-14备份-3" transform="translate(654.000000, 0.000000)">
                        <rect id="矩形" fill="#D8D8D8" opacity="0" x="0" y="0" width="128" height="120"></rect>
                        <g id="编组-15" transform="translate(44.000000, 17.000000)">
                            <polygon id="矩形" fill="#000000" points="4.05925293e-16 1.48338132e-14 9 1.48338132e-14 9 37 0 37"></polygon>
                            <polygon id="矩形备份-12" fill="#000000" points="11 1.48338132e-14 40 1.48338132e-14 40 37 11 37"></polygon>
                            <path d="M34.2407426,8 C28.1241221,8 25.8575004,12.4527031 24.0349079,16.0297311 L22.8440715,18.3183323 C20.9144017,22.1118402 19.4722754,24.4178619 15.7564648,24.4178619 C15.2904775,24.4175704 14.8435137,24.6062664 14.5141402,24.9423378 C14.1848177,25.2782019 14,25.7337038 14,26.2086107 C14,26.6835177 14.1853199,27.1389158 14.5148237,27.474595 C14.8442065,27.8103395 15.2906982,27.9992741 15.7564648,28 C21.8755914,28 24.142213,23.5470646 25.9648056,19.9702689 L27.1531359,17.6816677 C29.0853118,13.8879275 30.5274381,11.5821381 34.2407426,11.5821381 C34.7071692,11.5829696 35.1547432,11.3945089 35.484662,11.058359 C35.8146259,10.7224169 36,10.2664936 36,9.79106904 C35.9981158,8.80172584 35.2111313,8.00061462 34.2407426,8.00023227 L34.2407426,8 Z" id="路径" fill="#FFFFFF" fill-rule="nonzero"></path>
                        </g>
                        <text id="动效设计" font-family="STSongti-SC-Regular, Songti SC" font-size="14" font-weight="normal" fill="#000000" fill-opacity="0.8">
                            <tspan x="36" y="85">动效设计</tspan>
                        </text>
                    </g>
                    <g id="编组-14备份-4" transform="translate(872.000000, 0.000000)">
                        <rect id="矩形" fill="#D8D8D8" opacity="0" x="0" y="0" width="128" height="120"></rect>
                        <g id="编组-15" transform="translate(44.000000, 17.000000)" fill="#000000">
                            <polygon id="矩形" points="1.80411242e-15 10 40 10 40 37 0 37"></polygon>
                            <path d="M40,0 L40,8 L0,8 L0,0 L40,0 Z M38,2 L12,2 L12,6 L38,6 L38,2 Z M2,3 L4,3 L4,5 L2,5 Z M5,3 L7,3 L7,5 L5,5 Z M8,3 L10,3 L10,5 L8,5 Z" id="形状结合" opacity="0.300000012"></path>
                        </g>
                        <text id="Web低代码" font-family="STSongti-SC-Regular, Songti SC" font-size="14" font-weight="normal" fill="#000000" fill-opacity="0.8">
                            <tspan x="30.12" y="85">Web低代码</tspan>
                        </text>
                    </g>
                </g>
            </g>
        </g>
    </g>
</svg>