<?xml version="1.0" encoding="UTF-8"?>
<svg width="190px" height="81px" viewBox="0 0 190 81" version="1.1" xmlns="http://www.w3.org/2000/svg" xmlns:xlink="http://www.w3.org/1999/xlink">
    <title>编组 11</title>
    <g id="everweb" stroke="none" stroke-width="1" fill="none" fill-rule="evenodd">
        <g id="关于我备份" transform="translate(-865.000000, -1200.000000)" fill="#000000">
            <g id="编组-14" transform="translate(0.000000, 1079.000000)">
                <g id="编组-11" transform="translate(865.000000, 121.000000)">
                    <g id="关于我" transform="translate(66.344000, 40.644000)" fill-opacity="0" fill-rule="nonzero" stroke="#000000">
                        <path d="M25.1303319,0.58090807 L31.7243841,2.2113056 C31.4015881,2.73412545 31.0249248,3.33594496 30.5944033,4.01676973 C29.8120167,5.25403218 29.0177384,6.41979244 28.2114931,7.514 L35.452,7.514 L35.452,13.234 L22.474,13.234 L22.474,18.098 L36.712,18.098 L36.712,23.86 L22.5482213,23.86 C23.8578651,26.2076974 25.9924754,28.2252382 28.9657563,29.8987242 C31.4016766,31.2697612 34.3288567,32.3256719 37.7491464,33.0617354 L34.1371242,38.8048507 C31.1087331,37.8516219 28.3734323,36.5928686 25.9319162,35.0271137 C23.4109424,33.4104023 21.3409712,31.4933183 19.7241522,29.2736176 C19.5717859,29.0644368 19.423212,28.8522499 19.2783419,28.6376003 C19.1560298,28.8650044 19.0278465,29.0880008 18.8937811,29.3065857 C17.6436231,31.3448868 15.8196816,33.101165 13.4287396,34.5819189 C11.0698626,36.0428143 7.99662366,37.4172531 4.21104939,38.7093187 L0.765339006,32.9785582 C2.62246612,32.4443885 4.27413724,31.9043695 5.72046085,31.3588264 C7.34408488,30.7464068 8.75374435,30.0977359 9.95006947,29.4141216 C11.1661382,28.7192251 12.1784453,27.9795938 12.9890678,27.1979221 C14.0227117,26.2011941 14.8003353,25.0878396 15.3248127,23.86 L2.096,23.86 L2.096,18.098 L16.334,18.098 L16.334,13.234 L3.356,13.234 L3.356,7.514 L10.6387999,7.51399999 C10.2677495,6.84740967 9.86219127,6.12905251 9.42212157,5.35893053 C9.13994838,4.86512745 8.85777209,4.38543488 8.57559892,3.91984914 C8.29087233,3.45005028 8.01322775,3.01586594 7.74273789,2.61724929 C7.63979599,2.46554544 7.54206401,2.32217984 7.44954276,2.18715196 L13.2394529,0.614583763 C13.4315003,0.883084765 13.638382,1.18879289 13.8602149,1.53162564 C14.1659306,2.00409534 14.4716434,2.490463 14.7773591,2.990725 C15.0835687,3.49179528 15.3828196,3.99286523 15.6751105,4.49393551 C15.852812,4.79856665 16.0176909,5.08267973 16.169746,5.34627533 L11.0692168,7.514 L21.1075123,7.514 C21.4861616,6.91506384 21.8924726,6.27002525 22.326445,5.57888407 C22.7091628,4.96937047 23.0777102,4.34568461 23.4320786,3.70782147 C23.782589,3.07690285 24.1190786,2.46701469 24.4415481,1.87815731 C24.6921357,1.42056263 24.9217221,0.988141947 25.1303319,0.58090807 Z" id="路径"></path>
                        <path d="M76.402,2.264 L76.402,8.11 L65.02,8.11 L65.02,15.746 L79.006,15.746 L79.006,21.634 L65.02,21.634 L65.02,31.878 C65.02,33.0652166 64.8809283,34.0430016 64.5905012,34.8086729 C64.315948,35.5324952 63.8864657,36.1262251 63.2997202,36.5881311 C62.6915531,37.0669009 61.9064667,37.4174694 60.9498242,37.6501662 C59.9359705,37.8967793 58.7164633,38.0738719 57.289319,38.1836577 L53.5766355,38.4867339 L51.7292902,32.3289163 L54.9323482,32.0825272 C56.182577,31.9863558 57.0085964,31.7027648 57.4530079,31.3059688 C57.9215143,30.8876595 58.208,30.147373 58.208,29.022 L58.208,21.634 L42.962,21.634 L42.962,15.746 L58.208,15.746 L58.208,8.11 L45.482,8.11 L45.482,2.264 L76.402,2.264 Z" id="路径"></path>
                        <path d="M96.226,33.348 C96.226,34.3566499 96.1437025,35.1736624 95.9710944,35.797707 C95.8165773,36.3563459 95.5532776,36.8111915 95.1722403,37.1565065 C94.7769088,37.5147757 94.248834,37.7739506 93.5953044,37.9465811 C92.8740166,38.1371099 91.9824374,38.2857424 90.9256883,38.3941494 L87.7196316,38.6923872 L85.9620358,32.9174299 L88.1109358,32.7546339 C89.0507888,32.6850151 89.663373,32.4103086 90.0053028,32.0170894 C90.3505942,31.6200042 90.548,31.0491248 90.548,30.282 L90.548,27.237681 C89.2177464,27.4036246 87.9731207,27.5600541 86.8141229,27.7069693 C86.0272259,27.8067168 85.2976016,27.8932562 84.6252484,27.9665741 L84.1192725,21.6779465 C84.8793988,21.6324176 85.7090694,21.5868902 86.6082841,21.5413603 C87.8590294,21.4780314 89.1722683,21.3968523 90.5480001,21.2978118 L90.548,16.594 L83.744,16.594 L83.744,11.126 L90.548,11.126 L90.548,7.35885494 C89.5320662,7.43684196 88.536527,7.48426143 87.5613806,7.5010743 C86.9180931,7.51216546 86.2923056,7.52763375 85.6840178,7.54747575 L85.3319412,2.37193614 C87.6961358,2.28817353 90.1394984,2.16787756 92.6620282,2.01103632 C95.177549,1.85463088 97.5054427,1.67399139 99.645713,1.46916315 L100.244762,6.64917013 C99.8013112,6.69234741 99.3324716,6.73915146 98.8382432,6.78958293 C98.0178717,6.8732943 97.1471231,6.94691728 96.226,7.01048354 L96.226,11.126 L103.082029,11.126 C103.021523,9.40429185 102.952378,7.5789102 102.874594,5.64985508 C102.810887,4.06992487 102.752987,2.38551805 102.700889,0.596634745 L108.623004,0.740226182 C108.649803,2.54791424 108.682519,4.23726928 108.721151,5.80829137 C108.767694,7.70105411 108.822826,9.47362234 108.886539,11.1259963 L120.46,11.126 L120.46,16.594 L114.718801,16.594 L114.719,16.594 L109.176305,16.594 C109.226734,17.5863682 109.290761,18.5109627 109.368321,19.3677885 L109.416481,19.8737519 C109.500751,20.7164521 109.585026,21.5029719 109.669296,22.2333121 C109.703479,22.529567 109.739767,22.8348232 109.77816,23.1490805 C110.01613,22.9560712 110.253599,22.7584566 110.490473,22.556417 C111.456123,21.7327748 112.350711,20.8877732 113.174351,20.0215308 C114.012901,19.139608 114.792392,18.2502765 115.512898,17.3536005 L119.434697,21.1193552 C118.198092,22.5698112 116.943698,23.9311954 115.671447,25.2034466 C114.298078,26.5768154 112.834513,27.8877294 111.280804,29.1362455 C111.637816,31.0615115 112.123224,31.688675 112.613719,31.9893006 C113.149602,32.3177451 113.610472,32.462 113.988,32.462 C114.526262,32.462 114.951377,32.2953284 115.275682,31.9901 C115.540533,31.7408284 115.872852,31.2203059 116.24798,30.4075291 C116.366308,30.1135205 116.46753,29.8770754 116.562092,29.6744427 C116.664096,29.4558615 116.758806,29.2372765 116.846238,29.0186953 C116.934376,28.7983502 117.022652,28.5486733 117.110791,28.2695657 L121.170974,31.363017 C120.917112,32.0687716 120.700017,32.6383598 120.519462,33.0716923 C120.31454,33.563505 120.061634,34.0962204 119.759513,34.6730217 C119.302882,35.5594226 118.847827,36.2790983 118.391121,36.8298321 C117.949541,37.3623255 117.496366,37.786164 117.02865,38.0979749 C116.581209,38.3962689 116.102921,38.5958057 115.593245,38.6952547 C115.050037,38.8012465 114.486939,38.854 113.904,38.854 C113.194701,38.854 112.511605,38.7624192 111.854815,38.578518 C111.204951,38.3965561 110.575153,38.096535 109.964395,37.6807004 C109.344735,37.2588042 108.759473,36.6970502 108.205873,35.9984592 C107.638243,35.2821639 107.099145,34.382537 106.585639,33.3014716 C106.500639,33.1225257 106.419937,32.9461773 106.343479,32.7725343 C106.181041,32.8827513 106.018765,32.9918982 105.85665,33.0999749 C105.022188,33.6562826 104.159907,34.2056296 103.269815,34.7480296 C102.505583,35.2137333 101.720859,35.67431 100.915646,36.1297672 L97.4618931,30.9842411 C99.9750467,29.7491468 102.325292,28.3747609 104.651565,26.536546 C104.188693,24.048607 103.78653,20.7343619 103.443791,16.594 L96.226,16.594 L96.2260007,20.7925107 C97.3279169,20.6914263 98.3590306,20.5903382 99.3193424,20.4892527 C99.9126395,20.4268004 100.463614,20.3643393 100.972267,20.3018824 L101.398876,25.7766868 L96.226,26.4858714 L96.226,33.348 Z M114.030711,1.17231642 C114.358566,1.50531565 114.706247,1.86608034 115.073766,2.25459993 C115.563929,2.77277204 116.068096,3.3049488 116.586268,3.85113022 C117.099348,4.39194453 117.591634,4.93275319 118.063114,5.4735676 C118.408494,5.86973918 118.731772,6.24012508 119.032949,6.58472535 L114.95,10.077 L114.572275,9.59512593 C113.928173,8.77695892 113.312578,8.0126541 112.725502,7.30220092 L112.376679,6.88239112 C111.633377,5.99286496 110.874253,5.11915951 110.09931,4.26127411 L114.030711,1.17231642 Z" id="形状"></path>
                    </g>
                    <text id="01" font-family="STSongti-SC-Regular, Songti SC" font-size="14" font-weight="normal">
                        <tspan x="0" y="15">01</tspan>
                    </text>
                    <polygon id="矩形" points="0 25 190 25 190 26 0 26"></polygon>
                </g>
            </g>
        </g>
    </g>
</svg>