<?xml version="1.0" encoding="UTF-8"?>
<svg width="50px" height="50px" viewBox="0 0 50 50" version="1.1" xmlns="http://www.w3.org/2000/svg" xmlns:xlink="http://www.w3.org/1999/xlink">
    <title>adobeXD</title>
    <g id="everweb" stroke="none" stroke-width="1" fill="none" fill-rule="evenodd">
        <g id="画板" transform="translate(-485.000000, -168.000000)" stroke="#FFFFFF">
            <g id="adobeXD" transform="translate(485.014265, 168.000000)">
                <rect id="矩形" stroke-opacity="0.1" fill-opacity="0" fill="#FFFFFF" x="0.5" y="0.5" width="48.9750357" height="49"></rect>
                <g id="编组-48" transform="translate(6.663338, 12.592593)" stroke-linejoin="round">
                    <polygon id="路径-7" points="0 2.22222222 6.55150415 13.3405 0 24.4444444 5.36763973 24.4444444 9.64398964 16.3985365 14.1910521 24.4444444 19.9900143 24.4444444 13.0843116 13.1019985 19.5824523 2.22222222 14.1910521 2.22222222 9.99500713 10.4635026 5.36763973 2.22222222"></polygon>
                    <path d="M36.278174,0 L36.278174,23.2445881 C34.3693954,24.7793444 31.9019433,25.4037583 28.8758178,25.11783 C24.3366296,24.6889376 20.3601997,22.9551074 20.3601997,15.5841204 C20.3601997,11.9813728 22.6350097,8.87118994 26.6105163,7.49426084 C27.5751242,7.16016589 29.1896571,7.01322581 31.4541148,7.0534406 L31.4541148,0 L36.278174,0 Z M31.4657632,11.2037624 C29.5598576,10.9625752 28.129193,11.1922767 27.1737694,11.8928671 C25.740634,12.9437526 25.1726106,14.6719477 25.1726106,16.1797421 C25.1726106,17.6875364 25.6956694,19.0575062 26.7098775,20.1703042 C27.3860162,20.9121696 28.9713114,21.2152911 31.4657632,21.079669 Z" id="形状结合"></path>
                </g>
            </g>
        </g>
    </g>
</svg>