<?xml version="1.0" encoding="UTF-8"?>
<svg width="50px" height="50px" viewBox="0 0 50 50" version="1.1" xmlns="http://www.w3.org/2000/svg" xmlns:xlink="http://www.w3.org/1999/xlink">
    <title>ae</title>
    <defs>
        <rect id="path-1" x="0" y="0" width="49.9759615" height="50"></rect>
    </defs>
    <g id="everweb" stroke="none" stroke-width="1" fill="none" fill-rule="evenodd">
        <g id="画板" transform="translate(-217.000000, -258.000000)">
            <g id="ae" transform="translate(217.000000, 258.000000)">
                <mask id="mask-2" fill="white">
                    <use xlink:href="#path-1"></use>
                </mask>
                <rect stroke-opacity="0.1" stroke="#FFFFFF" x="0.5" y="0.5" width="48.9759615" height="49"></rect>
                <path d="M21.3169071,30.1366208 L13.0523638,30.1366208 L11.2939503,35.1851852 L6.66346154,35.1851852 L14.2539463,14.8148148 L20.2325521,14.8148148 L27.7644231,35.1851852 L23.0460136,35.1851852 L21.3169071,30.1366208 Z M19.9903846,26.6666667 L17.4143041,18.8888889 L17.0708267,18.8888889 L14.4375,26.6666667 L19.9903846,26.6666667 Z M43.6826923,25.9424603 C43.6826923,26.3988095 43.6681968,26.8303571 43.6392059,27.2371032 C43.6102149,27.6438492 43.5763921,27.9563492 43.5377375,28.1746032 L33.4488821,28.8293651 C33.5261913,29.9801587 33.9030738,30.8234127 34.5795297,31.359127 C35.2559855,31.8948413 36.2899965,32.1626984 37.6815628,32.1626984 C38.1647455,32.1626984 38.6575919,32.1279762 39.1601019,32.0585317 C39.662612,31.9890873 40.1457947,31.9047619 40.6096501,31.8055556 C41.0735056,31.7063492 41.5035382,31.5873016 41.899748,31.4484127 C42.2959579,31.3095238 42.6196903,31.1706349 42.8709453,31.031746 L42.8709453,34.4246032 C42.6390176,34.5634921 42.3249488,34.702381 41.928739,34.8412698 C41.5325292,34.9801587 41.0735056,35.0992063 40.5516682,35.1984127 C40.0298309,35.297619 39.4548434,35.3819444 38.8267059,35.4513889 C38.1985683,35.5208333 37.5462716,35.5555556 36.8698158,35.5555556 C35.6715226,35.5555556 34.598857,35.4265873 33.6518188,35.1686508 C32.7047807,34.9107143 31.9075292,34.4642857 31.2600643,33.8293651 C30.6125994,33.1944444 30.1149212,32.3412698 29.7670297,31.2698413 C29.4191381,30.1984127 29.2451923,28.8492063 29.2451923,27.2222222 C29.2451923,25.5952381 29.4191381,24.2460317 29.7670297,23.1746032 C30.1149212,22.1031746 30.6174313,21.25 31.2745598,20.6150794 C31.9316883,19.9801587 32.7434353,19.5337302 33.7098007,19.2757937 C34.6761662,19.0178571 35.7681592,18.8888889 36.9857797,18.8888889 C38.3386913,18.8888889 39.4500116,19.0625 40.3197405,19.4097222 C41.1894694,19.7569444 41.8755889,20.2430556 42.3780989,20.8680556 C42.880609,21.4930556 43.2236687,22.2371032 43.4072782,23.1001984 C43.5908876,23.9632937 43.6826923,24.9107143 43.6826923,25.9424603 Z M39.6105769,25.4181601 C39.6105769,24.9800876 39.5773545,24.5669056 39.5109098,24.1786141 C39.444465,23.7903226 39.3115754,23.451812 39.1122411,23.1630824 C38.9129068,22.8743528 38.6281435,22.6453604 38.2579512,22.4761051 C37.8877589,22.3068499 37.3989152,22.2222222 36.7914201,22.2222222 C36.1459566,22.2222222 35.6096524,22.2968937 35.1825074,22.4462366 C34.7553624,22.5955795 34.4089004,22.8195938 34.1431213,23.1182796 C33.8773422,23.4169654 33.6780079,23.8002788 33.5451183,24.2682198 C33.4122288,24.7361609 33.3362919,25.2887296 33.3173077,25.9259259 L39.6105769,25.4181601 Z" id="形状结合备份-3" stroke="#FFFFFF" stroke-linejoin="round" mask="url(#mask-2)"></path>
            </g>
        </g>
    </g>
</svg>