<?xml version="1.0" encoding="UTF-8"?>
<svg width="50px" height="50px" viewBox="0 0 50 50" version="1.1" xmlns="http://www.w3.org/2000/svg" xmlns:xlink="http://www.w3.org/1999/xlink">
    <title>ai</title>
    <g id="everweb" stroke="none" stroke-width="1" fill="none" fill-rule="evenodd">
        <g id="画板" transform="translate(-619.000000, -168.000000)" stroke="#FFFFFF">
            <g id="ai" transform="translate(619.021398, 168.000000)">
                <rect id="矩形" stroke-opacity="0.1" fill-opacity="0" fill="#FFFFFF" x="0.5" y="0.5" width="48.9750357" height="49"></rect>
                <g id="Ai" transform="translate(11.475749, 13.333333)" stroke-linejoin="round">
                    <path d="M14.1390276,18.1011848 L6.16461602,18.1011848 L4.46793272,23.3333333 L0,23.3333333 L7.32401629,2.22222222 L13.0927395,2.22222222 L20.3601997,23.3333333 L15.8074328,23.3333333 L14.1390276,18.1011848 Z M12.9564907,14.4444444 L10.380458,6.2962963 L10.0369869,6.2962963 L7.40370899,14.4444444 L12.9564907,14.4444444 Z" id="形状"></path>
                    <path d="M21.8409415,2.59388704 L21.8409415,2.59129815 C21.8409415,1.1601637 23.0011052,2.62895133e-16 24.4322397,0 C25.8633741,-2.62895133e-16 27.0235378,1.1601637 27.0235378,2.59129815 L27.0235378,2.59388704 C27.0235378,4.02502149 25.8633741,5.18518519 24.4322397,5.18518519 C23.0011052,5.18518519 21.8409415,4.02502149 21.8409415,2.59388704 Z M22.211127,7.03703704 L26.2831669,7.03703704 L26.2831669,23.3333333 L22.211127,23.3333333 L22.211127,7.03703704 Z" id="形状"></path>
                </g>
            </g>
        </g>
    </g>
</svg>