<?xml version="1.0" encoding="UTF-8"?>
<svg width="50px" height="50px" viewBox="0 0 50 50" version="1.1" xmlns="http://www.w3.org/2000/svg" xmlns:xlink="http://www.w3.org/1999/xlink">
    <title>auxre</title>
    <g id="everweb" stroke="none" stroke-width="1" fill="none" fill-rule="evenodd">
        <g id="画板" transform="translate(-686.000000, -168.000000)" stroke="#FFFFFF">
            <g id="auxre" transform="translate(686.024964, 168.000000)">
                <rect id="矩形" stroke-opacity="0.1" fill-opacity="0" fill="#FFFFFF" x="0.5" y="0.5" width="48.9750357" height="49"></rect>
                <path d="M22.0119,24.0071281 L12.6433951,11.1475287 C12.1810956,10.512957 12.3207497,9.62376727 12.9553213,9.16146771 C13.1984732,8.98432616 13.4915532,8.88888889 13.7923887,8.88888889 L17.586968,8.88888889 L17.586968,8.88888889 L28.5042796,24.0071281 L16.1215735,41.1111111 L12.4095784,41.1111111 C11.6244657,41.1111111 10.9880061,40.4746515 10.9880061,39.6895388 C10.9880061,39.3900707 11.0825787,39.0982513 11.258233,38.8557092 L22.0119,24.0071281 L22.0119,24.0071281 Z M28.5042796,15.186602 L32.5399759,9.34878452 C32.7390706,9.06078508 33.066875,8.88888889 33.4169927,8.88888889 L36.3026588,8.88888889 C37.1531976,8.88888889 37.8426955,9.57838682 37.8426955,10.4289256 C37.8426955,10.7418427 37.7473731,11.0473355 37.5694208,11.3047264 L31.8138353,19.6296296 L31.8138353,19.6296296 L28.5042796,15.186602 Z M28.5042796,33.2699027 L31.7131556,28.8888889 L38.8279897,38.5432387 C39.356063,39.2597987 39.2032645,40.2687733 38.4867046,40.7968467 C38.2097032,41.0009846 37.8746391,41.1111111 37.5305431,41.1111111 L34.8762055,41.1111111 C34.5392511,41.1111111 34.2221276,40.9518269 34.020938,40.6815288 L28.5042796,33.2699027 L28.5042796,33.2699027 Z" id="形状结合" stroke-linejoin="round"></path>
            </g>
        </g>
    </g>
</svg>