<?xml version="1.0" encoding="UTF-8"?>
<svg width="1920px" height="521px" viewBox="0 0 1920 521" version="1.1" xmlns="http://www.w3.org/2000/svg" xmlns:xlink="http://www.w3.org/1999/xlink">
    <title>b</title>
    <g id="b" stroke="none" stroke-width="1" fill="none" fill-rule="evenodd">
        <rect id="矩形" fill="#000000" x="0" y="0" width="1920" height="521"></rect>
        <path d="M29.447476,-771 L30.447476,-771 L30.447476,1291 L29.447476,1291 Z M90.2586591,-771 L91.2586591,-771 L91.2586591,1291 L90.2586591,1291 Z M149.655629,-771 L150.655629,-771 L150.655629,1291 L149.655629,1291 Z M210.466812,-771 L211.466812,-771 L211.466812,1291 L210.466812,1291 Z M269.863782,-771 L270.863782,-771 L270.863782,1291 L269.863782,1291 Z M330.674965,-771 L331.674965,-771 L331.674965,1291 L330.674965,1291 Z M390.071934,-771 L391.071934,-771 L391.071934,1291 L390.071934,1291 Z M449.468904,-771 L450.468904,-771 L450.468904,1291 L449.468904,1291 Z M510.280087,-771 L511.280087,-771 L511.280087,1291 L510.280087,1291 Z M569.677057,-771 L570.677057,-771 L570.677057,1291 L569.677057,1291 Z M630.48824,-771 L631.48824,-771 L631.48824,1291 L630.48824,1291 Z M689.88521,-771 L690.88521,-771 L690.88521,1291 L689.88521,1291 Z M750.696393,-771 L751.696393,-771 L751.696393,1291 L750.696393,1291 Z M810.093362,-771 L811.093362,-771 L811.093362,1291 L810.093362,1291 Z M869.490332,-771 L870.490332,-771 L870.490332,1291 L869.490332,1291 Z M930.301515,-771 L931.301515,-771 L931.301515,1291 L930.301515,1291 Z M989.698485,-771 L990.698485,-771 L990.698485,1291 L989.698485,1291 Z M1050.50967,-771 L1051.50967,-771 L1051.50967,1291 L1050.50967,1291 Z M1109.90664,-771 L1110.90664,-771 L1110.90664,1291 L1109.90664,1291 Z M1169.30361,-771 L1170.30361,-771 L1170.30361,1291 L1169.30361,1291 Z M1230.11479,-771 L1231.11479,-771 L1231.11479,1291 L1230.11479,1291 Z M1289.51176,-771 L1290.51176,-771 L1290.51176,1291 L1289.51176,1291 Z M1350.32294,-771 L1351.32294,-771 L1351.32294,1291 L1350.32294,1291 Z M1409.71991,-771 L1410.71991,-771 L1410.71991,1291 L1409.71991,1291 Z M1470.5311,-771 L1471.5311,-771 L1471.5311,1291 L1470.5311,1291 Z M1529.92807,-771 L1530.92807,-771 L1530.92807,1291 L1529.92807,1291 Z M1589.32504,-771 L1590.32504,-771 L1590.32504,1291 L1589.32504,1291 Z M1650.13622,-771 L1651.13622,-771 L1651.13622,1291 L1650.13622,1291 Z M1709.53319,-771 L1710.53319,-771 L1710.53319,1291 L1709.53319,1291 Z M1770.34437,-771 L1771.34437,-771 L1771.34437,1291 L1770.34437,1291 Z M1829.74134,-771 L1830.74134,-771 L1830.74134,1291 L1829.74134,1291 Z M1890.55252,-771 L1891.55252,-771 L1891.55252,1291 L1890.55252,1291 Z" id="形状结合" fill-opacity="0.18" fill="#FFFFFF" transform="translate(960.500000, 260.000000) rotate(45.000000) translate(-960.500000, -260.000000) "></path>
        <path d="M29.447476,-771 L30.447476,-771 L30.447476,1291 L29.447476,1291 Z M90.2586591,-771 L91.2586591,-771 L91.2586591,1291 L90.2586591,1291 Z M149.655629,-771 L150.655629,-771 L150.655629,1291 L149.655629,1291 Z M210.466812,-771 L211.466812,-771 L211.466812,1291 L210.466812,1291 Z M269.863782,-771 L270.863782,-771 L270.863782,1291 L269.863782,1291 Z M330.674965,-771 L331.674965,-771 L331.674965,1291 L330.674965,1291 Z M390.071934,-771 L391.071934,-771 L391.071934,1291 L390.071934,1291 Z M449.468904,-771 L450.468904,-771 L450.468904,1291 L449.468904,1291 Z M510.280087,-771 L511.280087,-771 L511.280087,1291 L510.280087,1291 Z M569.677057,-771 L570.677057,-771 L570.677057,1291 L569.677057,1291 Z M630.48824,-771 L631.48824,-771 L631.48824,1291 L630.48824,1291 Z M689.88521,-771 L690.88521,-771 L690.88521,1291 L689.88521,1291 Z M750.696393,-771 L751.696393,-771 L751.696393,1291 L750.696393,1291 Z M810.093362,-771 L811.093362,-771 L811.093362,1291 L810.093362,1291 Z M869.490332,-771 L870.490332,-771 L870.490332,1291 L869.490332,1291 Z M930.301515,-771 L931.301515,-771 L931.301515,1291 L930.301515,1291 Z M989.698485,-771 L990.698485,-771 L990.698485,1291 L989.698485,1291 Z M1050.50967,-771 L1051.50967,-771 L1051.50967,1291 L1050.50967,1291 Z M1109.90664,-771 L1110.90664,-771 L1110.90664,1291 L1109.90664,1291 Z M1169.30361,-771 L1170.30361,-771 L1170.30361,1291 L1169.30361,1291 Z M1230.11479,-771 L1231.11479,-771 L1231.11479,1291 L1230.11479,1291 Z M1289.51176,-771 L1290.51176,-771 L1290.51176,1291 L1289.51176,1291 Z M1350.32294,-771 L1351.32294,-771 L1351.32294,1291 L1350.32294,1291 Z M1409.71991,-771 L1410.71991,-771 L1410.71991,1291 L1409.71991,1291 Z M1470.5311,-771 L1471.5311,-771 L1471.5311,1291 L1470.5311,1291 Z M1529.92807,-771 L1530.92807,-771 L1530.92807,1291 L1529.92807,1291 Z M1589.32504,-771 L1590.32504,-771 L1590.32504,1291 L1589.32504,1291 Z M1650.13622,-771 L1651.13622,-771 L1651.13622,1291 L1650.13622,1291 Z M1709.53319,-771 L1710.53319,-771 L1710.53319,1291 L1709.53319,1291 Z M1770.34437,-771 L1771.34437,-771 L1771.34437,1291 L1770.34437,1291 Z M1829.74134,-771 L1830.74134,-771 L1830.74134,1291 L1829.74134,1291 Z M1890.55252,-771 L1891.55252,-771 L1891.55252,1291 L1890.55252,1291 Z" id="形状结合备份" fill-opacity="0.1" fill="#FFFFFF" transform="translate(960.500000, 260.000000) rotate(-45.000000) translate(-960.500000, -260.000000) "></path>
    </g>
</svg>