<?xml version="1.0" encoding="UTF-8"?>
<svg width="50px" height="50px" viewBox="0 0 50 50" version="1.1" xmlns="http://www.w3.org/2000/svg" xmlns:xlink="http://www.w3.org/1999/xlink">
    <title>blender</title>
    <g id="everweb" stroke="none" stroke-width="1" fill="none" fill-rule="evenodd">
        <g id="画板" transform="translate(-217.000000, -348.000000)" stroke="#FFFFFF">
            <g id="blender" transform="translate(217.000000, 348.000000)">
                <rect id="矩形" stroke-opacity="0.1" fill-opacity="0" fill="#FFFFFF" x="0.5" y="0.5" width="49" height="49"></rect>
                <g id="blender备份" transform="translate(7.407407, 10.740741)" stroke-linejoin="round">
                    <path d="M18.5230744,16.4446184 C18.5913585,15.2365424 19.1731479,14.1703932 20.0517977,13.4153502 C20.973649,12.6362692 22.1364435,12.2137248 23.3347943,12.2223518 C24.5963642,12.2223518 25.7555252,12.6753847 26.6163299,13.4153502 C27.4949797,14.1703932 28.0753081,15.2365424 28.1420965,16.4431318 C28.2088849,17.6859285 27.7191035,18.838154 26.8582639,19.6943861 C25.9101122,20.6157289 24.6458605,21.1239761 23.3348291,21.1108572 C22.0228709,21.1241387 20.7576185,20.6159257 19.808368,19.6943861 C18.9475632,18.838154 18.4577818,17.6859285 18.5245702,16.4446184 M10.8885188,18.6398028 C10.8974077,19.1051349 11.0455678,20.0061036 11.2677907,20.7114648 C11.7475182,22.2290086 12.5529606,23.6233724 13.6277627,24.7969956 C14.7804323,26.0646701 16.1873216,27.0750491 17.7566633,27.7622284 C19.4646369,28.5153354 21.3123716,28.8991229 23.178901,28.8886814 C25.0451339,28.8921416 26.8911875,28.5023295 28.5966942,27.7444459 C30.1649011,27.0507623 31.5704021,26.0361066 32.7226088,24.7658762 C33.7956672,23.5883864 34.6003807,22.1919193 35.0811571,20.6729476 C35.5434237,19.2012942 35.6699763,17.6447011 35.4515054,16.1176739 C35.2435067,14.6546975 34.7307304,13.2517053 33.9463622,11.9994956 C33.2197106,10.8346662 32.2904835,9.80934093 31.2026391,8.97202393 L31.2056253,8.97202393 L20.0974339,0.440866667 L20.0678158,0.418638535 C19.3389248,-0.141510404 18.113713,-0.138558231 17.3122524,0.421590709 C16.5018681,0.987678727 16.4100276,1.92570592 17.1300296,2.5184677 L17.1285366,2.51992642 L21.7596609,6.28835897 L7.64111369,6.30315457 L7.6218428,6.30315457 C6.45444364,6.30464802 5.33294739,7.07078924 5.11072454,8.03993581 C4.88259889,9.02537144 5.67367753,9.84336672 6.88850738,9.84781235 L6.88850738,9.85076452 L14.0440833,9.83596892 L1.273665,19.6415275 L1.22331763,19.678586 C0.0188697554,20.6002894 -0.369291073,22.135524 0.38918331,23.106164 C1.15956745,24.0945518 2.79662072,24.0960453 4.01440197,23.1120684 L10.9833107,17.4083296 C10.9833107,17.4083296 10.8810882,18.1789164 10.8899771,18.6397681 L10.8885188,18.6398028 Z M28.8137291,21.4036606 C27.3655062,22.8697512 25.3409965,23.7007156 23.1477893,23.7037037 C20.9530774,23.7096189 18.9270631,22.8845669 17.4788752,21.4214672 C16.795051,20.7391431 16.2674522,19.9181684 15.9321142,19.0146163 C15.3104162,17.2948289 15.4638177,15.3922616 16.3531406,13.7928227 C16.7904787,13.0113097 17.374897,12.3206418 18.0745827,11.7584154 C19.4809899,10.6187912 21.2710867,10.0029671 23.144815,10 C25.0200129,9.99701997 26.8101097,10.6083924 28.2180216,11.743565 C28.9346622,12.3237759 29.5169327,13.0107917 29.937959,13.7720251 C30.3737777,14.5520892 30.6393284,15.4146706 30.7173057,16.3035572 C30.7964232,17.214457 30.6746537,18.1315462 30.3604901,18.9908625 C30.0250959,19.895783 29.4981364,20.7185896 28.8152337,21.4036606" id="形状"></path>
                </g>
            </g>
        </g>
    </g>
</svg>