<?xml version="1.0" encoding="UTF-8"?>
<svg width="50px" height="50px" viewBox="0 0 50 50" version="1.1" xmlns="http://www.w3.org/2000/svg" xmlns:xlink="http://www.w3.org/1999/xlink">
    <title>null</title>
    <g id="everweb" stroke="none" stroke-width="1" fill="none" fill-rule="evenodd">
        <g id="画板" transform="translate(-622.000000, -258.000000)">
            <g id="null" transform="translate(622.024038, 258.000000)">
                <rect id="矩形" stroke-opacity="0.1" stroke="#FFFFFF" fill-opacity="0" fill="#FFFFFF" x="0.5" y="0.5" width="48.9759615" height="49"></rect>
                <g id="编组-25" transform="translate(11.000000, 10.000000)">
                    <path d="M15.8581388,0.479016805 L26.1418612,6.19130175 C27.2916815,6.82999082 28,8.01033691 28,9.28771505 L28,20.7122849 C28,21.9896631 27.2916815,23.1700092 26.1418612,23.8086982 L15.8581388,29.5209832 C14.7083185,30.1596723 13.2916815,30.1596723 12.1418612,29.5209832 L1.8581388,23.8086982 C0.708318508,23.1700092 0,21.9896631 0,20.7122849 L0,9.28771505 C0,8.01033691 0.708318508,6.82999082 1.8581388,6.19130175 L12.1418612,0.479016805 C13.2916815,-0.159672268 14.7083185,-0.159672268 15.8581388,0.479016805 Z" id="多边形"></path>
                    <path d="M15.8581388,0.479016805 L26.1418612,6.19130175 C27.2916815,6.82999082 28,8.01033691 28,9.28771505 L28,20.7122849 C28,21.9896631 27.2916815,23.1700092 26.1418612,23.8086982 L15.8581388,29.5209832 C14.7083185,30.1596723 13.2916815,30.1596723 12.1418612,29.5209832 L1.8581388,23.8086982 C0.708318508,23.1700092 0,21.9896631 0,20.7122849 L0,9.28771505 C0,8.01033691 0.708318508,6.82999082 1.8581388,6.19130175 L12.1418612,0.479016805 C13.2916815,-0.159672268 14.7083185,-0.159672268 15.8581388,0.479016805 Z" id="多边形" stroke="#FFFFFF" fill-rule="nonzero"></path>
                    <g id="编组-24" transform="translate(6.456332, 8.814867)" stroke="#FFFFFF">
                        <path d="M6.3977928,4.97970257 C6.99243105,4.63876506 7.72327744,4.63876506 8.31791569,4.97970257 L13.7800495,8.11143231 C14.0711354,8.27832722 14.2670167,8.54740807 14.3484028,8.84753667 C14.4431724,9.19701986 14.3826943,9.58860169 14.1365105,9.90996148 L8.18766531,12.8864711 C7.66269611,13.1364437 7.05301239,13.1364437 6.52804318,12.8864711 L1.01765447,10.2626112 C0.714708717,10.1183587 0.498912687,9.86496954 0.394916212,9.57190709 C0.273801358,9.23060498 0.304320881,8.83549372 0.525410706,8.49629489 Z" id="矩形" opacity="0.300000012"></path>
                        <path d="M6.3977928,2.47690149 C6.99243105,2.13596399 7.72327744,2.13596399 8.31791569,2.47690149 L13.7800495,5.60863124 C14.0711354,5.77552615 14.2670167,6.044607 14.3484028,6.34473559 C14.4431724,6.69421879 14.3826943,7.08580061 14.1365105,7.40716041 L8.18766531,10.3836701 C7.66269611,10.6336426 7.05301239,10.6336426 6.52804318,10.3836701 L1.01765447,7.75981008 C0.714708717,7.6155576 0.498912687,7.36216847 0.394916212,7.06910602 C0.273801358,6.7278039 0.304320881,6.33269265 0.525410706,5.99349382 Z" id="矩形备份-21" opacity="0.600000024"></path>
                        <path d="M6.3977928,-0.0258995808 C6.99243105,-0.366837089 7.72327744,-0.366837089 8.31791569,-0.0258995808 L13.7800495,3.10583017 C14.0711354,3.27272507 14.2670167,3.54180592 14.3484028,3.84193452 C14.4431724,4.19141772 14.3826943,4.58299954 14.1365105,4.90435933 L8.18766531,7.880869 C7.66269611,8.13084151 7.05301239,8.13084151 6.52804318,7.880869 L1.01765447,5.25700901 C0.714708717,5.11275653 0.498912687,4.85936739 0.394916212,4.56630494 C0.273801358,4.22500283 0.304320881,3.82989157 0.525410706,3.49069274 Z" id="矩形备份-13"></path>
                    </g>
                </g>
            </g>
        </g>
    </g>
</svg>