<?xml version="1.0" encoding="UTF-8"?>
<svg width="1400px" height="267px" viewBox="0 0 1400 267" version="1.1" xmlns="http://www.w3.org/2000/svg" xmlns:xlink="http://www.w3.org/1999/xlink">
    <title>编组 16</title>
    <g id="everweb" stroke="none" stroke-width="1" fill="none" fill-rule="evenodd" fill-opacity="0">
        <g id="关于我备份" transform="translate(-260.000000, -2072.000000)" fill="#D8D8D8" stroke="#EEEEEE">
            <g id="编组-16" transform="translate(260.000000, 2072.000000)">
                <rect id="矩形" x="0.5" y="0.5" width="1399" height="266"></rect>
                <path d="M1287.5,141.5 L1287.5,252.5 L1206.5,252.5 L1206.5,141.5 L1287.5,141.5 Z" id="矩形备份-3"></path>
                <rect id="矩形" x="14.5" y="14.5" width="95" height="238"></rect>
                <path d="M219.5,14.5 L219.5,126.5 L124.5,126.5 L124.5,14.5 L219.5,14.5 Z" id="矩形备份-2"></path>
                <path d="M700.384573,14.5 L650.593778,252.5 L555.615427,252.5 L605.406222,14.5 L700.384573,14.5 Z" id="矩形备份-8"></path>
                <path d="M809.384573,14.5 L759.593778,252.5 L664.615427,252.5 L714.406222,14.5 L809.384573,14.5 Z" id="矩形备份-9"></path>
                <path d="M868.5,14.5 L868.5,252.5 L773.615427,252.5 L823.406222,14.5 L868.5,14.5 Z" id="矩形备份-10"></path>
                <path d="M1385.5,14.5 L1385.5,252.5 L1290.61543,252.5 L1340.40622,14.5 L1385.5,14.5 Z" id="矩形备份-11"></path>
                <path d="M913.5,184.57735 L942.011851,201.038675 L942.011851,233.961325 L913.5,250.42265 L884.988149,233.961325 L884.988149,201.038675 L913.5,184.57735 Z" id="多边形"></path>
                <path d="M913.5,99.5773503 L942.011851,116.038675 L942.011851,148.961325 L913.5,165.42265 L884.988149,148.961325 L884.988149,116.038675 L913.5,99.5773503 Z" id="多边形备份"></path>
                <path d="M913.5,14.5773503 L942.011851,31.0386751 L942.011851,63.9613249 L913.5,80.4226497 L884.988149,63.9613249 L884.988149,31.0386751 L913.5,14.5773503 Z" id="多边形备份-2"></path>
                <path d="M1152.5,184.57735 L1181.01185,201.038675 L1181.01185,233.961325 L1152.5,250.42265 L1123.98815,233.961325 L1123.98815,201.038675 L1152.5,184.57735 Z" id="多边形备份-7"></path>
                <path d="M1152.5,99.5773503 L1181.01185,116.038675 L1181.01185,148.961325 L1152.5,165.42265 L1123.98815,148.961325 L1123.98815,116.038675 L1152.5,99.5773503 Z" id="多边形备份-6"></path>
                <path d="M1152.5,14.5773503 L1181.01185,31.0386751 L1181.01185,63.9613249 L1152.5,80.4226497 L1123.98815,63.9613249 L1123.98815,31.0386751 L1152.5,14.5773503 Z" id="多边形备份-5"></path>
                <rect id="矩形备份-5" x="242.5" y="14.5" width="95" height="95" rx="47.5"></rect>
                <rect id="矩形备份-12" x="1192.5" y="14.5" width="109" height="109" rx="54.5"></rect>
                <rect id="矩形备份-6" x="242.5" y="157.5" width="95" height="95" rx="47.5"></rect>
                <rect id="矩形备份-7" x="510.5" y="220.5" width="32" height="32" rx="16"></rect>
                <path d="M252,117.129776 L256.958035,127.175851 L268.044537,128.786814 L260.022268,136.606593 L261.916069,147.648298 L252,142.435112 L242.083931,147.648298 L243.977732,136.606593 L235.955463,128.786814 L247.041965,127.175851 L252,117.129776 Z" id="星形"></path>
                <path d="M298,117.129776 L302.958035,127.175851 L314.044537,128.786814 L306.022268,136.606593 L307.916069,147.648298 L298,142.435112 L288.083931,147.648298 L289.977732,136.606593 L281.955463,128.786814 L293.041965,127.175851 L298,117.129776 Z" id="星形备份"></path>
                <path d="M344,117.129776 L348.958035,127.175851 L360.044537,128.786814 L352.022268,136.606593 L353.916069,147.648298 L344,142.435112 L334.083931,147.648298 L335.977732,136.606593 L327.955463,128.786814 L339.041965,127.175851 L344,117.129776 Z" id="星形备份-2"></path>
                <path d="M426.5,16.4185841 L476.383312,252.5 L376.616688,252.5 L426.5,16.4185841 Z" id="三角形"></path>
                <path d="M490.5,16.4185841 L540.383312,252.5 L440.616688,252.5 L490.5,16.4185841 Z" id="三角形备份" transform="translate(490.500000, 133.500000) scale(1, -1) translate(-490.500000, -133.500000) "></path>
                <path d="M219.5,141.5 L219.5,252.5 L124.5,252.5 L124.5,141.5 L219.5,141.5 Z" id="矩形备份-3"></path>
                <path d="M1003.5,163.618034 L1049.98951,197.394642 L1032.2321,252.046341 L974.767901,252.046341 L957.010488,197.394642 L1003.5,163.618034 Z" id="多边形"></path>
                <path d="M1031.53754,13.4582376 L1050.24606,67.7917037 L1004.35311,102.374521 L957.281193,69.4144115 L974.082098,14.4611261 L1031.53754,13.4582376 Z" id="多边形备份-3"></path>
                <path d="M1058.5,85.5773503 L1100.86826,110.038675 L1100.86826,158.961325 L1058.5,183.42265 L1016.13174,158.961325 L1016.13174,110.038675 L1058.5,85.5773503 Z" id="多边形备份-4" transform="translate(1058.500000, 134.500000) rotate(35.000000) translate(-1058.500000, -134.500000) "></path>
                <path d="M978,111.118034 L997.190983,149.5 L958.809017,149.5 L978,111.118034 Z" id="三角形"></path>
                <path d="M1085,24.118034 L1104.19098,62.5 L1065.80902,62.5 L1085,24.118034 Z" id="三角形备份-2"></path>
                <path d="M1085,207.118034 L1104.19098,245.5 L1065.80902,245.5 L1085,207.118034 Z" id="三角形备份-3"></path>
            </g>
        </g>
    </g>
</svg>