<?xml version="1.0" encoding="UTF-8"?>
<svg width="50px" height="50px" viewBox="0 0 50 50" version="1.1" xmlns="http://www.w3.org/2000/svg" xmlns:xlink="http://www.w3.org/1999/xlink">
    <title>figma</title>
    <g id="everweb" stroke="none" stroke-width="1" fill="none" fill-rule="evenodd">
        <g id="画板" transform="translate(-284.000000, -168.000000)" stroke="#FFFFFF">
            <g id="figma" transform="translate(284.003566, 168.000000)">
                <rect id="矩形" stroke-opacity="0.1" fill-opacity="0" fill="#FFFFFF" x="0.5" y="0.5" width="48.9750357" height="49"></rect>
                <g id="Figma" transform="translate(13.326676, 7.777778)">
                    <path d="M11.4757489,17.2222222 C11.4757489,14.056767 14.0497487,11.4814815 17.2136234,11.4814815 C20.3774981,11.4814815 22.9514979,14.056767 22.9514979,17.2222222 C22.9514979,20.3876774 20.3774981,22.962963 17.2136234,22.962963 C14.0497487,22.962963 11.4757489,20.3876774 11.4757489,17.2222222 Z" id="路径"></path>
                    <path d="M0,28.7037037 C0,25.5382485 2.58608427,22.962963 5.76481284,22.962963 L11.4757489,22.962963 L11.4757489,28.7037037 C11.4757489,31.8691589 8.88966466,34.4444444 5.71093609,34.4444444 C2.53220751,34.4444444 0,31.8691589 0,28.7037037 Z" id="路径"></path>
                    <path d="M11.4757489,0 L11.4757489,11.4814815 L17.2136234,11.4814815 C20.3774981,11.4814815 22.9514979,8.89410537 22.9514979,5.71378891 C22.9514979,2.53347244 20.3774981,0 17.2136234,0 L11.4757489,0 Z" id="路径"></path>
                    <path d="M0,5.74074074 C0,8.90619592 2.58608427,11.4814815 5.76481284,11.4814815 L11.4757489,11.4814815 L11.4757489,0 L5.71093609,0 C2.53220751,0 0,2.57528557 0,5.74074074 Z" id="路径"></path>
                    <path d="M0,17.2222222 C0,20.3876774 2.58608427,22.962963 5.76481284,22.962963 L11.4757489,22.962963 L11.4757489,11.4814815 L5.71093609,11.4814815 C2.53220751,11.4814815 0,14.056767 0,17.2222222 Z" id="路径"></path>
                </g>
            </g>
        </g>
    </g>
</svg>