<?xml version="1.0" encoding="UTF-8"?>
<svg width="50px" height="50px" viewBox="0 0 50 50" version="1.1" xmlns="http://www.w3.org/2000/svg" xmlns:xlink="http://www.w3.org/1999/xlink">
    <title>flinto</title>
    <g id="everweb" stroke="none" stroke-width="1" fill="none" fill-rule="evenodd">
        <g id="画板" transform="translate(-485.000000, -258.000000)" stroke="#FFFFFF">
            <g id="flinto" transform="translate(485.019231, 258.000000)">
                <path d="M49.4759615,0.5 L49.4759615,49.5 L0.5,49.5 L0.5,0.5 L49.4759615,0.5 Z" id="路径" stroke-opacity="0.1" fill-opacity="0" fill="#FFFFFF"></path>
                <path d="M26.2836538,7.03703704 L26.2834049,10.4510425 C29.8457118,10.9736299 32.5769231,13.9719812 32.5769231,17.5925926 C32.5769231,19.4483217 31.8594251,21.1405812 30.680275,22.4198014 L33.73,28.518037 L40.3509615,28.5185185 L40.3509615,31.1111111 L35.026,31.111037 L37.7591923,36.577037 L37.7591923,42.670037 L31.978,31.111037 L26.283,31.111037 L26.2836538,32.5925926 L23.6923077,32.5925926 L23.692,31.111037 L18.002,31.111037 L12.2161923,42.694037 L12.2161923,36.572037 L14.943,31.111037 L9.99519231,31.1111111 L9.99519231,28.5185185 L16.238,28.518037 L19.4226107,22.1421529 C18.3887876,20.9002913 17.7692308,19.3170197 17.7692308,17.5925926 C17.7692308,14.0984711 20.3129401,11.1838905 23.6925143,10.5148001 L23.6923077,7.03703704 L26.2836538,7.03703704 Z M21.5954635,23.9172009 L19.297,28.518037 L23.692,28.518037 L23.6923077,27.7777778 L26.2836538,27.7777778 L26.283,28.518037 L30.681,28.518037 L28.4552596,24.0681622 C27.4660941,24.5461451 26.3517501,24.8148148 25.1730769,24.8148148 C23.875518,24.8148148 22.6559197,24.4892136 21.5954635,23.9172009 Z M24.9879808,12.962963 C22.4323362,12.962963 20.3605769,14.9528085 20.3605769,17.4074074 C20.3605769,19.8620063 22.4323362,21.8518519 24.9879808,21.8518519 C27.5436253,21.8518519 29.6153846,19.8620063 29.6153846,17.4074074 C29.6153846,14.9528085 27.5436253,12.962963 24.9879808,12.962963 Z" id="形状结合" stroke-linejoin="round"></path>
            </g>
        </g>
    </g>
</svg>