<?xml version="1.0" encoding="UTF-8"?>
<svg width="98px" height="32px" viewBox="0 0 98 32" version="1.1" xmlns="http://www.w3.org/2000/svg" xmlns:xlink="http://www.w3.org/1999/xlink">
    <title>编组</title>
    <g id="宣传页面" stroke="none" stroke-width="1" fill="none" fill-rule="evenodd">
        <g id="Apple-TV" transform="translate(-84.000000, -84.000000)">
            <g id="编组" transform="translate(84.000000, 84.000000)">
                <g id="logo" transform="translate(65.000000, 0.000000)" fill="#FFFFFF" fill-rule="nonzero">
                    <path d="M25.08,0 L0,32 L0,0 L25.08,0 Z M33,0 L33,32 L7.92,32 L33,0 Z" id="形状结合"></path>
                </g>
                <g id="编组-2备份-2" fill-rule="nonzero">
                    <polygon id="矩形" fill="#FFFFFF" points="32 2.25003431e-17 32 32 0 32 0 0"></polygon>
                    <path d="M23.2990336,18.9697095 C24.3292983,18.9697095 25.1644555,19.8049713 25.1644555,20.835236 C25.1644555,20.9124622 25.1596569,20.9896138 25.150092,21.0662454 L24.6561969,25.0232248 C24.6340853,25.2003781 24.4835034,25.3333333 24.3049754,25.3333333 L20.7930196,25.3333333 C20.5975402,25.3333333 20.4390729,25.174866 20.4390729,24.9793866 C20.4390729,24.9647341 20.4399827,24.9500958 20.4417972,24.9355561 L21.1088995,19.5899418 C21.1531165,19.235623 21.4542913,18.9697095 21.8113584,18.9697095 L23.2990336,18.9697095 Z M24.3560219,6.66666667 C25.4854583,6.66666667 26.4010473,7.58225573 26.4010473,8.71169208 C26.4010473,8.79475534 26.3959866,8.87774144 26.3858934,8.96018918 L25.3577907,17.3583408 C25.3143264,17.7133829 25.0128355,17.980216 24.6551429,17.980216 L20.1612617,17.980216 C19.7703029,17.980216 19.4533682,17.6632813 19.4533682,17.2723226 C19.4533682,17.2435699 19.45512,17.2148439 19.4586138,17.1863043 L19.7700452,14.6423489 C19.8135095,14.2873068 20.1150003,14.0204737 20.472693,14.0204737 L21.567998,14.0204737 C21.7468443,14.0204737 21.8975897,13.8870571 21.9193219,13.7095361 L22.2482383,11.0227516 C22.2719916,10.8287208 22.1339544,10.6521719 21.9399235,10.6284186 L21.9184589,10.6264521 L19.2801041,10.6257958 C19.1012578,10.6257958 18.9505123,10.7592123 18.9287802,10.9367334 L17.2044118,25.0223957 C17.1826797,25.1999168 17.0319342,25.3333333 16.8530879,25.3333333 L13.680965,25.3333333 C13.4854857,25.3333333 13.3270183,25.174866 13.3270183,24.9793866 C13.3270183,24.9650103 13.3278942,24.9506473 13.3296411,24.9363775 L15.4900912,7.28854186 C15.5335555,6.93349976 15.8350463,6.66666667 16.192739,6.66666667 L24.3560219,6.66666667 Z M13.0165121,16.5834465 L12.8386303,17.8316035 C12.7889139,18.180452 12.4901915,18.4396202 12.1378181,18.4396202 L11.0249491,18.4396202 C10.6726781,18.4396202 10.3740098,18.6986417 10.324175,19.0473699 L9.46930769,25.0294585 C9.44439028,25.2038226 9.29505613,25.3333333 9.11892065,25.3333333 L5.74129956,25.3333333 C5.54582019,25.3333333 5.38735285,25.174866 5.38735285,24.9793866 C5.38735285,24.9626778 5.38853602,24.9459898 5.39089349,24.9294481 L6.75821577,15.3352891 C6.80793229,14.9864407 7.10665464,14.7272727 7.45902792,14.7272727 L11.4061167,14.7272727 C12.3045002,14.7272727 13.032784,15.4555565 13.032784,16.3539401 C13.032784,16.4307304 13.0273464,16.5074243 13.0165121,16.5834465 Z" id="形状结合" fill="#080B2C"></path>
                </g>
                <rect id="矩形" fill-opacity="0.2" fill="#FFFFFF" x="48" y="0" width="1" height="32"></rect>
            </g>
        </g>
    </g>
</svg>