<?xml version="1.0" encoding="UTF-8"?>
<svg width="34px" height="32px" viewBox="0 0 34 32" version="1.1" xmlns="http://www.w3.org/2000/svg" xmlns:xlink="http://www.w3.org/1999/xlink">
    <title>icon-yuque</title>
    <g id="everweb" stroke="none" stroke-width="1" fill="none" fill-rule="evenodd">
        <g id="关于我备份" transform="translate(-348.000000, -7578.000000)" fill="#CCE4FF" fill-rule="nonzero" stroke="#003CA3" stroke-width="2.22133333">
            <path d="M368.329607,7579.88404 C371.290564,7580.02586 373.326885,7580.4869 374.730194,7581.02284 C376.689657,7581.7712 377.565081,7582.68106 377.963944,7583.30858 L381.883179,7583.59609 L379.512254,7585.37527 C378.953139,7585.79484 378.568219,7586.31541 378.341535,7586.84499 C378.1092,7587.38777 378.03519,7587.94039 378.143753,7588.37307 C378.220011,7588.677 378.343583,7588.93625 378.474958,7589.2113 C379.013194,7590.33593 379.485862,7591.40672 379.563371,7593.56042 C379.652651,7596.04119 378.61552,7598.40307 376.894877,7600.13708 C375.308166,7601.73611 373.14679,7602.7944 370.789662,7602.92757 C367.844214,7606.0693 362.372692,7609.45624 351.246927,7607.57522 C349.405275,7605.84912 349.736277,7605.42451 350.113967,7605.08886 L350.189498,7605.02256 C350.239426,7604.97867 350.287666,7604.93492 350.329176,7604.88844 C350.851038,7604.30416 351.605429,7603.45513 352.512635,7602.43412 C353.828794,7600.95285 355.466189,7599.11005 357.176676,7597.19427 L363.217309,7590.32919 L363.903185,7589.55132 C365.333751,7587.903 366.146007,7586.89613 366.715701,7585.74987 C367.180323,7584.37084 366.68239,7583.33873 366.168808,7582.70793 C365.698572,7582.12729 365.637413,7581.53761 365.73081,7581.10489 C365.782678,7580.86457 365.897934,7580.59982 366.104565,7580.35452 Z" id="icon-yuque"></path>
        </g>
    </g>
</svg>