<?xml version="1.0" encoding="UTF-8"?>
<svg width="284px" height="362px" viewBox="0 0 284 362" version="1.1" xmlns="http://www.w3.org/2000/svg" xmlns:xlink="http://www.w3.org/1999/xlink">
    <title>icon</title>
    <g id="页面-2" stroke="none" stroke-width="1" fill="none" fill-rule="evenodd">
        <g id="HY&amp;DW备份" transform="translate(-1277.000000, -934.000000)">
            <g id="编组-2" transform="translate(360.000000, 935.000000)">
                <g id="icon" transform="translate(918.000000, 0.000000)">
                    <path d="M251.233378,-0.5 C262.073201,-0.5 265.996956,0.646324102 269.957948,2.76468585 C273.957482,4.90366013 277.09634,8.04251795 279.235314,12.0420521 C281.353676,16.0030442 282.5,19.9267989 282.5,30.7666224 L282.5,329.233378 C282.5,340.073201 281.353676,343.996956 279.235314,347.957948 C277.09634,351.957482 273.957482,355.09634 269.957948,357.235314 C265.996956,359.353676 262.073201,360.5 251.233378,360.5 L30.7666224,360.5 C19.9267989,360.5 16.0030442,359.353676 12.0420521,357.235314 C8.04251795,355.09634 4.90366013,351.957482 2.76468585,347.957948 C0.681641585,344.062994 -0.461455455,340.203924 -0.499040674,329.771514 L-0.5,30.7666224 C-0.5,19.9267989 0.646324102,16.0030442 2.76468585,12.0420521 C4.90366013,8.04251795 8.04251795,4.90366013 12.0420521,2.76468585 C15.9370063,0.681641585 19.7960764,-0.461455455 30.2284859,-0.499040674 Z" id="矩形备份-55" stroke-opacity="0.19140625" stroke="#FFFFFF" fill-opacity="0.368963068" fill="#1A1A47"></path>
                    <g id="编组-18" transform="translate(30.000000, 106.000000)">
                        <path d="M20.5110816,-8.28672246e-16 L43.4889184,8.28672246e-16 C50.6210683,-4.81482439e-16 53.2073582,0.742604889 55.8147656,2.13706163 C58.422173,3.53151837 60.4684816,5.57782696 61.8629384,8.18523437 C63.2573951,10.7926418 64,13.3789317 64,20.5110816 L64,43.4889184 C64,50.6210683 63.2573951,53.2073582 61.8629384,55.8147656 C60.4684816,58.422173 58.422173,60.4684816 55.8147656,61.8629384 C53.2073582,63.2573951 50.6210683,64 43.4889184,64 L20.5110816,64 C13.3789317,64 10.7926418,63.2573951 8.18523437,61.8629384 C5.57782696,60.4684816 3.53151837,58.422173 2.13706163,55.8147656 C0.742604889,53.2073582 3.20988293e-16,50.6210683 -5.52448164e-16,43.4889184 L5.52448164e-16,20.5110816 C-3.20988293e-16,13.3789317 0.742604889,10.7926418 2.13706163,8.18523437 C3.53151837,5.57782696 5.57782696,3.53151837 8.18523437,2.13706163 C10.7926418,0.742604889 13.3789317,4.81482439e-16 20.5110816,-8.28672246e-16 Z" id="矩形" fill="#FF007E"></path>
                        <g id="discover" transform="translate(16.000000, 16.000000)" fill="#FFFFFF" fill-rule="nonzero">
                            <path d="M30.3724097,1.62733386 C28.9799794,0.23512291 27.011371,-0.30895953 25.1067824,0.171113211 L9.4219991,4.09170727 C6.78118297,4.74780668 4.7485548,6.79611705 4.092352,9.4205147 L0.171140174,25.1189574 C-0.309008214,27.0232459 0.235159959,28.9915442 1.62759028,30.3837551 C2.68391673,31.4239127 4.07634706,32 5.51679222,32 C5.96493071,32 6.42907416,31.9519927 6.87721265,31.8239733 L22.5780009,27.9033793 C25.2028121,27.2472799 27.2514452,25.2149719 27.907648,22.5745718 L31.8288598,6.87612917 C32.3090082,4.97184063 31.76484,3.00354239 30.3724097,1.62733386 Z" id="路径" opacity="0.4"></path>
                            <path d="M16.0004481,22.206036 C19.4301481,22.206036 22.2103673,19.4262548 22.2103673,15.9970952 C22.2103673,12.5680316 19.4301481,9.78820242 16.0004481,9.78820242 C12.5707962,9.78820242 9.79051299,12.5680316 9.79051299,15.9970952 C9.79051299,19.4262548 12.5707962,22.206036 16.0004481,22.206036 Z" id="路径"></path>
                        </g>
                    </g>
                    <text id="基于通用设计的-icon组件库" font-family="PingFangSC-Semibold, PingFang SC" font-size="22" font-weight="500" fill="#FFFFFF">
                        <tspan x="30" y="53">基于通用设计的</tspan>
                        <tspan x="30" y="83">icon组件库</tspan>
                    </text>
                    <g id="编组-14" transform="translate(226.000000, 304.000000)" fill="#FFFFFF" fill-opacity="0.177802666">
                        <circle id="椭圆形" cx="20" cy="20" r="20"></circle>
                    </g>
                </g>
            </g>
        </g>
    </g>
</svg>