<?xml version="1.0" encoding="UTF-8"?>
<svg width="33px" height="32px" viewBox="0 0 33 32" version="1.1" xmlns="http://www.w3.org/2000/svg" xmlns:xlink="http://www.w3.org/1999/xlink">
    <title>icon-phone</title>
    <g id="everweb" stroke="none" stroke-width="1" fill="none" fill-rule="evenodd">
        <g id="关于我备份" transform="translate(-350.000000, -7404.000000)">
            <g id="icon-phone" transform="translate(352.000000, 7406.000000)">
                <path d="M28.7361821,11.8171409 C28.9363154,10.4746326 28.8706863,9.10022007 28.5392946,7.7786909 C28.1015821,6.03290757 27.2000321,4.3795909 25.8348029,3.01436174 C24.4695738,1.64914049 22.8162571,0.747653819 21.0705529,0.309909653 C19.7490238,-0.0214661806 18.3745321,-0.0870953472 17.0320238,0.113022153" id="路径" stroke="#003CA3" stroke-width="2.375" stroke-linecap="round"></path>
                <path d="M22.7274321,11.1813534 C22.9418154,9.74321174 22.4954738,8.22558674 21.3884071,7.11852007 C20.2812613,6.0114534 18.7636363,5.56503257 17.3255738,5.7794159" id="路径" stroke="#003CA3" stroke-width="2.375" stroke-linecap="round"></path>
                <path d="M7.04126959,2.46568132 C7.61649459,2.46568132 8.14643626,2.77761382 8.42557793,3.28051215 L10.3623904,6.76923674 C10.6159613,7.2260284 10.6278363,7.77853257 10.3942154,8.2458534 L8.52841543,11.9774534 C8.52841543,11.9774534 9.06912376,14.7573909 11.3320238,17.0202909 C13.5949238,19.2831909 16.3655196,19.8145576 16.3655196,19.8145576 L20.0965654,17.9490742 C20.5642029,17.7152159 21.1171029,17.7273284 21.5740529,17.9813742 L25.0726654,19.9264992 C25.5750571,20.2057992 25.8866571,20.7355034 25.8866571,21.3103326 L25.8866571,25.3268534 C25.8866571,27.3722826 23.9867363,28.8496117 22.0486571,28.1956159 C18.0682363,26.8525534 11.8895154,24.2953117 7.97329876,20.3790159 C4.05700293,16.4627992 1.49976126,10.2840784 0.156667093,6.30365757 C-0.497265407,4.3655784 0.980055843,2.46568132 3.02544543,2.46568132 L7.04126959,2.46568132 Z" id="路径" fill="#CCE4FF" fill-rule="nonzero"></path>
                <path d="M7.04126959,2.46568132 C7.61649459,2.46568132 8.14643626,2.77761382 8.42557793,3.28051215 L10.3623904,6.76923674 C10.6159613,7.2260284 10.6278363,7.77853257 10.3942154,8.2458534 L8.52841543,11.9774534 C8.52841543,11.9774534 9.06912376,14.7573909 11.3320238,17.0202909 C13.5949238,19.2831909 16.3655196,19.8145576 16.3655196,19.8145576 L20.0965654,17.9490742 C20.5642029,17.7152159 21.1171029,17.7273284 21.5740529,17.9813742 L25.0726654,19.9264992 C25.5750571,20.2057992 25.8866571,20.7355034 25.8866571,21.3103326 L25.8866571,25.3268534 C25.8866571,27.3722826 23.9867363,28.8496117 22.0486571,28.1956159 C18.0682363,26.8525534 11.8895154,24.2953117 7.97329876,20.3790159 C4.05700293,16.4627992 1.49976126,10.2840784 0.156667093,6.30365757 C-0.497265407,4.3655784 0.980055843,2.46568132 3.02544543,2.46568132 L7.04126959,2.46568132 Z" id="路径" stroke="#003CA3" stroke-width="2.375" fill-rule="nonzero"></path>
            </g>
        </g>
    </g>
</svg>