<?xml version="1.0" encoding="UTF-8"?>
<svg width="30px" height="34px" viewBox="0 0 30 34" version="1.1" xmlns="http://www.w3.org/2000/svg" xmlns:xlink="http://www.w3.org/1999/xlink">
    <title>icon-qq</title>
    <g id="everweb" stroke="none" stroke-width="1" fill="none" fill-rule="evenodd">
        <g id="关于我备份" transform="translate(-351.000000, -7532.000000)" fill="#CCE4FF" fill-rule="nonzero" stroke="#003CA3" stroke-width="2.38">
            <path d="M366.000063,7533.81 C369.381868,7533.81018 371.842573,7535.18429 373.490069,7537.39408 C375.189196,7539.67313 376.008057,7542.90921 375.95879,7546.53685 C376.097278,7546.88173 376.228862,7547.20774 376.354302,7547.51852 C377.094819,7549.35318 377.624573,7550.66958 378.096195,7552.1874 C378.600718,7553.8112 378.835667,7555.05801 378.92141,7555.97272 C378.985834,7556.66001 378.967461,7557.18194 378.915609,7557.55453 C377.858249,7558.79131 376.768724,7558.16483 375.817264,7557.41354 C375.508054,7558.35901 375.010261,7559.32899 374.306594,7560.22415 C374.585152,7560.36468 374.847072,7560.51794 375.061868,7560.67936 C375.461672,7560.97981 375.728593,7561.32209 375.864287,7561.6499 C375.638929,7563.43496 374.494989,7564.11531 372.028751,7564.17768 C369.927047,7564.23083 367.220741,7564.10021 366.000724,7563.97519 C364.780447,7564.10022 362.074351,7564.23083 359.97278,7564.17768 C357.726647,7564.12088 356.467289,7563.53567 356.247203,7563.16436 C356.100864,7562.91747 356.092132,7562.22211 356.40507,7561.19666 C356.559299,7560.9535 356.749963,7560.82166 356.938959,7560.6796 C357.153658,7560.51821 357.415497,7560.36497 357.693911,7560.2243 C357.134133,7559.51244 356.70462,7558.75331 356.396642,7557.99693 C355.55052,7558.99216 354.779776,7559.222 354.386367,7559.17445 C354.16481,7559.14767 353.847985,7559.00694 353.514659,7558.6914 C353.013299,7557.22915 353.011767,7556.68574 353.078617,7555.97265 C353.16437,7555.05793 353.399345,7553.81113 353.903912,7552.18741 C354.376063,7550.66776 354.902793,7549.35904 355.641525,7547.52903 C355.768069,7547.21555 355.900934,7546.88641 356.040926,7546.53737 C355.986516,7542.94664 356.794445,7539.69103 358.506785,7537.39425 C360.147198,7535.19394 362.602058,7533.81018 366.000063,7533.81 Z" id="icon-qq"></path>
        </g>
    </g>
</svg>