<?xml version="1.0" encoding="UTF-8"?>
<svg width="44px" height="44px" viewBox="0 0 44 44" version="1.1" xmlns="http://www.w3.org/2000/svg" xmlns:xlink="http://www.w3.org/1999/xlink">
    <title>编组 54</title>
    <g id="everweb" stroke="none" stroke-width="1" fill="none" fill-rule="evenodd">
        <g id="编组-54">
            <rect id="矩形" fill-opacity="0" fill="#FFFFFF" x="0" y="0" width="44" height="44"></rect>
            <path d="M44,0 L44,44 L0,44 L0,0 L44,0 Z M43,1 L1,1 L1,43 L43,43 L43,1 Z" id="矩形" fill="#000000" fill-rule="nonzero"></path>
            <g id="编组-53" transform="translate(22.000000, 22.000000) rotate(45.000000) translate(-22.000000, -22.000000) translate(10.000000, 10.000000)" fill="#000000" fill-rule="nonzero">
                <path d="M12.5,8.50884078e-14 L12.499,11.499 L24,11.5 L24,12.5 L12.499,12.499 L12.5,24 L11.5,24 L11.499,12.499 L-4.891681e-12,12.5 L-4.891681e-12,11.5 L11.499,11.499 L11.5,8.51496401e-14 L12.5,8.50884078e-14 Z" id="形状结合"></path>
            </g>
        </g>
    </g>
</svg>