<?xml version="1.0" encoding="UTF-8"?>
<svg width="1920px" height="393px" viewBox="0 0 1920 393" version="1.1" xmlns="http://www.w3.org/2000/svg" xmlns:xlink="http://www.w3.org/1999/xlink">
    <title>img_line</title>
    <defs>
        <linearGradient x1="50%" y1="10.2983016%" x2="50%" y2="100%" id="linearGradient-1">
            <stop stop-color="#00949E" stop-opacity="0.095197771" offset="0%"></stop>
            <stop stop-color="#D8D8D8" stop-opacity="0" offset="100%"></stop>
        </linearGradient>
        <linearGradient x1="18.2782595%" y1="50%" x2="0%" y2="50%" id="linearGradient-2">
            <stop stop-color="#000000" stop-opacity="0" offset="0%"></stop>
            <stop stop-color="#000000" offset="100%"></stop>
            <stop stop-color="#000000" offset="100%"></stop>
        </linearGradient>
        <linearGradient x1="100%" y1="50%" x2="81.0437863%" y2="50%" id="linearGradient-3">
            <stop stop-color="#000000" stop-opacity="0.5" offset="0%"></stop>
            <stop stop-color="#000000" stop-opacity="0" offset="100%"></stop>
        </linearGradient>
        <path d="M0,392.544889 L1920,392.544889 L1285.37004,125.609379 C1203.67831,91.2485309 1112.7197,85.7357016 1027.47609,109.978915 L880.046383,151.907803 C806.007516,172.964397 727.393229,171.640452 654.105376,148.102726 L479.733876,92.1001511 C315.017082,39.1983599 136.41576,115.04096 60.0936462,270.299315 L0,392.544889 L0,392.544889 Z" id="path-4"></path>
        <linearGradient x1="50%" y1="10.2983016%" x2="50%" y2="100%" id="linearGradient-5">
            <stop stop-color="#FF7000" stop-opacity="0.15463833" offset="0%"></stop>
            <stop stop-color="#D8D8D8" stop-opacity="0" offset="100%"></stop>
        </linearGradient>
        <path d="M0,392.544889 L1920,392.544889 L1285.37004,125.609379 C1203.67831,91.2485309 1112.7197,85.7357016 1027.47609,109.978915 L880.046383,151.907803 C806.007516,172.964397 727.393229,171.640452 654.105376,148.102726 L479.733876,92.1001511 C315.017082,39.1983599 136.41576,115.04096 60.0936462,270.299315 L0,392.544889 L0,392.544889 Z" id="path-6"></path>
    </defs>
    <g id="页面-2" stroke="none" stroke-width="1" fill="none" fill-rule="evenodd">
        <g id="HY&amp;DW备份" transform="translate(0.000000, -701.000000)">
            <g id="img_line" transform="translate(0.000000, 701.280289)">
                <g id="路径-3">
                    <use fill="url(#linearGradient-1)" xlink:href="#path-4"></use>
                    <use fill="url(#linearGradient-2)" xlink:href="#path-4"></use>
                    <use fill="url(#linearGradient-3)" xlink:href="#path-4"></use>
                </g>
                <g id="路径-3备份" transform="translate(960.000000, 196.272445) scale(-1, 1) translate(-960.000000, -196.272445) ">
                    <use fill="url(#linearGradient-5)" xlink:href="#path-6"></use>
                    <use fill="url(#linearGradient-2)" xlink:href="#path-6"></use>
                    <use fill="url(#linearGradient-3)" xlink:href="#path-6"></use>
                </g>
            </g>
        </g>
    </g>
</svg>