<?xml version="1.0" encoding="UTF-8"?>
<svg width="758px" height="69px" viewBox="0 0 758 69" version="1.1" xmlns="http://www.w3.org/2000/svg" xmlns:xlink="http://www.w3.org/1999/xlink">
    <title>ZHANGXIN</title>
    <g id="页面-2" stroke="none" stroke-width="1" fill="none" fill-rule="evenodd">
        <g id="首页" transform="translate(-581.000000, -511.000000)" fill-rule="nonzero">
            <g id="编组-8" transform="translate(500.000000, 417.000000)">
                <g id="ZHANGXIN" transform="translate(81.000000, 94.000000)">
                    <path d="M57.8,48.4 L56.7,67.2 C47.3,67 37.6,66.9 27.6,66.9 C22.6,66.9 17.8,66.9333333 13.2,67 C8.6,67.0666667 4.2,67.1666667 0,67.3 L0,66.3 L40.3,7.5 L17.2,8 C15.1333333,8.2 13.5166667,8.4 12.35,8.6 C11.1833333,8.8 10.1166667,9.23333333 9.15,9.9 C8.18333333,10.5666667 7.16666667,11.6 6.1,13 C5.03333333,14.4 3.6,16.4 1.8,19 L0,19 L6.4,0 L8.9,0 C8.63333333,0.866666667 8.5,1.63333333 8.5,2.3 C8.5,2.9 8.63333333,3.38333333 8.9,3.75 C9.16666667,4.11666667 9.7,4.38333333 10.5,4.55 C11.3,4.71666667 12.4166667,4.81666667 13.85,4.85 C15.2833333,4.88333333 17.1666667,4.9 19.5,4.9 L54.4,4.4 L54.4,6.4 L15,63.5 L30.5,63.5 C35.2333333,63.5 39.1166667,63.3166667 42.15,62.95 C45.1833333,62.5833333 47.6,61.8666667 49.4,60.8 C51.2,59.7333333 52.5333333,58.2 53.4,56.2 C54.2666667,54.2 54.9,51.6 55.3,48.4 L57.8,48.4 Z" id="路径" fill="#000000"></path>
                    <path d="M147.457143,10.7 C147.457143,9.3 147.290476,8.35 146.957143,7.85 C146.62381,7.35 146.057143,7.03333333 145.257143,6.9 L140.257143,6.3 L140.257143,4.1 C141.52381,4.23333333 143.37381,4.33333333 145.807143,4.4 C148.240476,4.46666667 150.890476,4.5 153.757143,4.5 C156.62381,4.5 159.27381,4.46666667 161.707143,4.4 C164.140476,4.33333333 165.957143,4.23333333 167.157143,4.1 L167.157143,6.3 L160.357143,7.3 C159.490476,7.43333333 158.92381,7.73333333 158.657143,8.2 C158.390476,8.66666667 158.257143,9.53333333 158.257143,10.8 L158.257143,59.5 C158.257143,60.9666667 158.407143,61.9666667 158.707143,62.5 C159.007143,63.0333333 159.757143,63.4333333 160.957143,63.7 L168.357143,65.1 L168.357143,67.3 C166.690476,67.1666667 164.57381,67.0666667 162.007143,67 C159.440476,66.9333333 156.790476,66.9 154.057143,66.9 C151.390476,66.9 148.740476,66.9333333 146.107143,67 C143.47381,67.0666667 141.290476,67.1666667 139.557143,67.3 L139.557143,65.1 L145.457143,64.1 C146.257143,63.9666667 146.790476,63.5666667 147.057143,62.9 C147.32381,62.2333333 147.457143,61.1 147.457143,59.5 L147.457143,37.4 L114.557143,37.4 L114.557143,59.5 C114.557143,61.1666667 114.690476,62.3166667 114.957143,62.95 C115.22381,63.5833333 115.790476,63.9666667 116.657143,64.1 L122.557143,65.1 L122.557143,67.3 C120.82381,67.1666667 118.640476,67.0666667 116.007143,67 C113.37381,66.9333333 110.690476,66.9 107.957143,66.9 C105.290476,66.9 102.67381,66.9333333 100.107143,67 C97.5404762,67.0666667 95.4238095,67.1666667 93.7571429,67.3 L93.7571429,65.1 L101.157143,63.7 C102.22381,63.5 102.92381,63.1 103.257143,62.5 C103.590476,61.9 103.757143,60.9 103.757143,59.5 L103.757143,10.7 C103.757143,9.3 103.590476,8.35 103.257143,7.85 C102.92381,7.35 102.357143,7.03333333 101.557143,6.9 L96.5571429,6.3 L96.5571429,4.1 C97.8238095,4.23333333 99.6904762,4.33333333 102.157143,4.4 C104.62381,4.46666667 107.357143,4.5 110.357143,4.5 C113.357143,4.5 116.07381,4.46666667 118.507143,4.4 C120.940476,4.33333333 122.757143,4.23333333 123.957143,4.1 L123.957143,6.3 L116.657143,7.3 C115.790476,7.43333333 115.22381,7.75 114.957143,8.25 C114.690476,8.75 114.557143,9.6 114.557143,10.8 L114.557143,33.5 L147.457143,33.5 L147.457143,10.7 Z" id="路径" fill="#000000"></path>
                    <path d="M223.214286,39.9 L215.514286,60.9 C215.180952,61.9666667 215.114286,62.75 215.314286,63.25 C215.514286,63.75 216.514286,64.0666667 218.314286,64.2 L225.014286,64.7 L225.014286,67.1 C224.347619,67.0333333 222.997619,66.9833333 220.964286,66.95 C218.930952,66.9166667 216.180952,66.9 212.714286,66.9 C209.247619,66.9 206.497619,66.9166667 204.464286,66.95 C202.430952,66.9833333 201.080952,67.0333333 200.414286,67.1 L200.414286,64.7 L206.714286,64.2 C208.914286,64 210.447619,62.7666667 211.314286,60.5 L234.314286,0.9 L238.414286,0.9 L260.514286,59.8 C260.980952,60.9333333 261.414286,61.7 261.814286,62.1 C262.214286,62.5 262.947619,62.8666667 264.014286,63.2 L269.514286,64.9 L269.514286,67.2 C268.247619,67.1333333 266.530952,67.0666667 264.364286,67 C262.197619,66.9333333 259.847619,66.9 257.314286,66.9 L250.214286,66.9 C245.814286,66.9 242.114286,67 239.114286,67.2 L239.114286,64.9 L245.614286,63.9 C246.547619,63.7666667 247.280952,63.6166667 247.814286,63.45 C248.347619,63.2833333 248.697619,63.05 248.864286,62.75 C249.030952,62.45 249.080952,62.0833333 249.014286,61.65 C248.947619,61.2166667 248.780952,60.6666667 248.514286,60 L241.114286,39.9 L223.214286,39.9 Z M239.714286,36.3 L232.514286,14.8 L224.614286,36.3 L239.714286,36.3 Z" id="形状" fill="#000000"></path>
                    <path d="M316.371429,59.4 C316.371429,61.0666667 316.571429,62.1833333 316.971429,62.75 C317.371429,63.3166667 318.204762,63.6666667 319.471429,63.8 L327.871429,64.8 L327.871429,67.2 C323.871429,67 319.871429,66.9 315.871429,66.9 C311.871429,66.9 307.238095,67 301.971429,67.2 L301.971429,64.8 L307.471429,63.8 C309.738095,63.4 311.188095,62.9333333 311.821429,62.4 C312.454762,61.8666667 312.771429,60.8666667 312.771429,59.4 L312.771429,17.7 C312.771429,14.6333333 312.438095,12.35 311.771429,10.85 C311.104762,9.35 309.838095,8.43333333 307.971429,8.1 L302.071429,7.2 L302.071429,4.4 L315.471429,4.4 C316.671429,4.4 317.654762,4.41666667 318.421429,4.45 C319.188095,4.48333333 319.838095,4.58333333 320.371429,4.75 C320.904762,4.91666667 321.421429,5.16666667 321.921429,5.5 C322.421429,5.83333333 322.971429,6.33333333 323.571429,7 L363.871429,50.2 L363.471429,12.6 C363.471429,10.8 363.188095,9.56666667 362.621429,8.9 C362.054762,8.23333333 361.138095,7.83333333 359.871429,7.7 L351.971429,6.7 L351.971429,4.1 C353.838095,4.3 357.438095,4.4 362.771429,4.4 C365.438095,4.4 367.838095,4.38333333 369.971429,4.35 C372.104762,4.31666667 373.638095,4.23333333 374.571429,4.1 L374.571429,6.7 L369.371429,7.1 C368.238095,7.23333333 367.538095,7.71666667 367.271429,8.55 C367.004762,9.38333333 366.904762,10.7333333 366.971429,12.6 L367.371429,68.2 L364.971429,68.2 L316.371429,16.3 L316.371429,59.4 Z" id="路径" fill="#000000"></path>
                    <path d="M483.728571,40.8 L478.328571,41.5 C477.195238,41.7 476.411905,41.9833333 475.978571,42.35 C475.545238,42.7166667 475.328571,43.3666667 475.328571,44.3 L475.328571,55.4 C475.328571,57.2666667 475.295238,58.7166667 475.228571,59.75 C475.161905,60.7833333 474.928571,61.6166667 474.528571,62.25 C474.128571,62.8833333 473.528571,63.4 472.728571,63.8 C471.928571,64.2 470.828571,64.6666667 469.428571,65.2 C468.095238,65.7333333 466.611905,66.2 464.978571,66.6 C463.345238,67 461.611905,67.3333333 459.778571,67.6 C457.945238,67.8666667 456.061905,68.0833333 454.128571,68.25 C452.195238,68.4166667 450.295238,68.5 448.428571,68.5 C443.295238,68.5 438.511905,67.7833333 434.078571,66.35 C429.645238,64.9166667 425.795238,62.85 422.528571,60.15 C419.261905,57.45 416.695238,54.1666667 414.828571,50.3 C412.961905,46.4333333 412.028571,42.0333333 412.028571,37.1 C412.028571,31.5666667 413.061905,26.7 415.128571,22.5 C417.195238,18.3 419.995238,14.7833333 423.528571,11.95 C427.061905,9.11666667 431.195238,6.98333333 435.928571,5.55 C440.661905,4.11666667 445.695238,3.4 451.028571,3.4 C459.895238,3.4 467.295238,5 473.228571,8.2 L474.028571,23.1 L472.028571,23.4 C471.028571,20.9333333 469.861905,18.6666667 468.528571,16.6 C467.195238,14.5333333 465.695238,12.7666667 464.028571,11.3 C462.361905,9.83333333 460.495238,8.7 458.428571,7.9 C456.361905,7.1 454.028571,6.7 451.428571,6.7 C447.028571,6.7 443.161905,7.4 439.828571,8.8 C436.495238,10.2 433.711905,12.1833333 431.478571,14.75 C429.245238,17.3166667 427.545238,20.3833333 426.378571,23.95 C425.211905,27.5166667 424.628571,31.5 424.628571,35.9 C424.628571,39.8333333 425.245238,43.5833333 426.478571,47.15 C427.711905,50.7166667 429.461905,53.85 431.728571,56.55 C433.995238,59.25 436.761905,61.3833333 440.028571,62.95 C443.295238,64.5166667 446.961905,65.3 451.028571,65.3 C456.028571,65.3 459.528571,64.35 461.528571,62.45 C463.528571,60.55 464.528571,58.0666667 464.528571,55 L464.528571,44.3 C464.528571,43.2333333 464.278571,42.5333333 463.778571,42.2 C463.278571,41.8666667 462.495238,41.6333333 461.428571,41.5 L453.328571,40.8 L453.328571,38.2 C458.528571,38.4666667 463.595238,38.6 468.528571,38.6 C473.461905,38.6 478.528571,38.4666667 483.728571,38.2 L483.728571,40.8 Z" id="路径" fill="#000000"></path>
                    <path d="M548.585714,41.3 L537.085714,55.7 C535.952381,57.1 535.285714,58.3166667 535.085714,59.35 C534.885714,60.3833333 534.969048,61.25 535.335714,61.95 C535.702381,62.65 536.319048,63.1833333 537.185714,63.55 C538.052381,63.9166667 539.052381,64.1333333 540.185714,64.2 L546.085714,64.9 L546.085714,67.3 C544.219048,67.1666667 542.119048,67.0666667 539.785714,67 C537.452381,66.9333333 534.819048,66.9 531.885714,66.9 C528.952381,66.9 526.202381,66.9333333 523.635714,67 C521.069048,67.0666667 518.619048,67.1666667 516.285714,67.3 L516.285714,64.9 L522.685714,63.9 C524.352381,63.5666667 525.902381,62.8333333 527.335714,61.7 C528.769048,60.5666667 530.385714,58.8333333 532.185714,56.5 L546.385714,38.7 L527.885714,12.9 C526.952381,11.7 526.202381,10.7333333 525.635714,10 C525.069048,9.26666667 524.569048,8.7 524.135714,8.3 C523.702381,7.9 523.302381,7.61666667 522.935714,7.45 C522.569048,7.28333333 522.152381,7.16666667 521.685714,7.1 L516.285714,6.3 L516.285714,4 C518.219048,4.13333333 520.519048,4.23333333 523.185714,4.3 C525.852381,4.36666667 528.985714,4.4 532.585714,4.4 C536.185714,4.4 539.252381,4.36666667 541.785714,4.3 C544.319048,4.23333333 546.252381,4.13333333 547.585714,4 C547.585714,4.33333333 547.602381,4.7 547.635714,5.1 C547.669048,5.5 547.685714,5.9 547.685714,6.3 L543.085714,7.2 C540.752381,7.53333333 539.585714,8.33333333 539.585714,9.6 C539.585714,10.8666667 540.285714,12.4666667 541.685714,14.4 L553.085714,30.4 L565.785714,13.8 C566.719048,12.5333333 567.185714,11.4666667 567.185714,10.6 C567.185714,9.13333333 566.019048,8.13333333 563.685714,7.6 L558.185714,6.3 L558.185714,4 C559.985714,4.13333333 562.019048,4.23333333 564.285714,4.3 C566.552381,4.36666667 569.085714,4.4 571.885714,4.4 C574.685714,4.4 576.985714,4.36666667 578.785714,4.3 C580.585714,4.23333333 581.952381,4.13333333 582.885714,4 L582.885714,6.3 L577.685714,7.3 C575.485714,7.7 572.752381,10.0333333 569.485714,14.3 L555.185714,32.7 L574.285714,58.1 C576.952381,61.7 579.252381,63.6666667 581.185714,64 L586.585714,64.9 L586.585714,67.3 C584.519048,67.1666667 582.169048,67.0666667 579.535714,67 C576.902381,66.9333333 574.152381,66.9 571.285714,66.9 C568.419048,66.9 565.519048,66.9333333 562.585714,67 C559.652381,67.0666667 556.852381,67.1666667 554.185714,67.3 L554.185714,64.9 L558.185714,64.3 C559.452381,64.1 560.485714,63.9166667 561.285714,63.75 C562.085714,63.5833333 562.635714,63.3166667 562.935714,62.95 C563.235714,62.5833333 563.269048,62.0833333 563.035714,61.45 C562.802381,60.8166667 562.285714,60 561.485714,59 L548.585714,41.3 Z" id="路径" stroke="#000000"></path>
                    <path d="M629.142857,60.9 L629.142857,10.4 C629.142857,9.26666667 628.959524,8.46666667 628.592857,8 C628.22619,7.53333333 627.57619,7.26666667 626.642857,7.2 L619.342857,6.3 L619.342857,4.1 C620.009524,4.3 627.009524,4.4 640.342857,4.4 C644.27619,4.4 647.409524,4.3 649.742857,4.1 L649.742857,6.4 L643.642857,7.2 C642.309524,7.33333333 641.359524,7.55 640.792857,7.85 C640.22619,8.15 639.942857,9 639.942857,10.4 L639.942857,60.9 C639.942857,62.1 640.109524,62.8666667 640.442857,63.2 C640.77619,63.5333333 641.442857,63.7333333 642.442857,63.8 L649.742857,64.3 L649.742857,67.3 C648.409524,67.1666667 646.492857,67.0666667 643.992857,67 C641.492857,66.9333333 638.342857,66.9 634.542857,66.9 C630.742857,66.9 627.592857,66.9333333 625.092857,67 C622.592857,67.0666667 620.67619,67.1666667 619.342857,67.3 L619.342857,64.3 L625.542857,63.9 C626.942857,63.7 627.892857,63.4833333 628.392857,63.25 C628.892857,63.0166667 629.142857,62.2333333 629.142857,60.9 Z" id="路径" stroke="#000000"></path>
                    <path d="M699,59.4 C699,61.0666667 699.2,62.1833333 699.6,62.75 C700,63.3166667 700.833333,63.6666667 702.1,63.8 L710.5,64.8 L710.5,67.2 C706.5,67 702.5,66.9 698.5,66.9 C694.5,66.9 689.866667,67 684.6,67.2 L684.6,64.8 L690.1,63.8 C692.366667,63.4 693.816667,62.9333333 694.45,62.4 C695.083333,61.8666667 695.4,60.8666667 695.4,59.4 L695.4,17.7 C695.4,14.6333333 695.066667,12.35 694.4,10.85 C693.733333,9.35 692.466667,8.43333333 690.6,8.1 L684.7,7.2 L684.7,4.4 L698.1,4.4 C699.3,4.4 700.283333,4.41666667 701.05,4.45 C701.816667,4.48333333 702.466667,4.58333333 703,4.75 C703.533333,4.91666667 704.05,5.16666667 704.55,5.5 C705.05,5.83333333 705.6,6.33333333 706.2,7 L746.5,50.2 L746.1,12.6 C746.1,10.8 745.816667,9.56666667 745.25,8.9 C744.683333,8.23333333 743.766667,7.83333333 742.5,7.7 L734.6,6.7 L734.6,4.1 C736.466667,4.3 740.066667,4.4 745.4,4.4 C748.066667,4.4 750.466667,4.38333333 752.6,4.35 C754.733333,4.31666667 756.266667,4.23333333 757.2,4.1 L757.2,6.7 L752,7.1 C750.866667,7.23333333 750.166667,7.71666667 749.9,8.55 C749.633333,9.38333333 749.533333,10.7333333 749.6,12.6 L750,68.2 L747.6,68.2 L699,16.3 L699,59.4 Z" id="路径" stroke="#000000"></path>
                </g>
            </g>
        </g>
    </g>
</svg>