<?xml version="1.0" encoding="UTF-8"?>
<svg width="50px" height="50px" viewBox="0 0 50 50" version="1.1" xmlns="http://www.w3.org/2000/svg" xmlns:xlink="http://www.w3.org/1999/xlink">
    <title>invisionstudio</title>
    <g id="everweb" stroke="none" stroke-width="1" fill="none" fill-rule="evenodd">
        <g id="画板" transform="translate(-351.000000, -168.000000)" stroke="#FFFFFF">
            <g id="invisionstudio" transform="translate(351.007133, 168.000000)">
                <rect id="矩形" stroke-opacity="0.1" fill-opacity="0" fill="#FFFFFF" x="0.5" y="0.5" width="48.9750357" height="49"></rect>
                <path d="M28.6289903,42.2222222 C27.8586257,42.2222222 27.1293051,42.1710413 26.4410285,42.0686793 C25.7527519,41.9663174 25.2065508,41.8575578 24.8024251,41.7424007 L24.8024251,39.18975 C25.004488,39.2665214 25.250752,39.3368953 25.5412174,39.4008715 C25.8316827,39.4648477 26.1410915,39.5192274 26.4694436,39.5640108 C26.7977957,39.6087941 27.1356195,39.6471799 27.4829151,39.679168 C27.8302106,39.7111561 28.1743489,39.7271501 28.5153299,39.7271501 C28.9447135,39.7271501 29.3077951,39.7015596 29.6045749,39.6503787 C29.9013548,39.5991977 30.1413044,39.509631 30.3244238,39.3816786 C30.5075433,39.2537262 30.6369898,39.087388 30.7127634,38.8826642 C30.7885369,38.6779403 30.8264237,38.4284331 30.8264237,38.1341425 C30.8264237,37.8782377 30.7948514,37.6607186 30.7317068,37.4815852 C30.6685621,37.3024518 30.5517445,37.1425113 30.381254,37.0017637 C30.2107635,36.861016 29.9708139,36.7330636 29.6614051,36.6179064 C29.3519964,36.5027492 28.9447135,36.3811945 28.4395563,36.253242 C27.7323364,36.0869039 27.1482485,35.9045717 26.6872926,35.7062455 C26.2263367,35.5079192 25.8569406,35.2648096 25.5791042,34.9769167 C25.3012678,34.6890238 25.1055194,34.3403534 24.991859,33.9309057 C24.8781987,33.521458 24.8213685,33.0160459 24.8213685,32.4146696 C24.8213685,31.007193 25.2412804,30.0059653 26.0811041,29.4109866 C26.9209278,28.8160079 28.1048898,28.5185185 29.63299,28.5185185 C30.3780968,28.5185185 31.0379583,28.5665007 31.6125745,28.662465 C32.1871907,28.7584293 32.6513038,28.8703877 33.0049138,28.9983401 L33.0049138,31.3974479 C32.8407377,31.3462669 32.6323604,31.2918871 32.3797819,31.2343085 C32.1272033,31.17673 31.8493669,31.1223502 31.5462726,31.0711692 C31.2431783,31.0199882 30.9369268,30.9816025 30.6275181,30.956012 C30.3181094,30.9304216 30.0244868,30.9176263 29.7466504,30.9176263 C29.0015436,30.9176263 28.461657,31.0135906 28.1269904,31.2055192 C27.7923238,31.3974479 27.6249905,31.7749075 27.6249905,32.3378981 C27.6249905,32.5554172 27.6502484,32.7409482 27.7007641,32.8944911 C27.7512798,33.048034 27.8554684,33.1855829 28.01333,33.3071377 C28.1711916,33.4286925 28.3985123,33.5406508 28.6952921,33.6430128 C28.9920719,33.7453747 29.3804115,33.8541342 29.8603107,33.9692914 C30.6433043,34.16122 31.2842224,34.3755403 31.783065,34.6122523 C32.2819077,34.8489643 32.6734044,35.1304596 32.9575553,35.4567383 C33.2417062,35.7830169 33.4342973,36.1668742 33.5353288,36.60831 C33.6363602,37.0497458 33.6868759,37.5839472 33.6868759,38.210914 C33.6868759,39.5160286 33.2953791,40.5108587 32.5123856,41.1954041 C31.7293921,41.8799495 30.434927,42.2222222 28.6289903,42.2222222 Z" id="路径" stroke-linejoin="round"></path>
                <rect id="矩形" stroke-linejoin="round" x="37.0185449" y="37.7777778" width="4.44222539" height="4.44444444"></rect>
            </g>
        </g>
    </g>
</svg>