<?xml version="1.0" encoding="UTF-8"?>
<svg width="190px" height="78px" viewBox="0 0 190 78" version="1.1" xmlns="http://www.w3.org/2000/svg" xmlns:xlink="http://www.w3.org/1999/xlink">
    <title>JS</title>
    <g id="页面-2" stroke="none" stroke-width="1" fill="none" fill-rule="evenodd">
        <g id="HY&amp;DW备份" transform="translate(-1370.000000, -4221.000000)" fill="#FFFFFF">
            <g id="编组-26" transform="translate(0.000000, 4148.000000)">
                <g id="JS" transform="translate(1370.000000, 73.000000)">
                    <g id="编组-23备份">
                        <path d="M163,0.5 C170.317773,0.5 176.942773,3.46611353 181.73833,8.2616703 C186.533886,13.0572271 189.5,19.6822271 189.5,27 C189.5,34.3177729 186.533886,40.9427729 181.73833,45.7383297 C176.942773,50.5338865 170.317773,53.5 163,53.5 L27,53.5 C19.6822271,53.5 13.0572271,50.5338865 8.2616703,45.7383297 C3.46611353,40.9427729 0.5,34.3177729 0.5,27 C0.5,19.6822271 3.46611353,13.0572271 8.2616703,8.2616703 C13.0572271,3.46611353 19.6822271,0.5 27,0.5 Z" id="矩形" stroke-opacity="0.162478147" stroke="#FFFFFF" fill-opacity="0.122596154"></path>
                        <g id="JS.Design" transform="translate(78.255000, 20.624000)" fill-opacity="0.4" fill-rule="nonzero">
                            <path d="M5.933,0.238 L5.933,8.449 C5.933,9.452 5.746,10.183 5.389,10.642 C5.015,11.118 4.42,11.373 3.604,11.373 C2.125,11.373 1.394,10.54 1.394,8.908 L1.394,8.5 L0,8.5 L0,8.925 C0,10.115 0.306,11.033 0.952,11.679 C1.564,12.291 2.431,12.614 3.57,12.614 C4.913,12.614 5.899,12.24 6.511,11.492 C7.055,10.812 7.327,9.826 7.327,8.5 L7.327,0.238 L5.933,0.238 Z" id="路径"></path>
                            <path d="M13.838,0 C12.58,0 11.543,0.272 10.744,0.816 C9.843,1.394 9.401,2.227 9.401,3.281 C9.401,4.301 9.86,5.083 10.795,5.627 C11.186,5.831 12.121,6.171 13.583,6.613 C14.943,7.004 15.81,7.293 16.15,7.497 C16.949,7.922 17.357,8.517 17.357,9.282 C17.357,9.928 17.051,10.438 16.439,10.812 C15.827,11.186 15.011,11.373 14.025,11.373 C12.937,11.373 12.121,11.135 11.56,10.693 C10.948,10.2 10.574,9.418 10.455,8.364 L9.078,8.364 C9.18,9.86 9.707,10.965 10.659,11.696 C11.475,12.308 12.597,12.614 14.025,12.614 C15.47,12.614 16.609,12.308 17.459,11.713 C18.309,11.101 18.734,10.251 18.734,9.197 C18.734,8.092 18.224,7.242 17.221,6.63 C16.711,6.324 15.657,5.933 14.059,5.457 C12.886,5.117 12.138,4.862 11.832,4.692 C11.135,4.318 10.795,3.825 10.795,3.213 C10.795,2.516 11.084,2.006 11.662,1.666 C12.172,1.36 12.869,1.224 13.77,1.224 C14.756,1.224 15.521,1.428 16.065,1.87 C16.592,2.295 16.932,2.941 17.085,3.825 L18.462,3.825 C18.343,2.55 17.884,1.581 17.068,0.935 C16.286,0.306 15.198,0 13.838,0 Z" id="路径"></path>
                            <path d="M21.522,10.353 C21.216,10.353 20.978,10.455 20.791,10.659 C20.587,10.863 20.485,11.101 20.485,11.407 C20.485,11.696 20.587,11.934 20.791,12.138 C20.978,12.342 21.216,12.444 21.522,12.444 C21.794,12.444 22.049,12.342 22.253,12.138 C22.457,11.934 22.559,11.696 22.559,11.407 C22.559,11.101 22.457,10.863 22.253,10.659 C22.049,10.455 21.794,10.353 21.522,10.353 Z" id="路径"></path>
                            <path d="M24.99,0.238 L24.99,12.376 L29.206,12.376 C31.11,12.376 32.572,11.815 33.592,10.71 C34.561,9.656 35.054,8.177 35.054,6.307 C35.054,4.403 34.595,2.924 33.694,1.904 C32.708,0.782 31.263,0.238 29.342,0.238 L24.99,0.238 Z M26.384,1.445 L29.121,1.445 C30.719,1.445 31.875,1.853 32.623,2.686 C33.32,3.468 33.677,4.675 33.677,6.307 C33.677,7.888 33.286,9.095 32.538,9.911 C31.739,10.744 30.549,11.169 28.968,11.169 L26.384,11.169 L26.384,1.445 Z" id="形状"></path>
                            <path d="M40.443,3.349 C39.168,3.349 38.165,3.808 37.417,4.726 C36.669,5.593 36.312,6.681 36.312,7.973 C36.312,9.401 36.686,10.523 37.468,11.373 C38.216,12.189 39.236,12.614 40.494,12.614 C41.633,12.614 42.568,12.274 43.299,11.628 C43.894,11.084 44.285,10.404 44.489,9.554 L43.129,9.554 C42.908,10.166 42.619,10.625 42.245,10.931 C41.803,11.288 41.208,11.475 40.494,11.475 C39.661,11.475 38.998,11.203 38.522,10.659 C38.046,10.115 37.791,9.35 37.723,8.364 L44.659,8.364 C44.625,6.834 44.285,5.627 43.639,4.777 C42.925,3.825 41.854,3.349 40.443,3.349 Z M40.477,4.488 C42.143,4.488 43.078,5.423 43.248,7.31 L37.757,7.31 C37.842,6.443 38.114,5.763 38.59,5.253 C39.066,4.743 39.695,4.488 40.477,4.488 Z" id="形状"></path>
                            <path d="M49.368,3.349 C48.382,3.349 47.566,3.57 46.954,4.012 C46.291,4.454 45.968,5.032 45.968,5.78 C45.968,6.528 46.291,7.089 46.971,7.497 C47.379,7.769 48.11,8.024 49.147,8.279 C50.099,8.517 50.728,8.704 51.017,8.84 C51.561,9.112 51.85,9.486 51.85,9.979 C51.85,10.965 51.051,11.475 49.487,11.475 C48.739,11.475 48.178,11.339 47.804,11.067 C47.43,10.761 47.175,10.268 47.073,9.571 L45.747,9.571 C45.951,11.594 47.209,12.614 49.521,12.614 C52.003,12.614 53.244,11.696 53.244,9.894 C53.244,9.129 52.887,8.534 52.19,8.092 C51.731,7.803 50.983,7.531 49.929,7.276 C49.045,7.038 48.433,6.851 48.11,6.698 C47.6,6.443 47.362,6.12 47.362,5.746 C47.362,5.355 47.549,5.049 47.923,4.828 C48.263,4.59 48.739,4.488 49.351,4.488 C50.048,4.488 50.592,4.624 50.966,4.896 C51.306,5.134 51.527,5.542 51.646,6.086 L52.972,6.086 C52.734,4.25 51.544,3.349 49.368,3.349 Z" id="路径"></path>
                            <path d="M55.964,0.272 C55.675,0.272 55.437,0.357 55.233,0.561 C55.029,0.731 54.944,0.969 54.944,1.275 C54.944,1.564 55.029,1.802 55.233,2.006 C55.437,2.193 55.675,2.295 55.964,2.295 C56.253,2.295 56.491,2.193 56.695,2.006 C56.899,1.802 57.001,1.564 57.001,1.275 C57.001,0.969 56.899,0.731 56.695,0.561 C56.491,0.357 56.253,0.272 55.964,0.272 Z M55.284,3.587 L55.284,12.376 L56.644,12.376 L56.644,3.587 L55.284,3.587 Z" id="形状"></path>
                            <path d="M62.815,3.349 C61.591,3.349 60.622,3.774 59.908,4.641 C59.194,5.457 58.854,6.494 58.854,7.786 C58.854,9.061 59.194,10.098 59.908,10.914 C60.622,11.747 61.591,12.172 62.815,12.172 C64.141,12.172 65.127,11.577 65.773,10.404 L65.773,11.951 C65.773,13.889 64.889,14.875 63.121,14.875 C62.322,14.875 61.727,14.722 61.336,14.433 C60.945,14.161 60.69,13.719 60.588,13.124 L59.228,13.124 C59.381,14.076 59.772,14.79 60.401,15.266 C61.013,15.742 61.931,15.98 63.121,15.98 C65.79,15.98 67.133,14.569 67.133,11.764 L67.133,3.587 L65.773,3.587 L65.773,5.1 C65.127,3.927 64.141,3.349 62.815,3.349 Z M63.019,4.471 C63.886,4.471 64.566,4.777 65.076,5.423 C65.552,6.001 65.79,6.8 65.79,7.786 C65.79,8.738 65.552,9.52 65.076,10.115 C64.566,10.727 63.886,11.033 63.002,11.033 C62.05,11.033 61.353,10.693 60.877,10.047 C60.452,9.469 60.248,8.704 60.248,7.786 C60.248,6.8 60.486,6.001 60.962,5.423 C61.455,4.777 62.135,4.471 63.019,4.471 Z" id="形状"></path>
                            <path d="M73.355,3.349 C72.777,3.349 72.25,3.485 71.774,3.757 C71.298,4.012 70.907,4.386 70.601,4.879 L70.601,3.587 L69.241,3.587 L69.241,12.376 L70.601,12.376 L70.601,7.072 C70.652,6.273 70.907,5.644 71.383,5.168 C71.825,4.726 72.352,4.505 72.964,4.505 C74.494,4.505 75.276,5.355 75.276,7.072 L75.276,12.376 L76.636,12.376 L76.636,6.97 C76.636,4.556 75.531,3.349 73.355,3.349 Z" id="路径"></path>
                        </g>
                        <g id="编组" transform="translate(34.000000, 13.000000)" fill-rule="nonzero">
                            <path d="M28,6.72875269 L28,21.2712318 C28,24.9900394 24.9900394,28 21.2712318,28 L6.72875269,28 C4.94374988,28 3.23750267,27.2912306 1.96875036,26.0312652 C0.708749976,24.7625284 0,23.0562346 0,21.2712318 L0,6.72875269 C0,4.94374988 0.708749976,3.23750267 1.96875036,1.96875036 C3.23750267,0.708749976 4.94374988,0 6.72875269,0 L21.2712318,0 C23.0562346,0 24.7625284,0.708749976 26.0312652,1.96875036 C27.2912306,3.23750267 28,4.94374988 28,6.72875269 Z M22.4481414,15.0278359 L16.9356372,4.6678103 C16.8568506,4.52781069 16.7431339,4.41405518 16.6031032,4.34406314 C16.2180965,4.13405596 15.7369158,4.28281137 15.5356411,4.6678103 L13.9956143,7.54655814 L12.4643589,4.6678103 C12.3943436,4.52781069 12.2806269,4.41405518 12.1405962,4.34406314 C11.7555895,4.13405596 11.2744088,4.28281137 11.0643628,4.6678103 L5.55187416,15.0278359 C5.36812661,15.3778349 5.36812661,15.7978493 5.55187416,16.1478483 L9.04315524,22.7103495 C9.25312361,23.0952786 9.65559532,23.3403323 10.101846,23.3403323 L17.898154,23.3403323 C18.3444047,23.3403323 18.7468764,23.0952786 18.9568448,22.7103495 L22.4481414,16.1478483 C22.6318734,15.7978493 22.6318734,15.3778349 22.4481414,15.0278359 Z M15.110038,13.8768522 L16.2387441,11.759393 L17.2887412,13.7280502 C17.6038101,14.2705526 17.7787709,14.9093066 17.7787709,15.5918397 C17.7787709,17.6743688 16.0900197,19.3718137 13.9987192,19.3718137 C11.9162677,19.3718137 10.2187452,17.6743688 10.2187452,15.5918397 C10.2187452,15.224298 10.2712179,14.874299 10.3674696,14.5418426 L10.4024773,14.4455909 L10.4112486,14.4193546 C10.4724926,14.2093086 10.5599729,14.0081115 10.6649959,13.8068369 L12.8700131,9.66809251 L12.1174647,8.24186005 C12.0125194,8.04935671 11.776237,7.97934137 11.5749624,8.07559305 C11.5050247,8.11937204 11.4524743,8.17184472 11.4174667,8.24186005 L7.65498876,15.3030847 C7.55874485,15.478123 7.55874485,15.6880914 7.65498876,15.8630521 L10.4112486,21.0343285 C10.5162716,21.2268318 10.7174686,21.3493198 10.9362083,21.3493198 L17.0613078,21.3493198 C17.2800475,21.3493198 17.4812445,21.2268318 17.5862675,21.0343285 L20.3425584,15.8630521 C20.43881,15.6880914 20.43881,15.478123 20.3425584,15.3030847 L16.5800494,8.24186005 C16.4837977,8.04935671 16.2387441,7.97934137 16.0462407,8.07559305 C15.976303,8.11937204 15.9237527,8.17184472 15.8800513,8.24186005 L15.127503,9.66809251 L13.9987192,11.7856293 L13.9987192,11.776858 L12.4412274,14.6993383 L12.4412274,14.7081096 C12.3537471,14.856834 12.2925031,15.023101 12.2487241,15.206833 L12.2487241,15.2330693 C12.2224877,15.3555573 12.2137164,15.4693517 12.2137164,15.5830684 L12.2137164,15.5918397 C12.2137164,16.5805928 13.0099662,17.3768425 13.9987192,17.3768425 C14.9787786,17.3768425 15.7750283,16.5980578 15.7924934,15.618076 L15.7924934,15.5830684 L15.7837997,15.5830684 C15.7837997,15.2943133 15.7137843,15.0055583 15.5737537,14.7431173 L15.110038,13.8768522 Z" id="loading-logo-path"></path>
                        </g>
                    </g>
                    <g id="Coming-soon备份" transform="translate(52.588000, 64.808000)" fill-opacity="0.4" fill-rule="nonzero">
                        <path d="M4.732,0 C3.192,0 1.988,0.518 1.148,1.582 C0.378,2.534 0,3.752 0,5.236 C0,6.72 0.364,7.924 1.12,8.848 C1.946,9.87 3.136,10.388 4.69,10.388 C5.754,10.388 6.678,10.08 7.448,9.478 C8.274,8.834 8.792,7.924 9.016,6.762 L7.91,6.762 C7.714,7.63 7.308,8.288 6.72,8.736 C6.16,9.156 5.488,9.366 4.69,9.366 C3.514,9.366 2.632,8.974 2.016,8.204 C1.428,7.476 1.148,6.482 1.148,5.236 C1.148,3.99 1.442,2.996 2.03,2.24 C2.66,1.428 3.556,1.022 4.718,1.022 C5.502,1.022 6.16,1.204 6.706,1.582 C7.266,1.974 7.63,2.534 7.77,3.262 L8.876,3.262 C8.736,2.268 8.288,1.47 7.532,0.882 C6.776,0.294 5.838,0 4.732,0 Z" id="路径"></path>
                        <path d="M13.706,2.758 C12.614,2.758 11.76,3.122 11.116,3.878 C10.5,4.592 10.192,5.488 10.192,6.58 C10.192,7.658 10.5,8.554 11.116,9.254 C11.76,10.01 12.614,10.388 13.706,10.388 C14.784,10.388 15.652,10.01 16.31,9.254 C16.912,8.554 17.22,7.658 17.22,6.58 C17.22,5.488 16.912,4.592 16.296,3.878 C15.652,3.122 14.784,2.758 13.706,2.758 Z M13.706,3.696 C14.462,3.696 15.064,3.99 15.512,4.578 C15.89,5.11 16.086,5.768 16.086,6.58 C16.086,7.364 15.89,8.036 15.512,8.568 C15.064,9.156 14.462,9.45 13.706,9.45 C12.936,9.45 12.334,9.156 11.914,8.568 C11.522,8.036 11.34,7.378 11.34,6.58 C11.34,5.768 11.522,5.11 11.914,4.578 C12.334,3.99 12.936,3.696 13.706,3.696 Z" id="形状"></path>
                        <path d="M21.84,2.758 C21.028,2.758 20.342,3.136 19.796,3.92 L19.796,2.954 L18.676,2.954 L18.676,10.192 L19.796,10.192 L19.796,5.782 C19.796,5.208 19.964,4.718 20.3,4.326 C20.636,3.906 21.056,3.71 21.574,3.71 C22.68,3.71 23.24,4.34 23.24,5.628 L23.24,10.192 L24.36,10.192 L24.36,5.656 C24.36,5.068 24.514,4.606 24.85,4.242 C25.158,3.878 25.564,3.71 26.04,3.71 C26.656,3.71 27.104,3.864 27.384,4.2 C27.65,4.508 27.79,4.984 27.79,5.628 L27.79,10.192 L28.91,10.192 L28.91,5.446 C28.91,4.62 28.672,3.962 28.224,3.472 C27.748,2.996 27.146,2.758 26.39,2.758 C25.886,2.758 25.466,2.87 25.116,3.094 C24.724,3.304 24.388,3.654 24.108,4.13 C23.702,3.206 22.946,2.758 21.84,2.758 Z" id="路径"></path>
                        <path d="M31.57,0.224 C31.332,0.224 31.136,0.294 30.968,0.462 C30.8,0.602 30.73,0.798 30.73,1.05 C30.73,1.288 30.8,1.484 30.968,1.652 C31.136,1.806 31.332,1.89 31.57,1.89 C31.808,1.89 32.004,1.806 32.172,1.652 C32.34,1.484 32.424,1.288 32.424,1.05 C32.424,0.798 32.34,0.602 32.172,0.462 C32.004,0.294 31.808,0.224 31.57,0.224 Z M31.01,2.954 L31.01,10.192 L32.13,10.192 L32.13,2.954 L31.01,2.954 Z" id="形状"></path>
                        <path d="M37.618,2.758 C37.142,2.758 36.708,2.87 36.316,3.094 C35.924,3.304 35.602,3.612 35.35,4.018 L35.35,2.954 L34.23,2.954 L34.23,10.192 L35.35,10.192 L35.35,5.824 C35.392,5.166 35.602,4.648 35.994,4.256 C36.358,3.892 36.792,3.71 37.296,3.71 C38.556,3.71 39.2,4.41 39.2,5.824 L39.2,10.192 L40.32,10.192 L40.32,5.74 C40.32,3.752 39.41,2.758 37.618,2.758 Z" id="路径"></path>
                        <path d="M45.038,2.758 C44.03,2.758 43.232,3.108 42.644,3.822 C42.056,4.494 41.776,5.348 41.776,6.412 C41.776,7.462 42.056,8.316 42.644,8.988 C43.232,9.674 44.03,10.024 45.038,10.024 C46.13,10.024 46.942,9.534 47.474,8.568 L47.474,9.842 C47.474,11.438 46.746,12.25 45.29,12.25 C44.632,12.25 44.142,12.124 43.82,11.886 C43.498,11.662 43.288,11.298 43.204,10.808 L42.084,10.808 C42.21,11.592 42.532,12.18 43.05,12.572 C43.554,12.964 44.31,13.16 45.29,13.16 C47.488,13.16 48.594,11.998 48.594,9.688 L48.594,2.954 L47.474,2.954 L47.474,4.2 C46.942,3.234 46.13,2.758 45.038,2.758 Z M45.206,3.682 C45.92,3.682 46.48,3.934 46.9,4.466 C47.292,4.942 47.488,5.6 47.488,6.412 C47.488,7.196 47.292,7.84 46.9,8.33 C46.48,8.834 45.92,9.086 45.192,9.086 C44.408,9.086 43.834,8.806 43.442,8.274 C43.092,7.798 42.924,7.168 42.924,6.412 C42.924,5.6 43.12,4.942 43.512,4.466 C43.918,3.934 44.478,3.682 45.206,3.682 Z" id="形状"></path>
                        <path d="M57.554,2.758 C56.742,2.758 56.07,2.94 55.566,3.304 C55.02,3.668 54.754,4.144 54.754,4.76 C54.754,5.376 55.02,5.838 55.58,6.174 C55.916,6.398 56.518,6.608 57.372,6.818 C58.156,7.014 58.674,7.168 58.912,7.28 C59.36,7.504 59.598,7.812 59.598,8.218 C59.598,9.03 58.94,9.45 57.652,9.45 C57.036,9.45 56.574,9.338 56.266,9.114 C55.958,8.862 55.748,8.456 55.664,7.882 L54.572,7.882 C54.74,9.548 55.776,10.388 57.68,10.388 C59.724,10.388 60.746,9.632 60.746,8.148 C60.746,7.518 60.452,7.028 59.878,6.664 C59.5,6.426 58.884,6.202 58.016,5.992 C57.288,5.796 56.784,5.642 56.518,5.516 C56.098,5.306 55.902,5.04 55.902,4.732 C55.902,4.41 56.056,4.158 56.364,3.976 C56.644,3.78 57.036,3.696 57.54,3.696 C58.114,3.696 58.562,3.808 58.87,4.032 C59.15,4.228 59.332,4.564 59.43,5.012 L60.522,5.012 C60.326,3.5 59.346,2.758 57.554,2.758 Z" id="路径"></path>
                        <path d="M65.296,2.758 C64.204,2.758 63.35,3.122 62.706,3.878 C62.09,4.592 61.782,5.488 61.782,6.58 C61.782,7.658 62.09,8.554 62.706,9.254 C63.35,10.01 64.204,10.388 65.296,10.388 C66.374,10.388 67.242,10.01 67.9,9.254 C68.502,8.554 68.81,7.658 68.81,6.58 C68.81,5.488 68.502,4.592 67.886,3.878 C67.242,3.122 66.374,2.758 65.296,2.758 Z M65.296,3.696 C66.052,3.696 66.654,3.99 67.102,4.578 C67.48,5.11 67.676,5.768 67.676,6.58 C67.676,7.364 67.48,8.036 67.102,8.568 C66.654,9.156 66.052,9.45 65.296,9.45 C64.526,9.45 63.924,9.156 63.504,8.568 C63.112,8.036 62.93,7.378 62.93,6.58 C62.93,5.768 63.112,5.11 63.504,4.578 C63.924,3.99 64.526,3.696 65.296,3.696 Z" id="形状"></path>
                        <path d="M73.5,2.758 C72.408,2.758 71.554,3.122 70.91,3.878 C70.294,4.592 69.986,5.488 69.986,6.58 C69.986,7.658 70.294,8.554 70.91,9.254 C71.554,10.01 72.408,10.388 73.5,10.388 C74.578,10.388 75.446,10.01 76.104,9.254 C76.706,8.554 77.014,7.658 77.014,6.58 C77.014,5.488 76.706,4.592 76.09,3.878 C75.446,3.122 74.578,2.758 73.5,2.758 Z M73.5,3.696 C74.256,3.696 74.858,3.99 75.306,4.578 C75.684,5.11 75.88,5.768 75.88,6.58 C75.88,7.364 75.684,8.036 75.306,8.568 C74.858,9.156 74.256,9.45 73.5,9.45 C72.73,9.45 72.128,9.156 71.708,8.568 C71.316,8.036 71.134,7.378 71.134,6.58 C71.134,5.768 71.316,5.11 71.708,4.578 C72.128,3.99 72.73,3.696 73.5,3.696 Z" id="形状"></path>
                        <path d="M81.858,2.758 C81.382,2.758 80.948,2.87 80.556,3.094 C80.164,3.304 79.842,3.612 79.59,4.018 L79.59,2.954 L78.47,2.954 L78.47,10.192 L79.59,10.192 L79.59,5.824 C79.632,5.166 79.842,4.648 80.234,4.256 C80.598,3.892 81.032,3.71 81.536,3.71 C82.796,3.71 83.44,4.41 83.44,5.824 L83.44,10.192 L84.56,10.192 L84.56,5.74 C84.56,3.752 83.65,2.758 81.858,2.758 Z" id="路径"></path>
                    </g>
                </g>
            </g>
        </g>
    </g>
</svg>