<?xml version="1.0" encoding="UTF-8"?>
<svg width="152px" height="48px" viewBox="0 0 152 48" version="1.1" xmlns="http://www.w3.org/2000/svg" xmlns:xlink="http://www.w3.org/1999/xlink">
    <title>logo-everweb</title>
    <g id="everweb" stroke="none" stroke-width="1" fill="none" fill-rule="evenodd">
        <g id="关于我备份" transform="translate(-1338.000000, -7077.000000)">
            <g id="logo-everweb" transform="translate(1338.000000, 7077.000000)">
                <rect id="矩形" stroke-opacity="0.0441706731" stroke="#000000" fill="#FFFFFF" x="0.5" y="0.5" width="151" height="47" rx="23.5"></rect>
                <text id="EverWeb" font-family="AlibabaPuHuiTi-Medium, Alibaba PuHuiTi" font-size="16" font-weight="400" fill="#000000">
                    <tspan x="51" y="30">EverWeb</tspan>
                </text>
                <g id="编组-23" transform="translate(5.000000, 5.000000)">
                    <circle id="椭圆形" fill="#E3E3E3" cx="19" cy="19" r="19"></circle>
                    <g id="编组-33" transform="translate(9.000000, 9.000000)">
                        <rect id="矩形" fill="#000000" opacity="0.5" x="0" y="0.9375" width="19.2125984" height="19.0625" rx="4.09448819"></rect>
                        <g id="编组-32" transform="translate(2.836286, 0.000000)" fill="#D8D8D8">
                            <rect id="矩形" x="3.14796558" y="8.90625" width="7.4015748" height="5.625" rx="0.62992126"></rect>
                            <rect id="矩形备份-31" x="1.41568212" y="5" width="5.1399825" height="3.90625" rx="0.31496063"></rect>
                            <rect id="矩形备份-32" x="8.81725692" y="0" width="8.34645669" height="6.25" rx="0.62992126"></rect>
                            <polygon id="路径-22" opacity="0.400000006" points="1.41568212 5 4.10513206e-17 6.72627556 0 10.5573074 6.27685047 10.5573074 6.43338195 8.90625 3.98567337 8.15795561 2.38367915 5.67519737"></polygon>
                            <path d="M3.14796558,9.13864636 L1.76257551,10.8092343 L1.76257551,15.6103362 C1.76257551,15.9582321 2.04460087,16.2402575 2.39249677,16.2402575 L8.89840687,16.2402575 L8.89840687,16.2402575 L10.4285135,14.53125 L3.83863543,14.53125 C3.49387035,14.53125 3.21315878,14.2540931 3.20876532,13.909356 L3.14796558,9.13864636 L3.14796558,9.13864636 Z" id="路径-23" opacity="0.400000006"></path>
                            <path d="M8.97473724,0.0761463553 L7.53386054,1.74673435 L7.53386054,7.36891639 C7.53386054,7.71681229 7.81588589,7.99883765 8.1637818,7.99883765 L15.4936838,7.99883765 L15.4936838,7.99883765 L17.0237904,6.28983017 L9.66645528,6.28983017 C9.32127699,6.28983017 9.0403901,6.01203279 9.03657254,5.66687562 L8.97473724,0.0761463553 L8.97473724,0.0761463553 Z" id="路径-23备份" opacity="0.400000006"></path>
                        </g>
                    </g>
                </g>
            </g>
        </g>
    </g>
</svg>