<?xml version="1.0" encoding="UTF-8"?>
<svg width="120px" height="120px" viewBox="0 0 120 120" version="1.1" xmlns="http://www.w3.org/2000/svg" xmlns:xlink="http://www.w3.org/1999/xlink">
    <title>logo-美购</title>
    <g id="everweb" stroke="none" stroke-width="1" fill="none" fill-rule="evenodd">
        <g id="关于我备份" transform="translate(-591.000000, -5412.000000)" fill="#F5396F">
            <g id="编组-16备份-3" transform="translate(0.000000, 4683.000000)">
                <g id="logo-美购" transform="translate(591.000000, 729.000000)">
                    <rect id="矩形" stroke-opacity="0.1" stroke="#000000" fill-opacity="0.05" x="0.5" y="0.5" width="119" height="119"></rect>
                    <path d="M70.5619654,53.3599473 L70.5619654,67.7494412 C70.5619654,68.5668272 70.8935733,69.3492432 71.4809264,69.917694 L76.2439879,74.52747 C76.9404543,75.2015226 77.8475253,75.6155813 78.8130576,75.7001959 L80.2082451,75.8224635 C80.1994568,76.8364328 80.1994568,78.228945 80.2082451,80 C78.1896062,80 76.567397,79.5363388 75.3416174,78.6090163 L68.5847367,72.0716654 L61.9171074,77.9434919 C59.2117302,80.3259738 55.1659486,80.3558702 52.4256579,78.0136293 L41.2666699,68.4755764 C40.7851855,68.0640316 40.0674797,68.0946911 39.6228467,68.5457985 L31.3747323,76.9140146 C29.4286908,78.8883926 26.7722276,80 24,80 L24,75.8224635 L24.2916596,75.8155925 C25.8425697,75.7424632 27.3135793,75.0881804 28.4080694,73.9769301 L32.2705826,70.0552691 C32.3817806,69.9423684 32.4441098,69.7902604 32.4441098,69.6317941 C32.4441098,69.2984975 32.1739195,69.0283072 31.8406228,69.0283072 L24,69.0283072 L24,64.7642365 L34.9131689,64.7642365 C36.2212397,64.7642365 37.5086903,64.4382534 38.659144,63.8157539 C39.7541779,63.2232414 41.072967,63.2175684 42.1730579,63.8006381 L42.2015772,63.8157539 C43.376705,64.4385946 44.6864608,64.7642365 46.0164442,64.7642365 L56.8241067,64.7642365 L56.8241067,69.0283072 L49.9191523,69.0283072 C49.728743,69.0283072 49.5495014,69.1181694 49.4355841,69.2707425 C49.2361808,69.5378099 49.2910334,69.9159591 49.5581007,70.1153624 L55.6960399,74.6981957 C56.5815446,75.3593493 57.8029347,75.3347651 58.6611175,74.6385145 L65.2227844,69.3149816 C65.9289906,68.7420308 66.3391299,67.8811372 66.3391299,66.9717419 L66.3391299,53.3599473 L70.5619654,53.3599473 Z M81.585696,40 L81.585696,42.8431461 L89.9651305,42.8431461 C93.2980969,42.8431461 96,45.5450492 96,48.8780156 L96,71.9602883 C96,76.3668599 92.4277679,79.939092 88.0211962,79.939092 L83.4319043,79.939092 L83.4319043,75.4352404 L87.5219093,75.4352404 C89.5044857,75.4352404 91.1116815,73.8280447 91.1116815,71.8454682 L91.1116815,47.3951716 L81.585696,47.3951716 L81.585696,50.8424634 L76.6345105,50.8424634 L76.6345105,40 L81.585696,40 Z M81.5498238,53.3599473 L81.5498238,64.3391231 C81.5498238,64.6724197 81.8200141,64.94261 82.1533108,64.94261 L85.1607107,64.94261 L85.1607107,58.792426 L89.9297798,58.792426 L89.9297798,70.8825981 L85.6964485,70.8825981 L85.6964485,69.0283072 L80.8589191,69.0283072 C78.5258427,69.0283072 76.6345105,67.136975 76.6345105,64.8038985 L76.6345105,53.3599473 L81.5498238,53.3599473 Z M33.8485267,40 L33.8485267,43.0479344 L47.1124681,43.0479344 L47.1124681,40 L51.9313314,40 L51.9313314,43.0479344 L56.8241067,43.0479344 L56.8241067,47.2921134 L42.2677104,47.2921134 L42.2677104,50.5180514 C46.9997028,49.6157917 51.8582306,49.6014807 56.5954561,50.4758485 L56.8241067,50.5180514 L56.8241067,54.9832264 L56.4807991,54.9020647 C52.0348812,53.8510015 47.4343237,53.6350356 42.9130431,54.2631117 L42.2677104,54.3585796 L42.2677104,58.2065143 L56.8241067,58.2065143 L56.8241067,62.4112309 L24.1996128,62.4112309 L24.1996128,58.2065143 L38.6414957,58.2065143 L38.6414957,55.2939784 C34.1338065,56.3088542 29.4404923,56.1432599 25.0155391,54.8132134 L24.1996128,54.5679634 L24.1996128,50.5180514 L24.9812245,50.6874511 C29.2328068,51.6089015 33.606576,51.8148176 37.9227053,51.2983783 L38.6414957,51.2056155 L38.6414957,47.2921134 L24,47.2921134 L24,43.0479344 L28.9448154,43.0479344 L28.9448154,40 L33.8485267,40 Z M76.0038093,40 L76.0038093,62.4112309 L71.9438728,62.4112309 L71.9438728,44.476639 L65.2110501,44.476639 L65.2110501,62.4112309 L60.9669684,62.4112309 L60.9669684,44.476639 C60.9669684,42.0042595 62.971228,40 65.4436074,40 L76.0038093,40 Z" id="形状结合"></path>
                </g>
            </g>
        </g>
    </g>
</svg>