<?xml version="1.0" encoding="UTF-8"?>
<svg width="152px" height="48px" viewBox="0 0 152 48" version="1.1" xmlns="http://www.w3.org/2000/svg" xmlns:xlink="http://www.w3.org/1999/xlink">
    <title>logo-antdesign</title>
    <g id="everweb" stroke="none" stroke-width="1" fill="none" fill-rule="evenodd">
        <g id="关于我备份" transform="translate(-1002.000000, -7077.000000)">
            <g id="logo-antdesign" transform="translate(1002.000000, 7077.000000)">
                <rect id="矩形" stroke-opacity="0.0441706731" stroke="#000000" fill="#FFFFFF" x="0.5" y="0.5" width="151" height="47" rx="23.5"></rect>
                <text id="Ant-Design" font-family="AlibabaPuHuiTi-Medium, Alibaba PuHuiTi" font-size="16" font-weight="400" fill="#000000">
                    <tspan x="51" y="30">Ant Design</tspan>
                </text>
                <g id="编组-23" transform="translate(5.000000, 5.000000)">
                    <circle id="椭圆形" fill="#EFF6FF" cx="19" cy="19" r="19"></circle>
                    <g id="编组-31" transform="translate(9.000000, 9.000000)">
                        <path d="M14.5426124,5.56390654 C14.9668556,5.14156659 14.9668556,4.45330889 14.5426124,4.03096894 L12.9818437,2.46898151 L12.9840766,2.47121611 C12.5709976,2.05781457 11.8609484,1.34721085 10.8561617,0.34387414 C10.3827956,-0.118688663 9.61692484,-0.114219457 9.14802439,0.355047154 L0.355024622,9.14820961 C-0.118341541,9.61971083 -0.118341541,10.383945 0.355024622,10.8554462 L9.14579153,19.6463741 C9.61915769,20.1178753 10.3827956,20.1178753 10.8539289,19.6463741 L14.5403795,15.9592793 C14.9646228,15.5369393 14.9646228,14.8486816 14.5403795,14.4263417 C14.1161362,14.0040017 13.4306485,14.0040017 13.0064052,14.4263417 L10.2153311,17.2240645 C10.0992224,17.3402639 9.91836084,17.3402639 9.80225215,17.2240645 L2.77990978,10.2029422 C2.6638011,10.0867428 2.6638011,9.90574 2.77990978,9.78954065 L9.8000193,2.7684183 C9.80895073,2.75947989 9.82011503,2.75277608 9.82904647,2.74383767 C9.94515515,2.65221895 10.105921,2.66115736 10.2130983,2.7684183 L13.0086381,5.56390654 C13.4328813,5.98848109 14.120602,5.98848109 14.5426124,5.56390654 L14.5426124,5.56390654 Z" id="形状" fill="#2F8EFF" fill-rule="nonzero"></path>
                        <path d="M19.6446958,9.18396326 L16.9005117,6.4510439 C16.4762685,6.02870395 15.7885478,6.02870395 15.3665374,6.4532785 C14.9422942,6.87561845 14.9422942,7.56387615 15.3665374,7.9862161 L17.2198106,9.83870191 C17.3359193,9.95490126 17.3359193,10.1359041 17.2198106,10.2521034 L15.3933317,12.077774 C14.9690885,12.500114 14.9690885,13.1883717 15.3933317,13.6107116 C15.817575,14.0330516 16.5030628,14.0330516 16.9273061,13.6107116 L19.6469286,10.8911999 C20.1180619,10.4196987 20.1180619,9.65769907 19.6446958,9.18396326 L19.6446958,9.18396326 Z" id="路径" fill="#F7485A"></path>
                        <path d="M8.71139891,10.04652 C8.71139891,11.3571736 9.77406422,12.4196683 11.0849283,12.4196683 C12.3957924,12.4196683 13.4584577,11.3571736 13.4584577,10.04652 C13.4584577,8.73586637 12.3957924,7.67337169 11.0849283,7.67337169 C9.77406422,7.67337169 8.71139891,8.73586637 8.71139891,10.04652 L8.71139891,10.04652 Z" id="路径" fill="#F7485A"></path>
                    </g>
                </g>
            </g>
        </g>
    </g>
</svg>