<?xml version="1.0" encoding="UTF-8"?>
<svg width="120px" height="120px" viewBox="0 0 120 120" version="1.1" xmlns="http://www.w3.org/2000/svg" xmlns:xlink="http://www.w3.org/1999/xlink">
    <title>logo-力聘</title>
    <g id="everweb" stroke="none" stroke-width="1" fill="none" fill-rule="evenodd">
        <g id="关于我备份" transform="translate(-591.000000, -4972.000000)">
            <g id="编组-16备份-3" transform="translate(0.000000, 4683.000000)">
                <g id="logo-力聘" transform="translate(591.000000, 289.000000)">
                    <rect id="矩形" stroke-opacity="0.1" stroke="#000000" fill-opacity="0.05" fill="#007AFF" x="0.5" y="0.5" width="119" height="119"></rect>
                    <g id="编组" transform="translate(15.000000, 44.000000)">
                        <path d="M38.9254883,28 C40.6459763,26.8275862 42.1047353,25.7025862 43.3017654,24.625 C44.4987955,23.5474138 45.5096654,22.4094827 46.3343754,21.2112069 C47.1590854,20.012931 47.8412793,18.6896552 48.3809569,17.2413793 C48.9206346,15.7931034 49.3835852,14.1206897 49.7698087,12.2241379 L56.0843745,12.2241379 C55.9990618,12.7931034 54.5557961,20.6637931 54.4741906,21.0948275 C54.3756105,21.5258621 54.2657872,21.862069 54.1447207,22.1034482 C54.0236543,22.3448276 53.8685533,22.5301724 53.6794176,22.6594827 C53.490282,22.7887931 53.2524419,22.875 52.9658972,22.9181034 C52.6793525,22.9612069 52.3297994,23 51.9172376,23.0344827 L49.5005464,23.1896552 L49.9361762,27.5862069 L53.0774358,27.3534482 C53.8490503,27.3017241 54.5308162,27.1982759 55.1227337,27.0431034 C55.7146513,26.887931 56.2186592,26.6681034 56.6347576,26.3836207 C57.0508561,26.0991379 57.3894711,25.7370689 57.6506029,25.2974138 C57.9117347,24.8577586 58.0986148,24.3189655 58.211243,23.6810345 C58.2980189,23.2155173 60.4978789,11.4310345 60.6766012,10.4655173 C60.7031012,10.3223554 60.7314889,10.1675375 60.7617643,10.0010636 C60.9443283,8.99760812 60.2706816,8.03760655 59.257098,7.85683409 C59.1482163,7.83741506 59.0378051,7.8276272 58.9271707,7.82758621 L50.5563528,7.82758621 L50.8420815,6.21595439 C51.0201267,5.21170337 50.3421328,4.25470599 49.3277395,4.07844092 C49.2362389,4.0625414 49.1436659,4.05343321 49.0507941,4.05119243 L46.9290514,4 L46.3042057,7.82758621 L39.5822486,7.82758621 L38.9230142,12.2241379 L45.4412757,12.2241379 C45.0506625,13.8103448 44.6136741,15.1681034 44.1303106,16.2974138 C43.646947,17.4267242 43.0481876,18.4482758 42.3340326,19.3620689 C41.6198775,20.275862 40.7522191,21.137931 39.7310572,21.9482759 C38.7098954,22.7586207 37.4662096,23.637931 36,24.5862069 L38.9254883,28 Z M84.8100614,15.4782608 L85.9795306,7.68016698 C86.1307803,6.67161953 85.4275467,5.7326435 84.4088144,5.58290533 C84.3181471,5.56957871 84.2266116,5.5628882 84.1349512,5.5628882 L81.9324475,5.5628882 L81.9975489,5.12878666 C82.0731737,4.62451292 81.7215569,4.15502492 81.2121904,4.08015583 C81.1763215,4.07488361 81.1401723,4.07168746 81.1039269,4.07058368 L78.7861522,4 L78.5517678,5.5628882 L74.1619307,5.5628882 L72.6749364,15.4782608 L84.8100614,15.4782608 Z M69.3163379,28 L72.3398377,7.17371467 C72.498317,6.16625568 71.8018348,5.2223607 70.7842011,5.06546624 C70.6892656,5.05082948 70.5933294,5.04347826 70.4972495,5.04347826 L64.5196513,5.04347826 L63.9593172,8.93312148 L64.5845328,8.93312148 L62.7057657,21.9748664 L61.3612203,22.1274015 L61.1485277,25.9407771 L66.5544183,25.3052145 L66.166213,28 L69.3163379,28 Z M78.7441705,9.21739127 L76.8663578,9.21739127 L77.0842552,8.17391304 L77.8857644,8.17391304 C78.3698734,8.17391304 78.7623219,8.5624375 78.7623219,9.0417067 C78.7623219,9.10072697 78.7562401,9.1595932 78.7441705,9.21739127 L78.7441705,9.21739127 L78.7441705,9.21739127 Z M82.9355919,9.21739127 L81.0577785,9.21739127 L81.2756766,8.17391304 L82.0771858,8.17391304 C82.5612949,8.17391304 82.9537434,8.5624375 82.9537434,9.0417067 C82.9537434,9.10072697 82.9476616,9.1595932 82.9355919,9.21739127 L82.9355919,9.21739127 L82.9355919,9.21739127 Z M68.2886498,10.2608696 L67.4356597,10.2608696 L67.6305249,8.17391304 L68.483515,8.17391304 L68.2886498,10.2608696 Z M77.6922564,12.3478261 L75.8185021,12.3478261 L76.0404585,11.3043478 L76.8370798,11.3043478 C77.3197396,11.3043478 77.7110124,11.6917086 77.7110124,12.1695423 C77.7110124,12.2294528 77.7047268,12.2892013 77.6922564,12.3478261 L77.6922564,12.3478261 L77.6922564,12.3478261 Z M82.9315336,12.3478261 L81.0577785,12.3478261 L81.279735,11.3043478 L82.0763563,11.3043478 C82.5590161,11.3043478 82.9502889,11.6917086 82.9502889,12.1695423 C82.9502889,12.2294528 82.9440033,12.2892013 82.9315336,12.3478261 L82.9315336,12.3478261 L82.9315336,12.3478261 Z M68.2886498,16.5217392 L67.4356597,16.5217392 L67.6305249,14.4347826 L68.483515,14.4347826 L68.2886498,16.5217392 Z M76.8295814,28 L78.8045385,27.8206522 C79.5906349,27.7523292 80.2359413,27.6669255 80.7404579,27.564441 C81.2449744,27.4619565 81.657929,27.2954193 81.9793224,27.0648292 C82.3007158,26.8342392 82.5541979,26.5225155 82.7397695,26.1296584 C82.9253404,25.7368013 83.0935136,25.2072981 83.2442876,24.5411491 C83.3950608,23.875 83.5471196,23.2003106 83.7004618,22.5170807 C83.8538047,21.8338509 83.9922931,21.193323 84.1159262,20.5954969 L75.4403399,20.5954969 L75.6995053,19.5450311 L85.8424065,19.5450311 L85.9785442,18.6397494 C86.130203,17.631262 85.4273497,16.6920072 84.4086772,16.541865 C84.3177691,16.5284661 84.2259851,16.5217392 84.1340754,16.5217392 L72.6611508,16.5217392 L71.6270806,23.1832299 L79.9319994,23.1832299 L79.81423,23.7981366 C79.7885429,23.9689441 79.7511285,24.10559 79.7019855,24.2080745 C79.6528424,24.310559 79.5767523,24.3959628 79.4737169,24.4642857 C79.3706807,24.5326087 79.2322658,24.5838509 79.0584722,24.6180124 C78.8846778,24.6521739 78.6615706,24.6777951 78.3891514,24.6948758 L76.3927488,24.8486025 L76.8295814,28 Z M66.3878044,21.7391304 L66.5931152,19.6521739 L67.4356597,19.6521739 L67.2457471,21.5826087 L66.3878044,21.7391304 Z" id="形状结合" fill="#000000"></path>
                        <g id="编组-2备份-2">
                            <path d="M10.2555408,-4.14336123e-16 L21.7444592,4.14336123e-16 C25.3105342,-2.4074122e-16 26.6036791,0.371302445 27.9073828,1.06853082 C29.2110865,1.76575919 30.2342408,2.78891348 30.9314692,4.09261719 C31.6286976,5.39632089 32,6.68946584 32,10.2555408 L32,21.7444592 C32,25.3105342 31.6286976,26.6036791 30.9314692,27.9073828 C30.2342408,29.2110865 29.2110865,30.2342408 27.9073828,30.9314692 C26.6036791,31.6286976 25.3105342,32 21.7444592,32 L10.2555408,32 C6.68946584,32 5.39632089,31.6286976 4.09261719,30.9314692 C2.78891348,30.2342408 1.76575919,29.2110865 1.06853082,27.9073828 C0.371302445,26.6036791 1.60494146e-16,25.3105342 -2.76224082e-16,21.7444592 L2.76224082e-16,10.2555408 C-1.60494146e-16,6.68946584 0.371302445,5.39632089 1.06853082,4.09261719 C1.76575919,2.78891348 2.78891348,1.76575919 4.09261719,1.06853082 C5.39632089,0.371302445 6.68946584,2.4074122e-16 10.2555408,-4.14336123e-16 Z" id="矩形" fill="#FFFFFF"></path>
                            <path d="M21.7444592,0 C25.3105342,0 26.6036791,0.371302445 27.9073828,1.06853082 C29.2110865,1.76575919 30.2342408,2.78891348 30.9314692,4.09261719 L31.0710579,4.36294735 C31.6781457,5.58549632 32,6.93540204 32,10.2555408 L32,21.7444592 L31.9947169,22.450585 C31.9472357,25.4889492 31.5806128,26.6935897 30.9314692,27.9073828 C30.2342408,29.2110865 29.2110865,30.2342408 27.9073828,30.9314692 L27.6370527,31.0710579 C26.4145037,31.6781457 25.064598,32 21.7444592,32 L10.2555408,32 L9.54941498,31.9947169 C6.5110508,31.9472357 5.30641029,31.5806128 4.09261719,30.9314692 C2.78891348,30.2342408 1.76575919,29.2110865 1.06853082,27.9073828 L0.928942102,27.6370527 C0.344339052,26.4597833 0.0242323274,25.1644163 0.00132264284,22.1053492 L0,10.2555408 C0,6.68946584 0.371302445,5.39632089 1.06853082,4.09261719 C1.76575919,2.78891348 2.78891348,1.76575919 4.09261719,1.06853082 L4.36294735,0.928942102 C5.54021673,0.344339052 6.83558373,0.0242323274 9.89465082,0.00132264284 L21.7444592,0 Z M22.0916965,1.14394178 L10.2555408,1.14285714 C7.17680539,1.14285714 5.92500215,1.3845915 4.63158731,2.07631733 C3.52704758,2.66703164 2.66703164,3.52704758 2.07631733,4.63158731 C1.41119634,5.87525543 1.16211776,7.08045128 1.14394178,9.90830347 L1.14285714,21.7444592 C1.14285714,24.8231946 1.3845915,26.0749978 2.07631733,27.3684127 C2.66703164,28.4729524 3.52704758,29.3329684 4.63158731,29.9236827 C5.87525543,30.5888037 7.08045128,30.8378822 9.90830347,30.8560582 L21.7444592,30.8571429 C24.8231946,30.8571429 26.0749978,30.6154085 27.3684127,29.9236827 C28.4729524,29.3329684 29.3329684,28.4729524 29.9236827,27.3684127 C30.5888037,26.1247446 30.8378822,24.9195487 30.8560582,22.0916965 L30.8571429,10.2555408 C30.8571429,7.17680539 30.6154085,5.92500215 29.9236827,4.63158731 C29.3329684,3.52704758 28.4729524,2.66703164 27.3684127,2.07631733 C26.1247446,1.41119634 24.9195487,1.16211776 22.0916965,1.14394178 Z" id="矩形" fill-opacity="0.07" fill="#000A1A"></path>
                            <path d="M23.2990336,18.9697393 C24.3292983,18.96976 25.1644762,19.8049713 25.1644555,20.835236 C25.164454,20.9124622 25.1596569,20.9896138 25.150092,21.0662454 L24.6561969,25.0232248 C24.6340853,25.2003781 24.4835034,25.3333333 24.3049754,25.3333333 L20.7930196,25.3333333 C20.5975402,25.3333333 20.4390729,25.174866 20.4390729,24.9793866 C20.4390729,24.9647341 20.4399827,24.9500958 20.4417972,24.9355561 L21.1088995,19.5899418 C21.1531165,19.235623 21.4542913,18.9697023 21.8113584,18.9697095 L23.2990336,18.9697393 Z M24.3560219,6.66666667 C25.4854583,6.66666667 26.4010473,7.58225573 26.4010473,8.71169208 C26.4010473,8.79475534 26.3959866,8.87774144 26.3858934,8.96018918 L25.3577907,17.3583408 C25.3143264,17.7133829 25.0128355,17.980216 24.6551429,17.980216 L20.1612617,17.980216 C19.7703029,17.980216 19.4533682,17.6632813 19.4533682,17.2723226 C19.4533682,17.2435699 19.45512,17.2148439 19.4586138,17.1863043 L19.7700452,14.6423489 C19.8135095,14.2873068 20.1150003,14.0204737 20.472693,14.0204737 L21.567998,14.0204737 C21.7468443,14.0204737 21.8975897,13.8870571 21.9193219,13.7095361 L22.2482383,11.0227516 C22.2719916,10.8287208 22.1339544,10.6521719 21.9399235,10.6284186 L21.9184589,10.6264521 L19.2801041,10.6257958 C19.1012578,10.6257958 18.9505123,10.7592123 18.9287802,10.9367334 L17.2044118,25.0223957 C17.1826797,25.1999168 17.0319342,25.3333333 16.8530879,25.3333333 L13.680965,25.3333333 C13.4854857,25.3333333 13.3270183,25.174866 13.3270183,24.9793866 C13.3270183,24.9650103 13.3278942,24.9506473 13.3296411,24.9363775 L15.4900912,7.28854186 C15.5335555,6.93349976 15.8350463,6.66666667 16.192739,6.66666667 L24.3560219,6.66666667 Z M13.0165121,16.5834465 L12.8386303,17.8316035 C12.7889139,18.180452 12.4901915,18.4396202 12.1378181,18.4396202 L11.0249491,18.4396202 C10.6726781,18.4396202 10.3740098,18.6986417 10.324175,19.0473699 L9.46930769,25.0294585 C9.44439028,25.2038226 9.29505613,25.3333333 9.11892065,25.3333333 L5.74129956,25.3333333 C5.54582019,25.3333333 5.38735285,25.174866 5.38735285,24.9793866 C5.38735285,24.9626778 5.38853602,24.9459898 5.39089349,24.9294481 L6.75821577,15.3352891 C6.80793229,14.9864407 7.10665464,14.7272727 7.45902792,14.7272727 L11.4061167,14.7272727 C12.3045002,14.7272727 13.032784,15.4555565 13.032784,16.3539401 C13.032784,16.4307304 13.0273464,16.5074243 13.0165121,16.5834465 Z" id="形状结合" fill="#007AFF"></path>
                        </g>
                    </g>
                </g>
            </g>
        </g>
    </g>
</svg>