<?xml version="1.0" encoding="UTF-8"?>
<svg width="123px" height="48px" viewBox="0 0 123 48" version="1.1" xmlns="http://www.w3.org/2000/svg" xmlns:xlink="http://www.w3.org/1999/xlink">
    <title>logo-lunacy</title>
    <g id="everweb" stroke="none" stroke-width="1" fill="none" fill-rule="evenodd">
        <g id="关于我备份" transform="translate(-479.000000, -6956.000000)">
            <g id="logo-lunacy" transform="translate(479.000000, 6956.000000)">
                <rect id="矩形" stroke-opacity="0.0441706731" stroke="#000000" fill="#FFFFFF" x="0.5" y="0.5" width="122" height="47" rx="23.5"></rect>
                <text id="Lunacy" font-family="AlibabaPuHuiTi-Medium, Alibaba PuHuiTi" font-size="16" font-weight="400" fill="#000000">
                    <tspan x="51" y="30">Lunacy</tspan>
                </text>
                <g id="编组-23" transform="translate(5.000000, 5.000000)">
                    <circle id="椭圆形" fill-opacity="0.216154939" fill="#179DE3" cx="19" cy="19" r="19"></circle>
                    <g id="编组" transform="translate(9.000000, 10.000000)" fill-rule="nonzero">
                        <path d="M0,8 C0,5.1998 0,3.7996 0.545,2.73 C1.0243596,1.78923152 1.78923152,1.0243596 2.73,0.545 C3.7996,0 5.2,0 8,0 L12,0 C14.8002,0 16.2004,0 17.27,0.545 C18.2107685,1.0243596 18.9756404,1.78923152 19.455,2.73 C20,3.7996 20,5.2 20,8 L20,12 C20,14.8002 20,16.2004 19.455,17.27 C18.9756404,18.2107685 18.2107685,18.9756404 17.27,19.455 C16.2004,20 14.8,20 12,20 L8,20 C5.1998,20 3.7996,20 2.73,19.455 C1.78923152,18.9756404 1.0243596,18.2107685 0.545,17.27 C0,16.2004 0,14.8 0,12 L0,8 Z" id="路径" fill="#179DE3"></path>
                        <path d="M15.496,6.9238 C14.5800319,6.58386991 13.8577301,5.86156807 13.5178,4.9456 C13.1774995,5.86128556 12.45532,6.58339206 11.5396,6.9236 C12.4552387,7.26408225 13.1773029,7.98629242 13.5176,8.902 C13.8578959,7.98619683 14.5801624,7.26400336 15.496,6.9238 L15.496,6.9238 Z" id="路径" fill="#FFFFFF"></path>
                        <polygon id="路径" fill="#FFFFFF" points="10.0244 5 5.0244 5 5.0244 15 15.0224 15 15.0224 10 10.0244 14.998"></polygon>
                    </g>
                </g>
            </g>
        </g>
    </g>
</svg>