<?xml version="1.0" encoding="UTF-8"?>
<svg width="152px" height="48px" viewBox="0 0 152 48" version="1.1" xmlns="http://www.w3.org/2000/svg" xmlns:xlink="http://www.w3.org/1999/xlink">
    <title>logo-markdown</title>
    <g id="everweb" stroke="none" stroke-width="1" fill="none" fill-rule="evenodd">
        <g id="关于我备份" transform="translate(-1170.000000, -7077.000000)">
            <g id="logo-markdown" transform="translate(1170.000000, 7077.000000)">
                <rect id="矩形" stroke-opacity="0.0441706731" stroke="#000000" fill="#FFFFFF" x="0.5" y="0.5" width="151" height="47" rx="23.5"></rect>
                <text id="Markdown" font-family="AlibabaPuHuiTi-Medium, Alibaba PuHuiTi" font-size="16" font-weight="400" fill="#000000">
                    <tspan x="51" y="30">Markdown</tspan>
                </text>
                <g id="编组-23" transform="translate(5.000000, 5.000000)">
                    <circle id="椭圆形" fill="#E3E3E3" cx="19" cy="19" r="19"></circle>
                    <g id="markdown" transform="translate(9.000000, 9.000000)" fill="#000000" fill-rule="nonzero">
                        <rect id="矩形" opacity="0" x="0" y="0" width="20" height="20"></rect>
                        <path d="M18.5575,16.1541602 L1.4425,16.1541602 C0.646293081,16.1541602 0.00083984375,15.5087069 0.00083984375,14.7125 L0.00083984375,5.2875 C0.00083984375,4.49129308 0.646293081,3.84583984 1.4425,3.84583984 L18.5575,3.84583984 C19.3537069,3.84583984 19.9991604,4.49129308 19.9991604,5.2875 L19.9991604,14.7108398 C19.999383,15.0933374 19.8475926,15.4602451 19.5772047,15.7307905 C19.3068168,16.0013359 18.9399976,16.1533399 18.5575,16.1533398 L18.5575,16.1541602 Z M4.8075,13.2691602 L4.8075,9.51916016 L6.73083984,11.9233398 L8.65332031,9.51914063 L8.65332031,13.2691406 L10.5766406,13.2691406 L10.5766406,6.73164062 L8.65332031,6.73164062 L6.73082031,9.13582031 L4.80748047,6.73164062 L2.88414062,6.73164062 L2.88414062,13.2708203 L4.8075,13.2691602 Z M17.6925,10 L15.7691602,10 L15.7691602,6.73083984 L13.8466797,6.73083984 L13.8466797,10 L11.9233594,10 L14.8075195,13.3658203 L17.6925,10 Z" id="形状"></path>
                    </g>
                </g>
            </g>
        </g>
    </g>
</svg>