<?xml version="1.0" encoding="UTF-8"?>
<svg width="116px" height="48px" viewBox="0 0 116 48" version="1.1" xmlns="http://www.w3.org/2000/svg" xmlns:xlink="http://www.w3.org/1999/xlink">
    <title>logo-figma</title>
    <g id="everweb" stroke="none" stroke-width="1" fill="none" fill-rule="evenodd">
        <g id="关于我备份" transform="translate(-1485.000000, -7013.000000)">
            <g id="logo-figma" transform="translate(1485.000000, 7013.000000)">
                <rect id="矩形" stroke-opacity="0.0441706731" stroke="#000000" fill="#FFFFFF" x="0.5" y="0.5" width="115" height="47" rx="23.5"></rect>
                <text id="Figma" font-family="AlibabaPuHuiTi-Medium, Alibaba PuHuiTi" font-size="16" font-weight="400" fill="#000000">
                    <tspan x="51" y="30">Figma</tspan>
                </text>
                <g id="编组-23" transform="translate(5.000000, 5.000000)">
                    <circle id="椭圆形" fill="#FFEDEB" cx="19" cy="19" r="19"></circle>
                    <g id="Figma" transform="translate(13.000000, 9.000000)" fill-rule="nonzero">
                        <path d="M6.48477752,10 C6.48477752,8.15625 7.94613583,6.65625 9.74238876,6.65625 C11.5386417,6.65625 13,8.15625 13,10 C13,11.84375 11.5386417,13.34375 9.74238876,13.34375 C7.94613583,13.34375 6.48477752,11.84375 6.48477752,10 Z" id="路径" fill="#1ABCFE"></path>
                        <path d="M0,16.65625 C0,14.8125 1.46135831,13.3125 3.25761124,13.3125 L6.48477752,13.3125 L6.48477752,16.65625 C6.48477752,18.5 5.0234192,20 3.22716628,20 C1.43091335,20 0,18.5 0,16.65625 Z" id="路径" fill="#0ACF83"></path>
                        <path d="M6.48477752,0 L6.48477752,6.65625 L9.74238876,6.65625 C11.5386417,6.65625 13,5.15625 13,3.3125 C13,1.46875 11.5386417,0 9.74238876,0 L6.48477752,0 Z" id="路径" fill="#FF7262"></path>
                        <path d="M0,3.34375 C0,5.1875 1.46135831,6.6875 3.25761124,6.6875 L6.48477752,6.6875 L6.48477752,0 L3.22716628,0 C1.43091335,0 0,1.5 0,3.34375 Z" id="路径" fill="#F24E1E"></path>
                        <path d="M0,10 C0,11.84375 1.46135831,13.34375 3.25761124,13.34375 L6.48477752,13.34375 L6.48477752,6.65625 L3.22716628,6.65625 C1.43091335,6.65625 0,8.15625 0,10 Z" id="路径" fill="#A259FF"></path>
                    </g>
                </g>
            </g>
        </g>
    </g>
</svg>