<?xml version="1.0" encoding="UTF-8"?>
<svg width="120px" height="120px" viewBox="0 0 120 120" version="1.1" xmlns="http://www.w3.org/2000/svg" xmlns:xlink="http://www.w3.org/1999/xlink">
    <title>logo-微栈</title>
    <g id="everweb" stroke="none" stroke-width="1" fill="none" fill-rule="evenodd">
        <g id="关于我备份" transform="translate(-591.000000, -5192.000000)">
            <g id="编组-16备份-3" transform="translate(0.000000, 4683.000000)">
                <g id="logo-微栈" transform="translate(591.000000, 509.000000)">
                    <rect id="矩形" stroke-opacity="0.1" stroke="#000000" fill-opacity="0.05" fill="#009FFF" x="0.5" y="0.5" width="119" height="119"></rect>
                    <g id="编组-18" transform="translate(14.294000, 45.624000)" fill-rule="nonzero">
                        <g id="微栈信息" transform="translate(0.000000, 20.022000)" fill="#000000">
                            <path d="M12.068,12.908 C11.7133333,12.4973333 11.389,12.1006667 11.095,11.718 C10.801,11.3353333 10.5326667,10.9386667 10.29,10.528 C10.038,10.9293333 9.758,11.326 9.45,11.718 C9.142,12.11 8.792,12.5206667 8.4,12.95 L7.252,11.774 C7.728,11.3166667 8.15266667,10.8546667 8.526,10.388 C8.89933333,9.92133333 9.22133333,9.436 9.492,8.932 C9.17466667,8.11066667 8.932,7.20066667 8.764,6.202 C8.72666667,6.27666667 8.68933333,6.34666667 8.652,6.412 C8.61466667,6.47733333 8.57733333,6.54266667 8.54,6.608 L7.896,5.558 L7.896,6.79 L3.584,6.79 L3.584,5.292 L7.728,5.292 L7.63,5.124 C7.66733333,5.04933333 7.70466667,4.977 7.742,4.907 C7.77933333,4.837 7.81666667,4.76466667 7.854,4.69 L3.682,4.69 C3.57933333,4.87666667 3.47666667,5.068 3.374,5.264 C3.27133333,5.46 3.15933333,5.66066667 3.038,5.866 L3.038,11.508 C3.206,11.3306667 3.346,11.1556667 3.458,10.983 C3.57,10.8103333 3.65633333,10.6283333 3.717,10.437 C3.77766667,10.2456667 3.81966667,10.031 3.843,9.793 C3.86633333,9.555 3.878,9.282 3.878,8.974 L3.878,7.35 L7.672,7.35 L7.672,9.268 C7.756,9.19333333 7.85866667,9.11166667 7.98,9.023 C8.10133333,8.93433333 8.19933333,8.85733333 8.274,8.792 L8.652,10.108 C8.58666667,10.164 8.50033333,10.234 8.393,10.318 C8.28566667,10.402 8.17366667,10.493 8.057,10.591 C7.94033333,10.689 7.82133333,10.7893333 7.7,10.892 C7.57866667,10.9946667 7.46666667,11.088 7.364,11.172 C7.28933333,11.2466667 7.21466667,11.3166667 7.14,11.382 C7.06533333,11.4473333 6.99533333,11.5173333 6.93,11.592 L5.992,10.598 C6.11333333,10.4673333 6.18566667,10.346 6.209,10.234 C6.23233333,10.122 6.244,10.0286667 6.244,9.954 L6.244,8.848 L5.32,8.848 L5.32,9.296 C5.32,9.632 5.30133333,9.93533333 5.264,10.206 C5.22666667,10.4766667 5.16366667,10.7426667 5.075,11.004 C4.98633333,11.2653333 4.86033333,11.529 4.697,11.795 C4.53366667,12.061 4.326,12.3526667 4.074,12.67 L3.038,12.012 L3.038,12.558 L1.568,12.558 L1.568,8.008 C1.44666667,8.16666667 1.32766667,8.31833333 1.211,8.463 C1.09433333,8.60766667 0.975333333,8.74533333 0.854,8.876 L0,7.336 C0.224,7.09333333 0.459666667,6.82033333 0.707,6.517 C0.954333333,6.21366667 1.19466667,5.894 1.428,5.558 C1.66133333,5.222 1.883,4.88366667 2.093,4.543 C2.303,4.20233333 2.478,3.86866667 2.618,3.542 L3.598,4.102 L3.598,1.834 C3.29933333,2.32866667 2.96566667,2.83033333 2.597,3.339 C2.22833333,3.84766667 1.86666667,4.312 1.512,4.732 L0.336,3.626 C0.550666667,3.38333333 0.767666667,3.11966667 0.987,2.835 C1.20633333,2.55033333 1.421,2.25866667 1.631,1.96 C1.841,1.66133333 2.03466667,1.365 2.212,1.071 C2.38933333,0.777 2.54333333,0.504 2.674,0.252 L4.018,1.12 L3.906,1.316 L4.886,1.358 L4.886,3.234 L5.334,3.234 L5.334,0.266 L6.552,0.322 L6.552,3.234 L7,3.234 L7,1.302 L8.288,1.358 L8.288,3.696 C8.50266667,3.14533333 8.69166667,2.569 8.855,1.967 C9.01833333,1.365 9.13733333,0.807333333 9.212,0.294 L10.654,0.476 C10.598,0.793333333 10.5373333,1.106 10.472,1.414 C10.4066667,1.722 10.332,2.02533333 10.248,2.324 L12.628,2.324 L12.628,3.92 L12.208,3.92 C12.124,4.97466667 11.998,5.901 11.83,6.699 C11.662,7.497 11.438,8.232 11.158,8.904 C11.4286667,9.41733333 11.7343333,9.89566667 12.075,10.339 C12.4156667,10.7823333 12.7913333,11.2046667 13.202,11.606 L12.068,12.908 Z M9.772,3.92 C9.81866667,4.48 9.88866667,5.00733333 9.982,5.502 C10.0753333,5.99666667 10.192,6.47266667 10.332,6.93 C10.4626667,6.47266667 10.577,5.99666667 10.675,5.502 C10.773,5.00733333 10.85,4.48 10.906,3.92 L9.772,3.92 Z" id="形状"></path>
                            <path d="M26.67,9.772 C26.586,10.2386667 26.4413333,10.71 26.236,11.186 C26.096,11.5126667 25.9583333,11.781 25.823,11.991 C25.6876667,12.201 25.543,12.3666667 25.389,12.488 C25.235,12.6093333 25.0693333,12.6956667 24.892,12.747 C24.7146667,12.7983333 24.5186667,12.824 24.304,12.824 C23.8933333,12.824 23.4943333,12.6863333 23.107,12.411 C22.7196667,12.1356667 22.3673333,11.6946667 22.05,11.088 C22.0033333,11.004 21.9613333,10.9223333 21.924,10.843 C21.8866667,10.7636667 21.8493333,10.6773333 21.812,10.584 C21.3173333,10.8546667 20.8063333,11.1043333 20.279,11.333 C19.7516667,11.5616667 19.2033333,11.7833333 18.634,11.998 L17.948,10.318 C19.1613333,9.90733333 20.258,9.44533333 21.238,8.932 C21.1633333,8.652 21.0933333,8.35333333 21.028,8.036 C20.9626667,7.71866667 20.902,7.38266667 20.846,7.028 L19.432,7.224 L18.424,8.232 C18.3213333,8.07333333 18.2023333,7.90066667 18.067,7.714 C17.9316667,7.52733333 17.794,7.34066667 17.654,7.154 L17.654,12.768 L16.002,12.768 L16.002,7.49 C15.806,7.90066667 15.5983333,8.29266667 15.379,8.666 C15.1596667,9.03933333 14.9426667,9.38 14.728,9.688 L13.79,8.316 C13.9486667,8.05466667 14.119,7.763 14.301,7.441 C14.483,7.119 14.665,6.776 14.847,6.412 C15.029,6.048 15.2063333,5.67466667 15.379,5.292 C15.5516667,4.90933333 15.7126667,4.52666667 15.862,4.144 L14.49,4.144 L14.49,2.506 L16.002,2.506 L16.002,0.252 L17.654,0.322 L17.654,2.506 L18.9,2.506 L18.9,4.144 L17.654,4.144 L17.654,5.684 L18.06,5.334 C18.2,5.474 18.3586667,5.649 18.536,5.859 C18.7133333,6.069 18.8906667,6.28133333 19.068,6.496 L18.984,5.712 L20.622,5.502 C20.6033333,5.34333333 20.5846667,5.18 20.566,5.012 C20.5473333,4.844 20.5286667,4.66666667 20.51,4.48 L19.25,4.634 L19.138,3.066 L20.37,2.926 C20.3606667,2.758 20.3466667,2.54333333 20.328,2.282 C20.3093333,2.02066667 20.2906667,1.75466667 20.272,1.484 C20.2533333,1.21333333 20.237,0.961333333 20.223,0.728 C20.209,0.494666667 20.202,0.326666667 20.202,0.224 L21.826,0.28 C21.8353333,0.746666667 21.8493333,1.169 21.868,1.547 C21.8866667,1.925 21.91,2.32866667 21.938,2.758 L23.674,2.562 C23.4593333,2.31 23.2283333,2.051 22.981,1.785 C22.7336667,1.519 22.5073333,1.29266667 22.302,1.106 L23.24,0.154 C23.5013333,0.378 23.7766667,0.634666667 24.066,0.924 C24.3553333,1.21333333 24.6166667,1.49333333 24.85,1.764 L24.178,2.506 L25.928,2.31 L26.026,3.836 L22.078,4.298 L22.204,5.292 L26.18,4.774 L26.306,6.286 L25.088,6.454 L25.97,7.518 C25.1953333,8.33 24.2853333,9.072 23.24,9.744 C23.2866667,9.84666667 23.3356667,9.94466667 23.387,10.038 C23.4383333,10.1313333 23.4873333,10.22 23.534,10.304 C23.6926667,10.5653333 23.835,10.7496667 23.961,10.857 C24.087,10.9643333 24.2013333,11.018 24.304,11.018 C24.3693333,11.018 24.43,11.0063333 24.486,10.983 C24.542,10.9596667 24.5933333,10.9153333 24.64,10.85 C24.6866667,10.7846667 24.7333333,10.696 24.78,10.584 C24.8266667,10.472 24.8826667,10.332 24.948,10.164 C25.0226667,9.968 25.0763333,9.79766667 25.109,9.653 C25.1416667,9.50833333 25.1766667,9.324 25.214,9.1 L26.67,9.772 Z M22.428,6.818 C22.4746667,7.06066667 22.519,7.28933333 22.561,7.504 C22.603,7.71866667 22.6473333,7.91933333 22.694,8.106 C23.4966667,7.602 24.1873333,7.06533333 24.766,6.496 L22.428,6.818 Z" id="形状"></path>
                            <path d="M40.222,1.372 L40.222,2.996 L31.864,2.996 L31.864,1.554 C31.7613333,1.834 31.6516667,2.128 31.535,2.436 C31.4183333,2.744 31.2853333,3.06133333 31.136,3.388 L31.136,12.67 L29.456,12.67 L29.456,6.594 C29.3533333,6.762 29.246,6.93233333 29.134,7.105 C29.022,7.27766667 28.9053333,7.45266667 28.784,7.63 L27.58,6.342 C27.9813333,5.81 28.3406667,5.271 28.658,4.725 C28.9753333,4.179 29.2576667,3.63766667 29.505,3.101 C29.7523333,2.56433333 29.967,2.04166667 30.149,1.533 C30.331,1.02433333 30.492,0.541333333 30.632,0.084 L32.172,0.574 C32.0973333,0.826 32.0133333,1.092 31.92,1.372 L35.112,1.372 L34.86,0.294 L36.652,0.21 L36.89,1.372 L40.222,1.372 Z M39.466,5.152 L32.494,5.152 L32.494,3.668 L39.466,3.668 L39.466,5.152 Z M32.494,5.768 L39.466,5.768 L39.466,7.252 L32.494,7.252 L32.494,5.768 Z M32.508,7.938 L39.48,7.938 L39.48,12.418 L32.508,12.418 L32.508,7.938 Z M34.258,10.794 L37.716,10.794 L37.716,9.506 L34.258,9.506 L34.258,10.794 Z" id="形状"></path>
                            <path d="M47.432,8.12 L43.064,8.12 L43.064,1.078 L46.186,1.078 C46.2326667,0.891333333 46.2793333,0.702333333 46.326,0.511 C46.3726667,0.319666667 46.41,0.149333333 46.438,0 L48.3,0.196 C48.2813333,0.308 48.2533333,0.443333333 48.216,0.602 C48.1786667,0.760666667 48.1366667,0.919333333 48.09,1.078 L52.486,1.078 L52.486,8.12 L48.356,8.12 C48.5613333,8.36266667 48.7666667,8.624 48.972,8.904 C49.1773333,9.184 49.3406667,9.43133333 49.462,9.646 L48.16,10.71 C48.076,10.5606667 47.9756667,10.395 47.859,10.213 C47.7423333,10.031 47.6186667,9.84666667 47.488,9.66 C47.3573333,9.47333333 47.222,9.29366667 47.082,9.121 C46.942,8.94833333 46.8113333,8.79666667 46.69,8.666 L47.432,8.12 Z M44.744,2.436 L44.744,3.052 L50.778,3.052 L50.778,2.436 L44.744,2.436 Z M50.778,4.284 L44.744,4.284 L44.744,4.9 L50.778,4.9 L50.778,4.284 Z M44.744,6.748 L50.778,6.748 L50.778,6.146 L44.744,6.146 L44.744,6.748 Z M52.248,8.26 C52.3973333,8.44666667 52.5606667,8.666 52.738,8.918 C52.9153333,9.17 53.0926667,9.43133333 53.27,9.702 C53.4473333,9.97266667 53.6153333,10.2433333 53.774,10.514 C53.9326667,10.7846667 54.068,11.032 54.18,11.256 L52.794,12.208 C52.682,11.9466667 52.5466667,11.6666667 52.388,11.368 C52.2293333,11.0693333 52.0613333,10.7776667 51.884,10.493 C51.7066667,10.2083333 51.5316667,9.94466667 51.359,9.702 C51.1863333,9.45933333 51.03,9.26333333 50.89,9.114 L52.248,8.26 Z M41.342,11.55 C41.4633333,11.3633333 41.601,11.137 41.755,10.871 C41.909,10.605 42.056,10.3296667 42.196,10.045 C42.336,9.76033333 42.4666667,9.478 42.588,9.198 C42.7093333,8.918 42.8026667,8.67066667 42.868,8.456 L44.338,8.974 C44.254,9.27266667 44.1536667,9.57833333 44.037,9.891 C43.9203333,10.2036667 43.792,10.507 43.652,10.801 C43.512,11.095 43.3673333,11.375 43.218,11.641 C43.0686667,11.907 42.9286667,12.1473333 42.798,12.362 L41.342,11.55 Z M49.616,10.5 C49.644,10.3413333 49.672,10.1453333 49.7,9.912 C49.728,9.67866667 49.7466667,9.492 49.756,9.352 L51.268,9.884 C51.2493333,10.0426667 51.2283333,10.2363333 51.205,10.465 C51.1816667,10.6936667 51.156,10.9106667 51.128,11.116 C51.0906667,11.4146667 51.03,11.6573333 50.946,11.844 C50.862,12.0306667 50.743,12.18 50.589,12.292 C50.435,12.404 50.246,12.4833333 50.022,12.53 C49.798,12.5766667 49.5273333,12.6046667 49.21,12.614 C48.2393333,12.6606667 47.2733333,12.6606667 46.312,12.614 C45.9946667,12.6046667 45.7263333,12.5696667 45.507,12.509 C45.2876667,12.4483333 45.108,12.3503333 44.968,12.215 C44.828,12.0796667 44.7276667,11.8976667 44.667,11.669 C44.6063333,11.4403333 44.576,11.144 44.576,10.78 L44.576,8.54 L46.298,8.61 L46.298,10.43 C46.298,10.6726667 46.3423333,10.8336667 46.431,10.913 C46.5196667,10.9923333 46.6946667,11.0413333 46.956,11.06 C47.5626667,11.1066667 48.174,11.1066667 48.79,11.06 C48.958,11.0506667 49.091,11.039 49.189,11.025 C49.287,11.011 49.364,10.9853333 49.42,10.948 C49.476,10.9106667 49.518,10.857 49.546,10.787 C49.574,10.717 49.5973333,10.6213333 49.616,10.5 Z" id="形状"></path>
                        </g>
                        <g id="MICSTACK" transform="translate(1.169000, 0.000000)" fill="#009FFF">
                            <polygon id="路径" points="0 0.19 4.693 0.19 6.878 7.619 6.992 7.619 9.272 0.19 13.832 0.19 13.832 13.376 10.982 13.376 10.982 3.002 10.868 3.002 8.322 10.887 5.434 10.887 2.926 3.002 2.812 3.002 2.812 13.376 0 13.376"></polygon>
                            <polygon id="路径" points="16.758 0.19 19.646 0.19 19.646 13.376 16.758 13.376"></polygon>
                            <path d="M28.595,13.566 C27.6323333,13.566 26.7583333,13.471 25.973,13.281 C25.1876667,13.091 24.5163333,12.7458333 23.959,12.2455 C23.4016667,11.7451667 22.971,11.0548333 22.667,10.1745 C22.363,9.29416667 22.211,8.16366667 22.211,6.783 C22.211,5.51633333 22.3598333,4.44916667 22.6575,3.5815 C22.9551667,2.71383333 23.3826667,2.014 23.94,1.482 C24.4973333,0.95 25.1655,0.57 25.9445,0.342 C26.7235,0.114 27.6006667,0 28.576,0 C29.8173333,0 30.8433333,0.145666667 31.654,0.437 L31.654,2.926 C31.2486667,2.78666667 30.8053333,2.67583333 30.324,2.5935 C29.8426667,2.51116667 29.3233333,2.47 28.766,2.47 C28.1706667,2.47 27.6576667,2.54283333 27.227,2.6885 C26.7963333,2.83416667 26.4416667,3.07483333 26.163,3.4105 C25.8843333,3.74616667 25.6785,4.18633333 25.5455,4.731 C25.4125,5.27566667 25.346,5.95333333 25.346,6.764 C25.346,7.62533333 25.4125,8.3315 25.5455,8.8825 C25.6785,9.4335 25.8843333,9.8705 26.163,10.1935 C26.4416667,10.5165 26.7931667,10.7413333 27.2175,10.868 C27.6418333,10.9946667 28.1453333,11.058 28.728,11.058 C29.2726667,11.058 29.7951667,11.0168333 30.2955,10.9345 C30.7958333,10.8521667 31.2993333,10.7223333 31.806,10.545 L31.806,13.015 C31.4133333,13.1796667 30.9383333,13.3126667 30.381,13.414 C29.8236667,13.5153333 29.2283333,13.566 28.595,13.566 Z" id="路径"></path>
                            <path d="M37.449,13.566 C36.6763333,13.566 35.9448333,13.5153333 35.2545,13.414 C34.5641667,13.3126667 34.0163333,13.205 33.611,13.091 L33.611,10.564 C33.8136667,10.64 34.0606667,10.7096667 34.352,10.773 C34.6433333,10.8363333 34.9536667,10.8901667 35.283,10.9345 C35.6123333,10.9788333 35.9511667,11.0168333 36.2995,11.0485 C36.6478333,11.0801667 36.993,11.096 37.335,11.096 C37.7656667,11.096 38.1298333,11.0706667 38.4275,11.02 C38.7251667,10.9693333 38.9658333,10.8806667 39.1495,10.754 C39.3331667,10.6273333 39.463,10.4626667 39.539,10.26 C39.615,10.0573333 39.653,9.81033333 39.653,9.519 C39.653,9.26566667 39.6213333,9.05033333 39.558,8.873 C39.4946667,8.69566667 39.3775,8.53733333 39.2065,8.398 C39.0355,8.25866667 38.7948333,8.132 38.4845,8.018 C38.1741667,7.904 37.7656667,7.78366667 37.259,7.657 C36.5496667,7.49233333 35.9638333,7.31183333 35.5015,7.1155 C35.0391667,6.91916667 34.6686667,6.6785 34.39,6.3935 C34.1113333,6.1085 33.915,5.76333333 33.801,5.358 C33.687,4.95266667 33.63,4.45233333 33.63,3.857 C33.63,2.46366667 34.0511667,1.4725 34.8935,0.8835 C35.7358333,0.2945 36.9233333,0 38.456,0 C39.2033333,0 39.8651667,0.0475 40.4415,0.1425 C41.0178333,0.2375 41.4833333,0.348333333 41.838,0.475 L41.838,2.85 C41.6733333,2.79933333 41.4643333,2.7455 41.211,2.6885 C40.9576667,2.6315 40.679,2.57766667 40.375,2.527 C40.071,2.47633333 39.7638333,2.43833333 39.4535,2.413 C39.1431667,2.38766667 38.8486667,2.375 38.57,2.375 C37.8226667,2.375 37.2811667,2.47 36.9455,2.66 C36.6098333,2.85 36.442,3.22366667 36.442,3.781 C36.442,3.99633333 36.4673333,4.18 36.518,4.332 C36.5686667,4.484 36.6731667,4.62016667 36.8315,4.7405 C36.9898333,4.86083333 37.2178333,4.97166667 37.5155,5.073 C37.8131667,5.17433333 38.2026667,5.282 38.684,5.396 C39.4693333,5.586 40.1121667,5.79816667 40.6125,6.0325 C41.1128333,6.26683333 41.5055,6.5455 41.7905,6.8685 C42.0755,7.1915 42.2686667,7.5715 42.37,8.0085 C42.4713333,8.4455 42.522,8.97433333 42.522,9.595 C42.522,10.887 42.1293333,11.8718333 41.344,12.5495 C40.5586667,13.2271667 39.2603333,13.566 37.449,13.566 Z" id="路径"></path>
                            <polygon id="路径" points="53.675 2.717 50.217 2.717 50.217 13.376 47.348 13.376 47.348 2.717 43.89 2.717 43.89 0.19 53.675 0.19"></polygon>
                            <path d="M63.574,10.108 L58.216,10.108 L57.076,13.376 L54.074,13.376 L58.995,0.19 L62.871,0.19 L67.754,13.376 L64.695,13.376 L63.574,10.108 Z M62.738,7.714 L61.028,2.717 L60.8,2.717 L59.052,7.714 L62.738,7.714 Z" id="形状"></path>
                            <path d="M75.278,13.566 C74.3153333,13.566 73.4413333,13.471 72.656,13.281 C71.8706667,13.091 71.1993333,12.7458333 70.642,12.2455 C70.0846667,11.7451667 69.654,11.0548333 69.35,10.1745 C69.046,9.29416667 68.894,8.16366667 68.894,6.783 C68.894,5.51633333 69.0428333,4.44916667 69.3405,3.5815 C69.6381667,2.71383333 70.0656667,2.014 70.623,1.482 C71.1803333,0.95 71.8485,0.57 72.6275,0.342 C73.4065,0.114 74.2836667,0 75.259,0 C76.5003333,0 77.5263333,0.145666667 78.337,0.437 L78.337,2.926 C77.9316667,2.78666667 77.4883333,2.67583333 77.007,2.5935 C76.5256667,2.51116667 76.0063333,2.47 75.449,2.47 C74.8536667,2.47 74.3406667,2.54283333 73.91,2.6885 C73.4793333,2.83416667 73.1246667,3.07483333 72.846,3.4105 C72.5673333,3.74616667 72.3615,4.18633333 72.2285,4.731 C72.0955,5.27566667 72.029,5.95333333 72.029,6.764 C72.029,7.62533333 72.0955,8.3315 72.2285,8.8825 C72.3615,9.4335 72.5673333,9.8705 72.846,10.1935 C73.1246667,10.5165 73.4761667,10.7413333 73.9005,10.868 C74.3248333,10.9946667 74.8283333,11.058 75.411,11.058 C75.9556667,11.058 76.4781667,11.0168333 76.9785,10.9345 C77.4788333,10.8521667 77.9823333,10.7223333 78.489,10.545 L78.489,13.015 C78.0963333,13.1796667 77.6213333,13.3126667 77.064,13.414 C76.5066667,13.5153333 75.9113333,13.566 75.278,13.566 Z" id="路径"></path>
                            <polygon id="路径" points="91.675 13.376 88.179 13.376 84.303 7.6 83.6 7.6 83.6 13.376 80.712 13.376 80.712 0.19 83.6 0.19 83.6 5.263 84.303 5.263 88.103 0.19 91.485 0.19 86.678 6.308"></polygon>
                        </g>
                    </g>
                </g>
            </g>
        </g>
    </g>
</svg>