<?xml version="1.0" encoding="UTF-8"?>
<svg width="128px" height="48px" viewBox="0 0 128 48" version="1.1" xmlns="http://www.w3.org/2000/svg" xmlns:xlink="http://www.w3.org/1999/xlink">
    <title>logo-blender</title>
    <g id="everweb" stroke="none" stroke-width="1" fill="none" fill-rule="evenodd">
        <g id="关于我备份" transform="translate(-605.000000, -7013.000000)">
            <g id="logo-blender" transform="translate(605.000000, 7013.000000)">
                <rect id="矩形" stroke-opacity="0.0441706731" stroke="#000000" fill="#FFFFFF" x="0.5" y="0.5" width="127" height="47" rx="23.5"></rect>
                <text id="Blender" font-family="AlibabaPuHuiTi-Medium, Alibaba PuHuiTi" font-size="16" font-weight="400" fill="#000000">
                    <tspan x="51" y="30">Blender</tspan>
                </text>
                <g id="编组-23" transform="translate(5.000000, 5.000000)">
                    <circle id="椭圆形" fill="#FFF4E8" cx="19" cy="19" r="19"></circle>
                    <g id="blender" transform="translate(7.000000, 7.000000)">
                        <rect id="矩形" fill="#000000" fill-rule="nonzero" opacity="0" x="0" y="0" width="24" height="24"></rect>
                        <path d="M7.99999219,2.99999219 C7.99999219,3.34000781 8.17000781,3.69 8.50000781,3.88000781 L12.0000078,5.99999219 L2.50000781,5.99999219 C1.67158069,5.99999219 1.00000781,6.67157288 1.00000781,7.49999219 C1.00000781,8.32842712 1.67158069,8.99999219 2.50000781,8.99999219 L8.41000781,8.99999219 L1.99999219,13.0000078 C1.15999219,13.4999922 1.00000781,14.22 1.00000781,14.9999922 C1.00000781,16.0000078 1.77,16.9999922 3.00000781,16.9999922 C3.69,16.9999922 4.39000781,16.4999922 4.99999219,16.0000078 L7.00000781,14.3800078 C7.2,18.6199922 10.71,22.0000078 15.0000078,22.0000078 C17.1217339,22.0000078 19.1565668,21.1571507 20.656857,19.6568561 C22.1571472,18.1565614 22.9999922,16.1217261 22.9999922,13.9999922 C22.9999922,11.0800078 21.4300078,8.50000781 19.0900078,7.12999219 C19.0600078,7.11 19.0300078,7.08 19.0000078,7.06000781 C19.0000078,7.06000781 18.9199922,7.00000781 18.8599922,6.97000781 C15.7600078,4.87999219 13.0300078,3.72 9.55000781,2.13 C9.34000781,2.04 9.16000781,1.99999219 9.00000781,1.99999219 C8.4,1.99999219 7.99999219,2.46 7.99999219,2.99999219 M15.0000078,9 C17.7614194,9 19.9999922,11.2385728 19.9999922,14 C19.9999922,15.3260766 19.4732178,16.5978502 18.5355367,17.5355357 C17.5978556,18.4732212 16.3260844,19 15.0000078,19 C13.6739156,19 12.4021444,18.4732212 11.4644633,17.5355357 C10.5267822,16.5978502 10.0000078,15.3260766 10.0000078,14 C10.0000078,12.6739118 10.5267912,11.4021442 11.4644716,10.4644638 C12.402152,9.52678338 13.6739196,9 15.0000078,9" id="形状" fill="#FF8608" fill-rule="nonzero"></path>
                        <path d="M15.0000078,10.5 C13.0670077,10.5 11.5000078,12.0669999 11.5000078,14 C11.5000078,14.9282519 11.868747,15.8184946 12.5251235,16.4748755 C13.1815,17.1312565 14.0717403,17.5 15.0000078,17.5 C15.9282597,17.5 16.8185,17.1312565 17.4748765,16.4748755 C18.131253,15.8184946 18.4999922,14.9282519 18.4999922,14 C18.4999922,13.0717365 18.1312441,12.1814998 17.4748682,11.525124 C16.8184924,10.8687481 15.9282556,10.5 15.0000078,10.5 Z" id="路径" fill="#265787"></path>
                    </g>
                </g>
            </g>
        </g>
    </g>
</svg>