<?xml version="1.0" encoding="UTF-8"?>
<svg width="148px" height="64px" viewBox="0 0 148 64" version="1.1" xmlns="http://www.w3.org/2000/svg" xmlns:xlink="http://www.w3.org/1999/xlink">
    <title>loticon</title>
    <g id="everweb" stroke="none" stroke-width="1" fill="none" fill-rule="evenodd">
        <g id="关于我备份" transform="translate(-530.000000, -5874.000000)">
            <g id="loticon" transform="translate(530.000000, 5874.000000)">
                <rect id="矩形" stroke-opacity="0.0441706731" stroke="#000000" fill="#FFFFFF" x="0.5" y="0.5" width="147" height="63"></rect>
                <text id="Loticon" font-family="AlibabaPuHuiTi-Medium, Alibaba PuHuiTi" font-size="18" font-weight="400" fill="#000000">
                    <tspan x="64" y="27">Loticon</tspan>
                </text>
                <text id="icon+lottie" font-family="AlibabaPuHuiTi-Regular, Alibaba PuHuiTi" font-size="14" font-weight="normal" fill="#000000" fill-opacity="0.4">
                    <tspan x="64" y="51">icon+lottie</tspan>
                </text>
                <g id="编组-20" transform="translate(8.000000, 8.000000)">
                    <rect id="矩形" fill="#3BDEB3" x="0" y="0" width="48" height="48"></rect>
                    <g id="编组-21" transform="translate(4.000000, 13.000000)" fill="#FFFFFF">
                        <path d="M33.5003961,5.5 C34.3288232,5.5 35.0003961,6.17157288 35.0003961,7 C35.0003961,7.82842712 34.3288232,8.5 33.5003961,8.5 L5.50039609,8.5 C4.67196896,8.5 4.00039609,7.82842712 4.00039609,7 C4.00039609,6.17157288 4.67196896,5.5 5.50039609,5.5 L33.5003961,5.5 Z" id="路径-8" fill-rule="nonzero" opacity="0.400000006"></path>
                        <circle id="椭圆形" cx="19.5003961" cy="7" r="7"></circle>
                        <path d="M11.9348764,9.30014248 C14.4034106,5.30715839 19.641506,4.07134754 23.6344901,6.53988167 C24.8185526,7.27189023 25.8047092,8.28350617 26.506601,9.48634397 C27.8875287,11.8549743 29.0479139,13.4860873 29.9426404,14.3498443 C31.9706283,16.3076367 34.69564,18.0729559 38.1225749,19.6351214 C38.8763765,19.9787413 39.2088945,20.8683772 38.8652747,21.6221788 C38.5216548,22.3759804 37.6320189,22.7084984 36.8782173,22.3648786 C33.1589813,20.6694678 30.1509434,18.7207983 27.8590028,16.5081896 C26.723092,15.4115965 25.423026,13.5841391 23.9151911,10.9978314 C23.4612167,10.2198518 22.8231153,9.56527683 22.0569573,9.09162422 C19.5412537,7.5363713 16.261735,8.25355324 14.6163964,10.677417 L14.4963961,10.861 L14.4876608,10.8783368 C13.3854867,12.6611223 12.4133699,14.1139779 11.566689,15.2412849 L11.3576294,15.5163319 C9.04574006,18.5204724 5.9393123,20.8134245 2.06567591,22.3894095 C1.29832624,22.7016049 0.423182024,22.3326295 0.110986599,21.5652798 C-0.201208826,20.7979302 0.167766594,19.9227859 0.935116265,19.6105905 C4.32971166,18.2295029 7.0022778,16.2567977 8.9801445,13.6866965 C9.74076093,12.6983279 10.6404529,11.375013 11.6745988,9.72113303 L11.9348764,9.30014248 Z" id="路径-20" fill-rule="nonzero"></path>
                    </g>
                </g>
            </g>
        </g>
    </g>
</svg>