<?xml version="1.0" encoding="UTF-8"?>
<svg width="50px" height="50px" viewBox="0 0 50 50" version="1.1" xmlns="http://www.w3.org/2000/svg" xmlns:xlink="http://www.w3.org/1999/xlink">
    <title>lottie</title>
    <defs>
        <polygon id="path-1" points="0 -1.48739298e-15 0 50 49.9759615 50 49.9759615 -1.48739298e-15"></polygon>
    </defs>
    <g id="everweb" stroke="none" stroke-width="1" fill="none" fill-rule="evenodd">
        <g id="画板" transform="translate(-351.000000, -258.000000)">
            <g id="lottie" transform="translate(351.009615, 258.000000)">
                <mask id="mask-2" fill="white">
                    <use xlink:href="#path-1"></use>
                </mask>
                <path stroke-opacity="0.1" stroke="#FFFFFF" d="M49.4759615,0.5 L49.4759615,49.5 L0.5,49.5 L0.5,0.5 L49.4759615,0.5 Z"></path>
                <path d="M35.2876179,11.4814815 C27.9800208,11.4814815 25.2720618,17.253504 23.0945895,21.8903922 L21.6718835,24.8570974 C19.3664847,29.7746077 17.6435597,32.7638951 13.204238,32.7638951 C12.6475176,32.7635171 12.1135248,33.0081231 11.7200185,33.4437713 C11.326573,33.8791506 11.1057692,34.4696161 11.1057692,35.0852362 C11.1057692,35.7008562 11.327173,36.2911871 11.720835,36.7263268 C12.1143524,37.1615512 12.6477813,37.4064664 13.204238,37.4074074 C20.5148292,37.4074074 23.2227882,31.6350838 25.4002605,26.9984967 L26.8199724,24.0317915 C29.1283653,19.1139801 30.8512903,16.1249938 35.2876179,16.1249938 C35.8448633,16.1260717 36.3795851,15.8817709 36.7737428,15.4460209 C37.1679545,15.0105405 37.3894231,14.4195288 37.3894231,13.8032376 C37.387172,12.5207557 36.4469525,11.4822782 35.2876179,11.4817826 L35.2876179,11.4814815 Z" id="路径备份" stroke="#FFFFFF" stroke-linejoin="round" mask="url(#mask-2)"></path>
            </g>
        </g>
    </g>
</svg>