<?xml version="1.0" encoding="UTF-8"?>
<svg width="50px" height="50px" viewBox="0 0 50 50" version="1.1" xmlns="http://www.w3.org/2000/svg" xmlns:xlink="http://www.w3.org/1999/xlink">
    <title>lunacy</title>
    <g id="everweb" stroke="none" stroke-width="1" fill="none" fill-rule="evenodd">
        <g id="画板" transform="translate(-418.000000, -168.000000)" stroke="#FFFFFF">
            <g id="lunacy" transform="translate(418.010699, 168.000000)">
                <path d="M49.4750357,0.5 L49.4750357,49.5 L0.5,49.5 L0.5,0.5 L49.4750357,0.5 Z" id="路径" stroke-opacity="0.1" fill-opacity="0" fill="#FFFFFF"></path>
                <path d="M24.4918904,12.5925926 L24.4918904,37.7777778 L11.8459344,37.7777778 L11.8459344,12.5925926 L24.4918904,12.5925926 Z M37.0185449,25.2448657 L37.0185449,37.7777778 L24.4918904,37.7777778 L37.0185449,25.2448657 Z M33.1918086,12.5925926 C33.9903591,14.907748 35.8151018,16.7334022 38.1291013,17.5323516 L38.1291013,17.6528336 C35.8154315,18.4524737 33.9907781,20.277854 33.0713868,22.5925926 C32.2714039,20.2780956 30.4472616,18.4526731 28.1340942,17.5323516 C30.4474668,16.7321944 32.2719005,14.9070339 33.1918086,12.5925926 Z" id="形状结合" stroke-linejoin="round"></path>
            </g>
        </g>
    </g>
</svg>