<?xml version="1.0" encoding="UTF-8"?>
<svg width="220px" height="64px" viewBox="0 0 220 64" version="1.1" xmlns="http://www.w3.org/2000/svg" xmlns:xlink="http://www.w3.org/1999/xlink">
    <title>lunacy</title>
    <g id="everweb" stroke="none" stroke-width="1" fill="none" fill-rule="evenodd">
        <g id="关于我备份" transform="translate(-530.000000, -5954.000000)">
            <g id="lunacy" transform="translate(530.000000, 5954.000000)">
                <rect id="矩形" stroke-opacity="0.0441706731" stroke="#000000" fill="#FFFFFF" x="0.5" y="0.5" width="219" height="63"></rect>
                <text id="LUNACY共创" font-family="AlibabaPuHuiTi-Medium, Alibaba PuHuiTi" font-size="18" font-weight="400" fill="#000000">
                    <tspan x="64" y="27">LUNACY共创</tspan>
                </text>
                <text id="品牌LOGO" font-family="AlibabaPuHuiTi-Regular, Alibaba PuHuiTi" font-size="14" font-weight="normal" fill="#000000" fill-opacity="0.4">
                    <tspan x="64" y="51">品牌LOGO</tspan>
                </text>
                <g id="编组-20" transform="translate(8.000000, 8.000000)">
                    <rect id="矩形" fill="#179DE3" x="0" y="0" width="48" height="48"></rect>
                    <polygon id="形状结合" fill="#FFFFFF" fill-rule="nonzero" points="23.9370488 12.1298536 12 12.1298536 12 36 35.8693227 36 35.8693227 24.0649268 23.9370488 35.995226"></polygon>
                    <path d="M37,16.7219924 C34.8132089,15.9105743 33.0887784,14.1864292 32.277226,12 C31.4647892,14.1857548 29.7406508,15.9094336 27.554452,16.721515 C29.7404569,17.5342511 31.4643199,19.2581773 32.2767485,21.4439847 C33.0891744,19.2579492 34.8135205,17.5340628 37,16.7219924 L37,16.7219924 Z" id="路径" fill="#1DFF44" fill-rule="nonzero"></path>
                </g>
            </g>
        </g>
    </g>
</svg>