<?xml version="1.0" encoding="UTF-8"?>
<svg width="1400px" height="14px" viewBox="0 0 1400 14" version="1.1" xmlns="http://www.w3.org/2000/svg" xmlns:xlink="http://www.w3.org/1999/xlink">
    <title>编组 17</title>
    <g id="everweb" stroke="none" stroke-width="1" fill="none" fill-rule="evenodd">
        <g id="关于我备份" transform="translate(-260.000000, -5696.000000)" fill="#CCCCCC">
            <g id="编组-17" transform="translate(260.000000, 5696.360000)">
                <path d="M631,6.64 L631,7.64 L0,7.64 L0,6.64 L631,6.64 Z M1400,6.64 L1400,7.64 L769,7.64 L769,6.64 L1400,6.64 Z" id="形状结合"></path>
                <g id="Others-Project" transform="translate(654.008000, 0.000000)" fill-rule="nonzero">
                    <path d="M4.186,10.78 C3.49533333,10.78 2.891,10.703 2.373,10.549 C1.855,10.395 1.41866667,10.129 1.064,9.751 C0.709333333,9.373 0.443333333,8.862 0.266,8.218 C0.0886666667,7.574 0,6.762 0,5.782 C0,4.802 0.0886666667,3.99233333 0.266,3.353 C0.443333333,2.71366667 0.709333333,2.20266667 1.064,1.82 C1.41866667,1.43733333 1.855,1.169 2.373,1.015 C2.891,0.861 3.49533333,0.784 4.186,0.784 C4.87666667,0.784 5.48333333,0.861 6.006,1.015 C6.52866667,1.169 6.965,1.43733333 7.315,1.82 C7.665,2.20266667 7.92866667,2.71366667 8.106,3.353 C8.28333333,3.99233333 8.372,4.802 8.372,5.782 C8.372,6.762 8.28333333,7.574 8.106,8.218 C7.92866667,8.862 7.665,9.373 7.315,9.751 C6.965,10.129 6.52866667,10.395 6.006,10.549 C5.48333333,10.703 4.87666667,10.78 4.186,10.78 Z M4.186,9.702 C4.78333333,9.702 5.26866667,9.62733333 5.642,9.478 C6.01533333,9.32866667 6.307,9.09533333 6.517,8.778 C6.727,8.46066667 6.87166667,8.05466667 6.951,7.56 C7.03033333,7.06533333 7.07,6.47266667 7.07,5.782 C7.07,5.11 7.03033333,4.52666667 6.951,4.032 C6.87166667,3.53733333 6.727,3.129 6.517,2.807 C6.307,2.485 6.01533333,2.24466667 5.642,2.086 C5.26866667,1.92733333 4.78333333,1.848 4.186,1.848 C3.598,1.848 3.11733333,1.92733333 2.744,2.086 C2.37066667,2.24466667 2.079,2.485 1.869,2.807 C1.659,3.129 1.51433333,3.53733333 1.435,4.032 C1.35566667,4.52666667 1.316,5.11 1.316,5.782 C1.316,6.47266667 1.35566667,7.06533333 1.435,7.56 C1.51433333,8.05466667 1.659,8.46066667 1.869,8.778 C2.079,9.09533333 2.37066667,9.32866667 2.744,9.478 C3.11733333,9.62733333 3.598,9.702 4.186,9.702 Z" id="形状"></path>
                    <path d="M13.02,9.716 C13.188,9.716 13.335,9.709 13.461,9.695 C13.587,9.681 13.7153333,9.66 13.846,9.632 L13.846,10.654 C13.6966667,10.6726667 13.5566667,10.689 13.426,10.703 C13.2953333,10.717 13.1506667,10.724 12.992,10.724 C12.572,10.724 12.2196667,10.6936667 11.935,10.633 C11.6503333,10.5723333 11.417,10.4533333 11.235,10.276 C11.053,10.0986667 10.9223333,9.85366667 10.843,9.541 C10.7636667,9.22833333 10.724,8.82466667 10.724,8.33 L10.724,4.088 L9.604,4.088 L9.604,3.08 L10.724,3.08 L10.724,1.288 L11.928,1.288 L11.928,3.08 L13.804,3.08 L13.804,4.088 L11.928,4.088 L11.928,8.26 C11.928,8.55866667 11.942,8.80133333 11.97,8.988 C11.998,9.17466667 12.0516667,9.32166667 12.131,9.429 C12.2103333,9.53633333 12.32,9.611 12.46,9.653 C12.6,9.695 12.7866667,9.716 13.02,9.716 Z" id="路径"></path>
                    <path d="M19.012,2.94 C19.5066667,2.94 19.9173333,3.00066667 20.244,3.122 C20.5706667,3.24333333 20.8296667,3.41366667 21.021,3.633 C21.2123333,3.85233333 21.3476667,4.11133333 21.427,4.41 C21.5063333,4.70866667 21.546,5.04 21.546,5.404 L21.546,10.64 L20.342,10.64 L20.342,5.852 C20.342,5.56266667 20.3233333,5.30366667 20.286,5.075 C20.2486667,4.84633333 20.1763333,4.655 20.069,4.501 C19.9616667,4.347 19.8123333,4.228 19.621,4.144 C19.4296667,4.06 19.1846667,4.018 18.886,4.018 C18.6433333,4.018 18.4076667,4.03433333 18.179,4.067 C17.9503333,4.09966667 17.7356667,4.16966667 17.535,4.277 C17.3343333,4.38433333 17.1523333,4.536 16.989,4.732 C16.8256667,4.928 16.6926667,5.194 16.59,5.53 L16.59,10.64 L15.386,10.64 L15.386,0 L16.59,0 L16.59,4.158 C16.702,3.91533333 16.849,3.71466667 17.031,3.556 C17.213,3.39733333 17.4113333,3.27366667 17.626,3.185 C17.8406667,3.09633333 18.067,3.03333333 18.305,2.996 C18.543,2.95866667 18.7786667,2.94 19.012,2.94 Z" id="路径"></path>
                    <path d="M30.044,6.104 C30.044,6.20666667 30.037,6.335 30.023,6.489 C30.009,6.643 29.9926667,6.80866667 29.974,6.986 L24.85,7.308 C24.85,7.71866667 24.892,8.07566667 24.976,8.379 C25.06,8.68233333 25.1953333,8.932 25.382,9.128 C25.5686667,9.324 25.816,9.471 26.124,9.569 C26.432,9.667 26.8146667,9.716 27.272,9.716 C27.692,9.716 28.119,9.66933333 28.553,9.576 C28.987,9.48266667 29.3486667,9.366 29.638,9.226 L29.638,10.332 C29.526,10.388 29.3813333,10.444 29.204,10.5 C29.0266667,10.556 28.826,10.605 28.602,10.647 C28.378,10.689 28.1376667,10.7216667 27.881,10.745 C27.6243333,10.7683333 27.3606667,10.78 27.09,10.78 C26.53,10.78 26.033,10.717 25.599,10.591 C25.165,10.465 24.7986667,10.2503333 24.5,9.947 C24.2013333,9.64366667 23.975,9.24233333 23.821,8.743 C23.667,8.24366667 23.59,7.616 23.59,6.86 C23.59,6.104 23.667,5.47633333 23.821,4.977 C23.975,4.47766667 24.199,4.07633333 24.493,3.773 C24.787,3.46966667 25.1463333,3.255 25.571,3.129 C25.9956667,3.003 26.4786667,2.94 27.02,2.94 C27.664,2.94 28.1843333,3.03566667 28.581,3.227 C28.9776667,3.41833333 29.2833333,3.66566667 29.498,3.969 C29.7126667,4.27233333 29.8573333,4.613 29.932,4.991 C30.0066667,5.369 30.044,5.74 30.044,6.104 Z M28.854,6.118 C28.854,5.82866667 28.8353333,5.551 28.798,5.285 C28.7606667,5.019 28.679,4.78566667 28.553,4.585 C28.427,4.38433333 28.2426667,4.22566667 28,4.109 C27.7573333,3.99233333 27.4306667,3.934 27.02,3.934 C26.5813333,3.934 26.2243333,3.99 25.949,4.102 C25.6736667,4.214 25.4566667,4.37733333 25.298,4.592 C25.1393333,4.80666667 25.0273333,5.068 24.962,5.376 C24.8966667,5.684 24.8593333,6.02933333 24.85,6.412 L28.854,6.118 Z" id="形状"></path>
                    <path d="M35.882,2.94 L35.84,4.032 L35.672,4.032 C35.4293333,4.032 35.1913333,4.05533333 34.958,4.102 C34.7246667,4.14866667 34.5053333,4.235 34.3,4.361 C34.0946667,4.487 33.908,4.65733333 33.74,4.872 C33.572,5.08666667 33.4366667,5.362 33.334,5.698 L33.334,10.64 L32.13,10.64 L32.13,3.08 L33.334,3.08 L33.334,4.452 C33.4553333,4.13466667 33.6046667,3.878 33.782,3.682 C33.9593333,3.486 34.1553333,3.332 34.37,3.22 C34.5846667,3.108 34.811,3.03333333 35.049,2.996 C35.287,2.95866667 35.518,2.94 35.742,2.94 L35.882,2.94 Z" id="路径"></path>
                    <path d="M39.186,10.724 C38.9993333,10.724 38.801,10.717 38.591,10.703 C38.381,10.689 38.1733333,10.6726667 37.968,10.654 C37.7626667,10.6353333 37.5736667,10.6096667 37.401,10.577 C37.2283333,10.5443333 37.0906667,10.514 36.988,10.486 L36.988,9.45 C37.1186667,9.48733333 37.275,9.52466667 37.457,9.562 C37.639,9.59933333 37.828,9.632 38.024,9.66 C38.22,9.688 38.4183333,9.709 38.619,9.723 C38.8196667,9.737 39.004,9.744 39.172,9.744 C39.7506667,9.744 40.187,9.66233333 40.481,9.499 C40.775,9.33566667 40.922,9.03 40.922,8.582 C40.922,8.358 40.901,8.17366667 40.859,8.029 C40.817,7.88433333 40.7353333,7.763 40.614,7.665 C40.4926667,7.567 40.3223333,7.48066667 40.103,7.406 C39.8836667,7.33133333 39.592,7.252 39.228,7.168 C38.808,7.07466667 38.4626667,6.96733333 38.192,6.846 C37.9213333,6.72466667 37.7066667,6.58 37.548,6.412 C37.3893333,6.244 37.2773333,6.04333333 37.212,5.81 C37.1466667,5.57666667 37.114,5.30133333 37.114,4.984 C37.114,4.368 37.3403333,3.87333333 37.793,3.5 C38.2456667,3.12666667 38.9246667,2.94 39.83,2.94 C40.194,2.94 40.5556667,2.96333333 40.915,3.01 C41.2743333,3.05666667 41.5473333,3.11733333 41.734,3.192 L41.65,4.214 C41.4353333,4.13 41.1693333,4.06 40.852,4.004 C40.5346667,3.948 40.1986667,3.92 39.844,3.92 C39.312,3.92 38.913,3.99466667 38.647,4.144 C38.381,4.29333333 38.248,4.58266667 38.248,5.012 C38.248,5.208 38.269,5.36666667 38.311,5.488 C38.353,5.60933333 38.4253333,5.71433333 38.528,5.803 C38.6306667,5.89166667 38.7753333,5.96633333 38.962,6.027 C39.1486667,6.08766667 39.3913333,6.15066667 39.69,6.216 C40.1193333,6.31866667 40.4856667,6.42833333 40.789,6.545 C41.0923333,6.66166667 41.3373333,6.80633333 41.524,6.979 C41.7106667,7.15166667 41.846,7.364 41.93,7.616 C42.014,7.868 42.056,8.176 42.056,8.54 C42.056,9.296 41.811,9.849 41.321,10.199 C40.831,10.549 40.1193333,10.724 39.186,10.724 Z" id="路径"></path>
                    <path d="M47.754,0.924 L50.456,0.924 C51.1373333,0.924 51.7066667,0.984666667 52.164,1.106 C52.6213333,1.22733333 52.9876667,1.414 53.263,1.666 C53.5383333,1.918 53.732,2.24 53.844,2.632 C53.956,3.024 54.012,3.49066667 54.012,4.032 C54.012,4.60133333 53.9443333,5.08666667 53.809,5.488 C53.6736667,5.88933333 53.4636667,6.216 53.179,6.468 C52.8943333,6.72 52.5256667,6.90433333 52.073,7.021 C51.6203333,7.13766667 51.0813333,7.196 50.456,7.196 L49.014,7.196 L49.014,10.64 L47.754,10.64 L47.754,0.924 Z M50.344,6.146 C50.792,6.146 51.17,6.11333333 51.478,6.048 C51.786,5.98266667 52.031,5.86833333 52.213,5.705 C52.395,5.54166667 52.5256667,5.32466667 52.605,5.054 C52.6843333,4.78333333 52.724,4.44266667 52.724,4.032 C52.724,3.65866667 52.6843333,3.34366667 52.605,3.087 C52.5256667,2.83033333 52.395,2.62266667 52.213,2.464 C52.031,2.30533333 51.786,2.191 51.478,2.121 C51.17,2.051 50.792,2.016 50.344,2.016 L49.014,2.016 L49.014,6.146 L50.344,6.146 Z" id="形状"></path>
                    <path d="M59.85,2.94 L59.808,4.032 L59.64,4.032 C59.3973333,4.032 59.1593333,4.05533333 58.926,4.102 C58.6926667,4.14866667 58.4733333,4.235 58.268,4.361 C58.0626667,4.487 57.876,4.65733333 57.708,4.872 C57.54,5.08666667 57.4046667,5.362 57.302,5.698 L57.302,10.64 L56.098,10.64 L56.098,3.08 L57.302,3.08 L57.302,4.452 C57.4233333,4.13466667 57.5726667,3.878 57.75,3.682 C57.9273333,3.486 58.1233333,3.332 58.338,3.22 C58.5526667,3.108 58.779,3.03333333 59.017,2.996 C59.255,2.95866667 59.486,2.94 59.71,2.94 L59.85,2.94 Z" id="路径"></path>
                    <path d="M64.456,10.78 C63.896,10.78 63.399,10.717 62.965,10.591 C62.531,10.465 62.1646667,10.2503333 61.866,9.947 C61.5673333,9.64366667 61.341,9.24233333 61.187,8.743 C61.033,8.24366667 60.956,7.616 60.956,6.86 C60.956,6.104 61.033,5.47633333 61.187,4.977 C61.341,4.47766667 61.5673333,4.07633333 61.866,3.773 C62.1646667,3.46966667 62.531,3.255 62.965,3.129 C63.399,3.003 63.896,2.94 64.456,2.94 C65.016,2.94 65.513,3.003 65.947,3.129 C66.381,3.255 66.745,3.46966667 67.039,3.773 C67.333,4.07633333 67.557,4.47766667 67.711,4.977 C67.865,5.47633333 67.942,6.104 67.942,6.86 C67.942,7.616 67.865,8.24366667 67.711,8.743 C67.557,9.24233333 67.333,9.64366667 67.039,9.947 C66.745,10.2503333 66.381,10.465 65.947,10.591 C65.513,10.717 65.016,10.78 64.456,10.78 Z M64.456,9.758 C64.8853333,9.758 65.2423333,9.71133333 65.527,9.618 C65.8116667,9.52466667 66.038,9.366 66.206,9.142 C66.374,8.918 66.493,8.61933333 66.563,8.246 C66.633,7.87266667 66.668,7.41066667 66.668,6.86 C66.668,6.30933333 66.6306667,5.84733333 66.556,5.474 C66.4813333,5.10066667 66.3576667,4.802 66.185,4.578 C66.0123333,4.354 65.7836667,4.193 65.499,4.095 C65.2143333,3.997 64.8666667,3.948 64.456,3.948 C64.036,3.948 63.6836667,3.997 63.399,4.095 C63.1143333,4.193 62.8856667,4.354 62.713,4.578 C62.5403333,4.802 62.419,5.10066667 62.349,5.474 C62.279,5.84733333 62.244,6.30933333 62.244,6.86 C62.244,7.41066667 62.2813333,7.87266667 62.356,8.246 C62.4306667,8.61933333 62.5566667,8.918 62.734,9.142 C62.9113333,9.366 63.14,9.52466667 63.42,9.618 C63.7,9.71133333 64.0453333,9.758 64.456,9.758 Z" id="形状"></path>
                    <path d="M70.672,1.694 C70.4013333,1.694 70.2123333,1.652 70.105,1.568 C69.9976667,1.484 69.944,1.288 69.944,0.98 C69.944,0.662666667 69.9976667,0.464333333 70.105,0.385 C70.2123333,0.305666667 70.4013333,0.266 70.672,0.266 C70.924,0.266 71.106,0.305666667 71.218,0.385 C71.33,0.464333333 71.386,0.662666667 71.386,0.98 C71.386,1.288 71.33,1.484 71.218,1.568 C71.106,1.652 70.924,1.694 70.672,1.694 Z M68.684,13.44 C68.5346667,13.44 68.3876667,13.433 68.243,13.419 C68.0983333,13.405 67.9513333,13.3886667 67.802,13.37 L67.802,12.376 C67.9326667,12.3946667 68.082,12.411 68.25,12.425 C68.418,12.439 68.5906667,12.446 68.768,12.446 C69.0386667,12.446 69.258,12.4133333 69.426,12.348 C69.594,12.2826667 69.7246667,12.1706667 69.818,12.012 C69.9113333,11.8533333 69.9743333,11.6433333 70.007,11.382 C70.0396667,11.1206667 70.056,10.7986667 70.056,10.416 L70.056,3.08 L71.26,3.08 L71.26,10.542 C71.26,11.1486667 71.2063333,11.641 71.099,12.019 C70.9916667,12.397 70.8306667,12.691 70.616,12.901 C70.4013333,13.111 70.133,13.2533333 69.811,13.328 C69.489,13.4026667 69.1133333,13.44 68.684,13.44 Z" id="形状"></path>
                    <path d="M79.814,6.104 C79.814,6.20666667 79.807,6.335 79.793,6.489 C79.779,6.643 79.7626667,6.80866667 79.744,6.986 L74.62,7.308 C74.62,7.71866667 74.662,8.07566667 74.746,8.379 C74.83,8.68233333 74.9653333,8.932 75.152,9.128 C75.3386667,9.324 75.586,9.471 75.894,9.569 C76.202,9.667 76.5846667,9.716 77.042,9.716 C77.462,9.716 77.889,9.66933333 78.323,9.576 C78.757,9.48266667 79.1186667,9.366 79.408,9.226 L79.408,10.332 C79.296,10.388 79.1513333,10.444 78.974,10.5 C78.7966667,10.556 78.596,10.605 78.372,10.647 C78.148,10.689 77.9076667,10.7216667 77.651,10.745 C77.3943333,10.7683333 77.1306667,10.78 76.86,10.78 C76.3,10.78 75.803,10.717 75.369,10.591 C74.935,10.465 74.5686667,10.2503333 74.27,9.947 C73.9713333,9.64366667 73.745,9.24233333 73.591,8.743 C73.437,8.24366667 73.36,7.616 73.36,6.86 C73.36,6.104 73.437,5.47633333 73.591,4.977 C73.745,4.47766667 73.969,4.07633333 74.263,3.773 C74.557,3.46966667 74.9163333,3.255 75.341,3.129 C75.7656667,3.003 76.2486667,2.94 76.79,2.94 C77.434,2.94 77.9543333,3.03566667 78.351,3.227 C78.7476667,3.41833333 79.0533333,3.66566667 79.268,3.969 C79.4826667,4.27233333 79.6273333,4.613 79.702,4.991 C79.7766667,5.369 79.814,5.74 79.814,6.104 Z M78.624,6.118 C78.624,5.82866667 78.6053333,5.551 78.568,5.285 C78.5306667,5.019 78.449,4.78566667 78.323,4.585 C78.197,4.38433333 78.0126667,4.22566667 77.77,4.109 C77.5273333,3.99233333 77.2006667,3.934 76.79,3.934 C76.3513333,3.934 75.9943333,3.99 75.719,4.102 C75.4436667,4.214 75.2266667,4.37733333 75.068,4.592 C74.9093333,4.80666667 74.7973333,5.068 74.732,5.376 C74.6666667,5.684 74.6293333,6.02933333 74.62,6.412 L78.624,6.118 Z" id="形状"></path>
                    <path d="M84.952,10.78 C84.392,10.78 83.895,10.717 83.461,10.591 C83.027,10.465 82.6606667,10.2503333 82.362,9.947 C82.0633333,9.64366667 81.837,9.24233333 81.683,8.743 C81.529,8.24366667 81.452,7.616 81.452,6.86 C81.452,6.104 81.529,5.47633333 81.683,4.977 C81.837,4.47766667 82.0633333,4.07633333 82.362,3.773 C82.6606667,3.46966667 83.027,3.255 83.461,3.129 C83.895,3.003 84.392,2.94 84.952,2.94 C85.372,2.94 85.7523333,2.968 86.093,3.024 C86.4336667,3.08 86.7113333,3.14533333 86.926,3.22 L86.926,4.326 C86.646,4.22333333 86.3473333,4.14166667 86.03,4.081 C85.7126667,4.02033333 85.358,3.99 84.966,3.99 C84.546,3.99 84.196,4.03666667 83.916,4.13 C83.636,4.22333333 83.4073333,4.37966667 83.23,4.599 C83.0526667,4.81833333 82.9266667,5.11233333 82.852,5.481 C82.7773333,5.84966667 82.74,6.314 82.74,6.874 C82.74,7.42466667 82.7773333,7.882 82.852,8.246 C82.9266667,8.61 83.0526667,8.90166667 83.23,9.121 C83.4073333,9.34033333 83.6383333,9.49433333 83.923,9.583 C84.2076667,9.67166667 84.56,9.716 84.98,9.716 C85.3346667,9.716 85.6846667,9.69033333 86.03,9.639 C86.3753333,9.58766667 86.6833333,9.506 86.954,9.394 L86.954,10.5 C86.8513333,10.5373333 86.723,10.5723333 86.569,10.605 C86.415,10.6376667 86.247,10.668 86.065,10.696 C85.883,10.724 85.6963333,10.745 85.505,10.759 C85.3136667,10.773 85.1293333,10.78 84.952,10.78 Z" id="路径"></path>
                    <path d="M91.21,9.716 C91.378,9.716 91.525,9.709 91.651,9.695 C91.777,9.681 91.9053333,9.66 92.036,9.632 L92.036,10.654 C91.8866667,10.6726667 91.7466667,10.689 91.616,10.703 C91.4853333,10.717 91.3406667,10.724 91.182,10.724 C90.762,10.724 90.4096667,10.6936667 90.125,10.633 C89.8403333,10.5723333 89.607,10.4533333 89.425,10.276 C89.243,10.0986667 89.1123333,9.85366667 89.033,9.541 C88.9536667,9.22833333 88.914,8.82466667 88.914,8.33 L88.914,4.088 L87.794,4.088 L87.794,3.08 L88.914,3.08 L88.914,1.288 L90.118,1.288 L90.118,3.08 L91.994,3.08 L91.994,4.088 L90.118,4.088 L90.118,8.26 C90.118,8.55866667 90.132,8.80133333 90.16,8.988 C90.188,9.17466667 90.2416667,9.32166667 90.321,9.429 C90.4003333,9.53633333 90.51,9.611 90.65,9.653 C90.79,9.695 90.9766667,9.716 91.21,9.716 Z" id="路径"></path>
                </g>
            </g>
        </g>
    </g>
</svg>