<?xml version="1.0" encoding="UTF-8"?>
<svg width="284px" height="362px" viewBox="0 0 284 362" version="1.1" xmlns="http://www.w3.org/2000/svg" xmlns:xlink="http://www.w3.org/1999/xlink">
    <title>placeholder</title>
    <g id="页面-2" stroke="none" stroke-width="1" fill="none" fill-rule="evenodd">
        <g id="HY&amp;DW备份" transform="translate(-971.000000, -934.000000)">
            <g id="编组-2" transform="translate(360.000000, 935.000000)">
                <g id="placeholder" transform="translate(612.000000, 0.000000)">
                    <path d="M251.233378,-0.5 C262.073201,-0.5 265.996956,0.646324102 269.957948,2.76468585 C273.957482,4.90366013 277.09634,8.04251795 279.235314,12.0420521 C281.353676,16.0030442 282.5,19.9267989 282.5,30.7666224 L282.5,329.233378 C282.5,340.073201 281.353676,343.996956 279.235314,347.957948 C277.09634,351.957482 273.957482,355.09634 269.957948,357.235314 C265.996956,359.353676 262.073201,360.5 251.233378,360.5 L30.7666224,360.5 C19.9267989,360.5 16.0030442,359.353676 12.0420521,357.235314 C8.04251795,355.09634 4.90366013,351.957482 2.76468585,347.957948 C0.681641585,344.062994 -0.461455455,340.203924 -0.499040674,329.771514 L-0.5,30.7666224 C-0.5,19.9267989 0.646324102,16.0030442 2.76468585,12.0420521 C4.90366013,8.04251795 8.04251795,4.90366013 12.0420521,2.76468585 C15.9370063,0.681641585 19.7960764,-0.461455455 30.2284859,-0.499040674 Z" id="矩形备份-54" stroke-opacity="0.19140625" stroke="#FFFFFF" fill-opacity="0.368963068" fill="#1A1A47"></path>
                    <g id="编组-18备份" transform="translate(30.000000, 106.000000)">
                        <path d="M20.5110816,-8.28672246e-16 L43.4889184,8.28672246e-16 C50.6210683,-4.81482439e-16 53.2073582,0.742604889 55.8147656,2.13706163 C58.422173,3.53151837 60.4684816,5.57782696 61.8629384,8.18523437 C63.2573951,10.7926418 64,13.3789317 64,20.5110816 L64,43.4889184 C64,50.6210683 63.2573951,53.2073582 61.8629384,55.8147656 C60.4684816,58.422173 58.422173,60.4684816 55.8147656,61.8629384 C53.2073582,63.2573951 50.6210683,64 43.4889184,64 L20.5110816,64 C13.3789317,64 10.7926418,63.2573951 8.18523437,61.8629384 C5.57782696,60.4684816 3.53151837,58.422173 2.13706163,55.8147656 C0.742604889,53.2073582 3.20988293e-16,50.6210683 -5.52448164e-16,43.4889184 L5.52448164e-16,20.5110816 C-3.20988293e-16,13.3789317 0.742604889,10.7926418 2.13706163,8.18523437 C3.53151837,5.57782696 5.57782696,3.53151837 8.18523437,2.13706163 C10.7926418,0.742604889 13.3789317,4.81482439e-16 20.5110816,-8.28672246e-16 Z" id="矩形" fill="#EB5E00"></path>
                        <g id="image.5" transform="translate(16.000000, 16.000000)" fill="#FFFFFF" fill-rule="nonzero">
                            <path d="M31.4991019,23.4410381 L26.6720416,12.1524151 C25.7929923,10.085927 24.4821293,8.91388894 22.9862033,8.83678117 C21.5056992,8.75967341 20.0714608,9.79291746 18.9765046,11.7668762 L16.0463402,17.0256721 C15.4294635,18.1360239 14.5504142,18.7991507 13.5942553,18.8762584 C12.6227208,18.9687877 11.6511399,18.4598765 10.8646221,17.4574755 L10.5253399,17.0256721 C9.43038376,15.6531539 8.07325499,14.9900271 6.68528239,15.1288211 C5.29730978,15.267615 4.10982211,16.2237513 3.3233043,17.7813282 L0.655312511,23.1017639 C-0.300846395,25.0294581 -0.208314888,27.2655832 0.917485114,29.0853265 C2.04328512,30.9050697 4.00186868,32 6.14551526,32 L25.8238362,32 C27.8903731,32 29.8181129,30.966756 30.9593348,29.239542 C32.1314006,27.5123281 32.3164636,25.3378891 31.4991019,23.4410381 Z" id="路径" opacity="0.4"></path>
                            <path d="M8.28794351,10.4249698 C11.1667992,10.4249698 13.5004901,8.09125704 13.5004901,5.2124849 C13.5004901,2.33369735 11.1667992,0 8.28794351,0 C5.40910326,0 3.07533528,2.33369735 3.07533528,5.2124849 C3.07533528,8.09125704 5.40910326,10.4249698 8.28794351,10.4249698 Z" id="路径"></path>
                        </g>
                    </g>
                    <text id="基于通用设计的-占位图组件库" font-family="PingFangSC-Semibold, PingFang SC" font-size="22" font-weight="500" fill="#FFFFFF">
                        <tspan x="30" y="53">基于通用设计的</tspan>
                        <tspan x="30" y="83">占位图组件库</tspan>
                    </text>
                    <g id="编组-14备份-3" transform="translate(226.000000, 304.000000)" fill="#FFFFFF" fill-opacity="0.177802666">
                        <circle id="椭圆形" cx="20" cy="20" r="20"></circle>
                    </g>
                </g>
            </g>
        </g>
    </g>
</svg>