<?xml version="1.0" encoding="UTF-8"?>
<svg width="50px" height="50px" viewBox="0 0 50 50" version="1.1" xmlns="http://www.w3.org/2000/svg" xmlns:xlink="http://www.w3.org/1999/xlink">
    <title>pr</title>
    <g id="everweb" stroke="none" stroke-width="1" fill="none" fill-rule="evenodd">
        <g id="画板" transform="translate(-284.000000, -258.000000)" stroke="#FFFFFF">
            <g id="pr" transform="translate(284.004808, 258.000000)">
                <rect id="矩形" stroke-opacity="0.1" fill-opacity="0" fill="#FFFFFF" x="0.5" y="0.5" width="48.9759615" height="49"></rect>
                <path d="M12.2163462,15.1851852 L19.441629,15.1851852 C21.0269231,15.1851852 22.3530826,15.3196713 23.4201075,15.5886434 C24.4871324,15.8576155 25.3407523,16.2760167 25.9809672,16.8438467 C26.6211821,17.4116768 27.0784785,18.1388978 27.3528563,19.0255097 C27.6272342,19.9121215 27.7644231,20.9830291 27.7644231,22.2382325 C27.7644231,23.5930551 27.611991,24.7336962 27.3071267,25.6601558 C27.0022624,26.5866154 26.5144796,27.3387412 25.8437783,27.9165332 C25.1730769,28.4943253 24.3092949,28.9077454 23.2524321,29.1567937 C22.1955694,29.405842 20.9253017,29.5303661 19.441629,29.5303661 L16.8502828,29.5303661 L16.8502828,35.9259259 L12.2163462,35.9259259 L12.2163462,15.1851852 Z M19.0439324,25.9259259 C19.8499668,25.9259259 20.5216622,25.8717191 21.0590186,25.7633053 C21.5963749,25.6548916 22.0355603,25.4627036 22.3765749,25.1867414 C22.7175895,24.9107791 22.9604332,24.5510426 23.1051061,24.1075319 C23.249779,23.6640212 23.3221154,23.097313 23.3221154,22.4074074 C23.3221154,21.756925 23.249779,21.2050005 23.1051061,20.751634 C22.9604332,20.2982675 22.7175895,19.9336031 22.3765749,19.6576408 C22.0355603,19.3816786 21.591208,19.1845627 21.0435179,19.0662932 C20.4958278,18.9480237 19.8292993,18.8888889 19.0439324,18.8888889 L17.0288462,18.8888889 L17.0288462,25.9259259 L19.0439324,25.9259259 Z M39.9807692,19.6296296 L39.8624969,23.4518519 L39.4485439,23.4518519 C38.9557426,23.4518519 38.4678694,23.5061728 37.9849241,23.6148148 C37.5019789,23.7234568 37.0633858,23.9061728 36.6691448,24.162963 C36.2749037,24.4197531 35.9299429,24.7654321 35.6342621,25.2 C35.3385813,25.6345679 35.1316048,26.1777778 35.0133325,26.8296296 L35.0133325,35.9259259 L30.7259615,35.9259259 L30.7259615,19.9259259 L35.0133325,19.9259259 L35.0133325,22.8 C35.2498771,22.1481481 35.5406299,21.6148148 35.8855907,21.2 C36.2305516,20.7851852 36.6001526,20.4592593 36.9943936,20.2222222 C37.3886346,19.9851852 37.8124437,19.8271605 38.2658208,19.7481481 C38.719198,19.6691358 39.1824312,19.6296296 39.6555204,19.6296296 L39.9807692,19.6296296 Z" id="形状结合" stroke-linejoin="round"></path>
            </g>
        </g>
    </g>
</svg>