<?xml version="1.0" encoding="UTF-8"?>
<svg width="50px" height="50px" viewBox="0 0 50 50" version="1.1" xmlns="http://www.w3.org/2000/svg" xmlns:xlink="http://www.w3.org/1999/xlink">
    <title>principle</title>
    <g id="everweb" stroke="none" stroke-width="1" fill="none" fill-rule="evenodd">
        <g id="画板" transform="translate(-552.000000, -258.000000)" stroke="#FFFFFF">
            <g id="principle" transform="translate(552.024038, 258.000000)">
                <rect id="矩形" stroke-opacity="0.1" fill-opacity="0" fill="#FFFFFF" x="0.5" y="0.5" width="48.9759615" height="49"></rect>
                <path d="M21.7675605,21.1111111 L21.8413462,35.8480095 C21.8413462,37.7319907 20.2668091,39.2592593 18.3245192,39.2592593 C17.5725983,39.2592593 16.8757927,39.0303667 16.3041195,38.6404968 C16.8697922,38.209803 17.2330902,37.5405762 17.2330902,36.7890439 C17.2330902,35.4897465 16.1472026,34.4364579 14.8076923,34.4364579 L14.8083605,21.1111111 M14.8076923,21.0850884 C14.9337933,15.3649884 19.6090336,10.7407407 25.357186,10.7407407 C31.1846008,10.7407407 35.9086538,15.4666239 35.9086538,21.2962963 C35.9086538,26.8471866 31.6256175,31.3973326 26.1852426,31.8198255 C26.0307552,31.8408867 25.8730844,31.8518519 25.7128534,31.8518519 C23.8140329,31.8518519 22.2747347,30.3119573 22.2747347,28.4124012 C22.2747347,26.5525521 23.7503525,25.0374856 25.5942603,24.9749583 L25.5942241,24.9654264 C27.5135323,24.8432037 29.0324164,23.2471959 29.0324164,21.2962963 C29.0324164,19.2657363 27.3869597,17.6196421 25.357186,17.6196421 C23.4070419,17.6196421 21.8854839,19.1650686 21.7633086,21.0851203" id="形状" stroke-linejoin="round"></path>
            </g>
        </g>
    </g>
</svg>