<?xml version="1.0" encoding="UTF-8"?>
<svg width="50px" height="50px" viewBox="0 0 50 50" version="1.1" xmlns="http://www.w3.org/2000/svg" xmlns:xlink="http://www.w3.org/1999/xlink">
    <title>ps</title>
    <g id="everweb" stroke="none" stroke-width="1" fill="none" fill-rule="evenodd">
        <g id="画板" transform="translate(-552.000000, -168.000000)" stroke="#FFFFFF">
            <g id="ps" transform="translate(552.017832, 168.000000)">
                <rect id="矩形" stroke-opacity="0.1" fill-opacity="0" fill="#FFFFFF" x="0.5" y="0.5" width="48.9750357" height="49"></rect>
                <g id="Ps" transform="translate(11.475749, 14.074074)" stroke-linejoin="round">
                    <path d="M0,0 L6.70906688,0 C8.18109843,0 9.41250944,0.141690682 10.4032999,0.425072046 C11.3940904,0.70845341 12.1867227,1.14926887 12.781197,1.74751841 C13.3756713,2.34576796 13.8002958,3.1119472 14.0550705,4.04605614 C14.3098452,4.98016508 14.4372325,6.10844274 14.4372325,7.4308891 C14.4372325,8.85829153 14.295691,10.0600384 14.012608,11.0361298 C13.729525,12.0122212 13.2765923,12.8046394 12.6538097,13.4133846 C12.0310271,14.0221297 11.2289586,14.4576974 10.2476043,14.7200875 C9.2662499,14.9824777 8.08673743,15.1136728 6.70906688,15.1136728 L4.30286146,15.1136728 L4.30286146,21.8518519 L0,21.8518519 L0,0 Z M6.33874198,11.1111111 C7.09734862,11.1111111 7.72952081,11.0540513 8.23525857,10.9399315 C8.74099632,10.8258118 9.15433968,10.6235087 9.47528864,10.3330221 C9.79623761,10.0425355 10.0247922,9.66386555 10.1609523,9.19701214 C10.2971125,8.73015873 10.3651926,8.13362382 10.3651926,7.40740741 C10.3651926,6.72268908 10.2971125,6.14171595 10.1609523,5.66448802 C10.0247922,5.18726009 9.79623761,4.80340284 9.47528864,4.51291628 C9.15433968,4.22242971 8.73613346,4.01493931 8.22066998,3.89044507 C7.7052065,3.76595082 7.07789716,3.7037037 6.33874198,3.7037037 L4.44222539,3.7037037 L4.44222539,11.1111111 L6.33874198,11.1111111 Z" id="形状"></path>
                    <path d="M21.8854395,21.8518519 C20.9954796,21.8518519 20.1339227,21.8048894 19.3007687,21.7109646 C18.4676148,21.6170397 17.7102021,21.4865885 17.0285307,21.319611 L17.0285307,17.5313083 C17.767008,17.7817746 18.5480899,17.9748423 19.3717762,18.1105116 C20.1954625,18.2461808 20.957609,18.3140155 21.6582157,18.3140155 C22.5481756,18.3140155 23.1967102,18.1992184 23.6038195,17.9696243 C24.0109289,17.7400302 24.2144835,17.2912781 24.2144835,16.623368 C24.2144835,16.2894129 24.1766129,16.0076383 24.1008716,15.7780442 C24.0251303,15.5484501 23.8783816,15.3501643 23.6606255,15.1831868 C23.4428693,15.0162093 23.1446381,14.8648859 22.7659318,14.7292166 C22.3872254,14.5935474 21.8854395,14.442224 21.260574,14.2752465 C20.4463554,14.0665246 19.7741517,13.8317124 19.2439628,13.57081 C18.7137739,13.3099076 18.2971969,12.9968248 17.9942318,12.6315614 C17.6912668,12.2662981 17.4829783,11.8279821 17.3693664,11.3166134 C17.2557545,10.8052447 17.1989485,10.1947331 17.1989485,9.4850786 C17.1989485,8.69193534 17.3078266,7.98228084 17.5255827,7.35611511 C17.7433389,6.72994937 18.0983761,6.20292655 18.5906943,5.77504663 C19.0830126,5.34716671 19.7173457,5.0184297 20.4936937,4.7888356 C21.2700417,4.5592415 22.2168076,4.44444444 23.3339913,4.44444444 C24.1860805,4.44444444 24.9955653,4.49662492 25.7624457,4.60098588 C26.529326,4.70534683 27.1210547,4.84101608 27.5376317,5.00799361 L27.3672138,8.48321343 C27.1589253,8.42059686 26.9032985,8.35276223 26.6003335,8.27970957 C26.2973684,8.2066569 25.9707342,8.13882228 25.6204308,8.0762057 C25.2701274,8.01358913 24.9103564,7.96140865 24.5411177,7.91966427 C24.171879,7.87791989 23.8168419,7.8570477 23.4760061,7.8570477 C22.5292403,7.8570477 21.8901733,7.97184475 21.5588053,8.20143885 C21.2274372,8.43103295 21.0617532,8.83804068 21.0617532,9.42246203 C21.0617532,9.69380052 21.09489,9.91295852 21.1611636,10.0799361 C21.2274372,10.2469136 21.3647183,10.3930189 21.5730068,10.5182521 C21.7812953,10.6434852 22.0700588,10.7687184 22.4392975,10.8939515 C22.8085362,11.0191847 23.2961206,11.16529 23.9020508,11.3322675 C24.7352047,11.5618616 25.4263438,11.817546 25.975468,12.0993205 C26.5245922,12.3810951 26.9601045,12.7150502 27.2820049,13.1011857 C27.6039053,13.4873213 27.8263952,13.9569456 27.9494748,14.5100586 C28.0725544,15.0631717 28.1340942,15.7258638 28.1340942,16.4981348 C28.1340942,17.5 27.9920793,18.3401057 27.7080495,19.0184519 C27.4240198,19.6967981 27.0169104,20.2446931 26.4867216,20.662137 C25.9565327,21.0795808 25.3032642,21.3822276 24.5269162,21.5700773 C23.7505682,21.757927 22.870076,21.8518519 21.8854395,21.8518519 Z" id="路径"></path>
                </g>
            </g>
        </g>
    </g>
</svg>