<?xml version="1.0" encoding="UTF-8"?>
<svg width="256px" height="256px" viewBox="0 0 256 256" version="1.1" xmlns="http://www.w3.org/2000/svg" xmlns:xlink="http://www.w3.org/1999/xlink">
    <title>ripin-logo</title>
    <g id="力聘" stroke="none" stroke-width="1" fill="none" fill-rule="evenodd">
        <g id="ripin-logo" fill="#FFFFFF" stroke="#000000" stroke-width="4">
            <g id="编组-2备份-2">
                <path d="M173.955674,2 C201.917879,2 212.085759,4.84075249 222.315865,10.3118729 C232.391802,15.7005432 240.299457,23.6081978 245.688127,33.6841352 C251.159248,43.914241 254,54.0821212 254,82.0443264 L254,173.955674 C254,201.917879 251.159248,212.085759 245.688127,222.315865 C240.299457,232.391802 232.391802,240.299457 222.315865,245.688127 C212.085759,251.159248 201.917879,254 173.955674,254 L82.0443264,254 C54.0821212,254 43.914241,251.159248 33.6841352,245.688127 C23.6081978,240.299457 15.7005432,232.391802 10.3118729,222.315865 C4.89685435,212.19066 2.05848368,202.126685 2.00089076,174.806076 L2.00085202,81.2107807 C2.05707809,53.8787573 4.89546369,43.8119399 10.3118729,33.6841352 C15.7005432,23.6081978 23.6081978,15.7005432 33.6841352,10.3118729 C43.8093396,4.89685435 53.8733151,2.05848368 81.1939244,2.00089076 Z" id="矩形"></path>
                <g id="编组-3" transform="translate(43.098823, 53.333333)">
                    <path d="M143.293406,100.424581 C146.86218,100.424653 150.09307,101.871249 152.431748,104.210021 C154.770426,106.548793 156.216893,109.779741 156.216821,113.348515 C156.216811,113.883528 156.183577,114.418025 156.117313,114.948919 L152.166151,146.604754 C152.140177,146.812859 152.038744,146.995004 151.891375,147.125123 C151.744006,147.255241 151.5507,147.333333 151.340981,147.333333 L123.245334,147.333333 C123.015701,147.333333 122.807808,147.240256 122.657322,147.089771 C122.526168,146.958617 122.43862,146.783856 122.418292,146.589103 L127.756979,103.633869 C127.871384,102.717119 128.31821,101.914728 128.9674,101.34153 C129.61659,100.768331 130.468144,100.424324 131.392004,100.424343 Z M48.1501106,66.4848485 C51.1913601,66.4848485 53.9446947,67.7175584 55.937717,69.7105807 C57.9307393,71.703603 59.1634492,74.4569376 59.1634492,77.4981871 C59.1634492,78.0180954 59.1266342,78.5373511 59.0532804,79.0520585 L57.6302259,89.0373144 C57.501592,89.9399105 57.050824,90.726489 56.4042856,91.2874185 C55.7577471,91.848348 54.9154381,92.1836284 54.0037219,92.1836284 L45.1007696,92.1836284 C43.194053,92.1836284 41.4324024,92.8846238 40.0799964,94.0575043 C38.7275905,95.2303849 37.7844291,96.8751505 37.5146911,98.7626911 L30.6757528,146.6194 C30.646482,146.824228 30.5441339,147.002712 30.3973763,147.129988 C30.2506187,147.257264 30.0594515,147.333333 29.8525424,147.333333 L2.83157366,147.333333 C2.60194093,147.333333 2.39404752,147.240256 2.24356228,147.089771 C2.11520294,146.961412 2.02861134,146.791285 2.00592302,146.601525 L12.9468968,69.6311606 C13.0755312,68.7285649 13.5262992,67.9419869 14.1728376,67.3810578 C14.819376,66.8201287 15.6616847,66.4848485 16.5734005,66.4848485 Z M151.749352,2 C155.714813,2 159.304864,3.60732051 161.90355,6.20600618 C164.502235,8.80469185 166.109556,12.3947427 166.109556,16.3602033 C166.109556,16.9434749 166.07402,17.5262047 166.003144,18.1051542 L157.778323,85.290367 C157.665865,86.208988 157.219604,87.0134948 156.570088,87.5883465 C155.920571,88.1631981 155.067799,88.5083944 154.14232,88.5083944 L118.19127,88.5083944 C117.17972,88.5083944 116.263933,88.0983827 115.601034,87.4354834 C114.938135,86.7725841 114.528123,85.8567973 114.528123,84.8452471 L117.046718,64.0484835 C117.159176,63.1298625 117.605437,62.3253556 118.254954,61.750504 C118.90447,61.1756524 119.757242,60.8304561 120.682721,60.8304561 L129.445161,60.8304561 C130.665838,60.8304561 131.790617,60.3751531 132.647308,59.6169423 C133.503999,58.8587315 134.092604,57.7976128 134.240932,56.5859812 L136.872264,35.0917056 C137.034386,33.76739 136.644376,32.502734 135.882756,31.5286261 C135.095249,30.521408 133.91044,29.8248255 132.527894,29.6941203 L111.14201,29.673033 C109.921333,29.673033 108.796554,30.128336 107.939863,30.8865468 C107.083171,31.6447576 106.494567,32.7058763 106.346239,33.9175079 L92.551292,146.602807 C92.5257629,146.811343 92.4244568,146.993975 92.2770096,147.124473 C92.1295624,147.25497 91.935974,147.333333 91.7258804,147.333333 L66.3488975,147.333333 C66.1192647,147.333333 65.9113713,147.240256 65.7608861,147.089771 C65.6294169,146.958302 65.5417639,146.783017 65.5217106,146.587699 L82.8070862,5.21802743 C82.9195439,4.29940645 83.3658051,3.49489959 84.0153217,2.92004798 C84.6648382,2.34519637 85.5176101,2 86.443089,2 L151.749352,2 Z" id="形状结合"></path>
                </g>
            </g>
        </g>
    </g>
</svg>