<?xml version="1.0" encoding="UTF-8"?>
<svg width="50px" height="50px" viewBox="0 0 50 50" version="1.1" xmlns="http://www.w3.org/2000/svg" xmlns:xlink="http://www.w3.org/1999/xlink">
    <title>svga</title>
    <g id="everweb" stroke="none" stroke-width="1" fill="none" fill-rule="evenodd">
        <g id="画板" transform="translate(-418.000000, -258.000000)" stroke="#FFFFFF">
            <g id="svga" transform="translate(418.014423, 258.000000)">
                <path d="M49.4759615,0.5 L49.4759615,49.5 L0.5,49.5 L0.5,0.5 L49.4759615,0.5 Z" id="路径" stroke-opacity="0.1" fill-opacity="0" fill="#FFFFFF"></path>
                <g id="S" transform="translate(12.586538, 11.481481)" stroke-linejoin="round">
                    <path d="M1.24659007,24.2878561 C1.24659007,22.9740753 2.31161985,21.9090455 3.62540067,21.9090455 L13.5114279,21.9090455 L13.5114279,21.9090455 C15.4684402,21.9090455 16.7686471,21.7224721 17.4120484,21.3493253 C18.350342,20.7896052 18.8194888,19.950025 18.8194888,18.8305847 C18.8194888,17.524571 18.2699169,16.5783775 17.1707729,15.992004 C16.55418,15.6455106 15.5622696,15.4722639 14.1950418,15.4722639 L9.20868149,15.4722639 C6.17933358,15.4722639 3.99444991,14.9258704 2.65403047,13.8330835 C1.82297043,13.1400966 1.172867,12.2738631 0.703720202,11.2343828 C0.234573401,10.1949025 0,9.07546227 0,7.87606197 C0,6.01032817 0.549571967,4.30451441 1.6487159,2.75862069 C2.72105145,1.26603365 4.43678832,0.38647343 6.79592652,0.11994003 C7.60017818,0.03998001 8.79315147,0 10.3748464,0 L21.3064008,0 C22.6201816,-6.8542683e-16 23.6852114,1.06502978 23.6852114,2.37881059 C23.6852114,3.69259141 22.6201816,4.75762119 21.3064008,4.75762119 L11.6616491,4.75762119 L11.6616491,4.75762119 C9.86548702,4.78427453 8.67251372,4.86423455 8.08272917,4.99750125 C6.87635168,5.29068799 6.27316294,6.19690155 6.27316294,7.71614193 C6.27316294,8.99550225 6.78252232,9.84840913 7.80124109,10.2748626 C8.47145081,10.5947026 9.59740313,10.7546227 11.1790981,10.7546227 L15.4818444,10.7546227 C17.6801323,10.7546227 19.315444,10.9411961 20.3877796,11.3143428 C22.2911751,11.954023 23.6047862,13.0734633 24.3286127,14.6726637 C24.8915888,15.952024 25.1730769,17.324671 25.1730769,18.7906047 C25.1730769,20.4164584 24.7977595,21.8690655 24.0471246,23.1484258 C23.0015974,24.9608529 21.4333067,26.0536398 19.3422524,26.4267866 C18.3235336,26.5867066 16.7820513,26.6666667 14.7178054,26.6666667 L3.62540067,26.6666667 C2.31161985,26.6666667 1.24659007,25.6016369 1.24659007,24.2878561 Z" id="路径"></path>
                </g>
            </g>
        </g>
    </g>
</svg>