<?xml version="1.0" encoding="UTF-8"?>
<svg width="313px" height="101px" viewBox="0 0 313 101" version="1.1" xmlns="http://www.w3.org/2000/svg" xmlns:xlink="http://www.w3.org/1999/xlink">
    <title>编组 11</title>
    <g id="宣传页面" stroke="none" stroke-width="1" fill="none" fill-rule="evenodd">
        <g id="Apple-TV" transform="translate(-86.000000, -313.000000)">
            <g id="编组-11" transform="translate(86.760000, 313.695124)">
                <g id="Ricon" transform="translate(0.000000, 20.544876)" fill="#FFFFFF" fill-rule="nonzero">
                    <path d="M0,3.956 L31.372,3.956 C35.052,3.956 38.456,4.554 41.584,5.75 C44.712,6.946 47.426,8.58666667 49.726,10.672 C52.026,12.7573333 53.8353333,15.226 55.154,18.078 C56.4726667,20.93 57.132,24.012 57.132,27.324 C57.132,29.716 56.7946667,31.9546667 56.12,34.04 C55.4453333,36.1253333 54.51,38.0266667 53.314,39.744 C52.118,41.4613333 50.7073333,43.01 49.082,44.39 C47.4566667,45.77 45.724,46.9506667 43.884,47.932 C46.5213333,52.7773333 49.542,57.7146667 52.946,62.744 C56.35,67.7733333 59.7693333,72.5573333 63.204,77.096 L40.664,77.096 C38.272,73.9066667 35.88,70.0886667 33.488,65.642 C31.096,61.1953333 28.7346667,56.1813333 26.404,50.6 L18.492,50.6 L18.492,77.096 L0,77.096 L0,3.956 Z M27.876,37.352 C29.2253333,37.352 30.5593333,37.1526667 31.878,36.754 C33.1966667,36.3553333 34.362,35.7573333 35.374,34.96 C36.386,34.1626667 37.1986667,33.1813333 37.812,32.016 C38.4253333,30.8506667 38.732,29.5013333 38.732,27.968 C38.732,26.4346667 38.3946667,25.0853333 37.72,23.92 C37.0453333,22.7546667 36.1866667,21.7886667 35.144,21.022 C34.1013333,20.2553333 32.936,19.6726667 31.648,19.274 C30.36,18.8753333 29.1333333,18.676 27.968,18.676 L18.492,18.676 L18.492,37.352 L27.876,37.352 Z" id="形状"></path>
                    <path d="M68.172,0 L86.48,0 L86.48,15.364 L68.172,15.364 L68.172,0 Z M68.264,22.08 L86.296,22.08 L86.296,77.096 L68.264,77.096 L68.264,22.08 Z" id="形状"></path>
                    <path d="M122.912,78.936 C118.741333,78.936 114.892667,78.292 111.366,77.004 C107.839333,75.716 104.803333,73.83 102.258,71.346 C99.7126667,68.862 97.7346667,65.7953333 96.324,62.146 C94.9133333,58.4966667 94.208,54.3106667 94.208,49.588 C94.208,44.988 94.8673333,40.8633333 96.186,37.214 C97.5046667,33.5646667 99.3906667,30.4826667 101.844,27.968 C104.297333,25.4533333 107.210667,23.5366667 110.584,22.218 C113.957333,20.8993333 117.729333,20.24 121.9,20.24 C124.66,20.24 127.435333,20.5313333 130.226,21.114 C133.016667,21.6966667 135.485333,22.5093333 137.632,23.552 L136.712,36.8 C135.362667,36.3093333 133.875333,35.88 132.25,35.512 C130.624667,35.144 128.524,34.96 125.948,34.96 C124.169333,34.96 122.467333,35.282 120.842,35.926 C119.216667,36.57 117.790667,37.5053333 116.564,38.732 C115.337333,39.9586667 114.371333,41.4766667 113.666,43.286 C112.960667,45.0953333 112.608,47.196 112.608,49.588 C112.608,51.9186667 112.976,53.9886667 113.712,55.798 C114.448,57.6073333 115.429333,59.1406667 116.656,60.398 C117.882667,61.6553333 119.293333,62.606 120.888,63.25 C122.482667,63.894 124.169333,64.216 125.948,64.216 C128.094667,64.216 130.042,63.9553333 131.79,63.434 C133.538,62.9126667 135.209333,62.192 136.804,61.272 L141.128,73.876 C138.797333,75.4706667 136.052667,76.7126667 132.894,77.602 C129.735333,78.4913333 126.408,78.936 122.912,78.936 Z" id="路径"></path>
                    <path d="M171.12,78.936 C166.949333,78.936 163.208,78.246 159.896,76.866 C156.584,75.486 153.747333,73.508 151.386,70.932 C149.024667,68.356 147.215333,65.2586667 145.958,61.64 C144.700667,58.0213333 144.072,54.004 144.072,49.588 C144.072,45.172 144.700667,41.1546667 145.958,37.536 C147.215333,33.9173333 149.024667,30.8353333 151.386,28.29 C153.747333,25.7446667 156.584,23.7666667 159.896,22.356 C163.208,20.9453333 166.949333,20.24 171.12,20.24 C175.229333,20.24 178.94,20.9453333 182.252,22.356 C185.564,23.7666667 188.400667,25.7446667 190.762,28.29 C193.123333,30.8353333 194.932667,33.9173333 196.19,37.536 C197.447333,41.1546667 198.076,45.172 198.076,49.588 C198.076,54.004 197.447333,58.0213333 196.19,61.64 C194.932667,65.2586667 193.123333,68.356 190.762,70.932 C188.400667,73.508 185.564,75.486 182.252,76.866 C178.94,78.246 175.229333,78.936 171.12,78.936 Z M171.12,64.216 C173.634667,64.216 175.750667,62.9433333 177.468,60.398 C179.185333,57.8526667 180.044,54.2493333 180.044,49.588 C180.044,44.9266667 179.185333,41.3233333 177.468,38.778 C175.750667,36.2326667 173.634667,34.96 171.12,34.96 C168.544,34.96 166.397333,36.2326667 164.68,38.778 C162.962667,41.3233333 162.104,44.9266667 162.104,49.588 C162.104,54.2493333 162.962667,57.8526667 164.68,60.398 C166.397333,62.9433333 168.544,64.216 171.12,64.216 Z" id="形状"></path>
                    <path d="M204.608,44.252 C204.608,39.652 204.454667,35.5426667 204.148,31.924 C203.841333,28.3053333 203.350667,25.024 202.676,22.08 L220.064,22.08 C220.370667,23 220.646667,24.0273333 220.892,25.162 C221.137333,26.2966667 221.321333,27.4466667 221.444,28.612 C223.713333,25.9746667 226.304667,23.92 229.218,22.448 C232.131333,20.976 235.213333,20.24 238.464,20.24 C240.794667,20.24 242.895333,20.654 244.766,21.482 C246.636667,22.31 248.246667,23.46 249.596,24.932 C250.945333,26.404 251.972667,28.1826667 252.678,30.268 C253.383333,32.3533333 253.736,34.6226667 253.736,37.076 L253.736,77.096 L235.704,77.096 L235.704,40.664 C235.704,39.0693333 235.198,37.72 234.186,36.616 C233.174,35.512 231.870667,34.96 230.276,34.96 C229.110667,34.96 227.761333,35.4046667 226.228,36.294 C224.694667,37.1833333 223.498667,38.4253333 222.64,40.02 L222.64,77.096 L204.608,77.096 L204.608,44.252 Z" id="路径"></path>
                </g>
                <circle id="椭圆形" fill="#0B0F36" cx="247.24" cy="52.3048765" r="3"></circle>
                <g id="编组-3" transform="translate(274.163916, 27.152438) rotate(-15.000000) translate(-274.163916, -27.152438) translate(240.163916, 8.152438)">
                    <path d="M19,0 L49,0 C59.4934102,-1.92760819e-15 68,8.50658975 68,19 C68,29.4934102 59.4934102,38 49,38 L4,38 C1.790861,38 1.15871992e-15,36.209139 0,34 L0,19 C-1.28507213e-15,8.50658975 8.50658975,1.92760819e-15 19,0 Z" id="矩形" fill="#02CFFF"></path>
                    <text id="Beta" font-family="HYYakuHei-FEW, HYYakuHei" font-size="17" font-weight="400" fill="#0A0F34">
                        <tspan x="15" y="25">Beta</tspan>
                    </text>
                </g>
            </g>
        </g>
    </g>
</svg>