<?xml version="1.0" encoding="UTF-8"?>
<svg width="284px" height="362px" viewBox="0 0 284 362" version="1.1" xmlns="http://www.w3.org/2000/svg" xmlns:xlink="http://www.w3.org/1999/xlink">
    <title>toG</title>
    <g id="页面-2" stroke="none" stroke-width="1" fill="none" fill-rule="evenodd">
        <g id="HY&amp;DW备份" transform="translate(-359.000000, -934.000000)">
            <g id="toG" transform="translate(360.000000, 935.000000)">
                <path d="M251.233378,-0.5 C262.073201,-0.5 265.996956,0.646324102 269.957948,2.76468585 C273.957482,4.90366013 277.09634,8.04251795 279.235314,12.0420521 C281.353676,16.0030442 282.5,19.9267989 282.5,30.7666224 L282.5,329.233378 C282.5,340.073201 281.353676,343.996956 279.235314,347.957948 C277.09634,351.957482 273.957482,355.09634 269.957948,357.235314 C265.996956,359.353676 262.073201,360.5 251.233378,360.5 L30.7666224,360.5 C19.9267989,360.5 16.0030442,359.353676 12.0420521,357.235314 C8.04251795,355.09634 4.90366013,351.957482 2.76468585,347.957948 C0.681641585,344.062994 -0.461455455,340.203924 -0.499040674,329.771514 L-0.5,30.7666224 C-0.5,19.9267989 0.646324102,16.0030442 2.76468585,12.0420521 C4.90366013,8.04251795 8.04251795,4.90366013 12.0420521,2.76468585 C15.9370063,0.681641585 19.7960764,-0.461455455 30.2284859,-0.499040674 Z" id="矩形" stroke-opacity="0.19140625" stroke="#FFFFFF" fill-opacity="0.368963068" fill="#1A1A47"></path>
                <g id="编组-9" transform="translate(30.000000, 106.000000)">
                    <path d="M20.5110816,-8.28672246e-16 L43.4889184,8.28672246e-16 C50.6210683,-4.81482439e-16 53.2073582,0.742604889 55.8147656,2.13706163 C58.422173,3.53151837 60.4684816,5.57782696 61.8629384,8.18523437 C63.2573951,10.7926418 64,13.3789317 64,20.5110816 L64,43.4889184 C64,50.6210683 63.2573951,53.2073582 61.8629384,55.8147656 C60.4684816,58.422173 58.422173,60.4684816 55.8147656,61.8629384 C53.2073582,63.2573951 50.6210683,64 43.4889184,64 L20.5110816,64 C13.3789317,64 10.7926418,63.2573951 8.18523437,61.8629384 C5.57782696,60.4684816 3.53151837,58.422173 2.13706163,55.8147656 C0.742604889,53.2073582 3.20988293e-16,50.6210683 -5.52448164e-16,43.4889184 L5.52448164e-16,20.5110816 C-3.20988293e-16,13.3789317 0.742604889,10.7926418 2.13706163,8.18523437 C3.53151837,5.57782696 5.57782696,3.53151837 8.18523437,2.13706163 C10.7926418,0.742604889 13.3789317,4.81482439e-16 20.5110816,-8.28672246e-16 Z" id="矩形" fill="#00B2AB"></path>
                    <g id="box.4" transform="translate(16.000000, 15.000000)" fill="#FFFFFF" fill-rule="nonzero">
                        <path d="M31.0524564,8.56354282 L16.0009823,17.193086 L0.949574856,8.56354282 C1.61556928,7.34253671 2.58126121,6.27003135 3.66350215,5.67602838 L12.5545278,0.79200396 C14.4525453,-0.26400132 17.5494194,-0.26400132 19.4475035,0.79200396 L28.3385291,5.67602838 C29.4207701,6.27003135 30.386462,7.34253671 31.0524564,8.56354282 Z" id="路径" opacity="0.4"></path>
                        <path d="M16.0004828,17.192921 L16.0004828,33 C14.7517433,33 13.5030037,32.7359987 12.553995,32.207996 L3.66298601,27.3239716 C1.64835286,26.2184661 0,23.4464522 0,21.1694408 L0,11.8304602 C0,10.7744549 0.366296936,9.6194491 0.949042061,8.56344382 L16.0004828,17.192921 Z" id="路径" opacity="0.6"></path>
                        <path d="M32,11.8304602 L32,21.1694408 C32,23.4464522 30.3516638,26.2184661 28.3370306,27.3239716 L19.446005,32.207996 C18.496963,32.7359987 17.2482234,33 15.9994839,33 L15.9994839,17.192921 L31.0509579,8.56344382 C31.6337031,9.6194491 32,10.7744549 32,11.8304602 Z" id="路径"></path>
                    </g>
                </g>
                <g id="编组-14备份" transform="translate(226.000000, 304.000000)" fill="#FFFFFF" fill-opacity="0.177802666">
                    <circle id="椭圆形" cx="20" cy="20" r="20"></circle>
                </g>
                <text id="基于ToG客户的-视觉组件库" font-family="PingFangSC-Semibold, PingFang SC" font-size="22" font-weight="500" fill="#FFFFFF">
                    <tspan x="30" y="53">基于ToG客户的</tspan>
                    <tspan x="30" y="83">视觉组件库</tspan>
                </text>
            </g>
        </g>
    </g>
</svg>