<?xml version="1.0" encoding="UTF-8"?>
<svg width="183px" height="64px" viewBox="0 0 183 64" version="1.1" xmlns="http://www.w3.org/2000/svg" xmlns:xlink="http://www.w3.org/1999/xlink">
    <title>trello知识库</title>
    <g id="everweb" stroke="none" stroke-width="1" fill="none" fill-rule="evenodd">
        <g id="关于我备份" transform="translate(-694.000000, -5874.000000)">
            <g id="trello知识库" transform="translate(694.000000, 5874.000000)">
                <rect id="矩形" stroke-opacity="0.0441706731" stroke="#000000" fill="#FFFFFF" x="0.5" y="0.5" width="182" height="63"></rect>
                <text id="Trello知识库" font-family="AlibabaPuHuiTi-Medium, Alibaba PuHuiTi" font-size="18" font-weight="400" fill="#000000">
                    <tspan x="64" y="27">Trello知识库</tspan>
                </text>
                <text id="UI/UX" font-family="AlibabaPuHuiTi-Regular, Alibaba PuHuiTi" font-size="14" font-weight="normal" fill="#000000" fill-opacity="0.4">
                    <tspan x="64" y="51">UI/UX</tspan>
                </text>
                <g id="编组-20" transform="translate(8.000000, 8.000000)">
                    <rect id="矩形" fill="#2865FF" x="0" y="0" width="48" height="48"></rect>
                    <rect id="矩形" fill="#FFFFFF" x="6" y="6" width="1" height="36"></rect>
                    <rect id="矩形备份-14" fill="#FFFFFF" x="8" y="6" width="1" height="36"></rect>
                    <rect id="矩形备份-15" fill="#FFFFFF" x="10" y="6" width="1" height="36"></rect>
                    <rect id="矩形备份-16" fill="#FFFFFF" x="12" y="6" width="1" height="36"></rect>
                    <rect id="矩形备份-17" fill="#FFFFFF" x="14" y="6" width="1" height="36"></rect>
                    <rect id="矩形备份-18" fill="#FFFFFF" x="16" y="6" width="1" height="36"></rect>
                    <rect id="矩形备份-19" fill="#FFFFFF" x="18" y="6" width="1" height="36"></rect>
                    <rect id="矩形备份-20" fill="#FFFFFF" x="20" y="6" width="1" height="36"></rect>
                    <polygon id="矩形备份-22" fill="#FFFFFF" points="24 6 25 6 25 25 24 25"></polygon>
                    <polygon id="矩形备份-23" fill="#FFFFFF" points="26 6 27 6 27 25 26 25"></polygon>
                    <polygon id="矩形备份-24" fill="#FFFFFF" points="28 6 29 6 29 25 28 25"></polygon>
                    <polygon id="矩形备份-25" fill="#FFFFFF" points="30 6 31 6 31 25 30 25"></polygon>
                    <polygon id="矩形备份-26" fill="#FFFFFF" points="32 6 33 6 33 25 32 25"></polygon>
                    <polygon id="矩形备份-27" fill="#FFFFFF" points="34 6 35 6 35 25 34 25"></polygon>
                    <polygon id="矩形备份-28" fill="#FFFFFF" points="36 6 37 6 37 25 36 25"></polygon>
                    <polygon id="矩形备份-29" fill="#FFFFFF" points="38 6 39 6 39 25 38 25"></polygon>
                    <polygon id="矩形备份-30" fill="#FFFFFF" points="40 6 41 6 41 25 40 25"></polygon>
                </g>
            </g>
        </g>
    </g>
</svg>