<?xml version="1.0" encoding="UTF-8"?>
<svg width="34px" height="30px" viewBox="0 0 34 30" version="1.1" xmlns="http://www.w3.org/2000/svg" xmlns:xlink="http://www.w3.org/1999/xlink">
    <title>wecaht</title>
    <g id="everweb" stroke="none" stroke-width="1" fill="none" fill-rule="evenodd">
        <g id="关于我备份" transform="translate(-351.000000, -7489.000000)">
            <g id="wecaht" transform="translate(353.000000, 7491.000000)">
                <path d="M25.1778646,11.3465215 C25.0566863,5.06105759 19.467297,0 12.5899553,0 C5.63668034,0 0,5.17335863 0,11.5550909 C0,14.5667087 1.25530509,17.3092373 3.31188215,19.365899 L2.36882369,24.5731285 L7.96708106,22.3662506 C10.4336894,23.1189925 12.7614934,23.3071961 14.9505719,22.930789 C17.3713752,24.6053648 19.1090514,25.5425331 20.1636002,25.742294 C24.9532864,26.6495938 28.0012077,24.9573565 29.0030809,23.8225531 C29.7155493,23.0155532 30.8357146,19.8168429 29.0030809,15.4548618 C28.6129328,14.5262428 27.3378607,13.156796 25.1778646,11.3465215 Z" id="路径" fill="#CCE4FF"></path>
                <path d="M25,11.5436273 C24.8796777,5.14897563 19.3297737,0 12.5010157,0 C5.59686099,0 0,5.2632275 0,11.7558199 C0,14.8197539 1.24643721,17.6099243 3.28848594,19.7023133 L2.35208954,25 L7.910799,22.7547854 C10.3599824,23.5206035 12.671342,23.7120765 14.8449562,23.3291306" id="路径" stroke="#003CA3" stroke-width="2.375" stroke-linecap="round" stroke-linejoin="round"></path>
                <path d="M8,10 C9.10453333,10 10,9.32845105 10,8.5 C10,7.67161512 9.10453333,7 8,7 C6.89546667,7 6,7.67161512 6,8.5 C6,9.32845105 6.89546667,10 8,10 Z" id="路径" fill="#003CA3" fill-rule="nonzero"></path>
                <path d="M15,10 C16.1045333,10 17,9.32845105 17,8.5 C17,7.67161512 16.1045333,7 15,7 C13.8954667,7 13,7.67161512 13,8.5 C13,9.32845105 13.8954667,10 15,10 Z" id="路径" fill="#003CA3" fill-rule="nonzero"></path>
                <path d="M21.5,26 C16.8055714,26 13,22.6421429 13,18.5 C13,14.3578571 16.8055714,11 21.5,11 C26.1944286,11 30,14.3578571 30,18.5 C30,19.6426429 29.7104333,20.7256429 29.192419,21.6948571 L30,26 L26.5690762,24.5209286 C25.1537857,25.4501429 23.3997095,26 21.5,26 Z" id="形状结合" stroke="#003CA3" stroke-width="2.375" stroke-linecap="round" stroke-linejoin="round"></path>
                <path d="M24.5,18 C23.6715556,18 23,17.5522941 23,17 C23,16.4477059 23.6715556,16 24.5,16 C25.3284444,16 26,16.4477059 26,17 C26,17.5522941 25.3284444,18 24.5,18 Z" id="路径" fill="#003CA3" fill-rule="nonzero"></path>
                <path d="M18.5,18 C17.6715556,18 17,17.5522941 17,17 C17,16.4477059 17.6715556,16 18.5,16 C19.3284444,16 20,16.4477059 20,17 C20,17.5522941 19.3284444,18 18.5,18 Z" id="路径" fill="#003CA3" fill-rule="nonzero"></path>
            </g>
        </g>
    </g>
</svg>