<?xml version="1.0" encoding="UTF-8"?>
<svg width="190px" height="78px" viewBox="0 0 190 78" version="1.1" xmlns="http://www.w3.org/2000/svg" xmlns:xlink="http://www.w3.org/1999/xlink">
    <title>XD</title>
    <g id="页面-2" stroke="none" stroke-width="1" fill="none" fill-rule="evenodd">
        <g id="HY&amp;DW备份" transform="translate(-1148.000000, -4221.000000)">
            <g id="编组-26" transform="translate(0.000000, 4148.000000)">
                <g id="XD" transform="translate(1148.000000, 73.000000)">
                    <g id="编组-23备份-2">
                        <path d="M163,0.5 C170.317773,0.5 176.942773,3.46611353 181.73833,8.2616703 C186.533886,13.0572271 189.5,19.6822271 189.5,27 C189.5,34.3177729 186.533886,40.9427729 181.73833,45.7383297 C176.942773,50.5338865 170.317773,53.5 163,53.5 L27,53.5 C19.6822271,53.5 13.0572271,50.5338865 8.2616703,45.7383297 C3.46611353,40.9427729 0.5,34.3177729 0.5,27 C0.5,19.6822271 3.46611353,13.0572271 8.2616703,8.2616703 C13.0572271,3.46611353 19.6822271,0.5 27,0.5 Z" id="矩形" stroke-opacity="0.162478147" stroke="#FFFFFF" fill-opacity="0.122596154" fill="#FFFFFF"></path>
                        <g id="Adobe-XD" transform="translate(78.000000, 20.624000)" fill="#FFFFFF" fill-opacity="0.4" fill-rule="nonzero">
                            <path d="M4.777,0.238 L0,12.376 L1.496,12.376 L2.788,8.976 L8.364,8.976 L9.656,12.376 L11.169,12.376 L6.392,0.238 L4.777,0.238 Z M3.23,7.803 L5.559,1.734 L5.627,1.734 L7.922,7.803 L3.23,7.803 Z" id="形状"></path>
                            <path d="M18.717,0 L18.717,5.202 C18.037,3.961 17.068,3.349 15.81,3.349 C14.552,3.349 13.583,3.808 12.869,4.76 C12.206,5.61 11.883,6.664 11.883,7.956 C11.883,9.282 12.206,10.37 12.869,11.22 C13.583,12.138 14.586,12.614 15.878,12.614 C17.204,12.614 18.19,12.053 18.802,10.931 L18.802,12.376 L20.077,12.376 L20.077,0 L18.717,0 Z M16.099,4.471 C16.881,4.471 17.527,4.777 18.02,5.423 C18.496,6.052 18.751,6.885 18.751,7.905 L18.751,8.075 C18.751,9.061 18.53,9.86 18.105,10.472 C17.612,11.152 16.932,11.492 16.048,11.492 C15.096,11.492 14.382,11.135 13.906,10.455 C13.481,9.843 13.277,9.01 13.277,7.956 C13.277,6.902 13.481,6.086 13.923,5.491 C14.399,4.811 15.13,4.471 16.099,4.471 Z" id="形状"></path>
                            <path d="M26.112,3.349 C24.786,3.349 23.749,3.791 22.967,4.709 C22.219,5.576 21.845,6.664 21.845,7.99 C21.845,9.299 22.219,10.387 22.967,11.237 C23.749,12.155 24.786,12.614 26.112,12.614 C27.421,12.614 28.475,12.155 29.274,11.237 C30.005,10.387 30.379,9.299 30.379,7.99 C30.379,6.664 30.005,5.576 29.257,4.709 C28.475,3.791 27.421,3.349 26.112,3.349 Z M26.112,4.488 C27.03,4.488 27.761,4.845 28.305,5.559 C28.764,6.205 29.002,7.004 29.002,7.99 C29.002,8.942 28.764,9.758 28.305,10.404 C27.761,11.118 27.03,11.475 26.112,11.475 C25.177,11.475 24.446,11.118 23.936,10.404 C23.46,9.758 23.239,8.959 23.239,7.99 C23.239,7.004 23.46,6.205 23.936,5.559 C24.446,4.845 25.177,4.488 26.112,4.488 Z" id="形状"></path>
                            <path d="M32.147,0 L32.147,12.376 L33.422,12.376 L33.422,10.931 C34.017,12.053 34.986,12.614 36.346,12.614 C37.621,12.614 38.624,12.138 39.355,11.22 C40.001,10.37 40.341,9.282 40.341,7.956 C40.341,6.664 40.001,5.61 39.355,4.76 C38.641,3.808 37.655,3.349 36.414,3.349 C35.156,3.349 34.187,3.961 33.507,5.202 L33.507,0 L32.147,0 Z M36.125,4.471 C37.077,4.471 37.791,4.811 38.284,5.491 C38.726,6.086 38.947,6.902 38.947,7.956 C38.947,9.01 38.726,9.843 38.318,10.455 C37.842,11.135 37.128,11.492 36.176,11.492 C35.292,11.492 34.595,11.152 34.119,10.472 C33.677,9.86 33.456,9.061 33.456,8.075 L33.456,7.905 C33.456,6.885 33.694,6.052 34.204,5.423 C34.68,4.777 35.326,4.471 36.125,4.471 Z" id="形状"></path>
                            <path d="M45.73,3.349 C44.455,3.349 43.452,3.808 42.704,4.726 C41.956,5.593 41.599,6.681 41.599,7.973 C41.599,9.401 41.973,10.523 42.755,11.373 C43.503,12.189 44.523,12.614 45.781,12.614 C46.92,12.614 47.855,12.274 48.586,11.628 C49.181,11.084 49.572,10.404 49.776,9.554 L48.416,9.554 C48.195,10.166 47.906,10.625 47.532,10.931 C47.09,11.288 46.495,11.475 45.781,11.475 C44.948,11.475 44.285,11.203 43.809,10.659 C43.333,10.115 43.078,9.35 43.01,8.364 L49.946,8.364 C49.912,6.834 49.572,5.627 48.926,4.777 C48.212,3.825 47.141,3.349 45.73,3.349 Z M45.764,4.488 C47.43,4.488 48.365,5.423 48.535,7.31 L43.044,7.31 C43.129,6.443 43.401,5.763 43.877,5.253 C44.353,4.743 44.982,4.488 45.764,4.488 Z" id="形状"></path>
                            <polygon id="路径" points="56.559 0.238 60.707 6.069 56.236 12.376 57.953 12.376 61.557 7.174 65.178 12.376 66.895 12.376 62.39 6.069 66.572 0.238 64.855 0.238 61.557 4.964 58.276 0.238"></polygon>
                            <path d="M68.204,0.238 L68.204,12.376 L72.42,12.376 C74.324,12.376 75.786,11.815 76.806,10.71 C77.775,9.656 78.268,8.177 78.268,6.307 C78.268,4.403 77.809,2.924 76.908,1.904 C75.922,0.782 74.477,0.238 72.556,0.238 L68.204,0.238 Z M69.598,1.445 L72.335,1.445 C73.933,1.445 75.089,1.853 75.837,2.686 C76.534,3.468 76.891,4.675 76.891,6.307 C76.891,7.888 76.5,9.095 75.752,9.911 C74.953,10.744 73.763,11.169 72.182,11.169 L69.598,11.169 L69.598,1.445 Z" id="形状"></path>
                        </g>
                        <g id="adobe-xd" transform="translate(34.000000, 13.000000)" fill-rule="nonzero">
                            <path d="M4.95833334,0 L23.0416667,0 C26.3472222,0 28,1.6951567 28,5.08547009 L28,22.9145299 C28,26.3048433 26.3472222,28 23.0416667,28 L4.95833334,28 C1.65277778,28 0,26.3048433 0,22.9145299 L0,5.08547009 C0,1.6951567 1.65277778,0 4.95833334,0 Z" id="路径" fill="#470137"></path>
                            <path d="M15.2908955,9.03717381 L11.7420927,14.7751002 L15.53893,20.8681425 C15.5632616,20.9108129 15.5700438,20.9609738 15.5578911,21.0083779 C15.5452109,21.0521435 15.5007709,21.0246304 15.4244525,21.0368197 L12.7151516,21.0368197 C12.5243557,21.0368197 12.3907986,21.0302026 12.3144803,20.9056393 C12.0598488,20.4196137 11.8054543,19.9367612 11.5512969,19.4570819 C11.2966654,18.9775573 11.0263911,18.4884747 10.7404738,17.9898342 C10.4542405,17.491658 10.171207,16.9870582 9.89137305,16.4760348 L9.87229347,16.4760348 C9.617662,16.9744432 9.353708,17.4728516 9.08043146,17.97126 C8.8068389,18.4696683 8.53656455,18.9649423 8.2696084,19.4570819 C8.00257322,19.9494536 7.72909917,20.4384975 7.44918625,20.9242135 C7.39822836,21.0363554 7.30899278,21.0479643 7.18207207,21.0479643 L4.56816901,21.0479643 C4.51744814,21.0479643 4.48876949,21.0676994 4.48225162,21.0177811 C4.47504991,20.9721622 4.4852598,20.9255433 4.51093026,20.8868329 L8.19329006,14.9620033 L4.60632818,9.0184835 C4.56816901,8.96887484 4.56180915,8.9283985 4.5872486,8.89705449 C4.61579607,8.86472208 4.65818595,8.8473985 4.7017261,8.85027068 L7.39182899,8.85027068 C7.45052172,8.84714714 7.50920346,8.85669327 7.56366375,8.87836418 C7.60928397,8.90366118 7.64843105,8.93879402 7.67814126,8.98110287 C7.90709627,9.47958863 8.16149073,9.977997 8.44132465,10.476328 C8.72100055,10.9748911 9.00399463,11.4671081 9.29030691,11.9529789 C9.57654018,12.4388496 9.84049418,12.9309892 10.0821689,13.4293976 L10.1012485,13.4293976 C10.3554849,12.9186064 10.6130396,12.420198 10.8739124,11.9341725 C11.1345482,11.4482243 11.4016624,10.9591804 11.675255,10.4670409 C11.9486105,9.97497869 12.2125645,9.48589613 12.467117,8.99979319 C12.4817499,8.95368387 12.5079956,8.91192458 12.5434353,8.87836418 C12.5905354,8.85492432 12.6434989,8.84517614 12.696072,8.85027068 L15.195379,8.85027068 C15.2450034,8.83829125 15.2964813,8.86157227 15.3193606,8.90634175 C15.34224,8.95111123 15.3304211,9.00543342 15.2908955,9.03717381 L15.2908955,9.03717381 Z M20.7664992,21.2793294 C19.8882935,21.2924219 19.0181455,21.1136466 18.2193154,20.7560007 C17.475186,20.4186309 16.853133,19.8679264 16.4354335,19.1767272 C16.0028839,18.4729188 15.7865609,17.5913397 15.7867276,16.5319897 C15.7795658,15.6742205 16.0033159,14.8297532 16.4354335,14.0836747 C16.8805801,13.3236348 17.5352358,12.7017678 18.3244309,12.2892884 C19.1510548,11.8407209 20.1495136,11.6164371 21.3198071,11.6164371 C21.3833267,11.6164371 21.4660049,11.6195328 21.5678417,11.6257242 C21.6695205,11.6322252 21.7903578,11.6415897 21.9303538,11.6538178 L21.9303538,7.9718259 C21.9303538,7.88475923 21.968513,7.84099371 22.0448313,7.84099371 L24.4488589,7.84099371 C24.4803856,7.83659007 24.5121895,7.84697961 24.5347077,7.86903839 C24.5572259,7.89109718 24.5678318,7.92225213 24.5633365,7.95313559 L24.5633365,18.9991111 C24.5633365,19.2111669 24.5728565,19.4416807 24.5918966,19.6906528 C24.6110157,19.9400891 24.6269351,20.1643729 24.6396548,20.3635041 C24.6444467,20.4429587 24.5989995,20.5171587 24.5251773,20.5504072 C23.905012,20.8037909 23.2590629,20.991754 22.5982578,21.1111166 C21.9939863,21.2204041 21.3809768,21.2767364 20.7664992,21.2794455 L20.7664992,21.2793294 Z M21.9302353,18.9617305 L21.9302353,13.8592748 C21.8271596,13.8319221 21.7219054,13.8131649 21.6155999,13.8032039 C21.4856149,13.7904387 21.3550451,13.784239 21.2244092,13.7846296 C20.7614249,13.7800799 20.3038642,13.8824916 19.8888383,14.0835586 C19.4846318,14.2803928 19.1395045,14.5766379 18.8872193,14.943313 C18.6263465,15.3171193 18.4959496,15.8093362 18.4960286,16.4199639 C18.4867351,16.827352 18.5546419,17.2328961 18.696305,17.6160279 C18.8116395,17.9247688 18.9939436,18.2053397 19.2306519,18.4384017 C19.4571956,18.6528198 19.7314741,18.8127735 20.0318759,18.9056596 C20.3492382,19.0063288 20.6809518,19.0568028 21.0145337,19.0552199 C21.1925309,19.0552199 21.3578873,19.0489907 21.5106029,19.0366079 C21.6528051,19.0260754 21.7934898,19.0009793 21.9303538,18.9617305 L21.9302353,18.9617305 Z" id="形状" fill="#FF61F6"></path>
                        </g>
                    </g>
                    <g id="Coming-soon" transform="translate(51.588000, 64.808000)" fill="#FFFFFF" fill-opacity="0.4" fill-rule="nonzero">
                        <path d="M4.732,0 C3.192,0 1.988,0.518 1.148,1.582 C0.378,2.534 0,3.752 0,5.236 C0,6.72 0.364,7.924 1.12,8.848 C1.946,9.87 3.136,10.388 4.69,10.388 C5.754,10.388 6.678,10.08 7.448,9.478 C8.274,8.834 8.792,7.924 9.016,6.762 L7.91,6.762 C7.714,7.63 7.308,8.288 6.72,8.736 C6.16,9.156 5.488,9.366 4.69,9.366 C3.514,9.366 2.632,8.974 2.016,8.204 C1.428,7.476 1.148,6.482 1.148,5.236 C1.148,3.99 1.442,2.996 2.03,2.24 C2.66,1.428 3.556,1.022 4.718,1.022 C5.502,1.022 6.16,1.204 6.706,1.582 C7.266,1.974 7.63,2.534 7.77,3.262 L8.876,3.262 C8.736,2.268 8.288,1.47 7.532,0.882 C6.776,0.294 5.838,0 4.732,0 Z" id="路径"></path>
                        <path d="M13.706,2.758 C12.614,2.758 11.76,3.122 11.116,3.878 C10.5,4.592 10.192,5.488 10.192,6.58 C10.192,7.658 10.5,8.554 11.116,9.254 C11.76,10.01 12.614,10.388 13.706,10.388 C14.784,10.388 15.652,10.01 16.31,9.254 C16.912,8.554 17.22,7.658 17.22,6.58 C17.22,5.488 16.912,4.592 16.296,3.878 C15.652,3.122 14.784,2.758 13.706,2.758 Z M13.706,3.696 C14.462,3.696 15.064,3.99 15.512,4.578 C15.89,5.11 16.086,5.768 16.086,6.58 C16.086,7.364 15.89,8.036 15.512,8.568 C15.064,9.156 14.462,9.45 13.706,9.45 C12.936,9.45 12.334,9.156 11.914,8.568 C11.522,8.036 11.34,7.378 11.34,6.58 C11.34,5.768 11.522,5.11 11.914,4.578 C12.334,3.99 12.936,3.696 13.706,3.696 Z" id="形状"></path>
                        <path d="M21.84,2.758 C21.028,2.758 20.342,3.136 19.796,3.92 L19.796,2.954 L18.676,2.954 L18.676,10.192 L19.796,10.192 L19.796,5.782 C19.796,5.208 19.964,4.718 20.3,4.326 C20.636,3.906 21.056,3.71 21.574,3.71 C22.68,3.71 23.24,4.34 23.24,5.628 L23.24,10.192 L24.36,10.192 L24.36,5.656 C24.36,5.068 24.514,4.606 24.85,4.242 C25.158,3.878 25.564,3.71 26.04,3.71 C26.656,3.71 27.104,3.864 27.384,4.2 C27.65,4.508 27.79,4.984 27.79,5.628 L27.79,10.192 L28.91,10.192 L28.91,5.446 C28.91,4.62 28.672,3.962 28.224,3.472 C27.748,2.996 27.146,2.758 26.39,2.758 C25.886,2.758 25.466,2.87 25.116,3.094 C24.724,3.304 24.388,3.654 24.108,4.13 C23.702,3.206 22.946,2.758 21.84,2.758 Z" id="路径"></path>
                        <path d="M31.57,0.224 C31.332,0.224 31.136,0.294 30.968,0.462 C30.8,0.602 30.73,0.798 30.73,1.05 C30.73,1.288 30.8,1.484 30.968,1.652 C31.136,1.806 31.332,1.89 31.57,1.89 C31.808,1.89 32.004,1.806 32.172,1.652 C32.34,1.484 32.424,1.288 32.424,1.05 C32.424,0.798 32.34,0.602 32.172,0.462 C32.004,0.294 31.808,0.224 31.57,0.224 Z M31.01,2.954 L31.01,10.192 L32.13,10.192 L32.13,2.954 L31.01,2.954 Z" id="形状"></path>
                        <path d="M37.618,2.758 C37.142,2.758 36.708,2.87 36.316,3.094 C35.924,3.304 35.602,3.612 35.35,4.018 L35.35,2.954 L34.23,2.954 L34.23,10.192 L35.35,10.192 L35.35,5.824 C35.392,5.166 35.602,4.648 35.994,4.256 C36.358,3.892 36.792,3.71 37.296,3.71 C38.556,3.71 39.2,4.41 39.2,5.824 L39.2,10.192 L40.32,10.192 L40.32,5.74 C40.32,3.752 39.41,2.758 37.618,2.758 Z" id="路径"></path>
                        <path d="M45.038,2.758 C44.03,2.758 43.232,3.108 42.644,3.822 C42.056,4.494 41.776,5.348 41.776,6.412 C41.776,7.462 42.056,8.316 42.644,8.988 C43.232,9.674 44.03,10.024 45.038,10.024 C46.13,10.024 46.942,9.534 47.474,8.568 L47.474,9.842 C47.474,11.438 46.746,12.25 45.29,12.25 C44.632,12.25 44.142,12.124 43.82,11.886 C43.498,11.662 43.288,11.298 43.204,10.808 L42.084,10.808 C42.21,11.592 42.532,12.18 43.05,12.572 C43.554,12.964 44.31,13.16 45.29,13.16 C47.488,13.16 48.594,11.998 48.594,9.688 L48.594,2.954 L47.474,2.954 L47.474,4.2 C46.942,3.234 46.13,2.758 45.038,2.758 Z M45.206,3.682 C45.92,3.682 46.48,3.934 46.9,4.466 C47.292,4.942 47.488,5.6 47.488,6.412 C47.488,7.196 47.292,7.84 46.9,8.33 C46.48,8.834 45.92,9.086 45.192,9.086 C44.408,9.086 43.834,8.806 43.442,8.274 C43.092,7.798 42.924,7.168 42.924,6.412 C42.924,5.6 43.12,4.942 43.512,4.466 C43.918,3.934 44.478,3.682 45.206,3.682 Z" id="形状"></path>
                        <path d="M57.554,2.758 C56.742,2.758 56.07,2.94 55.566,3.304 C55.02,3.668 54.754,4.144 54.754,4.76 C54.754,5.376 55.02,5.838 55.58,6.174 C55.916,6.398 56.518,6.608 57.372,6.818 C58.156,7.014 58.674,7.168 58.912,7.28 C59.36,7.504 59.598,7.812 59.598,8.218 C59.598,9.03 58.94,9.45 57.652,9.45 C57.036,9.45 56.574,9.338 56.266,9.114 C55.958,8.862 55.748,8.456 55.664,7.882 L54.572,7.882 C54.74,9.548 55.776,10.388 57.68,10.388 C59.724,10.388 60.746,9.632 60.746,8.148 C60.746,7.518 60.452,7.028 59.878,6.664 C59.5,6.426 58.884,6.202 58.016,5.992 C57.288,5.796 56.784,5.642 56.518,5.516 C56.098,5.306 55.902,5.04 55.902,4.732 C55.902,4.41 56.056,4.158 56.364,3.976 C56.644,3.78 57.036,3.696 57.54,3.696 C58.114,3.696 58.562,3.808 58.87,4.032 C59.15,4.228 59.332,4.564 59.43,5.012 L60.522,5.012 C60.326,3.5 59.346,2.758 57.554,2.758 Z" id="路径"></path>
                        <path d="M65.296,2.758 C64.204,2.758 63.35,3.122 62.706,3.878 C62.09,4.592 61.782,5.488 61.782,6.58 C61.782,7.658 62.09,8.554 62.706,9.254 C63.35,10.01 64.204,10.388 65.296,10.388 C66.374,10.388 67.242,10.01 67.9,9.254 C68.502,8.554 68.81,7.658 68.81,6.58 C68.81,5.488 68.502,4.592 67.886,3.878 C67.242,3.122 66.374,2.758 65.296,2.758 Z M65.296,3.696 C66.052,3.696 66.654,3.99 67.102,4.578 C67.48,5.11 67.676,5.768 67.676,6.58 C67.676,7.364 67.48,8.036 67.102,8.568 C66.654,9.156 66.052,9.45 65.296,9.45 C64.526,9.45 63.924,9.156 63.504,8.568 C63.112,8.036 62.93,7.378 62.93,6.58 C62.93,5.768 63.112,5.11 63.504,4.578 C63.924,3.99 64.526,3.696 65.296,3.696 Z" id="形状"></path>
                        <path d="M73.5,2.758 C72.408,2.758 71.554,3.122 70.91,3.878 C70.294,4.592 69.986,5.488 69.986,6.58 C69.986,7.658 70.294,8.554 70.91,9.254 C71.554,10.01 72.408,10.388 73.5,10.388 C74.578,10.388 75.446,10.01 76.104,9.254 C76.706,8.554 77.014,7.658 77.014,6.58 C77.014,5.488 76.706,4.592 76.09,3.878 C75.446,3.122 74.578,2.758 73.5,2.758 Z M73.5,3.696 C74.256,3.696 74.858,3.99 75.306,4.578 C75.684,5.11 75.88,5.768 75.88,6.58 C75.88,7.364 75.684,8.036 75.306,8.568 C74.858,9.156 74.256,9.45 73.5,9.45 C72.73,9.45 72.128,9.156 71.708,8.568 C71.316,8.036 71.134,7.378 71.134,6.58 C71.134,5.768 71.316,5.11 71.708,4.578 C72.128,3.99 72.73,3.696 73.5,3.696 Z" id="形状"></path>
                        <path d="M81.858,2.758 C81.382,2.758 80.948,2.87 80.556,3.094 C80.164,3.304 79.842,3.612 79.59,4.018 L79.59,2.954 L78.47,2.954 L78.47,10.192 L79.59,10.192 L79.59,5.824 C79.632,5.166 79.842,4.648 80.234,4.256 C80.598,3.892 81.032,3.71 81.536,3.71 C82.796,3.71 83.44,4.41 83.44,5.824 L83.44,10.192 L84.56,10.192 L84.56,5.74 C84.56,3.752 83.65,2.758 81.858,2.758 Z" id="路径"></path>
                    </g>
                </g>
            </g>
        </g>
    </g>
</svg>