<?xml version="1.0" encoding="UTF-8"?>
<svg width="62px" height="30px" viewBox="0 0 62 30" version="1.1" xmlns="http://www.w3.org/2000/svg" xmlns:xlink="http://www.w3.org/1999/xlink">
    <title>张新</title>
    <g id="everweb" stroke="none" stroke-width="1" fill="none" fill-rule="evenodd">
        <g id="关于我备份" transform="translate(-843.000000, -1533.000000)" fill="#000000" fill-rule="nonzero">
            <g id="编组-14" transform="translate(0.000000, 1079.000000)">
                <g id="张新" transform="translate(843.568000, 454.176000)">
                    <path d="M23.52,29.248 C23.1573333,27.8826667 22.816,26.5653333 22.496,25.296 C22.176,24.0266667 21.8773333,22.7626667 21.6,21.504 C21.3226667,20.2453333 21.056,18.96 20.8,17.648 C20.544,16.336 20.288,14.9653333 20.032,13.536 L18.688,13.536 L18.688,25.184 L21.6,25.184 L21.6,29.248 L13.888,29.248 L13.888,13.536 L12.032,13.536 L12.032,9.504 L13.888,9.504 L13.888,0 L18.688,0 L18.688,9.504 L28.608,9.504 L28.608,13.536 L24.576,13.536 C24.896,14.944 25.2106667,16.2986667 25.52,17.6 C25.8293333,18.9013333 26.1493333,20.1866667 26.48,21.456 C26.8106667,22.7253333 27.1626667,24 27.536,25.28 C27.9093333,26.56 28.3093333,27.8826667 28.736,29.248 L23.52,29.248 Z M11.328,0.576 L11.328,12.16 L4.96,12.16 L4.672,15.296 L11.424,15.296 L11.424,21.696 C11.424,22.6773333 11.3813333,23.552 11.296,24.32 C11.2106667,25.088 11.0986667,25.7706667 10.96,26.368 C10.8213333,26.9653333 10.6666667,27.4986667 10.496,27.968 C10.3253333,28.4373333 10.144,28.864 9.952,29.248 L3.904,29.248 C4.77866667,28.3093333 5.456,27.232 5.936,26.016 C6.416,24.8 6.656,23.36 6.656,21.696 L6.656,19.232 L0,19.232 L0.928,8.256 L6.624,8.256 L6.624,4.48 L0.48,4.48 L0.48,0.576 L11.328,0.576 Z M19.968,8.608 C20.8,6.944 21.4933333,5.44533333 22.048,4.112 C22.6026667,2.77866667 23.0613333,1.536 23.424,0.384 L28.224,0.384 C27.776,1.856 27.3013333,3.24266667 26.8,4.544 C26.2986667,5.84533333 25.7066667,7.2 25.024,8.608 L19.968,8.608 Z" id="形状"></path>
                    <path d="M54.848,12.576 L52.544,12.576 L52.544,21.216 C52.544,22.752 52.48,24.2133333 52.352,25.6 C52.224,26.9866667 52.0106667,28.2026667 51.712,29.248 L43.648,29.248 C43.584,28.5866667 43.5093333,27.8293333 43.424,26.976 C43.3386667,26.1226667 43.248,25.2373333 43.152,24.32 C43.056,23.4026667 42.9493333,22.4853333 42.832,21.568 C42.7146667,20.6506667 42.6026667,19.7866667 42.496,18.976 L45.792,18.976 C45.8986667,19.744 46.0106667,20.5386667 46.128,21.36 C46.2453333,22.1813333 46.3626667,23.008 46.48,23.84 C46.5973333,24.672 46.704,25.488 46.8,26.288 C46.896,27.088 46.9866667,27.8506667 47.072,28.576 C47.4773333,27.488 47.7493333,26.288 47.888,24.976 C48.0266667,23.664 48.096,22.4213333 48.096,21.248 L48.096,0.768 L60.608,0.064 L60.608,4.48 L52.544,4.96 L52.544,8.32 L61.056,8.32 L61.056,12.576 L59.168,12.576 L59.168,29.248 L54.848,29.248 L54.848,12.576 Z M37.376,1.408 C37.2906667,1.13066667 37.2106667,0.869333333 37.136,0.624 C37.0613333,0.378666667 36.992,0.170666667 36.928,0 L41.632,0 C41.7173333,0.170666667 41.808,0.373333333 41.904,0.608 C42,0.842666667 42.1013333,1.10933333 42.208,1.408 L46.912,1.408 L46.912,5.248 L45.76,5.248 C45.6106667,5.888 45.456,6.49066667 45.296,7.056 C45.136,7.62133333 44.9493333,8.20266667 44.736,8.8 L47.264,8.8 L47.264,12.608 L41.952,12.608 L41.952,14.144 L47.008,14.144 L47.008,18.048 L41.952,18.048 L41.952,22.4 C41.952,23.552 41.8933333,24.7413333 41.776,25.968 C41.6586667,27.1946667 41.4826667,28.288 41.248,29.248 L35.904,29.248 C36.3946667,28.3306667 36.7786667,27.3013333 37.056,26.16 C37.3333333,25.0186667 37.472,23.7546667 37.472,22.368 L37.472,18.048 L32.192,18.048 L32.192,14.144 L37.472,14.144 L37.472,12.608 L31.84,12.608 L31.84,8.8 L34.464,8.8 C34.336,8.224 34.1866667,7.62666667 34.016,7.008 C33.8453333,6.38933333 33.664,5.80266667 33.472,5.248 L32.32,5.248 L32.32,1.408 L37.376,1.408 Z M31.424,29.248 C31.872,27.648 32.2453333,25.9466667 32.544,24.144 C32.8426667,22.3413333 33.0773333,20.6186667 33.248,18.976 L36.8,18.976 C36.7146667,19.7866667 36.6186667,20.6293333 36.512,21.504 C36.4053333,22.3786667 36.2826667,23.264 36.144,24.16 C36.0053333,25.056 35.8453333,25.936 35.664,26.8 C35.4826667,27.664 35.2853333,28.48 35.072,29.248 L31.424,29.248 Z M40.512,8.8 C40.7253333,8.18133333 40.9173333,7.57866667 41.088,6.992 C41.2586667,6.40533333 41.408,5.824 41.536,5.248 L37.664,5.248 C37.856,5.824 38.0373333,6.40533333 38.208,6.992 C38.3786667,7.57866667 38.5493333,8.18133333 38.72,8.8 L40.512,8.8 Z" id="形状"></path>
                </g>
            </g>
        </g>
    </g>
</svg>