<?xml version="1.0" encoding="UTF-8"?>
<svg width="220px" height="64px" viewBox="0 0 220 64" version="1.1" xmlns="http://www.w3.org/2000/svg" xmlns:xlink="http://www.w3.org/1999/xlink">
    <title>兰慕咖啡</title>
    <g id="everweb" stroke="none" stroke-width="1" fill="none" fill-rule="evenodd">
        <g id="关于我备份" transform="translate(-1475.000000, -5874.000000)">
            <g id="兰慕咖啡" transform="translate(1475.000000, 5874.000000)">
                <rect id="矩形" stroke-opacity="0.0441706731" stroke="#000000" fill="#FFFFFF" x="0.5" y="0.5" width="219" height="63"></rect>
                <text id="Roumer兰慕咖啡" font-family="AlibabaPuHuiTi-Medium, Alibaba PuHuiTi" font-size="18" font-weight="400" fill="#000000">
                    <tspan x="64" y="27">Roumer兰慕咖啡</tspan>
                </text>
                <text id="小程序" font-family="AlibabaPuHuiTi-Regular, Alibaba PuHuiTi" font-size="14" font-weight="normal" fill="#000000" fill-opacity="0.4">
                    <tspan x="64" y="51">小程序</tspan>
                </text>
                <g id="编组-20" transform="translate(8.000000, 8.000000)">
                    <rect id="矩形" fill="#C58140" x="0" y="0" width="48" height="48"></rect>
                    <g id="编组-3" transform="translate(8.000000, 8.000000)" fill="#FFFFFF">
                        <path d="M26.1250323,4.81831546 L26.1569243,5.0187787 C26.3766467,6.81053264 27.4639903,8.3745413 29.0558601,9.21475242 L29.3413821,9.35518409 C30.7742349,10.0149286 31.398102,11.7051335 30.7348284,13.1303624 L30.6367325,13.3218209 C29.754495,14.8939117 29.7054817,16.7894844 30.4896928,18.3975177 L30.6367325,18.6781793 C31.4063115,20.0495199 30.9125406,21.7817587 29.5338643,22.5472429 L29.3257811,22.6519999 C27.6840565,23.4079177 26.5237008,24.9105604 26.2044573,26.668455 L26.1569247,26.9812213 C25.9650634,28.5457767 24.5344218,29.6593928 22.9614971,29.4685524 L22.7424443,29.4334338 C20.9570687,29.0872747 19.1211467,29.6308516 17.8185879,30.8758484 L17.6065335,31.0898102 C16.520077,32.2470264 14.6962028,32.3090748 13.5327963,31.2283992 L13.3934662,31.0898104 C12.1600864,29.7761021 10.368276,29.1443491 8.59056995,29.3791991 L8.24003772,29.4368304 C6.68472639,29.7383832 5.17813289,28.7287198 4.87496696,27.1816839 L4.84307509,26.9812213 C4.62335257,25.1894675 3.53600912,23.6254589 1.94413951,22.7852477 L1.65861753,22.644816 C0.225764871,21.9850713 -0.39810205,20.2948664 0.265171758,18.8696377 L0.363267722,18.678179 C1.24550556,17.1060884 1.29451879,15.2105157 0.510307388,13.6024826 L0.363267528,13.3218209 C-0.4063116,11.9504807 0.087458784,10.2182423 1.46613455,9.45275791 L1.56144921,9.40216167 L1.67421951,9.34800003 C3.31594417,8.59208236 4.47629978,7.08943952 4.79554301,5.33154493 L4.84307556,5.0187786 C5.03493647,3.45422353 6.46557753,2.34060748 8.03850182,2.53144754 L8.13955326,2.54552608 L8.25755474,2.56656616 C10.0429304,2.91272542 11.8788526,2.36914855 13.1814114,1.12415157 L13.3934659,0.910189737 C14.4799221,-0.247026366 16.3037962,-0.309074823 17.4672025,0.77160063 L17.6065331,0.910189857 C18.8399127,2.22389844 20.6317233,2.85565146 22.4094293,2.62080125 L22.7599616,2.56316986 C24.3152727,2.26161679 25.8218661,3.27127986 26.1250323,4.81831546 Z M24.7871484,5.07771245 C24.6386188,4.31977653 23.9398028,3.80756282 23.1835092,3.87133359 L23.0032287,3.89733158 C20.7747146,4.3294093 18.4829329,3.64782923 16.8607773,2.08895604 L16.5368802,1.76251398 C15.9236676,1.19290754 14.9623333,1.22561227 14.3896799,1.83556204 C12.8326268,3.49402443 10.5605812,4.27933815 8.3170069,3.95172954 L7.87346238,3.87728342 C7.04779875,3.77710715 6.29682282,4.36166947 6.19611068,5.1829399 C5.9201998,7.43289155 4.54654074,9.39469107 2.53801574,10.4359589 L2.13050195,10.6366175 C1.46067636,11.0085259 1.19007026,11.8165793 1.49210333,12.5320362 L1.5720474,12.6952572 L1.73669543,13.0107409 C2.6654426,14.915146 2.65467897,17.1362432 1.71812265,19.0270468 L1.50213437,19.4391865 L1.50213437,19.4391865 C1.17823216,20.1351807 1.44098643,20.9519464 2.08699138,21.3384088 L2.24681408,21.4216184 C4.31475272,22.3737829 5.76986754,24.276592 6.14927659,26.4976666 L6.21285095,26.9222872 C6.36138041,27.6802233 7.06019651,28.1924372 7.81649026,28.1286666 L7.99677079,28.1026686 C10.2252847,27.6705913 12.5170662,28.3521713 14.1392219,29.9110441 L14.4631188,30.2374859 C15.0763314,30.8070925 16.037666,30.7743878 16.6103195,30.1644379 C18.1673725,28.5059757 20.4394179,27.720662 22.682992,28.0482704 L23.1265368,28.1227165 C23.9522008,28.222893 24.7031773,27.6383305 24.8038896,26.8170597 C25.0798009,24.5671082 26.45346,22.605309 28.4619848,21.564041 L28.8694972,21.3633831 L28.8694972,21.3633831 C29.5393232,20.9914747 29.8099296,20.1834211 29.5078966,19.4679638 L29.4279525,19.3047427 L29.2633046,18.9892591 C28.3345579,17.084854 28.3453216,14.863757 29.2818775,12.9729534 L29.4978657,12.5608137 C29.8217678,11.8648194 29.5590135,11.0480536 28.9130084,10.6615914 L28.7531858,10.5783818 C26.6852468,9.62621738 25.2301318,7.72340812 24.8507228,5.50233335 L24.7871484,5.07771245 Z" id="形状" fill-rule="nonzero"></path>
                        <path d="M9.6678971,15.8110936 C7.87295021,15.8110936 6.41785825,14.3560017 6.41785825,12.5610548 C6.41785825,10.7661079 7.87295021,9.31101595 9.6678971,9.31101595 L15.0615609,9.31101595 L15.0608583,9.52701595 L12.0443384,9.52768521 C10.4288862,9.52768521 9.10837957,10.7904972 9.01611819,12.3828213 L9.01096885,12.5610548 C9.01096885,14.2363386 10.3690547,15.5944244 12.0443384,15.5944244 L15.0608583,15.594016 L15.0615609,15.8110936 L15.0615605,16.3145968 L11.4055059,16.3145968 C10.4387531,16.3145968 9.98073709,16.83769 10.031458,17.8838764 L10.031458,20.9950738 C10.031458,22.5993904 9.32513237,23.3993647 7.91248119,23.3949969 L5.00135542,23.3949969 L5.00135542,22.5718643 C7.55327432,22.5718643 7.021194,22.0024243 7.21190782,19.0356679 C7.33905044,17.0578307 8.73691647,15.9829679 11.4055059,15.8110796 L9.6678971,15.8110936 Z" id="形状结合"></path>
                        <path d="M20.165502,15.8110936 C18.3705552,15.8110936 16.9154632,14.3560017 16.9154632,12.5610548 C16.9154632,10.7661079 18.3705552,9.31101595 20.165502,9.31101595 L25.5591658,9.31101595 L25.5584632,9.52701595 L22.5419434,9.52768521 C20.9264912,9.52768521 19.6059845,10.7904972 19.5137231,12.3828213 L19.5085738,12.5610548 C19.5085738,14.2363386 20.8666596,15.5944244 22.5419434,15.5944244 L25.5584632,15.594016 L25.5591658,15.8110936 L25.5591655,16.3145968 L21.9031109,16.3145968 C20.936358,16.3145968 20.478342,16.83769 20.5290629,17.8838764 L20.5290629,20.9950738 C20.5290629,22.5993904 19.8227373,23.3993647 18.4100861,23.3949969 L15.4989604,23.3949969 L15.4989604,22.5718643 C18.0508793,22.5718643 17.5187989,22.0024243 17.7095128,19.0356679 C17.8366554,17.0578307 19.2345214,15.9829679 21.9031109,15.8110796 L20.165502,15.8110936 Z" id="形状结合备份" transform="translate(20.529063, 16.353015) scale(-1, 1) translate(-20.529063, -16.353015) "></path>
                        <path d="M15.4989609,6.93238749 L15.6703888,7.86715577 C15.8407264,8.04796566 15.9290101,8.32552317 15.93524,8.69982828 C15.93524,15.1772401 17.2469319,20.0756357 19.8703156,23.3950151 L18.8133356,23.3950151 C18.1404606,22.1662027 17.1831153,20.9760733 15.5,20.9760733 C14.3779234,20.9760733 13.2908438,21.6964141 12.238761,23.1370958 L11.1771097,23.1370958 C14.722672,19.7189097 14.9809858,9.90247515 14.994113,8.78309439 L14.9947213,8.69982828 C14.9947213,8.34664592 15.0929579,8.06908842 15.289431,7.86715577 L15.4989609,6.93238749 Z M16.1276926,17.6225858 L14.7102727,17.6225858 C14.6985965,17.8879798 14.6452922,18.1592358 14.5503598,18.4363538 C14.4554274,18.7134718 14.2825834,19.1023669 14.0318279,19.6030392 L16.6148011,19.6030392 C16.2462623,19.0334249 16.0838928,18.3732737 16.1276926,17.6225858 Z" id="形状结合"></path>
                    </g>
                </g>
            </g>
        </g>
    </g>
</svg>