<?xml version="1.0" encoding="UTF-8"?>
<svg width="128px" height="120px" viewBox="0 0 128 120" version="1.1" xmlns="http://www.w3.org/2000/svg" xmlns:xlink="http://www.w3.org/1999/xlink">
    <title>技能-品牌设计</title>
    <g id="everweb" stroke="none" stroke-width="1" fill="none" fill-rule="evenodd">
        <g id="关于我备份" transform="translate(-746.000000, -6559.000000)">
            <g id="技能-品牌设计" transform="translate(746.000000, 6559.000000)">
                <rect id="矩形" fill="#D8D8D8" opacity="0" x="0" y="0" width="128" height="120"></rect>
                <path d="M64,16 C75.045695,16 84,24.954305 84,36 L84,48 C84,52.418278 80.418278,56 76,56 L64,56 C52.954305,56 44,47.045695 44,36 L44,24 C44,19.581722 47.581722,16 52,16 L64,16 Z M54,21 C51.2385763,21 49,23.2385763 49,26 C49,28.7614237 51.2385763,31 54,31 C56.7614237,31 59,28.7614237 59,26 C59,23.2385763 56.7614237,21 54,21 Z" id="形状结合" fill="#000000"></path>
                <text id="品牌设计" font-family="AlibabaPuHuiTi-Regular, Alibaba PuHuiTi" font-size="14" font-weight="normal" fill="#000000" fill-opacity="0.8">
                    <tspan x="36.448" y="85">品牌设计</tspan>
                </text>
            </g>
        </g>
    </g>
</svg>