<?xml version="1.0" encoding="UTF-8"?>
<svg width="128px" height="120px" viewBox="0 0 128 120" version="1.1" xmlns="http://www.w3.org/2000/svg" xmlns:xlink="http://www.w3.org/1999/xlink">
    <title>技能-动效设计</title>
    <g id="everweb" stroke="none" stroke-width="1" fill="none" fill-rule="evenodd">
        <g id="关于我备份" transform="translate(-1182.000000, -6559.000000)">
            <g id="技能-动效设计" transform="translate(1182.000000, 6559.000000)">
                <rect id="矩形" fill="#D8D8D8" opacity="0" x="0" y="0" width="128" height="120"></rect>
                <g id="编组-15" transform="translate(44.000000, 17.000000)">
                    <polygon id="矩形" fill="#000000" points="4.05925293e-16 1.48338132e-14 9 1.48338132e-14 9 37 0 37"></polygon>
                    <polygon id="矩形备份-12" fill="#000000" points="11 1.48338132e-14 40 1.48338132e-14 40 37 11 37"></polygon>
                    <path d="M34.2407426,8 C28.1241221,8 25.8575004,12.4527031 24.0349079,16.0297311 L22.8440715,18.3183323 C20.9144017,22.1118402 19.4722754,24.4178619 15.7564648,24.4178619 C15.2904775,24.4175704 14.8435137,24.6062664 14.5141402,24.9423378 C14.1848177,25.2782019 14,25.7337038 14,26.2086107 C14,26.6835177 14.1853199,27.1389158 14.5148237,27.474595 C14.8442065,27.8103395 15.2906982,27.9992741 15.7564648,28 C21.8755914,28 24.142213,23.5470646 25.9648056,19.9702689 L27.1531359,17.6816677 C29.0853118,13.8879275 30.5274381,11.5821381 34.2407426,11.5821381 C34.7071692,11.5829696 35.1547432,11.3945089 35.484662,11.058359 C35.8146259,10.7224169 36,10.2664936 36,9.79106904 C35.9981158,8.80172584 35.2111313,8.00061462 34.2407426,8.00023227 L34.2407426,8 Z" id="路径" fill="#FFFFFF" fill-rule="nonzero"></path>
                </g>
                <text id="动效设计" font-family="AlibabaPuHuiTi-Regular, Alibaba PuHuiTi" font-size="14" font-weight="normal" fill="#000000" fill-opacity="0.8">
                    <tspan x="36.448" y="85">动效设计</tspan>
                </text>
            </g>
        </g>
    </g>
</svg>