<?xml version="1.0" encoding="UTF-8"?>
<svg width="128px" height="120px" viewBox="0 0 128 120" version="1.1" xmlns="http://www.w3.org/2000/svg" xmlns:xlink="http://www.w3.org/1999/xlink">
    <title>技能-web低代码</title>
    <g id="everweb" stroke="none" stroke-width="1" fill="none" fill-rule="evenodd">
        <g id="关于我备份" transform="translate(-1400.000000, -6559.000000)">
            <g id="技能-web低代码" transform="translate(1400.000000, 6559.000000)">
                <rect id="矩形" fill="#D8D8D8" opacity="0" x="0" y="0" width="128" height="120"></rect>
                <g id="编组-15" transform="translate(44.000000, 17.000000)" fill="#000000">
                    <polygon id="矩形" points="1.80411242e-15 10 40 10 40 37 0 37"></polygon>
                    <path d="M40,0 L40,8 L0,8 L0,0 L40,0 Z M38,2 L12,2 L12,6 L38,6 L38,2 Z M2,3 L4,3 L4,5 L2,5 Z M5,3 L7,3 L7,5 L5,5 Z M8,3 L10,3 L10,5 L8,5 Z" id="形状结合" opacity="0.300000012"></path>
                </g>
                <text id="Web低代码" font-family="AlibabaPuHuiTi-Regular, Alibaba PuHuiTi" font-size="14" font-weight="normal" fill="#000000" fill-opacity="0.8">
                    <tspan x="28.559" y="85">Web低代码</tspan>
                </text>
            </g>
        </g>
    </g>
</svg>