<?xml version="1.0" encoding="UTF-8"?>
<svg width="128px" height="120px" viewBox="0 0 128 120" version="1.1" xmlns="http://www.w3.org/2000/svg" xmlns:xlink="http://www.w3.org/1999/xlink">
    <title>技能-用户界面设计</title>
    <g id="everweb" stroke="none" stroke-width="1" fill="none" fill-rule="evenodd">
        <g id="关于我备份" transform="translate(-528.000000, -6559.000000)">
            <g id="技能-用户界面设计" transform="translate(528.000000, 6559.000000)">
                <rect id="矩形" fill="#D8D8D8" opacity="0" x="0" y="0" width="128" height="120"></rect>
                <path d="M64,14 C76.1502645,14 86,23.8497355 86,36 C86,48.1502645 76.1502645,58 64,58 C51.8497355,58 42,48.1502645 42,36 C42,23.8497355 51.8497355,14 64,14 Z M64,25.4782609 C58.1890039,25.4782609 53.4782609,30.1890039 53.4782609,36 C53.4782609,41.8109961 58.1890039,46.5217391 64,46.5217391 C69.8109961,46.5217391 74.5217391,41.8109961 74.5217391,36 C74.5217391,30.1890039 69.8109961,25.4782609 64,25.4782609 Z" id="形状结合" fill="#000000"></path>
                <text id="用户界面/体验设计" font-family="AlibabaPuHuiTi-Regular, Alibaba PuHuiTi" font-size="14" font-weight="normal" fill="#000000" fill-opacity="0.8">
                    <tspan x="19.172" y="85">用户界面/体验</tspan>
                    <tspan x="50.224" y="105">设计</tspan>
                </text>
            </g>
        </g>
    </g>
</svg>