<?xml version="1.0" encoding="UTF-8"?>
<svg width="220px" height="64px" viewBox="0 0 220 64" version="1.1" xmlns="http://www.w3.org/2000/svg" xmlns:xlink="http://www.w3.org/1999/xlink">
    <title>杰西的花店</title>
    <g id="everweb" stroke="none" stroke-width="1" fill="none" fill-rule="evenodd">
        <g id="关于我备份" transform="translate(-260.000000, -5954.000000)">
            <g id="杰西的花店" transform="translate(260.000000, 5954.000000)">
                <rect id="矩形" stroke-opacity="0.0441706731" stroke="#000000" fill="#FFFFFF" x="0.5" y="0.5" width="219" height="63"></rect>
                <text id="JESSIE-FLOWER" font-family="AlibabaPuHuiTi-Medium, Alibaba PuHuiTi" font-size="18" font-weight="400" fill="#000000">
                    <tspan x="64" y="27">JESSIE FLOWER</tspan>
                </text>
                <text id="品牌LOGO" font-family="AlibabaPuHuiTi-Regular, Alibaba PuHuiTi" font-size="14" font-weight="normal" fill="#000000" fill-opacity="0.4">
                    <tspan x="64" y="51">品牌LOGO</tspan>
                </text>
                <g id="编组-20" transform="translate(8.000000, 8.000000)">
                    <rect id="矩形" fill="#000000" x="0" y="0" width="48" height="48"></rect>
                    <path d="M6.95824158,22.8099174 L6.98155398,22.8099174 C8.43469357,22.8099174 9.60808436,21.6493388 9.60808436,20.2120661 L9.60808436,17.1914876 C9.60808436,16.8994215 9.36718956,16.661157 9.06412836,16.661157 L8.26373744,16.661157 C8.19077783,16.661157 8.13163237,16.7203025 8.13163237,16.7932621 L8.13163237,20.2120661 L8.13163237,20.2120661 C8.13163237,20.8115702 7.64984278,21.311157 7.05149118,21.3419008 C7.02817878,21.3495868 7.00486638,21.3495868 6.98155398,21.3495868 C6.74842998,21.3495868 6.53084759,21.2804132 6.35211919,21.165124 C6.15007839,21.0344628 5.84701719,21.0728926 5.68383039,21.2419835 L5,21.9183471 C5.505102,22.4179339 6.19670319,22.7484298 6.95824158,22.8099174 Z M10.6751631,22.8099174 L14.0840636,22.8099174 C14.1570233,22.8099174 14.2161687,22.7507719 14.2161687,22.6778123 L14.2161687,21.4816918 C14.2161687,21.4087322 14.1570233,21.3495868 14.0840636,21.3495868 L12.138247,21.3495868 C12.0652874,21.3495868 12.0061419,21.2904413 12.0061419,21.2174817 L12.0061419,20.5978076 C12.0061419,20.5248479 12.0652874,20.4657025 12.138247,20.4657025 L14.0840636,20.4657025 C14.1570233,20.4657025 14.2161687,20.406557 14.2161687,20.3335974 L14.2161687,19.137477 C14.2161687,19.0645174 14.1570233,19.0053719 14.0840636,19.0053719 L12.138247,19.0053719 C12.0652874,19.0053719 12.0061419,18.9462264 12.0061419,18.8732668 L12.0061419,18.2535927 C12.0061419,18.1806331 12.0652874,18.1214876 12.138247,18.1214876 L14.0840636,18.1214876 C14.1570233,18.1214876 14.2161687,18.0623421 14.2161687,17.9893825 L14.2161687,17.1991736 L14.2161687,17.1991736 C14.2161687,16.8994215 13.9697546,16.661157 13.6771378,16.661157 L10.6751631,16.661157 C10.6022035,16.661157 10.543058,16.7203025 10.543058,16.7932621 L10.543058,22.6778123 C10.543058,22.7507719 10.6022035,22.8099174 10.6751631,22.8099174 Z M15.3500313,22.8099174 L17.1220246,22.8099174 L17.1220246,22.8099174 C18.1278185,22.8099174 18.9877339,21.8055687 18.9570226,20.7935533 L18.9493448,20.7935533 C18.9570226,20.7858865 18.9570226,20.7858865 18.9570226,20.7782197 C18.9570226,20.555883 18.9109557,20.3488799 18.8418554,20.1495435 C18.5961653,19.4518662 18.0203291,19.0301931 17.1143468,19.0301931 L17.060602,19.0301931 C16.7151003,19.0301931 16.4386989,18.8845242 16.4233433,18.5471858 L16.4233433,18.4858515 C16.4386989,18.1408462 16.730456,18.0488448 17.0759577,18.0488448 L18.9570226,18.0488448 L18.941667,17.1978319 C18.941667,16.9064941 18.6959769,16.661157 18.4042199,16.661157 L17.0452464,16.661157 C16.0394525,16.661157 15.2179262,17.4815029 15.2179262,18.4858515 L15.2179262,18.5088518 C15.2179262,18.7311886 15.2563153,18.9458585 15.3330934,19.1375281 C15.6094948,19.8275386 16.269787,20.2185445 17.060602,20.2185445 L17.1143468,20.2185445 C17.4675263,20.2185445 17.7055386,20.4025474 17.7208942,20.7398858 L17.7208942,20.8012201 C17.7055386,21.1385586 17.4444929,21.3455617 17.0989911,21.3455617 L15.3500313,21.3455617 C15.2770716,21.3455617 15.2179262,21.4047072 15.2179262,21.4776668 L15.2179262,22.6778123 C15.2179262,22.7507719 15.2770716,22.8099174 15.3500313,22.8099174 Z M19.8913318,22.8099174 L21.6633251,22.8099174 L21.6633251,22.8099174 C22.669119,22.8099174 23.5290344,21.8055687 23.4983231,20.7935533 L23.4906453,20.7935533 C23.4983231,20.7858865 23.4983231,20.7858865 23.4983231,20.7782197 C23.4983231,20.555883 23.4522563,20.3488799 23.3831559,20.1495435 C23.1374658,19.4518662 22.5616296,19.0301931 21.6556473,19.0301931 L21.6019026,19.0301931 C21.2564009,19.0301931 20.9799995,18.8845242 20.9646438,18.5471858 L20.9646438,18.4858515 C20.9799995,18.1408462 21.2717565,18.0488448 21.6172582,18.0488448 L23.4983231,18.0488448 L23.4829675,17.1978319 C23.4829675,16.9064941 23.2372774,16.661157 22.9455204,16.661157 L21.5865469,16.661157 C20.580753,16.661157 19.7592267,17.4815029 19.7592267,18.4858515 L19.7592267,18.5088518 C19.7592267,18.7311886 19.7976158,18.9458585 19.874394,19.1375281 C20.1507953,19.8275386 20.8110875,20.2185445 21.6019026,20.2185445 L21.6556473,20.2185445 C22.0088268,20.2185445 22.2468391,20.4025474 22.2621948,20.7398858 L22.2621948,20.8012201 C22.2468391,21.1385586 21.9857934,21.3455617 21.6402917,21.3455617 L19.8913318,21.3455617 C19.8183722,21.3455617 19.7592267,21.4047072 19.7592267,21.4776668 L19.7592267,22.6778123 C19.7592267,22.7507719 19.8183722,22.8099174 19.8913318,22.8099174 Z M24.6329838,22.8099174 L25.838018,22.8099174 C25.9109776,22.8099174 25.970123,22.7507719 25.970123,22.6778123 L25.970123,17.1991736 L25.970123,17.1991736 C25.970123,16.8994215 25.7239669,16.661157 25.4316565,16.661157 L24.6329838,16.661157 C24.5600242,16.661157 24.5008787,16.7203025 24.5008787,16.7932621 L24.5008787,22.6778123 C24.5008787,22.7507719 24.5600242,22.8099174 24.6329838,22.8099174 Z M27.2375532,22.8099174 L30.6464538,22.8099174 C30.7194134,22.8099174 30.7785589,22.7507719 30.7785589,22.6778123 L30.7785589,21.4816918 C30.7785589,21.4087322 30.7194134,21.3495868 30.6464538,21.3495868 L28.7006372,21.3495868 C28.6276775,21.3495868 28.5685321,21.2904413 28.5685321,21.2174817 L28.5685321,20.5978076 C28.5685321,20.5248479 28.6276775,20.4657025 28.7006372,20.4657025 L30.6464538,20.4657025 C30.7194134,20.4657025 30.7785589,20.406557 30.7785589,20.3335974 L30.7785589,19.137477 C30.7785589,19.0645174 30.7194134,19.0053719 30.6464538,19.0053719 L28.7006372,19.0053719 C28.6276775,19.0053719 28.5685321,18.9462264 28.5685321,18.8732668 L28.5685321,18.2535927 C28.5685321,18.1806331 28.6276775,18.1214876 28.7006372,18.1214876 L30.6464538,18.1214876 C30.7194134,18.1214876 30.7785589,18.0623421 30.7785589,17.9893825 L30.7785589,17.1991736 L30.7785589,17.1991736 C30.7785589,16.8994215 30.5321447,16.661157 30.239528,16.661157 L27.2375532,16.661157 C27.1645936,16.661157 27.1054482,16.7203025 27.1054482,16.7932621 L27.1054482,22.6778123 C27.1054482,22.7507719 27.1645936,22.8099174 27.2375532,22.8099174 Z M5.99517581,32 L6.86686063,32 L6.86686063,32 L6.86686063,29.7878902 C6.86686063,29.7149306 6.92600608,29.6557851 6.9989657,29.6557851 L8.94170864,29.6557851 C9.01466825,29.6557851 9.07381371,29.5966397 9.07381371,29.5236801 L9.07381371,28.3275596 C9.07381371,28.2546 9.01466825,28.1954545 8.94170864,28.1954545 L6.9989657,28.1954545 C6.92600608,28.1954545 6.86686063,28.1363091 6.86686063,28.0633495 L6.86686063,27.4436753 C6.86686063,27.3707157 6.92600608,27.3115702 6.9989657,27.3115702 L9.07381371,27.3115702 L9.07381371,27.3115702 L9.07381371,26.3892562 C9.07381371,26.0895041 8.83459851,25.8512397 8.53365037,25.8512397 L5.53280806,25.8512397 C5.45984844,25.8512397 5.40070299,25.9103851 5.40070299,25.9833447 L5.40070299,31.4055272 C5.40070299,31.7338455 5.66685753,32 5.99517581,32 Z M10.3412439,32 L13.6833607,32 C13.7563203,32 13.8154657,31.9408545 13.8154657,31.8678949 L13.8154657,30.6640885 C13.8154657,30.5911289 13.7563203,30.5319835 13.6833607,30.5319835 L11.8099186,30.5319835 C11.736959,30.5319835 11.6778135,30.472838 11.6778135,30.3998784 L11.6778135,26.3815702 L11.6778135,26.3815702 C11.6778135,26.0895041 11.4394423,25.8512397 11.1395558,25.8512397 L10.2091388,25.8512397 L10.2091388,31.8678949 C10.2091388,31.9408545 10.2682843,32 10.3412439,32 Z M17.7557118,25.8512397 C16.0065598,25.8512397 14.6168717,27.2270248 14.6168717,28.9586777 C14.6168717,30.6242149 16.0065598,32 17.7557118,32 C19.43808,32 20.827768,30.6242149 20.827768,28.9586777 C20.827768,27.2270248 19.43808,25.8512397 17.7557118,25.8512397 Z M17.7557118,30.5454545 C16.8141876,30.5454545 16.086116,29.8246669 16.086116,28.9586777 C16.086116,28.0343232 16.8141876,27.3057851 17.7557118,27.3057851 C18.6226234,27.3057851 19.3585237,28.0343232 19.3585237,28.9586777 C19.3585237,29.8246669 18.6226234,30.5454545 17.7557118,30.5454545 Z M29.1997891,25.8515447 C28.9837063,25.8515447 28.7984925,25.9821994 28.7290373,26.1743386 L27.6254716,29.1870817 L26.5219059,26.1743386 C26.4524507,25.9821994 26.2749541,25.8515447 26.0665886,25.8515447 L25.889092,25.8515447 C25.6730092,25.8438592 25.4877954,25.9821994 25.4106229,26.1743386 L25.3951884,26.2358232 C25.3951884,26.2358232 25.3874712,26.2358232 25.3874712,26.2435088 C25.3874712,26.2588799 25.379754,26.2665655 25.3720367,26.2819366 L25.2408436,26.6585295 L24.3147745,29.1870817 L23.2112087,26.1743386 C23.1417536,25.9821994 22.9488225,25.8515447 22.7404569,25.8515447 L21.8182095,25.8515447 C21.7452499,25.8515447 21.6861045,25.9106902 21.6861045,25.9836498 C21.6861045,25.9991417 21.6888294,26.0145129 21.6941547,26.0290608 L23.5816364,31.1853297 L23.5816364,31.1853297 L23.728264,31.5926648 C23.8131537,31.8309175 24.044671,31.9923144 24.3070572,32 L24.3919469,32 C24.6080297,32 24.7932435,31.8693453 24.8704159,31.6695205 L24.8858504,31.6157215 L24.9090021,31.5619226 L25.9662644,28.6567775 L27.0698301,31.6695205 C27.1392853,31.8693453 27.3322164,32 27.5405819,32 L27.6331888,32 C27.8955751,31.9923144 28.1193751,31.8309175 28.2042648,31.5926648 L28.3586096,31.1853297 L30.2460913,26.0290608 C30.2711711,25.9605472 30.235961,25.8846748 30.1674475,25.859595 C30.1528996,25.8542697 30.1375284,25.8515447 30.1220365,25.8515447 L29.1997891,25.8515447 L29.1997891,25.8515447 Z M31.4449346,32 L34.8538352,32 C34.9267948,32 34.9859402,31.9408545 34.9859402,31.8678949 L34.9859402,30.6717745 C34.9859402,30.5988149 34.9267948,30.5396694 34.8538352,30.5396694 L32.9080185,30.5396694 C32.8350589,30.5396694 32.7759135,30.480524 32.7759135,30.4075644 L32.7759135,29.7878902 C32.7759135,29.7149306 32.8350589,29.6557851 32.9080185,29.6557851 L34.8538352,29.6557851 C34.9267948,29.6557851 34.9859402,29.5966397 34.9859402,29.5236801 L34.9859402,28.3275596 C34.9859402,28.2546 34.9267948,28.1954545 34.8538352,28.1954545 L32.9080185,28.1954545 C32.8350589,28.1954545 32.7759135,28.1363091 32.7759135,28.0633495 L32.7759135,27.4436753 C32.7759135,27.3707157 32.8350589,27.3115702 32.9080185,27.3115702 L34.9859402,27.3115702 L34.9859402,27.3115702 L34.9859402,26.3892562 C34.9859402,26.0895041 34.7395261,25.8512397 34.4469093,25.8512397 L31.4449346,25.8512397 C31.371975,25.8512397 31.3128295,25.9103851 31.3128295,25.9833447 L31.3128295,31.8678949 C31.3128295,31.9408545 31.371975,32 31.4449346,32 Z M36.2533704,32 L37.4641773,32 C37.5371369,32 37.5962823,31.9408545 37.5962823,31.8678949 L37.5962823,30.3300613 L37.5962823,30.3300613 L39.2036643,31.9234307 C39.2531452,31.9724802 39.3199973,32 39.3896694,32 L41.0094893,32 C41.0824489,32 41.1415944,31.9408545 41.1415944,31.8678949 C41.1415944,31.832658 41.1275169,31.7988814 41.1024918,31.7740745 L39.4051189,30.0914987 L39.4051189,30.0914987 C40.1736804,29.7375025 40.7015812,28.975641 40.7015812,28.0829549 C40.7093444,26.8516638 39.6535428,25.8512397 38.4114233,25.8512397 L36.1212654,25.8512397 L36.1212654,27.3133979 L38.4191865,27.3133979 C38.8384019,27.3133979 39.2032745,27.6366119 39.218801,28.0598682 C39.2420907,28.5062113 38.8849814,28.8679031 38.434713,28.8679031 L36.6646927,28.8679031 C36.3696893,28.8679031 36.1212654,29.1141613 36.1212654,29.406593 L36.1212654,31.8678949 C36.1212654,31.9408545 36.1804108,32 36.2533704,32 Z M38.1057061,17.4126169 C39.6442212,15.9538736 41.5257302,15.5323787 42.4808447,16.5866034 C43.4928078,17.7035757 42.9710225,19.9960024 41.3875252,21.7438158 C40.3417755,22.8980808 39.0706791,23.5480717 38.0279934,23.5370522 L37.9950696,23.5364826 C37.8818331,23.5337565 37.7713729,23.5231414 37.6642783,23.5044337 C36.6973948,23.3611412 35.6246388,22.7247284 34.7343624,21.745347 C33.1450764,19.9969946 32.6213837,17.7038609 33.6370462,16.5865441 C34.6009602,15.526155 36.5119139,15.9567448 38.0668277,17.4495662 Z M42.0830173,16.9387007 C41.3178372,16.0927549 39.541601,16.5861032 38.1304577,18.1461943 C36.7081216,19.7186596 36.2513794,21.7285659 37.038248,22.5984894 C37.2536933,22.8366752 37.5492919,22.9686859 37.8943264,23.0006052 C37.932568,23.004126 37.9702322,23.0063761 38.0075369,23.0076246 L37.8943264,23.0006052 C38.7747241,23.0820514 39.976988,22.5118254 40.9908077,21.3909958 C42.4131438,19.8185305 42.869886,17.8086242 42.0830173,16.9387007 Z M34.0337554,16.9404443 C33.2432078,17.8101152 33.7020854,19.8194381 35.1310716,21.3914469 C35.4967631,21.7937392 35.8932762,22.1307082 36.2945742,22.3911356 C35.8031791,21.1767218 36.3811162,19.2863572 37.7337402,17.7933743 L37.6985507,17.8324104 C36.3339292,16.5196192 34.7451068,16.157896 34.0337554,16.9404443 Z" id="黑色" fill="#FFFFFF" fill-rule="nonzero"></path>
                </g>
            </g>
        </g>
    </g>
</svg>