<?xml version="1.0" encoding="UTF-8"?>
<svg width="189px" height="81px" viewBox="0 0 189 81" version="1.1" xmlns="http://www.w3.org/2000/svg" xmlns:xlink="http://www.w3.org/1999/xlink">
    <title>标题-技能</title>
    <g id="everweb" stroke="none" stroke-width="1" fill="none" fill-rule="evenodd">
        <g id="关于我备份" transform="translate(-866.000000, -6162.000000)" fill="#000000">
            <g id="标题-技能" transform="translate(866.000000, 6162.000000)">
                <g id="技能" transform="translate(106.176000, 40.644000)" fill-opacity="0" fill-rule="nonzero" stroke="#000000">
                    <path d="M5.582,0.597602958 L10.84,0.738757321 L10.84,6.926 L14.032,6.926 L14.032,12.52 L10.84,12.52 L10.84,18.6125811 C11.5519313,18.5488488 12.2375563,18.4587452 12.8968927,18.3423918 C13.1690913,18.2943567 13.4366271,18.2509762 13.6995014,18.2122586 L13.735376,24.0598146 L10.84,24.5213963 L10.84,33.936 C10.84,34.894984 10.7698589,35.6747162 10.6233005,36.2742735 C10.4930785,36.8069998 10.2804931,37.2376547 9.97183989,37.5581792 C9.66492653,37.8768969 9.24838664,38.1003603 8.7304413,38.2416181 C8.13752966,38.4033213 7.40966086,38.5233393 6.54930782,38.6040014 L3.69429743,38.8602203 L2.18708969,33.1184765 L3.83521576,32.9629419 C4.53035959,32.8857037 4.96953321,32.635708 5.21433961,32.2967453 C5.43157747,31.9959544 5.582,31.407727 5.582,30.492 L5.58200005,25.2420068 C4.49957433,25.4198611 3.48991834,25.5769321 2.55303008,25.7132068 C2.00991349,25.7922056 1.51837043,25.8712556 1.07838825,25.9502855 L0.541881601,20.0129453 C1.1351065,19.9448626 1.77117771,19.8724953 2.45009522,19.7958434 C3.45667049,19.6821978 4.50064037,19.5405238 5.582,19.3707848 L5.582,12.52 L1.802,12.52 L1.802,6.926 L5.582,6.926 L5.582,0.597602958 Z M15.998,20.08 L15.998,14.528 L23.138,14.528 L23.138,10.294 L15.746,10.294 L15.746,4.406 L23.138,4.406 L23.138,0.596343821 L29.026,0.739953577 L29.026,4.406 L37.636,4.406 L37.636,10.294 L29.026,10.294 L29.026,14.528 L36.04,14.528 L36.04,20.9784691 C35.3336959,22.5730467 34.6076647,24.0081346 33.861444,25.2834938 C33.1041643,26.5777537 32.2712327,27.7894565 31.3624942,28.9184953 C31.231985,29.080643 31.0994761,29.2416277 30.9654843,29.4015658 C31.1563279,29.4979954 31.3462545,29.5916676 31.5352637,29.6825834 C33.6262332,30.6883662 36.0508459,31.5713094 38.8096924,32.3298619 L35.8321016,38.502916 C34.0871744,37.781065 32.4902564,37.0356521 31.0414824,36.2663916 C29.4779796,35.4362131 28.0043649,34.5369276 26.6207312,33.568384 C24.7241449,34.4780101 23.2038873,35.3620393 21.4903932,36.2187864 C19.8716818,37.0281421 18.0204865,37.8740948 15.936897,38.7568377 L12.9819589,33.1352482 C14.5128381,32.6275975 15.9202364,32.1030242 17.2042304,31.5617326 C18.6519577,30.9514162 19.9718314,30.3054005 21.1640695,29.6241216 C21.3406057,29.5232437 21.5178966,29.4195624 21.695872,29.3129148 C21.559339,29.1622704 21.4245757,29.0112799 21.2915824,28.8599427 C20.4890183,27.94668 19.7072537,26.9711153 18.9462025,25.9333182 C18.2778816,25.0219715 17.6149443,24.0413417 16.9572916,22.9914956 L21.786989,20.353018 C22.799294,22.3462799 24.1432619,24.1370323 26.4321043,25.7249691 C28.1251358,24.064496 29.4491739,22.1826043 30.4051869,20.08 L15.998,20.08 Z" id="形状"></path>
                    <path d="M60.316,14.318 L60.316,34.398 C60.316,35.2421823 60.25363,35.9221607 60.1216681,36.4368123 C60.0078449,36.8807228 59.8075617,37.2427198 59.5108599,37.5165983 C59.198673,37.8047708 58.7624225,38.0125479 58.2117891,38.1561914 C57.5861753,38.3193949 56.797193,38.4544375 55.8477762,38.5629489 L53.9623257,38.7686344 L52.5487444,33.573723 L53.5664206,33.4665753 C54.2111577,33.3907239 54.6188179,33.1932725 54.8414017,32.9521401 C55.0605927,32.7146832 55.226,32.2520768 55.226,31.5 L55.226,30.454 L50.026,30.454 L50.026,38.602 L44.6,38.602 L44.6,14.318 L60.316,14.318 Z M55.226,24.49 L50.026,24.49 L50.026,27.254 L55.226,27.254 L55.226,24.49 Z M55.226,18.526 L50.026,18.526 L50.026,21.29 L55.226,21.29 L55.226,18.526 Z M48.8548016,0.536745249 L54.3558007,1.22869482 C54.2504178,1.36612278 54.1374788,1.51194951 54.0169878,1.66617798 C53.6716294,2.10823674 53.2778765,2.58479438 52.8358184,3.09592403 C52.3925926,3.60840383 51.9216525,4.12779727 51.4230237,4.65412768 C50.9292715,5.1753105 50.4355718,5.65540315 49.9418181,6.09429534 C49.6161648,6.38376489 49.2727157,6.67110988 48.911637,6.9563136 C49.3579752,6.96410349 49.8120962,6.968 50.274,6.968 C51.7970092,6.968 53.2354043,6.92563784 54.5891891,6.84102629 C54.8749184,6.82316821 55.164153,6.80297343 55.4567866,6.78043303 C55.3075424,6.54968439 55.1444967,6.30795556 54.967616,6.05526883 C54.7673247,5.76913852 54.5741634,5.5044854 54.3881789,5.26127495 L57.950493,2.59184173 C58.5758278,3.32817571 59.2742017,4.18457362 60.0456826,5.16097916 C61.3091808,6.760094 62.4326703,8.28913834 63.416,9.74822522 L63.416,0.807330995 L68.8,0.949015205 L68.7999999,5.40817016 C69.606294,5.0749483 70.4928598,4.71497258 71.4596953,4.32823835 C72.1619446,4.04733866 72.8501484,3.76643815 73.5243077,3.48553846 C74.2043695,3.20217938 74.8419132,2.91878912 75.4369668,2.63543026 C75.8373349,2.44477879 76.2054265,2.26703196 76.541245,2.10219649 L78.9097894,7.1220964 C78.4425254,7.30289118 77.891101,7.5092875 77.25553,7.74132134 C76.3758243,8.06248376 75.4542269,8.39062561 74.4907397,8.7257516 C73.5261023,9.06127764 72.5684552,9.3898137 71.6177981,9.71135948 C70.6687988,10.0323445 69.8454057,10.304494 69.1476121,10.5277879 C68.8,12.2947027 68.958649,12.8582525 69.184384,13.1807312 C69.4568457,13.5699621 69.9218182,13.814 70.644,13.814 L71.946,13.814 C72.322404,13.814 72.627915,13.788319 72.8630581,13.7412903 C73.1762771,13.6786465 73.4352339,13.5398729 73.6435534,13.3315534 C73.8257687,13.1493381 73.9881102,12.8894477 74.1161716,12.5418527 C74.2183751,12.2644431 74.3283091,11.9068627 74.4470713,11.4612678 C74.5063711,11.2240686 74.5584059,10.9646601 74.6028815,10.6829813 L79.5592427,12.5466136 C79.5127552,12.9734468 79.4582861,13.3343614 79.3950988,13.6292355 C79.3116666,14.0185856 79.2282366,14.3940308 79.1450794,14.7543852 C78.9611799,15.5425261 78.740977,16.1810056 78.4781467,16.6672415 C78.2383855,17.1107998 77.9413758,17.4613091 77.5812688,17.713384 C77.215224,17.9696154 76.7810686,18.1437281 76.2812448,18.2412547 C75.7241963,18.3499471 75.0515886,18.4308407 74.2651044,18.4850833 C71.7390348,18.6516373 69.2129652,18.6516373 66.6872595,18.4851074 C65.5861904,18.4117028 64.7508061,18.1036603 64.2085771,17.5121377 C63.650197,16.9029958 63.416,15.7955594 63.416,14.238 L63.416,9.94978382 L59.518,13.134 L59.4190099,12.9709773 L59.2270993,12.6550265 C59.030704,12.3323772 58.8202809,11.9886853 58.5958292,11.6239513 C56.6377378,11.4424076 55.0118513,11.5124867 53.2738347,11.5965843 C51.537416,11.6806046 49.8430075,11.7646249 48.1897206,11.8486911 C46.7518769,11.9243671 45.4255121,12.0896625 44.210491,12.3436737 L42.8493652,7.11408504 C43.228149,6.95621753 43.5785621,6.76588525 43.9008665,6.54360639 C44.3303868,6.24738545 44.7528221,5.89228472 45.1675534,5.47755339 C45.9250429,4.63377297 46.6140527,3.7884439 47.2533621,2.92182447 C47.8272015,2.14395328 48.3610055,1.34892082 48.8548016,0.536745249 Z M63.416,20.463331 L68.8,20.6050152 L68.8,24.2975297 C69.692019,23.8928974 70.6226524,23.4625252 71.5918985,23.0064094 C72.3095766,22.6686785 73.0061451,22.3309445 73.6816068,21.9932136 C74.3599223,21.6540559 74.9816968,21.3290024 75.5469594,21.018108 C75.9086541,20.8191758 76.2354784,20.6376737 76.5274352,20.4736068 L79.0728317,25.4229924 C78.5976624,25.638593 78.0353608,25.8958644 77.3859282,26.1948095 C76.5077541,26.5990484 75.5807893,27.0102494 74.6050404,27.4284275 C73.6269035,27.847629 72.6487667,28.2598439 71.6706298,28.665072 C70.5474823,29.130376 69.5906151,29.5125767 68.8,29.8116033 L68.8,30.954 C68.8,31.8745926 69.0163714,32.4694781 69.3454466,32.7985534 C69.692871,33.1459778 70.1878378,33.344 70.854,33.344 L72.45,33.344 C73.2809919,33.344 73.8292621,33.1378447 74.1475534,32.8195534 C74.4376114,32.5294954 74.7252462,31.9173624 74.9540935,30.9364652 C75.0784252,30.3769728 75.1729945,29.8174768 75.2378425,29.2579834 L80.172244,31.1127584 L80.0820253,31.7442893 C80.0403888,32.0357445 79.998755,32.3133212 79.9571185,32.5770187 C79.9164355,32.8346776 79.8689691,33.0923359 79.8147251,33.3499948 C79.759857,33.6106181 79.6912307,33.9055243 79.6089287,34.2347322 C79.4482365,34.9570497 79.2533652,35.5492355 79.0167864,36.0223932 C78.8025791,36.4508078 78.5316667,36.79275 78.198,37.043 C77.8553575,37.2999818 77.4316798,37.4860062 76.9305219,37.6082398 C76.3750492,37.743721 75.7043019,37.8513695 74.9247321,37.9320534 C72.1829107,38.1813099 69.4410893,38.1813099 66.7003117,37.9321494 C65.6387712,37.8334014 64.8135036,37.5033616 64.2429941,36.9080473 C63.6636844,36.3035503 63.416,35.2559196 63.416,33.81 L63.416,20.463331 Z" id="形状"></path>
                </g>
                <text id="05" font-family="STSongti-SC-Regular, Songti SC" font-size="14" font-weight="normal">
                    <tspan x="0" y="15">05</tspan>
                </text>
                <polygon id="矩形" points="0 25 189 25 189 26 0 26"></polygon>
            </g>
        </g>
    </g>
</svg>