<?xml version="1.0" encoding="UTF-8"?>
<svg width="189px" height="81px" viewBox="0 0 189 81" version="1.1" xmlns="http://www.w3.org/2000/svg" xmlns:xlink="http://www.w3.org/1999/xlink">
    <title>标题-工具</title>
    <g id="everweb" stroke="none" stroke-width="1" fill="none" fill-rule="evenodd">
        <g id="关于我备份" transform="translate(-1339.000000, -6173.000000)" fill="#000000">
            <g id="标题-工具" transform="translate(1339.000000, 6173.000000)">
                <g id="工具" transform="translate(107.016000, 41.778000)" fill-opacity="0" fill-rule="nonzero" stroke="#000000">
                    <path d="M34.36,1.97 L34.36,7.942 L22.222,7.942 L22.222,29.186 L37.09,29.186 L37.09,35.158 L0.5,35.158 L0.5,29.186 L15.41,29.186 L15.41,7.942 L3.272,7.942 L3.272,1.97 L34.36,1.97 Z" id="路径"></path>
                    <path d="M55.293,28.792 L57.8263898,32.9557776 C57.1013277,33.2791279 56.3174566,33.6205692 55.4747807,33.9801109 C54.4272075,34.4270755 53.3377305,34.8810216 52.2063516,35.3419538 C51.0779907,35.8016564 49.9217671,36.2474231 48.7376848,36.6792648 C47.6967582,37.0588969 46.6719955,37.4116021 45.6633918,37.7373657 L43.1806703,32.5945854 C44.9345295,32.1603601 46.6317319,31.7034631 48.2722835,31.2239172 C50.9190185,30.4502562 53.2421619,29.6469866 55.241905,28.814681 L55.293,28.792 Z M74.68,0.5 L74.68,23.18 L78.754,23.18 L78.754,28.606 L65.5684627,28.606 C68.2098954,29.3656144 70.769881,30.1862927 73.2484058,31.0680756 C74.546172,31.5297809 75.8662131,32.0081931 77.2085295,32.5033113 L75.083781,37.6735326 C72.9401387,36.6896743 70.8147748,35.7789597 68.7076998,34.9413647 C66.6594703,34.1271616 64.7206297,33.4051254 62.8912033,32.7751867 L65.2419149,28.606 L41.786,28.606 L41.786,23.18 L45.86,23.18 L45.86,0.5 L74.68,0.5 Z M68.708,20.584 L51.58,20.584 L51.58,23.18 L68.708,23.18 L68.708,20.584 Z M68.708,15.376 L51.58,15.376 L51.58,17.972 L68.708,17.972 L68.708,15.376 Z M68.708,10.294 L51.58,10.294 L51.58,12.806 L68.708,12.806 L68.708,10.294 Z M68.708,5.17 L51.58,5.17 L51.58,7.766 L68.708,7.766 L68.708,5.17 Z" id="形状"></path>
                </g>
                <text id="06" font-family="STSongti-SC-Regular, Songti SC" font-size="14" font-weight="normal">
                    <tspan x="0" y="15">06</tspan>
                </text>
                <polygon id="矩形" points="0 25 189 25 189 26 0 26"></polygon>
            </g>
        </g>
    </g>
</svg>