<?xml version="1.0" encoding="UTF-8"?>
<svg width="231px" height="81px" viewBox="0 0 231 81" version="1.1" xmlns="http://www.w3.org/2000/svg" xmlns:xlink="http://www.w3.org/1999/xlink">
    <title>编组 11备份</title>
    <g id="everweb" stroke="none" stroke-width="1" fill="none" fill-rule="evenodd">
        <g id="关于我备份" transform="translate(-844.000000, -3756.000000)" fill="#000000">
            <g id="编组-16备份" transform="translate(0.000000, 3640.000000)">
                <g id="编组-11备份" transform="translate(844.000000, 116.000000)">
                    <g id="毕业院校" transform="translate(66.638000, 40.812000)" fill-opacity="0" fill-rule="nonzero" stroke="#000000">
                        <path d="M16.166,22.8141933 L22.138,22.9580969 L22.138,26.204 L37.888,26.204 L37.888,31.924 L22.138,31.924 L22.138,38.476 L16.166,38.476 L16.166,31.924 L0.5,31.924 L0.5,26.204 L16.166,26.204 L16.166,22.8141933 Z M4.28,0.596656226 L10,0.739656226 L10,4.826 L16.93,4.826 L16.93,10.126 L10,10.126 L9.99999999,15.6016643 C10.7255369,15.4621426 11.5296102,15.2964588 12.4122148,15.1045882 C13.0534661,14.9651857 13.687747,14.8327525 14.3150581,14.7072903 C14.9442548,14.581451 15.5454871,14.4626025 16.1187552,14.3507453 C16.4554216,14.2850543 16.7703639,14.2241903 17.0635822,14.1681539 L17.1349452,19.8058321 C16.6678147,19.9112824 16.1754491,20.0125151 15.6578557,20.1095639 C14.9832708,20.2360486 14.3016588,20.3695594 13.61302,20.510098 C12.9256337,20.6503809 12.2522758,20.7906641 11.5929462,20.930947 C10.9353327,21.0708648 10.3406822,21.1967909 9.80899476,21.3087251 C9.27106415,21.4219737 8.71897506,21.549368 8.15273219,21.6909287 C7.58665931,21.832447 7.03474012,21.9810478 6.49697096,22.1367179 C5.95173584,22.2945491 5.44958123,22.4596568 4.99043828,22.6318354 C4.73538885,22.7274789 4.5024395,22.818763 4.29156415,22.9056255 L1.97309246,17.5803859 C2.34467206,17.334034 2.66010273,17.0916632 2.92013468,16.8542427 C3.29277817,16.514003 3.57445396,16.140173 3.76876153,15.7353655 C3.95628375,15.3446942 4.0915051,14.8843334 4.16967957,14.352747 C4.24263676,13.8566381 4.28,13.2584394 4.28,12.558 L4.28,0.596656226 Z M19.778,0.554576651 L25.54,0.697731931 L25.54,5.7572241 C26.4076325,5.44308832 27.3511894,5.07838134 28.3706484,4.66304618 C29.1336789,4.35218191 29.8684433,4.03423961 30.5749528,3.70924523 C31.2758265,3.38684332 31.9416564,3.07845853 32.5724427,2.78409157 C33.0066859,2.58144474 33.3923578,2.38830857 33.7295927,2.20493029 L36.529676,7.66150301 C35.9792787,7.91007391 35.3265448,8.18312537 34.5715659,8.48086353 C33.5815844,8.87127879 32.5497704,9.26168805 31.4761285,9.65210329 C30.3977603,10.0442372 29.3614065,10.4223663 28.367067,10.7864906 C27.2024756,11.2129607 26.2601351,11.5428641 25.54,11.7760694 L25.54,14.238 C25.54,15.2100752 25.8015907,15.8235938 26.2045593,16.1564809 C26.6040634,16.486506 27.1460368,16.67 27.846,16.67 L29.484,16.67 C29.8687805,16.67 30.1889297,16.6351558 30.4452678,16.5710713 C30.7727497,16.4892008 31.035906,16.3318069 31.23997,16.1073364 C31.4134938,15.9164603 31.5760312,15.6424309 31.7152439,15.2769977 C31.8361103,14.9597231 31.9437165,14.5447191 32.033935,14.0334427 C32.0923472,13.7121752 32.1360469,13.4127982 32.1652527,13.1353424 L37.5009881,15.0279971 C37.4596708,15.326376 37.4150981,15.6573011 37.3672729,16.0207727 C37.3002743,16.5299615 37.1860293,17.0658698 37.0270869,17.6223261 C36.7841159,18.4322291 36.5286043,19.1143117 36.2586158,19.6677882 C36.0171716,20.1627487 35.699735,20.5575804 35.3009142,20.847632 C34.8886266,21.1474775 34.3619098,21.3609921 33.7255811,21.4982395 C33.0389417,21.6463382 32.1568754,21.718 31.08,21.718 L23.184,21.718 C22.0488465,21.718 21.1852474,21.4178926 20.6246216,20.7597668 C20.0340794,20.0665216 19.778,18.8595526 19.778,17.178 L19.778,0.554576651 Z" id="形状"></path>
                        <path d="M52.664,0.889974351 L58.762,1.03430571 L58.762,31.37 L62.786,31.37 L62.786,0.890046465 L68.842,1.03423694 L68.842,19.303588 C69.965312,16.9925553 70.9468154,14.667325 71.7865973,12.3279324 C72.3127205,10.8623035 72.8164973,9.39108795 73.2979283,7.91428598 L78.9958006,10.5468472 C78.6139176,11.5202758 78.1690187,12.5934282 77.6611647,13.766329 C77.0754164,15.1191286 76.4547972,16.4858723 75.7993171,17.8665647 C75.1440265,19.2468575 74.4747988,20.5922971 73.7916235,21.9028782 C73.2027621,23.0325307 72.6501903,24.0585761 72.1338688,24.9809926 L68.842,23.1264202 L68.842,31.37 L79.174,31.37 L79.174,37.3 L42.248,37.3 L42.248,31.37 L52.664,31.37 L52.664,22.9471686 L48.5871906,25.0741996 C48.2125637,23.9729762 47.796834,22.8152167 47.3399739,21.6009306 C46.806043,20.1817984 46.2510349,18.7767173 45.6749515,17.3856867 C45.0977406,15.9919335 44.5134679,14.668582 43.9221788,13.4156123 C43.4270054,12.3663163 42.9512439,11.4396301 42.4952107,10.635383 L47.8749744,8.0889615 C48.0850782,8.49023706 48.3062891,8.94359274 48.5387548,9.4489528 C48.8588015,10.1447066 49.1927473,10.9030852 49.5406241,11.7240745 C49.889691,12.5478722 50.2457372,13.4065774 50.6087667,14.3001885 C51.2938442,15.986533 51.9789204,17.7225588 52.664,19.5082641 L52.664,0.889974351 Z" id="路径"></path>
                        <path d="M120.46,20.324 L120.46,25.666 L115.126,25.666 L115.126,30.786 C115.126,31.3781441 115.239957,31.7787922 115.403904,32.015605 C115.604649,32.3055696 115.948824,32.504 116.508,32.504 L117.442288,32.504 C118.404584,31.7386315 118.538776,31.2374698 118.677963,30.5080208 C118.737252,30.2392458 118.78215,29.9410331 118.811947,29.6132679 L121.445607,30.5291295 C121.419655,30.9002825 121.385897,31.2987219 121.344363,31.72445 C121.288308,32.2990057 121.232253,32.9085287 121.176167,33.5530161 C121.000328,35.1768368 120.516862,36.3213598 119.645468,36.9275474 C118.749706,37.5506863 117.531847,37.846 116.004,37.846 L113.904,37.846 C113.11278,37.846 112.45293,37.7828442 111.925268,37.6509287 C111.477553,37.539 111.120046,37.3381351 110.861622,37.0347668 C110.585941,36.7111413 110.395628,36.2764417 110.276094,35.7385348 C110.142274,35.1363464 110.078,34.3532656 110.078,33.39 L110.078,25.666 L107.026197,25.666 C107.012843,27.4444016 106.908342,28.9716359 106.710882,30.2475294 C106.53641,31.3748923 106.228507,32.4152989 105.785583,33.3682567 C105.341658,34.3233671 104.749135,35.237686 104.009307,36.1120289 C103.317612,36.9294859 102.447276,37.8097058 101.39916,38.7535143 L96.7774928,35.3666437 C97.6145933,34.7498624 98.326124,34.1714575 98.9125283,33.6319655 C99.6506877,32.9528589 100.239923,32.2432862 100.682746,31.5052479 C101.130144,30.7595853 101.451017,29.9543508 101.644895,29.0893557 C101.861727,28.1219485 101.992863,26.9809621 102.035621,25.666 L99.83,25.666 L99.83,20.324 L120.46,20.324 Z M97.864,1.298 L97.864,7.45731318 L95.6944998,16.2629315 C96.2251512,17.4027062 96.6572976,18.4360314 96.9904626,19.3630994 C97.3057784,20.2404998 97.5595758,21.083579 97.7515086,21.8924386 C97.9424984,22.6973244 98.0790954,23.4748996 98.1609489,24.2252238 C98.2430295,24.977629 98.284,25.750557 98.284,26.544 C98.284,27.7963185 98.2106835,28.837852 98.0609365,29.6682672 C97.9204436,30.4473642 97.6957098,31.088514 97.3760604,31.5871669 C97.0773156,32.0532088 96.6768951,32.4055879 96.1750332,32.6445697 C95.6278099,32.9051523 94.9493699,33.0839362 94.1352893,33.1890253 L92.5124537,33.4208589 L90.8590277,27.4541475 L91.7810846,27.3773094 C92.3704772,27.3021211 92.8088706,27.0163743 93.1017465,26.5282479 C93.3357883,26.1381781 93.488,25.3133793 93.488,24.024 C93.458636,23.0765427 93.3066639,22.0935784 93.0300044,21.0597453 C92.7660531,20.073401 92.2435528,18.8377908 91.4567491,17.3550028 L93.7302234,6.556 L89.632,6.556 L89.632,38.266 L84.962,38.266 L84.962,1.298 L97.864,1.298 Z M111.980727,0.513013501 L112.482249,3.146 L119.872,3.146 L119.872,12.184 L118.276,12.184 L118.276,16.888 L101.132,16.888 L101.132,12.184 L99.452,12.184 L99.452,3.146 L106.812205,3.146 C106.637644,2.45041663 106.491167,1.79708779 106.37289,1.18598905 C106.338527,1.00844498 106.304087,0.843245981 106.269632,0.69037672 L111.980727,0.513013501 Z M114.908,8.236 L103.954,8.236 L103.954,12.008 L114.908,12.008 L114.908,8.236 Z" id="形状"></path>
                        <path d="M129.482,0.555602958 L134.74,0.696757321 L134.74,6.926 L137.428,6.926 L137.428,12.268 L134.74,12.268 L134.74,16.7827259 L136.377102,15.3210276 C136.565493,15.5331677 136.767221,15.763984 136.982295,16.0134698 C137.330014,16.416824 137.69859,16.8549557 138.088035,17.3278536 C138.213635,17.4803678 138.336102,17.6300582 138.455581,17.7768047 C138.587363,17.6324039 138.717885,17.4877381 138.847148,17.3428074 C139.779705,16.2972133 140.691097,15.1880601 141.581266,14.0152983 C142.627904,12.6363937 143.508468,11.3647053 144.223388,10.2005307 L148.581541,13.0434471 C148.094901,13.8020924 147.558739,14.5854649 146.973125,15.3936124 C145.911875,16.8581373 144.72071,18.3388444 143.399821,19.8358829 L147.013658,18.3764485 C147.675295,20.0017694 148.515675,21.5198431 149.53466,22.9307453 C149.674597,23.1245032 149.817511,23.3156991 149.963403,23.5043326 C150.099218,23.3078326 150.231575,23.1090677 150.360589,22.9083788 C150.876017,22.1066017 151.34136,21.2690448 151.756567,20.3956794 C152.094666,19.6845058 152.399524,18.9495777 152.671087,18.1908725 L157.182045,20.1827239 C155.933223,18.5103834 154.654688,16.8974577 153.346456,15.3439321 C152.591966,14.4479762 151.896777,13.6410061 151.260912,12.9229993 L154.959,10.111 L155.359049,10.4970183 C156.102948,11.2274989 156.846823,12.005134 157.590715,12.8298844 C158.230932,13.53969 158.850275,14.249493 159.448739,14.9592986 C160.045807,15.6674497 160.601238,16.3547585 161.114995,17.0212539 C161.530759,17.560623 161.905557,18.0635294 162.23934,18.5300088 L158.836329,22.3890939 C158.430395,21.788204 158.216517,21.4816195 157.988368,21.1679142 C157.8117,20.9249954 157.636457,20.6915339 157.462532,20.4677653 C157.353132,20.7321155 157.240744,20.9971462 157.125369,21.2628576 C156.21174,23.3669738 155.201437,25.3051028 154.094001,27.0770005 C155.488222,28.730048 156.871769,29.6596808 158.361833,30.5253368 C159.686943,31.2951627 161.130264,32.0369606 162.691916,32.7504954 L158.575751,38.2872829 C157.21445,37.5361675 155.882131,36.6923531 154.578737,35.7559339 C153.154052,34.7323739 151.77783,33.5980993 150.449971,32.3532314 C148.517132,33.5465907 147.167847,34.6812501 145.714838,35.7606281 C144.363121,36.7647604 142.849895,37.7567493 141.175387,38.7369407 L137.341878,33.456824 C139.044939,32.6356476 140.574331,31.8027184 141.930279,30.9584485 C143.437095,30.0202425 144.787328,29.0391149 145.981396,28.0156283 C145.511787,26.6992119 145.009205,25.8387962 144.522469,25.0276127 L144.258842,24.5875867 C143.567882,23.4247517 142.969811,22.2309607 142.464734,21.0061591 L140.731601,22.7392923 L139.364466,21.1158195 L136.954156,23.8529517 C136.828531,23.6401398 136.695855,23.4114645 136.556122,23.1669305 C136.004916,22.2023215 135.399544,21.1564593 134.74,20.0293465 L134.74,38.476 L129.482,38.476 L129.482,22.467088 C128.824421,23.7466448 128.142239,25.0015959 127.435447,26.2319378 C127.059748,26.8859332 126.697972,27.4981896 126.350102,28.0686963 C126.003946,28.6363919 125.678592,29.1487238 125.373975,29.6056499 L124.377319,21.6290803 C124.82178,20.9720745 125.272287,20.2848629 125.728831,19.5674377 C126.223005,18.7908788 126.68893,18.0213733 127.126627,17.2589338 C127.566917,16.491976 127.964554,15.7391981 128.319626,15.0006472 C128.809018,13.9827132 129.177518,13.0716625 129.426343,12.268 L125.954,12.268 L125.954,6.926 L129.482,6.926 L129.482,0.555602958 Z M139.94,9.958 L139.94,4.154 L147.141623,4.154 C146.943357,3.41170999 146.758301,2.62989481 146.586395,1.80856842 C146.50476,1.41853199 146.414495,1.03711181 146.315624,0.66430214 L152.713797,0.628357344 L153.343376,4.154 L161.242,4.154 L161.242,9.958 L155.161,9.958 L139.94,9.958 Z" id="形状"></path>
                    </g>
                    <text id="02" font-family="STSongti-SC-Regular, Songti SC" font-size="14" font-weight="normal">
                        <tspan x="0" y="15">02</tspan>
                    </text>
                    <polygon id="矩形" points="0 25 230 25 230 26 0 26"></polygon>
                </g>
            </g>
        </g>
    </g>
</svg>