<?xml version="1.0" encoding="UTF-8"?>
<svg width="1400px" height="14px" viewBox="0 0 1400 14" version="1.1" xmlns="http://www.w3.org/2000/svg" xmlns:xlink="http://www.w3.org/1999/xlink">
    <title>编组 17</title>
    <g id="everweb" stroke="none" stroke-width="1" fill="none" fill-rule="evenodd">
        <g id="关于我备份" transform="translate(-260.000000, -6873.000000)" fill="#CCCCCC">
            <g id="编组-17" transform="translate(260.000000, 6873.000000)">
                <path d="M631,5.64 L631,6.64 L0,6.64 L0,5.64 L631,5.64 Z M1400,5.64 L1400,6.64 L769,6.64 L769,5.64 L1400,5.64 Z" id="形状结合"></path>
                <g id="Productivity-Tools" transform="translate(642.572000, 0.000000)" fill-rule="nonzero">
                    <path d="M0,0.924 L2.702,0.924 C3.38333333,0.924 3.95266667,0.984666667 4.41,1.106 C4.86733333,1.22733333 5.23366667,1.414 5.509,1.666 C5.78433333,1.918 5.978,2.24 6.09,2.632 C6.202,3.024 6.258,3.49066667 6.258,4.032 C6.258,4.60133333 6.19033333,5.08666667 6.055,5.488 C5.91966667,5.88933333 5.70966667,6.216 5.425,6.468 C5.14033333,6.72 4.77166667,6.90433333 4.319,7.021 C3.86633333,7.13766667 3.32733333,7.196 2.702,7.196 L1.26,7.196 L1.26,10.64 L0,10.64 L0,0.924 Z M2.59,6.146 C3.038,6.146 3.416,6.11333333 3.724,6.048 C4.032,5.98266667 4.277,5.86833333 4.459,5.705 C4.641,5.54166667 4.77166667,5.32466667 4.851,5.054 C4.93033333,4.78333333 4.97,4.44266667 4.97,4.032 C4.97,3.65866667 4.93033333,3.34366667 4.851,3.087 C4.77166667,2.83033333 4.641,2.62266667 4.459,2.464 C4.277,2.30533333 4.032,2.191 3.724,2.121 C3.416,2.051 3.038,2.016 2.59,2.016 L1.26,2.016 L1.26,6.146 L2.59,6.146 Z" id="形状"></path>
                    <path d="M12.096,2.94 L12.054,4.032 L11.886,4.032 C11.6433333,4.032 11.4053333,4.05533333 11.172,4.102 C10.9386667,4.14866667 10.7193333,4.235 10.514,4.361 C10.3086667,4.487 10.122,4.65733333 9.954,4.872 C9.786,5.08666667 9.65066667,5.362 9.548,5.698 L9.548,10.64 L8.344,10.64 L8.344,3.08 L9.548,3.08 L9.548,4.452 C9.66933333,4.13466667 9.81866667,3.878 9.996,3.682 C10.1733333,3.486 10.3693333,3.332 10.584,3.22 C10.7986667,3.108 11.025,3.03333333 11.263,2.996 C11.501,2.95866667 11.732,2.94 11.956,2.94 L12.096,2.94 Z" id="路径"></path>
                    <path d="M16.702,10.78 C16.142,10.78 15.645,10.717 15.211,10.591 C14.777,10.465 14.4106667,10.2503333 14.112,9.947 C13.8133333,9.64366667 13.587,9.24233333 13.433,8.743 C13.279,8.24366667 13.202,7.616 13.202,6.86 C13.202,6.104 13.279,5.47633333 13.433,4.977 C13.587,4.47766667 13.8133333,4.07633333 14.112,3.773 C14.4106667,3.46966667 14.777,3.255 15.211,3.129 C15.645,3.003 16.142,2.94 16.702,2.94 C17.262,2.94 17.759,3.003 18.193,3.129 C18.627,3.255 18.991,3.46966667 19.285,3.773 C19.579,4.07633333 19.803,4.47766667 19.957,4.977 C20.111,5.47633333 20.188,6.104 20.188,6.86 C20.188,7.616 20.111,8.24366667 19.957,8.743 C19.803,9.24233333 19.579,9.64366667 19.285,9.947 C18.991,10.2503333 18.627,10.465 18.193,10.591 C17.759,10.717 17.262,10.78 16.702,10.78 Z M16.702,9.758 C17.1313333,9.758 17.4883333,9.71133333 17.773,9.618 C18.0576667,9.52466667 18.284,9.366 18.452,9.142 C18.62,8.918 18.739,8.61933333 18.809,8.246 C18.879,7.87266667 18.914,7.41066667 18.914,6.86 C18.914,6.30933333 18.8766667,5.84733333 18.802,5.474 C18.7273333,5.10066667 18.6036667,4.802 18.431,4.578 C18.2583333,4.354 18.0296667,4.193 17.745,4.095 C17.4603333,3.997 17.1126667,3.948 16.702,3.948 C16.282,3.948 15.9296667,3.997 15.645,4.095 C15.3603333,4.193 15.1316667,4.354 14.959,4.578 C14.7863333,4.802 14.665,5.10066667 14.595,5.474 C14.525,5.84733333 14.49,6.30933333 14.49,6.86 C14.49,7.41066667 14.5273333,7.87266667 14.602,8.246 C14.6766667,8.61933333 14.8026667,8.918 14.98,9.142 C15.1573333,9.366 15.386,9.52466667 15.666,9.618 C15.946,9.71133333 16.2913333,9.758 16.702,9.758 Z" id="形状"></path>
                    <path d="M28.658,0 L28.658,10.64 L27.636,10.64 L27.454,9.394 C27.3046667,9.79533333 27.0293333,10.1266667 26.628,10.388 C26.2266667,10.6493333 25.6806667,10.78 24.99,10.78 C24.3646667,10.78 23.849,10.6843333 23.443,10.493 C23.037,10.3016667 22.7173333,10.0333333 22.484,9.688 C22.2506667,9.34266667 22.0896667,8.92966667 22.001,8.449 C21.9123333,7.96833333 21.868,7.43866667 21.868,6.86 C21.868,6.34666667 21.9123333,5.852 22.001,5.376 C22.0896667,4.9 22.2506667,4.48233333 22.484,4.123 C22.7173333,3.76366667 23.037,3.47666667 23.443,3.262 C23.849,3.04733333 24.3646667,2.94 24.99,2.94 C25.3633333,2.94 25.6853333,2.975 25.956,3.045 C26.2266667,3.115 26.46,3.213 26.656,3.339 C26.852,3.465 27.0153333,3.61666667 27.146,3.794 C27.2766667,3.97133333 27.3793333,4.172 27.454,4.396 L27.454,0 L28.658,0 Z M25.172,9.758 C25.6293333,9.758 26.0073333,9.69266667 26.306,9.562 C26.6046667,9.43133333 26.8426667,9.24 27.02,8.988 C27.1973333,8.736 27.321,8.43033333 27.391,8.071 C27.461,7.71166667 27.496,7.308 27.496,6.86 C27.496,6.43066667 27.461,6.03633333 27.391,5.677 C27.321,5.31766667 27.1973333,5.00966667 27.02,4.753 C26.8426667,4.49633333 26.6046667,4.298 26.306,4.158 C26.0073333,4.018 25.6293333,3.948 25.172,3.948 C24.7146667,3.948 24.353,4.02966667 24.087,4.193 C23.821,4.35633333 23.618,4.57566667 23.478,4.851 C23.338,5.12633333 23.2493333,5.439 23.212,5.789 C23.1746667,6.139 23.156,6.496 23.156,6.86 C23.156,7.252 23.177,7.62533333 23.219,7.98 C23.261,8.33466667 23.352,8.64266667 23.492,8.904 C23.632,9.16533333 23.835,9.373 24.101,9.527 C24.367,9.681 24.724,9.758 25.172,9.758 Z" id="形状"></path>
                    <path d="M37.226,3.08 L37.226,10.64 L36.204,10.64 L36.05,9.548 C35.938,9.8 35.7933333,10.0053333 35.616,10.164 C35.4386667,10.3226667 35.245,10.4463333 35.035,10.535 C34.825,10.6236667 34.6033333,10.6866667 34.37,10.724 C34.1366667,10.7613333 33.9033333,10.78 33.67,10.78 C33.1753333,10.78 32.7646667,10.7193333 32.438,10.598 C32.1113333,10.4766667 31.8523333,10.3086667 31.661,10.094 C31.4696667,9.87933333 31.3343333,9.62033333 31.255,9.317 C31.1756667,9.01366667 31.136,8.68 31.136,8.316 L31.136,3.08 L32.34,3.08 L32.34,7.868 C32.34,8.15733333 32.3586667,8.41633333 32.396,8.645 C32.4333333,8.87366667 32.5056667,9.06733333 32.613,9.226 C32.7203333,9.38466667 32.8696667,9.506 33.061,9.59 C33.2523333,9.674 33.4973333,9.716 33.796,9.716 C34.0293333,9.716 34.258,9.69966667 34.482,9.667 C34.706,9.63433333 34.9136667,9.56433333 35.105,9.457 C35.2963333,9.34966667 35.469,9.198 35.623,9.002 C35.777,8.806 35.91,8.54466667 36.022,8.218 L36.022,3.08 L37.226,3.08 Z" id="路径"></path>
                    <path d="M42.826,10.78 C42.266,10.78 41.769,10.717 41.335,10.591 C40.901,10.465 40.5346667,10.2503333 40.236,9.947 C39.9373333,9.64366667 39.711,9.24233333 39.557,8.743 C39.403,8.24366667 39.326,7.616 39.326,6.86 C39.326,6.104 39.403,5.47633333 39.557,4.977 C39.711,4.47766667 39.9373333,4.07633333 40.236,3.773 C40.5346667,3.46966667 40.901,3.255 41.335,3.129 C41.769,3.003 42.266,2.94 42.826,2.94 C43.246,2.94 43.6263333,2.968 43.967,3.024 C44.3076667,3.08 44.5853333,3.14533333 44.8,3.22 L44.8,4.326 C44.52,4.22333333 44.2213333,4.14166667 43.904,4.081 C43.5866667,4.02033333 43.232,3.99 42.84,3.99 C42.42,3.99 42.07,4.03666667 41.79,4.13 C41.51,4.22333333 41.2813333,4.37966667 41.104,4.599 C40.9266667,4.81833333 40.8006667,5.11233333 40.726,5.481 C40.6513333,5.84966667 40.614,6.314 40.614,6.874 C40.614,7.42466667 40.6513333,7.882 40.726,8.246 C40.8006667,8.61 40.9266667,8.90166667 41.104,9.121 C41.2813333,9.34033333 41.5123333,9.49433333 41.797,9.583 C42.0816667,9.67166667 42.434,9.716 42.854,9.716 C43.2086667,9.716 43.5586667,9.69033333 43.904,9.639 C44.2493333,9.58766667 44.5573333,9.506 44.828,9.394 L44.828,10.5 C44.7253333,10.5373333 44.597,10.5723333 44.443,10.605 C44.289,10.6376667 44.121,10.668 43.939,10.696 C43.757,10.724 43.5703333,10.745 43.379,10.759 C43.1876667,10.773 43.0033333,10.78 42.826,10.78 Z" id="路径"></path>
                    <path d="M49.084,9.716 C49.252,9.716 49.399,9.709 49.525,9.695 C49.651,9.681 49.7793333,9.66 49.91,9.632 L49.91,10.654 C49.7606667,10.6726667 49.6206667,10.689 49.49,10.703 C49.3593333,10.717 49.2146667,10.724 49.056,10.724 C48.636,10.724 48.2836667,10.6936667 47.999,10.633 C47.7143333,10.5723333 47.481,10.4533333 47.299,10.276 C47.117,10.0986667 46.9863333,9.85366667 46.907,9.541 C46.8276667,9.22833333 46.788,8.82466667 46.788,8.33 L46.788,4.088 L45.668,4.088 L45.668,3.08 L46.788,3.08 L46.788,1.288 L47.992,1.288 L47.992,3.08 L49.868,3.08 L49.868,4.088 L47.992,4.088 L47.992,8.26 C47.992,8.55866667 48.006,8.80133333 48.034,8.988 C48.062,9.17466667 48.1156667,9.32166667 48.195,9.429 C48.2743333,9.53633333 48.384,9.611 48.524,9.653 C48.664,9.695 48.8506667,9.716 49.084,9.716 Z" id="路径"></path>
                    <path d="M52.066,1.694 C51.7953333,1.694 51.6063333,1.652 51.499,1.568 C51.3916667,1.484 51.338,1.288 51.338,0.98 C51.338,0.662666667 51.3916667,0.464333333 51.499,0.385 C51.6063333,0.305666667 51.7953333,0.266 52.066,0.266 C52.318,0.266 52.5,0.305666667 52.612,0.385 C52.724,0.464333333 52.78,0.662666667 52.78,0.98 C52.78,1.288 52.724,1.484 52.612,1.568 C52.5,1.652 52.318,1.694 52.066,1.694 Z M51.45,3.08 L52.654,3.08 L52.654,10.64 L51.45,10.64 L51.45,3.08 Z" id="形状"></path>
                    <polygon id="路径" points="54.068 3.08 55.286 3.08 57.582 9.436 57.666 9.436 59.878 3.08 61.152 3.08 58.324 10.64 56.896 10.64"></polygon>
                    <path d="M63.182,1.694 C62.9113333,1.694 62.7223333,1.652 62.615,1.568 C62.5076667,1.484 62.454,1.288 62.454,0.98 C62.454,0.662666667 62.5076667,0.464333333 62.615,0.385 C62.7223333,0.305666667 62.9113333,0.266 63.182,0.266 C63.434,0.266 63.616,0.305666667 63.728,0.385 C63.84,0.464333333 63.896,0.662666667 63.896,0.98 C63.896,1.288 63.84,1.484 63.728,1.568 C63.616,1.652 63.434,1.694 63.182,1.694 Z M62.566,3.08 L63.77,3.08 L63.77,10.64 L62.566,10.64 L62.566,3.08 Z" id="形状"></path>
                    <path d="M68.67,9.716 C68.838,9.716 68.985,9.709 69.111,9.695 C69.237,9.681 69.3653333,9.66 69.496,9.632 L69.496,10.654 C69.3466667,10.6726667 69.2066667,10.689 69.076,10.703 C68.9453333,10.717 68.8006667,10.724 68.642,10.724 C68.222,10.724 67.8696667,10.6936667 67.585,10.633 C67.3003333,10.5723333 67.067,10.4533333 66.885,10.276 C66.703,10.0986667 66.5723333,9.85366667 66.493,9.541 C66.4136667,9.22833333 66.374,8.82466667 66.374,8.33 L66.374,4.088 L65.254,4.088 L65.254,3.08 L66.374,3.08 L66.374,1.288 L67.578,1.288 L67.578,3.08 L69.454,3.08 L69.454,4.088 L67.578,4.088 L67.578,8.26 C67.578,8.55866667 67.592,8.80133333 67.62,8.988 C67.648,9.17466667 67.7016667,9.32166667 67.781,9.429 C67.8603333,9.53633333 67.97,9.611 68.11,9.653 C68.25,9.695 68.4366667,9.716 68.67,9.716 Z" id="路径"></path>
                    <path d="M70.7,12.404 C71.3533333,12.404 71.841,12.2593333 72.163,11.97 C72.485,11.6806667 72.7393333,11.2326667 72.926,10.626 L69.902,3.08 L71.204,3.08 L73.514,9.352 L73.598,9.352 L75.782,3.08 L77,3.08 L74.284,10.388 C74.1066667,10.864 73.9246667,11.2886667 73.738,11.662 C73.5513333,12.0353333 73.325,12.355 73.059,12.621 C72.793,12.887 72.4733333,13.09 72.1,13.23 C71.7266667,13.37 71.26,13.44 70.7,13.44 L70.7,12.404 Z" id="路径"></path>
                    <polygon id="路径" points="87.892 2.044 85.064 2.044 85.064 10.64 83.804 10.64 83.804 2.044 80.962 2.044 80.962 0.924 87.892 0.924"></polygon>
                    <path d="M92.456,10.78 C91.896,10.78 91.399,10.717 90.965,10.591 C90.531,10.465 90.1646667,10.2503333 89.866,9.947 C89.5673333,9.64366667 89.341,9.24233333 89.187,8.743 C89.033,8.24366667 88.956,7.616 88.956,6.86 C88.956,6.104 89.033,5.47633333 89.187,4.977 C89.341,4.47766667 89.5673333,4.07633333 89.866,3.773 C90.1646667,3.46966667 90.531,3.255 90.965,3.129 C91.399,3.003 91.896,2.94 92.456,2.94 C93.016,2.94 93.513,3.003 93.947,3.129 C94.381,3.255 94.745,3.46966667 95.039,3.773 C95.333,4.07633333 95.557,4.47766667 95.711,4.977 C95.865,5.47633333 95.942,6.104 95.942,6.86 C95.942,7.616 95.865,8.24366667 95.711,8.743 C95.557,9.24233333 95.333,9.64366667 95.039,9.947 C94.745,10.2503333 94.381,10.465 93.947,10.591 C93.513,10.717 93.016,10.78 92.456,10.78 Z M92.456,9.758 C92.8853333,9.758 93.2423333,9.71133333 93.527,9.618 C93.8116667,9.52466667 94.038,9.366 94.206,9.142 C94.374,8.918 94.493,8.61933333 94.563,8.246 C94.633,7.87266667 94.668,7.41066667 94.668,6.86 C94.668,6.30933333 94.6306667,5.84733333 94.556,5.474 C94.4813333,5.10066667 94.3576667,4.802 94.185,4.578 C94.0123333,4.354 93.7836667,4.193 93.499,4.095 C93.2143333,3.997 92.8666667,3.948 92.456,3.948 C92.036,3.948 91.6836667,3.997 91.399,4.095 C91.1143333,4.193 90.8856667,4.354 90.713,4.578 C90.5403333,4.802 90.419,5.10066667 90.349,5.474 C90.279,5.84733333 90.244,6.30933333 90.244,6.86 C90.244,7.41066667 90.2813333,7.87266667 90.356,8.246 C90.4306667,8.61933333 90.5566667,8.918 90.734,9.142 C90.9113333,9.366 91.14,9.52466667 91.42,9.618 C91.7,9.71133333 92.0453333,9.758 92.456,9.758 Z" id="形状"></path>
                    <path d="M101.108,10.78 C100.548,10.78 100.051,10.717 99.617,10.591 C99.183,10.465 98.8166667,10.2503333 98.518,9.947 C98.2193333,9.64366667 97.993,9.24233333 97.839,8.743 C97.685,8.24366667 97.608,7.616 97.608,6.86 C97.608,6.104 97.685,5.47633333 97.839,4.977 C97.993,4.47766667 98.2193333,4.07633333 98.518,3.773 C98.8166667,3.46966667 99.183,3.255 99.617,3.129 C100.051,3.003 100.548,2.94 101.108,2.94 C101.668,2.94 102.165,3.003 102.599,3.129 C103.033,3.255 103.397,3.46966667 103.691,3.773 C103.985,4.07633333 104.209,4.47766667 104.363,4.977 C104.517,5.47633333 104.594,6.104 104.594,6.86 C104.594,7.616 104.517,8.24366667 104.363,8.743 C104.209,9.24233333 103.985,9.64366667 103.691,9.947 C103.397,10.2503333 103.033,10.465 102.599,10.591 C102.165,10.717 101.668,10.78 101.108,10.78 Z M101.108,9.758 C101.537333,9.758 101.894333,9.71133333 102.179,9.618 C102.463667,9.52466667 102.69,9.366 102.858,9.142 C103.026,8.918 103.145,8.61933333 103.215,8.246 C103.285,7.87266667 103.32,7.41066667 103.32,6.86 C103.32,6.30933333 103.282667,5.84733333 103.208,5.474 C103.133333,5.10066667 103.009667,4.802 102.837,4.578 C102.664333,4.354 102.435667,4.193 102.151,4.095 C101.866333,3.997 101.518667,3.948 101.108,3.948 C100.688,3.948 100.335667,3.997 100.051,4.095 C99.7663333,4.193 99.5376667,4.354 99.365,4.578 C99.1923333,4.802 99.071,5.10066667 99.001,5.474 C98.931,5.84733333 98.896,6.30933333 98.896,6.86 C98.896,7.41066667 98.9333333,7.87266667 99.008,8.246 C99.0826667,8.61933333 99.2086667,8.918 99.386,9.142 C99.5633333,9.366 99.792,9.52466667 100.072,9.618 C100.352,9.71133333 100.697333,9.758 101.108,9.758 Z" id="形状"></path>
                    <path d="M108.388,10.724 C107.828,10.724 107.408,10.598 107.128,10.346 C106.848,10.094 106.708,9.68333333 106.708,9.114 L106.708,0 L107.912,0 L107.912,8.806 C107.912,9.18866667 107.968,9.436 108.08,9.548 C108.192,9.66 108.369333,9.716 108.612,9.716 C108.696,9.716 108.787,9.71133333 108.885,9.702 C108.983,9.69266667 109.083333,9.674 109.186,9.646 L109.186,10.64 C109.074,10.668 108.955,10.689 108.829,10.703 C108.703,10.717 108.556,10.724 108.388,10.724 Z" id="路径"></path>
                    <path d="M112.462,10.724 C112.275333,10.724 112.077,10.717 111.867,10.703 C111.657,10.689 111.449333,10.6726667 111.244,10.654 C111.038667,10.6353333 110.849667,10.6096667 110.677,10.577 C110.504333,10.5443333 110.366667,10.514 110.264,10.486 L110.264,9.45 C110.394667,9.48733333 110.551,9.52466667 110.733,9.562 C110.915,9.59933333 111.104,9.632 111.3,9.66 C111.496,9.688 111.694333,9.709 111.895,9.723 C112.095667,9.737 112.28,9.744 112.448,9.744 C113.026667,9.744 113.463,9.66233333 113.757,9.499 C114.051,9.33566667 114.198,9.03 114.198,8.582 C114.198,8.358 114.177,8.17366667 114.135,8.029 C114.093,7.88433333 114.011333,7.763 113.89,7.665 C113.768667,7.567 113.598333,7.48066667 113.379,7.406 C113.159667,7.33133333 112.868,7.252 112.504,7.168 C112.084,7.07466667 111.738667,6.96733333 111.468,6.846 C111.197333,6.72466667 110.982667,6.58 110.824,6.412 C110.665333,6.244 110.553333,6.04333333 110.488,5.81 C110.422667,5.57666667 110.39,5.30133333 110.39,4.984 C110.39,4.368 110.616333,3.87333333 111.069,3.5 C111.521667,3.12666667 112.200667,2.94 113.106,2.94 C113.47,2.94 113.831667,2.96333333 114.191,3.01 C114.550333,3.05666667 114.823333,3.11733333 115.01,3.192 L114.926,4.214 C114.711333,4.13 114.445333,4.06 114.128,4.004 C113.810667,3.948 113.474667,3.92 113.12,3.92 C112.588,3.92 112.189,3.99466667 111.923,4.144 C111.657,4.29333333 111.524,4.58266667 111.524,5.012 C111.524,5.208 111.545,5.36666667 111.587,5.488 C111.629,5.60933333 111.701333,5.71433333 111.804,5.803 C111.906667,5.89166667 112.051333,5.96633333 112.238,6.027 C112.424667,6.08766667 112.667333,6.15066667 112.966,6.216 C113.395333,6.31866667 113.761667,6.42833333 114.065,6.545 C114.368333,6.66166667 114.613333,6.80633333 114.8,6.979 C114.986667,7.15166667 115.122,7.364 115.206,7.616 C115.29,7.868 115.332,8.176 115.332,8.54 C115.332,9.296 115.087,9.849 114.597,10.199 C114.107,10.549 113.395333,10.724 112.462,10.724 Z" id="路径"></path>
                </g>
            </g>
        </g>
    </g>
</svg>