<?xml version="1.0" encoding="UTF-8"?>
<svg width="287px" height="81px" viewBox="0 0 287 81" version="1.1" xmlns="http://www.w3.org/2000/svg" xmlns:xlink="http://www.w3.org/1999/xlink">
    <title>编组 11备份 2</title>
    <g id="everweb" stroke="none" stroke-width="1" fill="none" fill-rule="evenodd">
        <g id="关于我备份" transform="translate(-843.000000, -3715.000000)" fill="#000000">
            <g id="编组-16备份-2" transform="translate(0.000000, 3603.000000)">
                <g id="编组-11备份-2" transform="translate(843.000000, 112.000000)">
                    <g id="竞赛-/-活动" transform="translate(79.302000, 40.770000)" fill-opacity="0" fill-rule="nonzero" stroke="#000000">
                        <path d="M33.646,17.552 L33.646,28.732 L26.38,28.732 L26.38,31.08 C26.38,31.6734439 26.5149094,32.1477519 26.7579749,32.5123501 C27.0209214,32.90677 27.5301899,33.176 28.392,33.176 L30.576,33.176 C31.189987,33.176 31.6587766,33.0218984 31.9988221,32.7534414 C32.3305367,32.4915615 32.6035579,32.0581458 32.779759,31.4238219 C32.9019275,30.9358428 32.980829,30.4735743 33.0203001,30.0245231 L38.0687457,31.5671037 L38.0154728,32.2596518 C37.988348,32.612274 37.9059741,33.1546339 37.770359,33.8869554 C37.6366699,34.7149829 37.4552088,35.3877742 37.2180392,35.9148177 C37.0030279,36.3926207 36.7066435,36.7770173 36.324,37.064 C35.9288529,37.3603604 35.4203265,37.5644327 34.8039419,37.6877097 C34.1294779,37.8226025 33.266,37.888 32.214,37.888 L24.99,37.888 C23.4424976,37.888 22.3218824,37.5919097 21.6785066,36.9106882 C21.0374603,36.2319334 20.744,35.217694 20.744,33.894 L20.744,28.732 L16.7102248,28.732 C16.5112515,30.1026349 16.126393,31.2853224 15.5488768,32.2774656 C15.0318223,33.1657388 14.3074362,33.9793386 13.3796525,34.7215656 C12.4270583,35.4836409 11.2285379,36.1964043 9.78619943,36.8631457 C8.39267112,37.5073239 6.72507792,38.1698654 4.78366376,38.8513621 L0.902150932,34.1582602 C3.44548103,33.5601786 5.43825114,32.9370217 6.88182542,32.2925689 C8.93448101,31.3762048 10.2292829,30.1747624 10.8085857,28.732 L5.12,28.732 L5.12,17.552 L33.646,17.552 Z M28.01,21.508 L10.672,21.508 L10.672,24.776 L28.01,24.776 L28.01,21.508 Z M22.4634667,0.5 C22.513579,0.693639609 22.5636901,0.894868956 22.6138063,1.10368648 C22.727084,1.57567684 22.8403611,2.06044815 22.9536392,2.558 L35.452,2.558 L35.452,6.724 L30.6325753,6.724 C30.1381198,7.826906 29.5296127,8.95815002 28.8075682,10.118 L37.72,10.118 L37.72,14.452 L1.088,14.452 L1.088,10.118 L9.92054706,10.118 C9.5266997,9.51284728 9.17094307,8.86966762 8.85309157,8.18855727 C8.60473645,7.65636772 8.35631718,7.16820882 8.10799362,6.724 L3.398,6.724 L3.398,2.558 L16.3584788,2.55800001 C16.1821779,1.89436143 16.0212874,1.29236591 15.8758079,0.752013263 L22.4634667,0.5 Z M24.105993,6.724 L14.4757292,6.724 C14.8064658,7.2872853 15.1370674,7.91144259 15.4677242,8.59637453 C15.7075935,9.09324674 15.9681182,9.60046104 16.2493326,10.118 L22.5672907,10.118 C22.8167418,9.6313074 23.0554003,9.13381851 23.2832547,8.62552795 C23.5754271,7.97375865 23.8496696,7.33991443 24.105993,6.724 Z" id="形状"></path>
                        <path d="M57.668325,28.85 L63.8400068,28.85 C63.5865898,29.7465989 63.4217077,30.2336226 63.250399,30.6591553 L63.231,30.705 L62.6804392,30.706 C63.075239,30.7800773 63.4675899,30.8550718 63.857492,30.9309837 L64.937,31.145 L67.91,31.7824936 L68.4187688,31.8859752 C69.5297004,32.1357378 70.6185907,32.3937636 71.6854386,32.6600573 L72.744939,32.9291072 C74.2159933,33.3091295 75.5469608,33.6729579 76.7378271,34.0206437 L75.2767178,38.7866422 C74.6085139,38.5431661 73.8122507,38.2599405 72.8879219,37.9369822 C71.7220128,37.5296164 70.4577782,37.108191 69.0952097,36.6727309 C67.7354135,36.2381569 66.3475805,35.8035823 64.9317103,35.3690083 C63.5132789,34.9336481 62.2001727,34.5474548 60.9923995,34.2104018 C59.3281154,35.2484794 57.6201771,36.0718892 55.4333259,36.7782014 C53.2650512,37.4785138 50.386153,38.1911422 46.7970128,38.917473 L44.1444974,34.1010634 C46.7583546,33.8143618 48.8894331,33.5096832 50.5378453,33.1877277 C52.3739295,32.8291175 53.792994,32.4318435 54.7969596,32.0015725 C55.8930994,31.5317983 56.6196433,30.9916125 57.0092945,30.4149287 C57.3242941,29.9487293 57.5447263,29.4273783 57.668325,28.85 Z M63.8530814,0.67436601 C64.0265416,1.26110745 64.1586785,1.88903451 64.2500755,2.558 L78.334,2.558 L78.334,9.748 L76.402,9.748 L76.402,11.89 L69.388,11.89 L69.388,14.192 L76.192,14.192 L76.192,16.216 L69.388,16.216 L69.388,18.434 L78.712,18.434 L78.712,21.508 L70.9634622,21.508 C72.3459156,22.5054866 74.0700036,23.3962263 76.1373925,24.1767711 C77.3772978,24.6448986 78.7874403,25.1188232 80.3678941,25.5983283 L78.286579,30.1772216 C77.5845991,29.875511 76.9015287,29.5643503 76.2373745,29.2437242 C75.1651623,28.7261045 74.1420334,28.208494 73.168,27.6908682 L73.168,30.706 L67.91,30.705 L67.91,27.01 L53.722,27.01 L53.722,30.958 L48.842,30.958 L48.842,27.8413644 C47.886049,28.3757633 46.9050769,28.8851361 45.8990922,29.3694992 C45.2803524,29.6674109 44.6428607,29.9746986 43.9866172,30.2913622 L41.7064196,25.8346124 C43.2084212,25.3530649 44.5874814,24.854666 45.8436766,24.339626 C47.8951748,23.4985117 49.5347086,22.5527391 50.7653844,21.508 L43.298,21.508 L43.298,18.434 L52.622,18.434 L52.622,16.216 L45.818,16.216 L45.818,14.192 L52.622,14.192 L52.622,11.89 L45.608,11.89 L45.608,9.748 L43.676,9.748 L43.676,2.558 L57.9742152,2.558 C57.8271174,1.99659911 57.6978868,1.47099901 57.5865664,0.981189448 L63.8530814,0.67436601 Z M64.3747135,20.962 L57.5317732,20.962 C57.285483,21.3276362 57.0094104,21.6634828 56.7034466,21.9694466 L55.0308932,23.642 L67.1267227,23.642 C66.4534004,23.0531969 65.8366009,22.4927151 65.2763747,21.9605003 C64.9565077,21.6566266 64.6560046,21.323746 64.3747135,20.962 Z M64.13,16.216 L57.88,16.216 L57.88,18.434 L64.13,18.434 L64.13,16.216 Z M64.13,11.89 L57.88,11.89 L57.88,14.192 L64.13,14.192 L64.13,11.89 Z M73.244,6.598 L48.808,6.598 L48.808,9.824 L52.622,9.824 L52.622,8.354 L57.88,8.354 L57.88,9.824 L64.13,9.824 L64.13,8.354 L69.388,8.354 L69.388,9.824 L73.244,9.824 L73.244,6.598 Z" id="形状"></path>
                        <path d="M110.840977,4.322 L99.8183938,34.99 L95.5050227,34.99 L106.527606,4.322 L110.840977,4.322 Z" id="路径"></path>
                        <path d="M131.299682,23.3473995 L136.830262,25.3098634 C136.627511,26.120602 136.38501,27.025688 136.102813,28.0251355 C135.767527,29.2126069 135.411284,30.4350034 135.034087,31.6923261 C134.657555,32.9474309 134.267081,34.1816181 133.862658,35.3948861 C133.52131,36.4189298 133.204735,37.3587524 132.91293,38.2143531 L127.185132,36.2454226 C127.490854,35.547764 127.819264,34.7237004 128.170076,33.7731114 C128.606202,32.5913506 129.035307,31.35332 129.457365,30.0590103 C129.87983,28.7634514 130.267083,27.4749317 130.619137,26.1934551 C130.906626,25.1469944 131.133356,24.1982837 131.299682,23.3473995 Z M161.535339,1.37553297 L162.459699,6.85058759 C161.516054,6.91842737 160.422041,6.98139643 159.177661,7.03954501 C157.54107,7.11602124 155.779183,7.2008504 153.892,7.29403273 L153.892,11.756 L163.804,11.756 L163.804,17.476 L153.892,17.476 L153.892,21.542 L161.83,21.542 L161.83,37.636 L139.814,37.636 L139.814,21.542 L147.752,21.542 L147.752,17.476 L138.386,17.476 L138.386,11.756 L147.752,11.756 L147.752001,7.50193665 C146.106639,7.56813521 144.557389,7.61686527 143.10425,7.64811558 C141.991346,7.67204899 140.975539,7.69598304 140.056828,7.71991663 L139.49126,2.34672536 C141.009796,2.33985432 142.706262,2.3052023 144.580657,2.24272245 C146.682758,2.17265243 148.798873,2.08856867 150.929002,1.99047063 C153.058996,1.89237878 155.097906,1.78727891 157.045729,1.67517394 C158.780983,1.57530323 160.277518,1.4754089 161.535339,1.37553297 Z M156.026,26.758 L145.492,26.758 L145.492,31.79 L156.026,31.79 L156.026,26.758 Z M129.426612,11.3390081 C129.926747,11.637548 130.461192,11.9618237 131.029951,12.3118292 C131.754093,12.7574548 132.478234,13.2170076 133.202375,13.6904848 C133.926456,14.1639223 134.629652,14.6373566 135.311959,15.1107941 C135.83932,15.4767182 136.31191,15.8256495 136.729591,16.1577665 L133.683029,21.2114755 C133.254825,20.8650358 132.780974,20.4995477 132.261422,20.1150791 C131.55832,19.5947838 130.827097,19.0674541 130.067747,18.5330968 C129.30577,17.9968911 128.550843,17.4889159 127.802977,17.009153 C127.242218,16.6494205 126.724935,16.3292761 126.251167,16.0486581 Z M130.994,0.916441168 C131.416429,1.15376999 131.908783,1.43383421 132.471066,1.75662655 C133.220627,2.18692976 133.977121,2.64500464 134.740562,3.13083074 C135.509556,3.62019069 136.229615,4.08158659 136.900737,4.51501969 C137.366527,4.81584226 137.756817,5.0786612 138.071415,5.30374102 L135.205405,10.3192583 C134.879358,10.0895117 134.488904,9.81682567 134.034041,9.50120594 C133.345601,9.02351305 132.622039,8.53176734 131.86335,8.02597485 C131.106187,7.52119968 130.342014,7.01642441 129.57083,6.51164924 C128.98838,6.13040953 128.465496,5.79686902 128.002207,5.51098106 Z" id="形状"></path>
                        <path d="M190.210896,0.513612214 L195.43,0.654669068 L195.43,2.583 C195.43,3.09825254 195.423022,3.71098511 195.409096,4.42119796 C195.392655,5.25968966 195.366537,6.2626184 195.330752,7.42998447 L204.23916,7.43 C204.2148,8.58071145 204.190441,9.83204226 204.166081,11.1839925 C204.138078,12.7381651 204.110075,14.3413431 204.082072,15.9935266 C204.054096,17.6441152 204.019126,19.2947037 203.977162,20.9452922 C203.935133,22.598416 203.90011,24.1604779 203.872091,25.6314779 C203.844104,27.10076 203.816118,28.4441036 203.788132,29.6615088 C203.760099,30.880952 203.746075,31.8697427 203.745996,32.6280321 C203.719005,33.7219746 203.615487,34.6034379 203.428518,35.271185 C203.259908,35.8733633 202.98824,36.3591592 202.602029,36.7212314 C202.208259,37.090391 201.682205,37.3546452 201.031304,37.5265811 C200.306623,37.7180063 199.410891,37.8813319 198.346922,38.0177445 L196.028165,38.3031301 L194.065708,32.1613673 L195.20617,31.9944682 C195.77289,31.9094601 196.247509,31.8314809 196.630045,31.760641 C197.118883,31.6701153 197.492081,31.487601 197.762159,31.2355276 C198.031486,30.9841558 198.240589,30.6220589 198.366998,30.1344811 C198.4714,29.731789 198.541759,29.1580101 198.5716,28.411984 C198.599684,27.709901 198.627788,26.741027 198.655871,25.5053607 C198.683845,24.2744943 198.718814,22.9597051 198.760775,21.5609933 C198.802823,20.1594074 198.837862,18.7788454 198.865894,17.4193071 C198.890161,16.2423371 198.903929,15.227879 198.907223,14.3759329 L198.90773,13.7674444 L198.906511,13.4860534 L195.195944,13.4860003 C195.109402,15.915161 194.998872,18.0719546 194.864271,19.9563765 C194.739182,21.7076119 194.572506,23.3129241 194.364025,24.7722893 C194.156455,26.2252799 193.907558,27.5537679 193.616959,28.7576797 C193.327888,29.9552578 192.97003,31.1184355 192.543306,32.2471888 C192.114893,33.3804109 191.617322,34.5205163 191.050711,35.6675562 C190.549913,36.6813674 189.990073,37.7434383 189.371252,38.8538015 L186.135635,36.748701 L183.182665,37.6691071 L182.616487,35.4043938 C182.030099,35.472353 181.358761,35.5524467 180.602473,35.6446771 C180.025684,35.7150172 179.434827,35.7923894 178.829902,35.8767976 C178.227358,35.9608734 177.631821,36.0449494 177.043289,36.1290253 C176.460851,36.2122308 175.920017,36.2815878 175.420784,36.3370581 C174.247217,36.5084963 173.19661,36.6848253 172.251761,36.8681542 C171.522524,37.009648 170.897203,37.1472203 170.37571,37.2805147 L168.272047,31.3016839 C168.593622,31.1023074 168.870192,30.9026598 169.102396,30.7036283 C169.428241,30.4243324 169.707143,30.1214317 169.939867,29.7956191 C170.171952,29.4706992 170.374142,29.0921492 170.544376,28.6588262 C170.700281,28.2619754 170.877503,27.7801058 171.075929,27.2131752 C171.30837,26.4589827 171.591933,25.3408589 171.931657,23.8404128 C172.30813,22.1776535 172.684616,20.3921844 173.061087,18.484 L167.912,18.484 L167.912,12.722 L186.644,12.722 L186.644,7.43 L190.168979,7.43 L190.210896,0.513612214 Z M190.025501,13.4860002 L186.064,13.486 L186.064,18.484 L178.771089,18.484 C178.558688,19.4519626 178.30001,20.5216435 177.995121,21.6930589 C177.729809,22.7124138 177.457516,23.7247869 177.178241,24.7301781 C176.899283,25.7344265 176.627307,26.6759116 176.362296,27.5546291 C175.972236,28.8479864 175.628531,29.8205197 175.329694,30.4717118 L181.207892,29.9726196 C180.783156,28.5096691 180.377057,27.0839962 179.989598,25.6956005 C179.706829,24.6823443 179.433911,23.7480431 179.170874,22.8926882 L183.604256,21.6111618 C183.954021,22.6086751 184.340491,23.7846775 184.76376,25.1391375 C185.252469,26.7030058 185.734191,28.3227281 186.208937,29.9983013 C186.331274,30.4300805 186.451272,30.8589451 186.568929,31.2848953 C186.771101,30.8839118 186.963748,30.4771738 187.146906,30.0650692 C187.603101,29.0386294 187.995137,27.9908028 188.323027,26.921595 C188.650466,25.85386 188.928326,24.6865256 189.156111,23.4194694 C189.382661,22.1592825 189.559869,20.7575269 189.687304,19.2141444 C189.825013,17.5463387 189.937783,15.6369598 190.025501,13.4860002 Z M184.972,2.054 L184.972,7.69 L170.222,7.69 L170.222,2.054 L184.972,2.054 Z" id="形状"></path>
                    </g>
                    <text id="03" font-family="STSongti-SC-Regular, Songti SC" font-size="14" font-weight="normal">
                        <tspan x="0" y="15">03</tspan>
                    </text>
                    <polygon id="矩形" points="0 25 287 25 287 26 0 26"></polygon>
                </g>
            </g>
        </g>
    </g>
</svg>