<?xml version="1.0" encoding="UTF-8"?>
<svg width="189px" height="81px" viewBox="0 0 189 81" version="1.1" xmlns="http://www.w3.org/2000/svg" xmlns:xlink="http://www.w3.org/1999/xlink">
    <title>编组 11备份 2</title>
    <g id="everweb" stroke="none" stroke-width="1" fill="none" fill-rule="evenodd">
        <g id="关于我备份" transform="translate(-865.000000, -4791.000000)" fill="#000000">
            <g id="编组-16备份-3" transform="translate(0.000000, 4683.000000)">
                <g id="编组-11备份-2" transform="translate(865.000000, 108.000000)">
                    <g id="经历" transform="translate(107.596000, 40.434000)" fill-opacity="0" fill-rule="nonzero" stroke="#000000">
                        <path d="M13.926738,30.4244726 L14.1414506,36.1502296 C13.431402,36.2501887 12.5663145,36.3689388 11.5461888,36.5064838 C10.2998734,36.6745264 9.01154738,36.8495706 7.68121071,37.0316167 L6.69183622,37.16677 C5.71033474,37.3006111 4.75245228,37.4305157 3.81818883,37.5564838 C2.8324726,37.6893894 2.00068535,37.7959286 1.32282307,37.876068 L0.677896245,32.1432634 C1.44453276,32.0453438 2.3380111,31.9333312 3.35833109,31.8072242 C4.60617994,31.6529957 5.90310167,31.4847477 7.24909594,31.3024777 C8.59250462,31.1205578 9.90092869,30.9456347 11.1743682,30.7777086 C12.2069719,30.6415411 13.1244283,30.5237942 13.926738,30.4244726 Z M35.647,21.752 L35.9685167,27.346 L29.194,27.346 L29.194,32.378 L37.51,32.378 L37.51,37.804 L15.62,37.804 L15.62,32.378 L23.348,32.378 L23.348,27.346 L16.964,27.346 L16.964,21.752 L35.647,21.752 Z M35.368,2.516 L35.368,8.05846722 C34.2877127,9.4188233 33.0261931,10.7530677 31.584005,12.0617198 C31.3977703,12.2307106 31.2114026,12.3966615 31.0251562,12.5596531 C31.251833,12.6673669 31.478326,12.7752293 31.7046352,12.8832405 C32.9352523,13.4705805 34.1658694,14.0649127 35.3964865,14.6662369 C36.4109687,15.1619498 37.2628485,15.5953766 37.9520421,15.9666757 L35.6138103,21.158343 L35.627,21.409 L35.5485089,21.3618692 C34.2501694,20.5750083 32.8568187,19.7485528 31.3684521,18.8825102 L30.6163509,18.4461901 C29.1831017,17.6171538 27.8622517,16.8794748 26.6538261,16.2331077 C23.8051769,17.7972556 21.123945,19.2357433 18.0996994,20.5729847 L15.0637685,15.358327 C17.2770178,14.6073949 19.3466292,13.7306735 21.2727707,12.7285593 C23.8138722,11.4064998 26.0025194,9.866305 27.8401004,8.11 L17.132,8.11 L17.132,2.516 L35.368,2.516 Z M7.25086524,0.667761329 L11.6714191,2.60175366 C11.4380603,3.07597691 11.1660848,3.60809331 10.8555409,4.19812678 C10.4378706,4.99170027 9.99234849,5.80615328 9.51898891,6.64149371 C9.04552636,7.47701585 8.57206882,8.28469022 8.09860624,9.06451093 C7.62813446,9.83940564 7.21312,10.489835 6.85334637,11.015658 C6.67367276,11.2782579 6.47002338,11.5649579 6.24242438,11.8757766 L10.3819595,11.5668561 C10.8846338,10.6909227 11.336521,9.88267998 11.737646,9.14214157 C11.999585,8.65856183 12.2258682,8.21758275 12.4166523,7.81928014 L16.5046609,9.88046096 C16.1311964,10.601446 15.6866975,11.4028376 15.171314,12.284716 C14.5439634,13.3581826 13.888727,14.4386177 13.2056119,15.5260254 C12.5220899,16.6140808 11.8455474,17.660291 11.1759749,18.6646499 C10.5085422,19.6657989 9.91068914,20.527939 9.38230444,21.2509917 C9.1621979,21.5521901 8.92275819,21.8722049 8.66417881,22.2109252 C9.08648726,22.1473377 9.48245451,22.0908976 9.85208186,22.041614 C10.2692175,21.9859959 10.7211151,21.9303844 11.2077733,21.8747663 C11.704884,21.8179537 12.1806875,21.7540218 12.6351884,21.683006 C13.0817732,21.6132271 13.4934684,21.5504248 13.8702743,21.4946017 L14.116,26.4721481 C13.6659827,26.5222583 13.1729847,26.5840791 12.63701,26.6576442 C11.9208405,26.755942 11.1906283,26.8612601 10.4463737,26.9736005 C9.70340282,27.085747 8.97445032,27.1978937 8.25951612,27.3100402 C7.54532609,27.42207 6.9221603,27.5200962 6.39472567,27.6033983 C5.63497195,27.7159544 4.84707836,27.8425748 4.03104654,27.9832699 C3.48226661,28.0778872 3.02099191,28.1665236 2.6471405,28.2488284 L1.42215388,22.6643306 C2.00904576,22.4402499 2.52297646,22.1963179 2.9645377,21.9337679 C3.52783406,21.598835 4.08720953,21.0850701 4.63917892,20.3797251 C5.0098295,19.8950281 5.38767788,19.3604845 5.77258543,18.7759953 C6.3929847,17.8339075 6.88300673,17.0219453 7.24315591,16.3404209 L4.02173211,16.6387008 L2.58757938,16.8074247 C2.28325917,16.8432271 1.99516651,16.8900055 1.72325447,16.9475333 L0.570261559,11.6509722 C0.896187289,11.4678898 1.20121366,11.251365 1.48531395,11.0013568 C1.85665798,10.674574 2.3293273,10.0849323 2.89398454,9.22361491 C3.0949786,8.93533133 3.38099526,8.47141486 3.75093254,7.8311388 C4.11885829,7.19434422 4.51516207,6.45853332 4.93969257,5.62362334 C5.36146046,4.79414649 5.79729522,3.9084378 6.24718101,2.96648944 C6.61998989,2.18592085 6.95452484,1.41966695 7.25086524,0.667761329 Z" id="形状"></path>
                        <path d="M79.3,2.474 L79.3,8.446 L51.37,8.446 L51.37,17.43 C51.37,20.1875795 51.2936123,22.583064 51.1404131,24.6164352 C50.9878391,26.6415079 50.7592143,28.4932362 50.454065,30.1715573 C50.1500554,31.8436104 49.7633141,33.4189824 49.2934787,34.897582 C48.8679069,36.2368814 48.3746668,37.6268772 47.8138472,39.0676008 L41.8551347,36.4879143 C42.4757034,35.0086835 43.0093512,33.6626508 43.4561716,32.4498527 C43.953828,31.0990709 44.3590457,29.7269565 44.6718581,28.3335192 C44.9840848,26.9426912 45.2184486,25.459642 45.3745628,23.884308 C45.5299377,22.3164343 45.608,20.4590125 45.608,18.312 L45.608,2.474 L79.3,2.474 Z M65.178001,10.412 L65.094001,14.654 L77.2253449,14.654 C77.1749846,16.1912552 77.1246244,17.7341714 77.0742642,19.2827484 C77.0182751,21.0044123 76.9622861,22.6770858 76.906297,24.3007689 C76.8503211,25.924071 76.7943453,27.4634092 76.7383694,28.9187834 C76.6822687,30.377402 76.640199,31.6817439 76.612287,32.8270606 C76.5611695,34.3350289 76.0441462,35.5661854 75.0458698,36.5132682 C74.0144739,37.491772 72.2835936,38.0571623 69.8847321,38.2680534 L67.0466271,38.5260629 L65.1375768,32.7268723 L66.4246696,32.5838002 C67.0782932,32.498545 67.6395402,32.41319 68.1084427,32.327935 C68.6539596,32.2287501 69.0971614,32.0493365 69.4436191,31.8018667 C69.8113572,31.5391967 70.0972285,31.1664738 70.2903757,30.6748262 C70.4603664,30.2421228 70.5665865,29.6713748 70.5977535,28.9536991 L70.8659534,20.416 L64.8037535,20.416 C64.639568,22.7398966 64.3729655,24.7542383 64.0024118,26.4587852 C63.6609643,28.0294438 63.1628311,29.4978165 62.5072385,30.8636345 C61.8505192,32.2317995 60.9948399,33.5790545 59.9413868,34.9061318 C58.9425667,36.1643856 57.7193795,37.5496685 56.2722332,39.0623331 L51.0507122,35.0374107 C52.3804752,33.8126 53.4914606,32.7026338 54.3841211,31.7079549 C55.3899641,30.5871584 56.2009243,29.4873215 56.8187652,28.4096921 C57.4435156,27.3200111 57.908262,26.1794132 58.2133684,24.9880456 C58.5488479,23.6780779 58.7694616,22.1542033 58.8727959,20.416 L54.008,20.416 L54.008,14.654 L59.038197,14.654 L59.122197,10.412 L65.178001,10.412 Z" id="形状"></path>
                    </g>
                    <text id="04" font-family="STSongti-SC-Regular, Songti SC" font-size="14" font-weight="normal">
                        <tspan x="0" y="15">04</tspan>
                    </text>
                    <polygon id="矩形" points="0 25 189 25 189 26 0 26"></polygon>
                </g>
            </g>
        </g>
    </g>
</svg>