<?xml version="1.0" encoding="UTF-8"?>
<svg width="173px" height="36px" viewBox="0 0 173 36" version="1.1" xmlns="http://www.w3.org/2000/svg" xmlns:xlink="http://www.w3.org/1999/xlink">
    <title>编组 22备份</title>
    <defs>
        <path d="M25.7205445,4.14336123e-16 C29.2866194,-2.4074122e-16 30.5797644,0.371302445 31.8834681,1.06853082 C33.1871718,1.76575919 34.2103261,2.78891348 34.9075544,4.09261719 C35.6047828,5.39632089 35.9760853,6.68946584 35.9760853,10.2555408 L35.9760853,25.7439271 C35.9760853,29.3100021 35.6047828,30.603147 34.9075544,31.9068507 C34.2103261,33.2105544 33.1871718,34.2337087 31.8834681,34.9309371 C30.5797644,35.6281655 29.2866194,35.9994679 25.7205445,35.9994679 L17.9646363,35.9986815 C18.3253804,32.8890271 18.9189344,29.8897038 19.7493028,26.9996009 C21.1653897,21.9917487 23.1703266,17.7023506 25.7397958,14.1087962 L27.9813996,10.9998374 L6.99534991,10.9998374 L6.99534991,14.9429071 L20.4449729,14.9429071 L20.4063246,15.0566495 C18.5234082,18.2814923 17.018006,21.9056566 15.8844686,25.9380052 C14.9533616,29.1711862 14.3015899,32.5253627 13.9225834,35.9990734 L10.2555408,35.9994679 C6.68946584,35.9994679 5.39632089,35.6281655 4.09261719,34.9309371 C2.78891348,34.2337087 1.76575919,33.2105544 1.06853082,31.9068507 C0.371302445,30.603147 1.60494146e-16,29.3100021 -2.76224082e-16,25.7439271 L2.76224082e-16,10.2555408 C-1.60494146e-16,6.68946584 0.371302445,5.39632089 1.06853082,4.09261719 C1.76575919,2.78891348 2.78891348,1.76575919 4.09261719,1.06853082 C5.39632089,0.371302445 6.68946584,2.4074122e-16 10.2555408,-4.14336123e-16 L25.7205445,4.14336123e-16 Z" id="path-1"></path>
        <filter x="0.0%" y="0.0%" width="100.0%" height="100.0%" filterUnits="objectBoundingBox" id="filter-3">
            <feGaussianBlur stdDeviation="18" in="SourceGraphic"></feGaussianBlur>
        </filter>
        <filter x="0.0%" y="0.0%" width="100.0%" height="100.0%" filterUnits="objectBoundingBox" id="filter-4">
            <feGaussianBlur stdDeviation="8" in="SourceGraphic"></feGaussianBlur>
        </filter>
        <filter x="0.0%" y="0.0%" width="100.0%" height="100.0%" filterUnits="objectBoundingBox" id="filter-5">
            <feGaussianBlur stdDeviation="14" in="SourceGraphic"></feGaussianBlur>
        </filter>
        <filter x="0.0%" y="0.0%" width="100.0%" height="100.0%" filterUnits="objectBoundingBox" id="filter-6">
            <feGaussianBlur stdDeviation="8" in="SourceGraphic"></feGaussianBlur>
        </filter>
    </defs>
    <g id="页面-2" stroke="none" stroke-width="1" fill="none" fill-rule="evenodd">
        <g id="HY&amp;DW备份" transform="translate(-360.000000, -24.000000)">
            <g id="编组-22备份" transform="translate(360.000000, 24.000000)">
                <g id="形状结合-2">
                    <mask id="mask-2" fill="white">
                        <use xlink:href="#path-1"></use>
                    </mask>
                    <use id="蒙版" fill="#FFFFFF" xlink:href="#path-1"></use>
                    <ellipse id="椭圆形" fill="#2900FF" opacity="0" filter="url(#filter-3)" mask="url(#mask-2)" cx="36.4757531" cy="43.4993571" rx="22.4850533" ry="22.4996674"></ellipse>
                    <ellipse id="椭圆形备份-3" fill="#00FFAA" opacity="0" filter="url(#filter-4)" mask="url(#mask-2)" cx="45.4697744" cy="4.49993349" rx="22.4850533" ry="22.4996674"></ellipse>
                    <ellipse id="椭圆形备份" fill="#00E8FF" opacity="0" filter="url(#filter-5)" mask="url(#mask-2)" cx="11.4923606" cy="4.49993349" rx="22.4850533" ry="22.4996674"></ellipse>
                    <ellipse id="椭圆形备份-2" fill="#00FFFC" opacity="0" filter="url(#filter-6)" mask="url(#mask-2)" cx="-9.49368917" cy="46.4993127" rx="22.4850533" ry="22.4996674"></ellipse>
                </g>
                <g id="编组-11" transform="translate(46.251755, 3.374950)">
                    <g id="SevenDS" transform="translate(0.000000, 7.784885)" fill="#FFFFFF" fill-rule="nonzero">
                        <path d="M4.54198076,16.0647626 C3.6275886,16.0647626 2.76191405,16.0047634 1.94495711,15.8847652 C1.12800017,15.764767 0.479681137,15.6372689 0,15.5022709 L0,12.5098151 C0.239840568,12.5998138 0.532146261,12.6823125 0.876917078,12.7573114 C1.2216879,12.8323103 1.58894377,12.8960594 1.97868469,12.9485586 C2.36842561,13.0010578 2.76940906,13.0460572 3.18163504,13.0835566 C3.59386102,13.1210561 4.00233949,13.1398058 4.40707044,13.1398058 C4.91673165,13.1398058 5.34769517,13.1098062 5.69996101,13.0498071 C6.05222684,12.989808 6.33703752,12.8848096 6.55439303,12.7348118 C6.77174855,12.584814 6.92539641,12.3898169 7.01533663,12.1498204 C7.10527684,11.909824 7.15024695,11.6173283 7.15024695,11.2723334 C7.15024695,10.9723378 7.11277186,10.7173416 7.03782168,10.5073447 C6.9628715,10.2973478 6.82421367,10.1098506 6.62184819,9.94485301 C6.41948271,9.77985545 6.13467204,9.62985766 5.76741617,9.49485966 C5.4001603,9.35986166 4.91673165,9.21736376 4.31713023,9.06736598 C3.47768824,8.87236886 2.7843991,8.65862202 2.2372628,8.42612546 C1.69012651,8.19362889 1.25166797,7.90863311 0.921887185,7.57113809 C0.592106403,7.23364308 0.359760853,6.82489912 0.224850533,6.34490622 C0.0899402132,5.86491331 0.0224850533,5.27242207 0.0224850533,4.56743249 C0.0224850533,2.91745688 0.520903735,1.74372423 1.5177411,1.04623454 C2.51457846,0.348744845 3.91989429,0 5.73368859,0 C6.61810068,0 7.40133004,0.0562491686 8.08337666,0.168747506 C8.76542327,0.281245843 9.31630708,0.412493903 9.73602807,0.562491686 L9.73602807,3.37495012 C9.54115761,3.314951 9.29382203,3.25120195 8.99402132,3.18370294 C8.6942206,3.11620394 8.36443982,3.05245488 8.00467897,2.99245577 C7.64491812,2.93245666 7.28140976,2.88745732 6.91415389,2.85745777 C6.54689802,2.82745821 6.19837969,2.81245843 5.86859891,2.81245843 C4.98418681,2.81245843 4.34336279,2.92495677 3.94612685,3.14995344 C3.54889091,3.37495012 3.35027294,3.81744358 3.35027294,4.47743382 C3.35027294,4.73243005 3.38025301,4.94992684 3.44021315,5.12992418 C3.5001733,5.30992152 3.62384109,5.47116913 3.81121653,5.61366703 C3.99859198,5.75616492 4.26841262,5.88741298 4.62067845,6.00741121 C4.97294429,6.12740943 5.43388788,6.25490755 6.00350923,6.38990555 C6.93289143,6.61490223 7.69363573,6.86614851 8.28574214,7.14364441 C8.87784854,7.42114031 9.34253964,7.75113543 9.67981544,8.13362978 C10.0170912,8.51612413 10.2456893,8.96611748 10.3656096,9.48360983 C10.4855299,10.0011022 10.54549,10.6273429 10.54549,11.3623321 C10.54549,12.8923094 10.0807989,14.0585422 9.15141669,14.8610303 C8.22203449,15.6635185 6.68555584,16.0647626 4.54198076,16.0647626 Z" id="路径"></path>
                        <path d="M23.9690668,8.79736997 C23.9690668,9.14236487 23.9578243,9.46861005 23.9353392,9.7761055 C23.9128542,10.083601 23.8866216,10.3198475 23.8566415,10.484845 L16.031843,10.9798377 C16.0918031,11.8498249 16.3841088,12.4873154 16.9087601,12.8923094 C17.4334113,13.2973035 18.2353782,13.4998005 19.3146608,13.4998005 C19.6894117,13.4998005 20.0716576,13.4735509 20.4613985,13.4210516 C20.8511394,13.3685524 21.2258903,13.3048033 21.5856512,13.2298045 C21.945412,13.1548056 22.2789403,13.0648069 22.586236,12.9598084 C22.8935318,12.85481 23.1446149,12.7498116 23.3394853,12.6448131 L23.3394853,15.2097752 C23.1596049,15.3147736 22.9160168,15.4197721 22.6087211,15.5247705 C22.3014254,15.629769 21.945412,15.7197677 21.5406811,15.7947665 C21.1359501,15.8697654 20.6899965,15.9335145 20.2028204,15.9860137 C19.7156442,16.0385129 19.2097305,16.0647626 18.6850793,16.0647626 C17.7556971,16.0647626 16.9237501,15.967264 16.1892384,15.7722669 C15.4547266,15.5772698 14.8363877,15.2397747 14.3342215,14.7597818 C13.8320553,14.2797889 13.4460619,13.6347985 13.1762412,12.8248104 C12.9064206,12.0148224 12.7715103,10.9948375 12.7715103,9.76485567 C12.7715103,8.53487385 12.9064206,7.51488893 13.1762412,6.7049009 C13.4460619,5.89491287 13.8358028,5.2499224 14.345464,4.7699295 C14.8551252,4.28993659 15.4847067,3.95244158 16.2342085,3.75744446 C16.9837103,3.56244734 17.8306473,3.46494879 18.7750195,3.46494879 C19.824322,3.46494879 20.686249,3.59619685 21.3608006,3.85869297 C22.0353522,4.12118909 22.5674985,4.48868365 22.9572394,4.96117667 C23.3469803,5.43366969 23.6130535,5.99616137 23.7554588,6.64865173 C23.8978641,7.30114208 23.9690668,8.0173815 23.9690668,8.79736997 Z M21.0010398,8.32487695 C21.0010398,7.99488183 20.9748072,7.68363643 20.9223421,7.39114075 C20.869877,7.09864508 20.7649467,6.84364885 20.6075513,6.62615206 C20.450156,6.40865528 20.2253054,6.23615783 19.9329997,6.10865971 C19.640694,5.98116159 19.2547006,5.91741254 18.7750195,5.91741254 C18.2653583,5.91741254 17.8418898,5.97366171 17.504614,6.08616004 C17.1673382,6.19865838 16.89377,6.36740589 16.6839095,6.59240256 C16.474049,6.81739923 16.3166537,7.10614497 16.2117234,7.45863976 C16.1067932,7.81113455 16.046833,8.22737839 16.031843,8.7073713 L21.0010398,8.32487695 Z" id="形状"></path>
                        <polygon id="路径" points="25.0483494 3.68994546 28.6684429 3.68994546 31.3891344 12.4423161 31.5240447 12.4423161 34.3571614 3.68994546 37.8423447 3.68994546 33.4127892 15.8397659 29.4329348 15.8397659"></polygon>
                        <path d="M49.9393034,8.79736997 C49.9393034,9.14236487 49.9280608,9.46861005 49.9055758,9.7761055 C49.8830907,10.083601 49.8568582,10.3198475 49.8268781,10.484845 L42.0020795,10.9798377 C42.0620397,11.8498249 42.3543454,12.4873154 42.8789966,12.8923094 C43.4036479,13.2973035 44.2056148,13.4998005 45.2848973,13.4998005 C45.6596482,13.4998005 46.0418941,13.4735509 46.431635,13.4210516 C46.821376,13.3685524 47.1961269,13.3048033 47.5558877,13.2298045 C47.9156486,13.1548056 48.2491768,13.0648069 48.5564726,12.9598084 C48.8637683,12.85481 49.1148514,12.7498116 49.3097219,12.6448131 L49.3097219,15.2097752 C49.1298414,15.3147736 48.8862534,15.4197721 48.5789576,15.5247705 C48.2716619,15.629769 47.9156486,15.7197677 47.5109176,15.7947665 C47.1061866,15.8697654 46.6602331,15.9335145 46.1730569,15.9860137 C45.6858808,16.0385129 45.1799671,16.0647626 44.6553158,16.0647626 C43.7259336,16.0647626 42.8939867,15.967264 42.1594749,15.7722669 C41.4249632,15.5772698 40.8066242,15.2397747 40.304458,14.7597818 C39.8022918,14.2797889 39.4162984,13.6347985 39.1464778,12.8248104 C38.8766571,12.0148224 38.7417468,10.9948375 38.7417468,9.76485567 C38.7417468,8.53487385 38.8766571,7.51488893 39.1464778,6.7049009 C39.4162984,5.89491287 39.8060393,5.2499224 40.3157005,4.7699295 C40.8253618,4.28993659 41.4549432,3.95244158 42.204445,3.75744446 C42.9539468,3.56244734 43.8008838,3.46494879 44.745256,3.46494879 C45.7945585,3.46494879 46.6564856,3.59619685 47.3310372,3.85869297 C48.0055888,4.12118909 48.537735,4.48868365 48.927476,4.96117667 C49.3172169,5.43366969 49.58329,5.99616137 49.7256953,6.64865173 C49.8681007,7.30114208 49.9393034,8.0173815 49.9393034,8.79736997 Z M46.9712763,8.32487695 C46.9712763,7.99488183 46.9450438,7.68363643 46.8925786,7.39114075 C46.8401135,7.09864508 46.7351833,6.84364885 46.5777879,6.62615206 C46.4203925,6.40865528 46.195542,6.23615783 45.9032363,6.10865971 C45.6109306,5.98116159 45.2249372,5.91741254 44.745256,5.91741254 C44.2355948,5.91741254 43.8121263,5.97366171 43.4748505,6.08616004 C43.1375747,6.19865838 42.8640066,6.36740589 42.6541461,6.59240256 C42.4442856,6.81739923 42.2868902,7.10614497 42.18196,7.45863976 C42.0770297,7.81113455 42.0170696,8.22737839 42.0020795,8.7073713 L46.9712763,8.32487695 Z" id="形状"></path>
                        <path d="M59.6078763,3.46494879 C60.357378,3.46494879 60.990707,3.55119751 61.5078633,3.72369496 C62.0250195,3.89619241 62.440993,4.15493859 62.7557837,4.49993349 C63.0705745,4.84492839 63.295425,5.26867213 63.4303353,5.7711647 C63.5652456,6.27365727 63.6327008,6.86239857 63.6327008,7.53738859 L63.6327008,15.8397659 L60.3723681,15.8397659 L60.3723681,8.39237596 C60.3723681,7.98738194 60.342388,7.6386371 60.2824279,7.34614142 C60.2224677,7.05364574 60.121285,6.81739923 59.9788796,6.6374019 C59.8364743,6.45740456 59.6378563,6.3261565 59.3830257,6.24365772 C59.1281951,6.16115893 58.7984143,6.11990954 58.3936834,6.11990954 C57.7191318,6.11990954 57.1645005,6.23990777 56.7297894,6.47990422 C56.2950784,6.71990068 55.9877827,7.15489425 55.8079023,7.78488493 L55.8079023,15.8397659 L52.5475695,15.8397659 L52.5475695,3.68994546 L55.8079023,3.68994546 L55.8079023,5.15242384 C56.137683,4.58243227 56.6323542,4.15868853 57.2919158,3.88119263 C57.9514773,3.60369674 58.7234642,3.46494879 59.6078763,3.46494879 Z" id="路径"></path>
                        <path d="M72.2894463,0.224996674 C73.428689,0.224996674 74.466749,0.326245178 75.4036262,0.528742185 C76.3405034,0.731239192 77.1424703,1.11748348 77.8095269,1.68747506 C78.4765835,2.25746663 78.9899922,3.05245488 79.3497531,4.07243981 C79.7095139,5.09242473 79.8893943,6.41240522 79.8893943,8.03238128 C79.8893943,9.54735888 79.7095139,10.8035903 79.3497531,11.8010756 C78.9899922,12.7985608 78.4765835,13.597299 77.8095269,14.1972902 C77.1424703,14.7972813 76.3405034,15.221025 75.4036262,15.4685214 C74.466749,15.7160177 73.428689,15.8397659 72.2894463,15.8397659 L66.9380036,15.8397659 L66.9380036,0.224996674 L72.2894463,0.224996674 Z M72.1095659,12.9148091 C72.8290876,12.9148091 73.4549216,12.8398102 73.9870678,12.6898124 C74.5192141,12.5398147 74.9614202,12.2773185 75.313686,11.9023241 C75.6659518,11.5273296 75.9282774,11.024837 76.1006629,10.3948464 C76.2730483,9.76485567 76.359241,8.97736731 76.359241,8.03238128 C76.359241,7.02739613 76.2693008,6.20615827 76.0894203,5.56866769 C75.9095399,4.93117711 75.6434668,4.42868454 75.2912009,4.06118997 C74.9389351,3.6936954 74.4967291,3.44244912 73.9645828,3.30745111 C73.4324365,3.17245311 72.8140976,3.10495411 72.1095659,3.10495411 L70.3557317,3.10495411 L70.3557317,12.9148091 L72.1095659,12.9148091 Z" id="形状"></path>
                        <path d="M87.0171562,16.0647626 C86.1027641,16.0647626 85.2370895,16.0047634 84.4201326,15.8847652 C83.6031756,15.764767 82.9548566,15.6372689 82.4751755,15.5022709 L82.4751755,12.5098151 C82.715016,12.5998138 83.0073217,12.6823125 83.3520925,12.7573114 C83.6968634,12.8323103 84.0641192,12.8960594 84.4538602,12.9485586 C84.8436011,13.0010578 85.2445845,13.0460572 85.6568105,13.0835566 C86.0690365,13.1210561 86.4775149,13.1398058 86.8822459,13.1398058 C87.3919071,13.1398058 87.8228706,13.1098062 88.1751365,13.0498071 C88.5274023,12.989808 88.812213,12.8848096 89.0295685,12.7348118 C89.246924,12.584814 89.4005719,12.3898169 89.4905121,12.1498204 C89.5804523,11.909824 89.6254224,11.6173283 89.6254224,11.2723334 C89.6254224,10.9723378 89.5879473,10.7173416 89.5129971,10.5073447 C89.438047,10.2973478 89.2993891,10.1098506 89.0970237,9.94485301 C88.8946582,9.77985545 88.6098475,9.62985766 88.2425916,9.49485966 C87.8753358,9.35986166 87.3919071,9.21736376 86.7923057,9.06736598 C85.9528637,8.87236886 85.2595746,8.65862202 84.7124383,8.42612546 C84.165302,8.19362889 83.7268434,7.90863311 83.3970626,7.57113809 C83.0672819,7.23364308 82.8349363,6.82489912 82.700026,6.34490622 C82.5651157,5.86491331 82.4976605,5.27242207 82.4976605,4.56743249 C82.4976605,2.91745688 82.9960792,1.74372423 83.9929166,1.04623454 C84.9897539,0.348744845 86.3950698,0 88.208864,0 C89.0932761,0 89.8765055,0.0562491686 90.5585521,0.168747506 C91.2405987,0.281245843 91.7914825,0.412493903 92.2112035,0.562491686 L92.2112035,3.37495012 C92.0163331,3.314951 91.7689975,3.25120195 91.4691968,3.18370294 C91.1693961,3.11620394 90.8396153,3.05245488 90.4798544,2.99245577 C90.1200936,2.93245666 89.7565852,2.88745732 89.3893293,2.85745777 C89.0220735,2.82745821 88.6735552,2.81245843 88.3437744,2.81245843 C87.4593623,2.81245843 86.8185383,2.92495677 86.4213023,3.14995344 C86.0240664,3.37495012 85.8254484,3.81744358 85.8254484,4.47743382 C85.8254484,4.73243005 85.8554285,4.94992684 85.9153886,5.12992418 C85.9753488,5.30992152 86.0990165,5.47116913 86.286392,5.61366703 C86.4737674,5.75616492 86.7435881,5.88741298 87.0958539,6.00741121 C87.4481197,6.12740943 87.9090633,6.25490755 88.4786847,6.38990555 C89.4080669,6.61490223 90.1688112,6.86614851 90.7609176,7.14364441 C91.353024,7.42114031 91.8177151,7.75113543 92.1549909,8.13362978 C92.4922667,8.51612413 92.7208647,8.96611748 92.840785,9.48360983 C92.9607053,10.0011022 93.0206655,10.6273429 93.0206655,11.3623321 C93.0206655,12.8923094 92.5559744,14.0585422 91.6265921,14.8610303 C90.6972099,15.6635185 89.1607313,16.0647626 87.0171562,16.0647626 Z" id="路径"></path>
                    </g>
                    <g id="编组-8" transform="translate(97.517676, 0.000000)">
                        <path d="M6.75,0 L22.480669,0 C26.208536,-6.84798051e-16 29.2305693,3.02203327 29.2305693,6.74990023 C29.2305693,10.4777672 26.208536,13.4998005 22.480669,13.4998005 L0,13.4998005 L0,13.4998005 L0,6.75 C-4.56538782e-16,3.02207794 3.02207794,6.84808173e-16 6.75,0 Z" id="矩形" fill="#007AFF"></path>
                        <path d="M5.06813101,3.87894267 L6.4981804,3.87894267 L7.39758253,8.49587443 L7.45154666,8.49587443 L8.40491292,4.48193375 L9.98786067,4.48193375 L10.8872628,8.49587443 L10.9412269,8.49587443 L11.8586171,3.87894267 L13.2706785,3.87894267 L11.8406291,10.1248503 L10.131765,10.1248503 L9.16940473,6.16490888 L9.1154406,6.16490888 L8.13509228,10.1248503 L6.42622823,10.1248503 L5.06813101,3.87894267 Z M18.0734858,8.93686791 L18.0734858,10.1248503 L14.1341045,10.1248503 L14.1341045,3.87894267 L17.9475695,3.87894267 L17.9475695,5.06692511 L15.5011957,5.06692511 L15.5011957,6.35390609 L17.7676891,6.35390609 L17.7676891,7.49688919 L15.5011957,7.49688919 L15.5011957,8.93686791 L18.0734858,8.93686791 Z M19.1887445,3.87894267 L21.2933455,3.87894267 C21.7490425,3.87894267 22.1267914,3.91344216 22.4265921,3.98244114 C22.7263929,4.05144012 22.9647344,4.15643857 23.1416168,4.29743648 C23.3184993,4.4384344 23.4429166,4.6139318 23.5148687,4.8239287 C23.5868209,5.0339256 23.622797,5.27992196 23.622797,5.56191779 C23.622797,5.885913 23.5568408,6.15590901 23.4249285,6.37190582 C23.2930162,6.58790263 23.0561736,6.74390032 22.7144008,6.8398989 L22.7144008,6.87589837 C23.4459146,7.06189562 23.8116714,7.54488848 23.8116714,8.32487695 C23.8116714,8.60687279 23.7756953,8.86036904 23.7037432,9.08536571 C23.631791,9.31036239 23.5073737,9.49935959 23.3304913,9.65235733 C23.1536089,9.80535507 22.9152673,9.92235334 22.6154666,10.0033521 C22.3156659,10.0843509 21.937917,10.1248503 21.4822199,10.1248503 L19.1887445,10.1248503 L19.1887445,3.87894267 Z M21.0145308,6.45290462 C21.2363833,6.45290462 21.4267568,6.44240478 21.5856512,6.42140509 C21.7445455,6.4004054 21.8749588,6.36290595 21.9768911,6.30890675 C22.0788233,6.25490755 22.1537735,6.17990866 22.2017416,6.08391008 C22.2497097,5.9879115 22.2736938,5.86191336 22.2736938,5.70591566 C22.2736938,5.54391806 22.2497097,5.41491996 22.2017416,5.31892138 C22.1537735,5.2229228 22.0803223,5.14792391 21.9813881,5.09392471 C21.8824539,5.03992551 21.7520406,5.00542602 21.5901482,4.99042624 C21.4282558,4.97542646 21.2363833,4.96792657 21.0145308,4.96792657 L20.5558357,4.96792657 L20.5558357,6.45290462 L21.0145308,6.45290462 Z M21.1854172,9.02686658 C21.4252578,9.02686658 21.6246252,9.01486675 21.7835196,8.99086711 C21.942414,8.96686746 22.0698293,8.92636806 22.1657655,8.86936891 C22.2617018,8.81236975 22.3291569,8.73287092 22.368131,8.63087243 C22.4071051,8.52887394 22.4265921,8.39687589 22.4265921,8.23487828 C22.4265921,8.09088041 22.4071051,7.96788223 22.368131,7.86588374 C22.3291569,7.76388525 22.2632008,7.68138646 22.1702625,7.6183874 C22.0773243,7.55538833 21.949909,7.51038899 21.7880166,7.48338939 C21.6261243,7.45638979 21.4252578,7.44288999 21.1854172,7.44288999 L20.5558357,7.44288999 L20.5558357,9.02686658 L21.1854172,9.02686658 Z" id="形状结合" fill="#FFFFFF" fill-rule="nonzero"></path>
                    </g>
                </g>
            </g>
        </g>
    </g>
</svg>