<?xml version="1.0" encoding="UTF-8"?>
<svg width="577px" height="596px" viewBox="0 0 577 596" version="1.1" xmlns="http://www.w3.org/2000/svg" xmlns:xlink="http://www.w3.org/1999/xlink">
    <title>编组 20</title>
    <defs>
        <linearGradient x1="50%" y1="0%" x2="50%" y2="100%" id="linearGradient-1">
            <stop stop-color="#6000EA" offset="0%"></stop>
            <stop stop-color="#1D0474" offset="100%"></stop>
        </linearGradient>
        <radialGradient cx="5.76795556e-15%" cy="1.53523028e-14%" fx="5.76795556e-15%" fy="1.53523028e-14%" r="154.765333%" gradientTransform="translate(0.000000,0.000000),scale(0.528216,1.000000),rotate(16.077760),translate(-0.000000,-0.000000)" id="radialGradient-2">
            <stop stop-color="#AD00FF" stop-opacity="0.289554196" offset="0%"></stop>
            <stop stop-color="#9F00FF" stop-opacity="0" offset="100%"></stop>
        </radialGradient>
        <path d="M27.0648445,155.913246 L177.728886,212.601318 L174.812909,234.033395 C173.621612,242.78928 165.557828,248.921591 156.801942,247.730295 C156.594214,247.702032 156.387062,247.669689 156.180605,247.633285 L14.9039278,222.722395 C6.63545032,221.26444 0.900348333,213.663195 1.76795298,205.31211 L5.51605284,169.234964 C6.42917907,160.445714 14.2945094,154.060854 23.0837598,154.97398 C24.4455079,155.115454 25.7834669,155.431121 27.0648445,155.913246 Z" id="path-3"></path>
        <linearGradient x1="50%" y1="0%" x2="50%" y2="100%" id="linearGradient-4">
            <stop stop-color="#20004E" offset="0%"></stop>
            <stop stop-color="#100047" offset="100%"></stop>
        </linearGradient>
        <radialGradient cx="5.76795556e-15%" cy="1.53523028e-14%" fx="5.76795556e-15%" fy="1.53523028e-14%" r="94.4175918%" gradientTransform="translate(0.000000,0.000000),scale(1.000000,0.818182),rotate(33.698950),translate(-0.000000,-0.000000)" id="radialGradient-5">
            <stop stop-color="#AD00FF" stop-opacity="0.289554196" offset="0%"></stop>
            <stop stop-color="#9F00FF" stop-opacity="0" offset="100%"></stop>
        </radialGradient>
        <path d="M164,0 C172.836556,-1.623249e-15 180,7.163444 180,16 L180,204 C180,212.836556 172.836556,220 164,220 L16,220 C7.163444,220 4.63487968e-15,212.836556 0,204 L0,16 C-1.082166e-15,7.163444 7.163444,8.72867636e-15 16,0 L164,0 Z M160,10 C154.477153,10 150,14.4771525 150,20 C150,25.5228475 154.477153,30 160,30 C165.522847,30 170,25.5228475 170,20 C170,14.4771525 165.522847,10 160,10 Z" id="path-6"></path>
        <filter x="-153.9%" y="-153.9%" width="407.9%" height="407.9%" filterUnits="objectBoundingBox" id="filter-7">
            <feGaussianBlur stdDeviation="39" in="SourceGraphic"></feGaussianBlur>
        </filter>
        <linearGradient x1="50%" y1="0%" x2="50%" y2="100%" id="linearGradient-8">
            <stop stop-color="#002D4E" offset="0%"></stop>
            <stop stop-color="#001647" offset="100%"></stop>
        </linearGradient>
        <path d="M26.5253796,156.554575 L177.189421,213.242647 L174.273444,234.674724 C173.082147,243.430609 165.018363,249.56292 156.262477,248.371624 C156.054749,248.343361 155.847597,248.311018 155.64114,248.274614 L14.3644628,223.363724 C6.09598537,221.905769 0.360883384,214.304524 1.22848804,205.953439 L4.97658789,169.876293 C5.88971412,161.087043 13.7550444,154.702183 22.5442948,155.615309 C23.9060429,155.756783 25.2440019,156.07245 26.5253796,156.554575 Z" id="path-9"></path>
        <radialGradient cx="5.76795556e-15%" cy="1.53523028e-14%" fx="5.76795556e-15%" fy="1.53523028e-14%" r="94.4175918%" gradientTransform="translate(0.000000,0.000000),scale(1.000000,0.818182),rotate(33.698950),translate(-0.000000,-0.000000)" id="radialGradient-10">
            <stop stop-color="#95FF00" stop-opacity="0.289554196" offset="0%"></stop>
            <stop stop-color="#00FF24" stop-opacity="0" offset="100%"></stop>
        </radialGradient>
        <path d="M164,0 C172.836556,-1.623249e-15 180,7.163444 180,16 L180,204 C180,212.836556 172.836556,220 164,220 L16,220 C7.163444,220 4.63487968e-15,212.836556 0,204 L0,16 C-1.082166e-15,7.163444 7.163444,8.72867636e-15 16,0 L164,0 Z M160,10 C154.477153,10 150,14.4771525 150,20 C150,25.5228475 154.477153,30 160,30 C165.522847,30 170,25.5228475 170,20 C170,14.4771525 165.522847,10 160,10 Z" id="path-11"></path>
        <filter x="-153.9%" y="-153.9%" width="407.9%" height="407.9%" filterUnits="objectBoundingBox" id="filter-12">
            <feGaussianBlur stdDeviation="39" in="SourceGraphic"></feGaussianBlur>
        </filter>
        <linearGradient x1="50%" y1="0%" x2="50%" y2="100%" id="linearGradient-13">
            <stop stop-color="#33004E" offset="0%"></stop>
            <stop stop-color="#260133" offset="100%"></stop>
        </linearGradient>
        <path d="M30.5253796,154.554575 L181.189421,211.242647 L178.273444,232.674724 C177.082147,241.430609 169.018363,247.56292 160.262477,246.371624 C160.054749,246.343361 159.847597,246.311018 159.64114,246.274614 L18.3644628,221.363724 C10.0959854,219.905769 4.36088338,212.304524 5.22848804,203.953439 L8.97658789,167.876293 C9.88971412,159.087043 17.7550444,152.702183 26.5442948,153.615309 C27.9060429,153.756783 29.2440019,154.07245 30.5253796,154.554575 Z" id="path-14"></path>
        <radialGradient cx="5.76795556e-15%" cy="1.53523028e-14%" fx="5.76795556e-15%" fy="1.53523028e-14%" r="94.4175918%" gradientTransform="translate(0.000000,0.000000),scale(1.000000,0.818182),rotate(33.698950),translate(-0.000000,-0.000000)" id="radialGradient-15">
            <stop stop-color="#FF7700" stop-opacity="0.289554196" offset="0%"></stop>
            <stop stop-color="#FF6F00" stop-opacity="0" offset="100%"></stop>
        </radialGradient>
        <path d="M167,0 C175.836556,-1.623249e-15 183,7.163444 183,16 L183,204 C183,212.836556 175.836556,220 167,220 L19,220 C10.163444,220 3,212.836556 3,204 L3,16 C3,7.163444 10.163444,8.72867636e-15 19,0 L167,0 Z M163,10 C157.477153,10 153,14.4771525 153,20 C153,25.5228475 157.477153,30 163,30 C168.522847,30 173,25.5228475 173,20 C173,14.4771525 168.522847,10 163,10 Z" id="path-16"></path>
        <filter x="-153.9%" y="-153.9%" width="407.9%" height="407.9%" filterUnits="objectBoundingBox" id="filter-17">
            <feGaussianBlur stdDeviation="39" in="SourceGraphic"></feGaussianBlur>
        </filter>
        <linearGradient x1="100%" y1="50%" x2="0%" y2="50%" id="linearGradient-18">
            <stop stop-color="#FFFFFF" stop-opacity="0.356752622" offset="0%"></stop>
            <stop stop-color="#FFFFFF" stop-opacity="0" offset="100%"></stop>
        </linearGradient>
        <linearGradient x1="100%" y1="50%" x2="0%" y2="50%" id="linearGradient-19">
            <stop stop-color="#FFFFFF" stop-opacity="0" offset="0%"></stop>
            <stop stop-color="#FFFFFF" stop-opacity="0.356752622" offset="100%"></stop>
        </linearGradient>
    </defs>
    <g id="页面-2" stroke="none" stroke-width="1" fill="none" fill-rule="evenodd">
        <g id="HY&amp;DW备份" transform="translate(-278.000000, -2386.000000)">
            <g id="编组-19备份" transform="translate(0.000000, 2305.000000)">
                <g id="编组-20" transform="translate(357.000000, 95.000000)">
                    <g id="编组-27" transform="translate(3.000000, 0.000000)">
                        <g id="路径" opacity="0.484142485">
                            <use fill="url(#linearGradient-1)" xlink:href="#path-3"></use>
                            <use fill="url(#radialGradient-2)" xlink:href="#path-3"></use>
                        </g>
                        <g id="形状结合备份-4">
                            <use fill="url(#linearGradient-4)" xlink:href="#path-6"></use>
                            <path stroke-opacity="0.226781031" stroke="#FFFFFF" stroke-width="1" d="M164,-0.5 C168.556349,-0.5 172.681349,1.34682541 175.667262,4.33273811 C178.653175,7.31865081 180.5,11.4436508 180.5,16 L180.5,204 C180.5,208.556349 178.653175,212.681349 175.667262,215.667262 C172.681349,218.653175 168.556349,220.5 164,220.5 L16,220.5 C11.4436508,220.5 7.31865081,218.653175 4.33273811,215.667262 C1.34682541,212.681349 -0.5,208.556349 -0.5,204 L-0.5,16 C-0.5,11.4436508 1.34682541,7.31865081 4.33273811,4.33273811 C7.31865081,1.34682541 11.4436508,-0.5 16,-0.5 L164,-0.5 Z M160,10.5 C157.376647,10.5 155.001647,11.5633237 153.282486,13.2824856 C151.563324,15.0016474 150.5,17.3766474 150.5,20 C150.5,22.6233526 151.563324,24.9983526 153.282486,26.7175144 C155.001647,28.4366763 157.376647,29.5 160,29.5 C162.623353,29.5 164.998353,28.4366763 166.717514,26.7175144 C168.436676,24.9983526 169.5,22.6233526 169.5,20 C169.5,17.3766474 168.436676,15.0016474 166.717514,13.2824856 C164.998353,11.5633237 162.623353,10.5 160,10.5 Z" fill="url(#radialGradient-5)"></path>
                        </g>
                        <circle id="椭圆形备份-4" fill="#00861B" filter="url(#filter-7)" cx="82" cy="141" r="38"></circle>
                        <g id="profile-2user.5" transform="translate(19.539465, 100.000000)" fill="#FFFFFF" fill-rule="nonzero">
                            <path d="M8.42994216,0 C5.29224359,0 2.74136652,2.55601278 2.74136652,5.7000285 C2.74136652,8.78404392 5.14853221,11.2800564 8.28623077,11.3880569 C8.38203836,11.3760569 8.47784595,11.3760569 8.54970164,11.3880569 C8.57365354,11.3880569 8.58562949,11.3880569 8.60958139,11.3880569 C8.62155734,11.3880569 8.62155734,11.3880569 8.63353328,11.3880569 C11.6993762,11.2800564 14.1065418,8.78404392 14.1185178,5.7000285 C14.1185178,2.55601278 11.5676407,0 8.42994216,0 Z" id="路径" opacity="0.4"></path>
                            <path d="M14.5148019,14.5799529 C11.1735122,12.3479417 5.72450349,12.3479417 2.3592619,14.5799529 C0.83831641,15.599958 0,16.9799649 0,18.4559723 C0,19.9319797 0.83831641,21.2999865 2.34728595,22.3079915 C4.02391877,23.4359972 6.22749333,24 8.4310679,24 C10.6345946,24 12.8381691,23.4359972 14.5148019,22.3079915 C16.0237715,21.2879864 16.8620879,19.9199796 16.8620879,18.4319722 C16.8501119,16.9559648 16.0237715,15.5879579 14.5148019,14.5799529 Z" id="路径"></path>
                            <path d="M21.5930667,6.40815204 C21.7846818,8.73616368 20.1320009,10.7761739 17.8445947,11.0521753 C17.8326188,11.0521753 17.8326188,11.0521753 17.8206428,11.0521753 L17.784715,11.0521753 C17.7128593,11.0521753 17.6410036,11.0521753 17.5811238,11.0761754 C16.4194568,11.1361757 15.3535974,10.7641738 14.5512088,10.0801704 C15.7847315,8.97616488 16.4913125,7.3201566 16.3476011,5.5201476 C16.2637695,4.54814274 15.9284429,3.6601383 15.4254531,2.90413452 C15.8805391,2.67613338 16.4074809,2.53213266 16.9463986,2.48413242 C19.2936845,2.2801314 21.3894755,4.03214016 21.5930667,6.40815204 Z" id="路径" opacity="0.4"></path>
                            <path d="M23.9869391,17.5079675 C23.8911315,18.6719734 23.1486226,19.6799784 21.903124,20.3639818 C20.7055291,21.0239851 19.1965596,21.3359867 17.699566,21.2999865 C18.5618343,20.5199826 19.0648241,19.5479777 19.1606317,18.5159726 C19.2803912,17.0279651 18.5738102,15.599958 17.1606483,14.4599523 C16.3582597,13.8239491 15.4241357,13.3199466 14.4061801,12.9479447 C17.0528648,12.1799409 20.3821785,12.6959435 22.4300657,14.3519518 C23.531853,15.2399562 24.0947226,16.3559618 23.9869391,17.5079675 Z" id="路径"></path>
                        </g>
                    </g>
                    <text id="前期-思路" font-family="PingFangSC-Semibold, PingFang SC" font-size="23" font-weight="500" letter-spacing="5.4" fill="#FFFFFF">
                        <tspan x="23" y="48">前期</tspan>
                        <tspan x="23" y="80">思路</tspan>
                    </text>
                    <g id="编组-28" transform="translate(253.000000, 169.000000)">
                        <g id="路径" opacity="0.484142485">
                            <use fill="url(#linearGradient-8)" xlink:href="#path-9"></use>
                            <use fill="url(#radialGradient-2)" xlink:href="#path-9"></use>
                        </g>
                        <g id="形状结合">
                            <use fill="url(#linearGradient-4)" xlink:href="#path-11"></use>
                            <path stroke-opacity="0.226781031" stroke="#FFFFFF" stroke-width="1" d="M164,-0.5 C168.556349,-0.5 172.681349,1.34682541 175.667262,4.33273811 C178.653175,7.31865081 180.5,11.4436508 180.5,16 L180.5,204 C180.5,208.556349 178.653175,212.681349 175.667262,215.667262 C172.681349,218.653175 168.556349,220.5 164,220.5 L16,220.5 C11.4436508,220.5 7.31865081,218.653175 4.33273811,215.667262 C1.34682541,212.681349 -0.5,208.556349 -0.5,204 L-0.5,16 C-0.5,11.4436508 1.34682541,7.31865081 4.33273811,4.33273811 C7.31865081,1.34682541 11.4436508,-0.5 16,-0.5 L164,-0.5 Z M160,10.5 C157.376647,10.5 155.001647,11.5633237 153.282486,13.2824856 C151.563324,15.0016474 150.5,17.3766474 150.5,20 C150.5,22.6233526 151.563324,24.9983526 153.282486,26.7175144 C155.001647,28.4366763 157.376647,29.5 160,29.5 C162.623353,29.5 164.998353,28.4366763 166.717514,26.7175144 C168.436676,24.9983526 169.5,22.6233526 169.5,20 C169.5,17.3766474 168.436676,15.0016474 166.717514,13.2824856 C164.998353,11.5633237 162.623353,10.5 160,10.5 Z" fill="url(#radialGradient-10)"></path>
                        </g>
                        <g id="task.5" transform="translate(19.539465, 100.000000)" fill="#FFFFFF" fill-rule="nonzero">
                            <path d="M23.8378494,22.4591393 L10.9833297,22.4591393 C10.3455641,22.4591393 9.82117903,21.9261191 9.82117903,21.2778512 C9.82117903,20.6295833 10.3455641,20.0965631 10.9833297,20.0965631 L23.8378494,20.0965631 C24.475615,20.0965631 25,20.6295833 25,21.2778512 C25,21.940525 24.475615,22.4591393 23.8378494,22.4591393 Z" id="路径"></path>
                            <path d="M23.8378494,13.3977952 L10.9833297,13.3977952 C10.3455641,13.3977952 9.82117903,12.8647749 9.82117903,12.2165071 C9.82117903,11.5682392 10.3455641,11.035219 10.9833297,11.035219 L23.8378494,11.035219 C24.475615,11.035219 25,11.5682392 25,12.2165071 C25,12.8647749 24.475615,13.3977952 23.8378494,13.3977952 Z" id="路径"></path>
                            <path d="M23.8378494,4.32159848 L10.9833297,4.32159848 C10.3455641,4.32159848 9.82117903,3.78856383 9.82117903,3.14029597 C9.82117903,2.49202811 10.3455641,1.95902227 10.9833297,1.95902227 L23.8378494,1.95902227 C24.475615,1.95902227 25,2.49202811 25,3.14029597 C25,3.78856383 24.475615,4.32159848 23.8378494,4.32159848 Z" id="路径"></path>
                            <path d="M2.45185437,6.28099531 C2.14005786,6.28099531 1.84243392,6.15134173 1.62984539,5.93525245 L0.340141646,4.62431077 C-0.113380549,4.16332028 -0.113380549,3.41421075 0.340141646,2.95322027 C0.793663841,2.49222979 1.53063741,2.49222979 1.9841596,2.95322027 L2.45185437,3.4286167 L5.48478405,0.345742861 C5.93830624,-0.11524762 6.67527981,-0.11524762 7.128802,0.345742861 C7.5823242,0.806733342 7.5823242,1.55584287 7.128802,2.01683336 L3.27386335,5.93525245 C3.04710225,6.15134173 2.76365088,6.28099531 2.45185437,6.28099531 Z" id="路径" opacity="0.4"></path>
                            <path d="M2.45185437,15.3564285 C2.15423043,15.3564285 1.85660649,15.2411809 1.62984539,15.0106856 L0.340141646,13.6997439 C-0.113380549,13.2387535 -0.113380549,12.4896439 0.340141646,12.0286534 C0.793663841,11.567663 1.53063741,11.567663 1.9841596,12.0286534 L2.45185437,12.5040499 L5.48478405,9.42117603 C5.93830624,8.96022877 6.67527981,8.96022877 7.128802,9.42117603 C7.5823242,9.88216651 7.5823242,10.631276 7.128802,11.0922665 L3.27386335,15.0106856 C3.04710225,15.2411809 2.74947831,15.3564285 2.45185437,15.3564285 Z" id="路径" opacity="0.4"></path>
                            <path d="M2.45185437,24 C2.15423043,24 1.85660649,23.8847524 1.62984539,23.6542571 L0.340141646,22.3433155 C-0.113380549,21.882325 -0.113380549,21.1332154 0.340141646,20.672225 C0.793663841,20.2112345 1.53063741,20.2112345 1.9841596,20.672225 L2.45185437,21.1476214 L5.48478405,18.0647476 C5.93830624,17.6037571 6.67527981,17.6037571 7.128802,18.0647476 C7.5823242,18.525738 7.5823242,19.2748476 7.128802,19.735838 L3.27386335,23.6542571 C3.04710225,23.8847524 2.74947831,24 2.45185437,24 Z" id="路径" opacity="0.4"></path>
                        </g>
                        <circle id="椭圆形备份-4" fill="#005E86" filter="url(#filter-12)" cx="90" cy="192" r="38"></circle>
                    </g>
                    <text id="协同-统一" font-family="PingFangSC-Semibold, PingFang SC" font-size="23" font-weight="500" letter-spacing="5.4" fill="#FFFFFF">
                        <tspan x="273" y="217">协同</tspan>
                        <tspan x="273" y="249">统一</tspan>
                    </text>
                    <g id="编组-29" transform="translate(0.000000, 290.000000)">
                        <g id="路径" opacity="0.484142485">
                            <use fill="url(#linearGradient-13)" xlink:href="#path-14"></use>
                            <use fill="url(#radialGradient-2)" xlink:href="#path-14"></use>
                        </g>
                        <g id="形状结合">
                            <use fill="url(#linearGradient-4)" xlink:href="#path-16"></use>
                            <path stroke-opacity="0.226781031" stroke="#FFFFFF" stroke-width="1" d="M167,-0.5 C171.556349,-0.5 175.681349,1.34682541 178.667262,4.33273811 C181.653175,7.31865081 183.5,11.4436508 183.5,16 L183.5,204 C183.5,208.556349 181.653175,212.681349 178.667262,215.667262 C175.681349,218.653175 171.556349,220.5 167,220.5 L19,220.5 C14.4436508,220.5 10.3186508,218.653175 7.33273811,215.667262 C4.34682541,212.681349 2.5,208.556349 2.5,204 L2.5,16 C2.5,11.4436508 4.34682541,7.31865081 7.33273811,4.33273811 C10.3186508,1.34682541 14.4436508,-0.5 19,-0.5 L167,-0.5 Z M163,10.5 C160.376647,10.5 158.001647,11.5633237 156.282486,13.2824856 C154.563324,15.0016474 153.5,17.3766474 153.5,20 C153.5,22.6233526 154.563324,24.9983526 156.282486,26.7175144 C158.001647,28.4366763 160.376647,29.5 163,29.5 C165.623353,29.5 167.998353,28.4366763 169.717514,26.7175144 C171.436676,24.9983526 172.5,22.6233526 172.5,20 C172.5,17.3766474 171.436676,15.0016474 169.717514,13.2824856 C167.998353,11.5633237 165.623353,10.5 163,10.5 Z" fill="url(#radialGradient-15)"></path>
                        </g>
                        <circle id="椭圆形备份-4" fill="#86007A" filter="url(#filter-17)" cx="76" cy="137" r="38"></circle>
                        <g id="flash-1" transform="translate(22.539465, 100.000000)" fill="#FFFFFF" fill-rule="nonzero">
                            <path d="M10.7412025,13.5943287 L14.6140285,13.5943287 L14.6140285,22.5623226 C14.6140285,23.8826106 16.268461,24.505388 17.1458115,23.5089442 L26.6337313,12.7971737 C27.4609475,11.8630077 26.7966678,10.4057087 25.5433099,10.4057087 L21.6704338,10.4057087 L21.6704338,1.43767737 C21.6704338,0.117389378 20.0160013,-0.505387977 19.1386507,0.491055792 L9.65078108,11.2028637 C8.83609841,12.1370297 9.50037812,13.5943287 10.7412025,13.5943287 Z" id="路径"></path>
                            <path d="M9.71352418,2.96974703 L0.940018469,2.96974703 C0.426141706,2.96974703 0,2.54625843 0,2.035581 C0,1.52490357 0.426141706,1.10141497 0.940018469,1.10141497 L9.71352418,1.10141497 C10.2274009,1.10141497 10.6535426,1.52490357 10.6535426,2.035581 C10.6535426,2.54625843 10.2274009,2.96974703 9.71352418,2.96974703 Z" id="路径" opacity="0.4"></path>
                            <path d="M8.46016622,22.8986224 L0.940018469,22.8986224 C0.426141706,22.8986224 0,22.4751338 0,21.9644564 C0,21.4537789 0.426141706,21.0302903 0.940018469,21.0302903 L8.46016622,21.0302903 C8.97404298,21.0302903 9.40018469,21.4537789 9.40018469,21.9644564 C9.40018469,22.4751338 8.97404298,22.8986224 8.46016622,22.8986224 Z" id="路径" opacity="0.4"></path>
                            <path d="M4.70009234,12.9341847 L0.940018469,12.9341847 C0.426141706,12.9341847 0,12.5106961 0,12.0000187 C0,11.4893413 0.426141706,11.0658527 0.940018469,11.0658527 L4.70009234,11.0658527 C5.21396911,11.0658527 5.64011081,11.4893413 5.64011081,12.0000187 C5.64011081,12.5106961 5.21396911,12.9341847 4.70009234,12.9341847 Z" id="路径" opacity="0.4"></path>
                        </g>
                    </g>
                    <text id="快速-搭建" font-family="PingFangSC-Semibold, PingFang SC" font-size="23" font-weight="500" letter-spacing="5.4" fill="#FFFFFF">
                        <tspan x="23" y="338">快速</tspan>
                        <tspan x="23" y="370">搭建</tspan>
                    </text>
                    <path id="路径-4" d="M343,138 L350,124 L336,124 L343,138 Z M344,110.260398 L344,118.260398 L342,118.260398 L342,110.260398 L344,110.260398 Z M341.27434,94.2704786 C342.256139,96.8200515 342.981193,99.4679639 343.435569,102.182248 L341.463017,102.512457 C341.030924,99.9312817 340.341505,97.4135095 339.407942,94.9891983 Z M332.445535,80.4699633 C334.351901,82.4371238 336.058377,84.5901041 337.536938,86.8956063 L335.853404,87.9752879 C334.446774,85.7819467 332.823167,83.7335186 331.009303,81.8618092 Z M318.993485,71.2368468 C321.517292,72.3070341 323.925273,73.6285543 326.183024,75.1790556 L325.05081,76.8277195 C322.903177,75.3528412 320.612896,74.0959155 318.212706,73.0781465 Z M303.002072,68.0000001 C305.765287,68.0001368 308.493903,68.273768 311.159919,68.8122322 L310.763967,70.772646 C308.228077,70.2604638 305.632064,70.0001302 303.001973,70 Z M215,68 L215,70 L207,70 L207,68 L215,68 Z M231,68 L231,70 L223,70 L223,68 L231,68 Z M247,68 L247,70 L239,70 L239,68 L247,68 Z M263,68 L263,70 L255,70 L255,68 L263,68 Z M279,68 L279,70 L271,70 L271,68 L279,68 Z M295,68 L295,70 L287,70 L287,68 L295,68 Z" fill="url(#linearGradient-18)" fill-rule="nonzero"></path>
                    <path id="路径-4备份" d="M344,457.260398 L344,465.260398 L342,465.260398 L342,457.260398 L344,457.260398 Z M343.961547,441.208534 C343.987024,441.800871 343.999864,442.394946 343.999999,442.990721 L344,449.260398 L342,449.260398 L341.999999,442.990948 C341.99987,442.423909 341.987646,441.858336 341.963394,441.294476 L343.961547,441.208534 Z M340.064582,425.450472 C341.236797,427.921917 342.159265,430.508346 342.815413,433.176552 L340.873275,433.65415 C340.249367,431.11705 339.372234,428.65773 338.25754,426.307558 L340.064582,425.450472 Z M330.217508,412.336617 C332.265356,414.155628 334.127994,416.175169 335.775274,418.363223 L334.177464,419.566138 C332.610152,417.484305 330.837841,415.562698 328.88931,413.831907 L330.217508,412.336617 Z M221,396 L220.999,402 L228,402 L228,404 L220.999,404 L221,410 L207,403 L221,396 Z M316.106898,404.139986 C318.707216,405.016716 321.208007,406.152875 323.575165,407.528847 L322.570079,409.257951 C320.318736,407.9493 317.940563,406.868849 315.467915,406.035165 L316.106898,404.139986 Z M303,402 C304.719862,402 306.426847,402.105949 308.11439,402.315989 L307.867366,404.300675 C306.26172,404.100829 304.637234,404 303,404 L300,404 L300,402 L303,402 Z M244,402 L244,404 L236,404 L236,402 L244,402 Z M260,402 L260,404 L252,404 L252,402 L260,402 Z M276,402 L276,404 L268,404 L268,402 L276,402 Z M292,402 L292,404 L284,404 L284,402 L292,402 Z" transform="translate(275.000000, 437.500000) scale(1, -1) translate(-275.000000, -437.500000) " fill="url(#linearGradient-19)" fill-rule="nonzero"></path>
                </g>
            </g>
        </g>
    </g>
</svg>