<?xml version="1.0" encoding="UTF-8"?>
<svg width="108px" height="20px" viewBox="0 0 108 20" version="1.1" xmlns="http://www.w3.org/2000/svg" xmlns:xlink="http://www.w3.org/1999/xlink">
    <title>编组 4备份 4</title>
    <g id="宣传页面" stroke="none" stroke-width="1" fill="none" fill-rule="evenodd">
        <g id="Apple-TV" transform="translate(-84.000000, -692.000000)">
            <g id="编组-4备份-4" transform="translate(84.000000, 692.000000)">
                <g id="控件选中" fill-rule="nonzero">
                    <path d="M20,2.85714286 L20,17.1428571 C20,18.7208136 18.7208136,20 17.1428571,20 L2.85714286,20 C1.27918643,20 -2.50845281e-16,18.7208136 0,17.1428571 L0,2.85714286 C-6.37333139e-16,1.27918643 1.27918643,-1.54223317e-16 2.85714286,0 L17.1428571,0 C18.7208136,-7.33955103e-16 20,1.27918643 20,2.85714286 Z" id="路径" fill="#FFFFFF"></path>
                    <path d="M13.390725,6.48251093 L9.20267035,10.5699681 C8.64606864,11.1132002 7.75717028,11.111353 7.20283114,10.5658123 L6.02465938,9.40634038 C5.59814872,8.98659926 4.91212611,8.99208705 4.49238499,9.41859771 C4.48853722,9.42250753 4.4847192,9.42644652 4.48093126,9.43041433 C4.06014823,9.87117813 4.07277446,10.5685806 4.50923627,10.9938243 L6.72039484,13.1481507 C7.55303815,13.959393 8.88065411,13.9587844 9.71255336,13.1467791 L14.9271953,8.05683945 C15.361902,7.63252826 15.3703529,6.93616426 14.9460714,6.50142857 C14.5218043,6.06670761 13.8254568,6.05823312 13.3907359,6.48250026 C13.3907322,6.48250382 13.3907286,6.48250737 13.390725,6.48251093 Z" id="路径" fill="#0F164E"></path>
                </g>
                <text id="动画格式" font-family="HYYakuHei-EEW, HYYakuHei" font-size="17" font-weight="normal" letter-spacing="1" fill="#FFFFFF">
                    <tspan x="36" y="17">动画格式</tspan>
                </text>
            </g>
        </g>
    </g>
</svg>