<?xml version="1.0" encoding="UTF-8"?>
<svg width="169px" height="64px" viewBox="0 0 169 64" version="1.1" xmlns="http://www.w3.org/2000/svg" xmlns:xlink="http://www.w3.org/1999/xlink">
    <title>雨雀知识库</title>
    <defs>
        <radialGradient cx="60.2120167%" cy="64.1956269%" fx="60.2120167%" fy="64.1956269%" r="51.0745635%" gradientTransform="translate(0.602120,0.641956),scale(0.843750,1.000000),rotate(-68.212226),translate(-0.602120,-0.641956)" id="radialGradient-1">
            <stop stop-color="#57CB86" offset="0%"></stop>
            <stop stop-color="#FFFFFF" stop-opacity="0.8" offset="100%"></stop>
        </radialGradient>
    </defs>
    <g id="everweb" stroke="none" stroke-width="1" fill="none" fill-rule="evenodd">
        <g id="关于我备份" transform="translate(-986.000000, -5874.000000)">
            <g id="雨雀知识库" transform="translate(986.000000, 5874.000000)">
                <rect id="矩形" stroke-opacity="0.0441706731" stroke="#000000" fill="#FFFFFF" x="0.5" y="0.5" width="168" height="63"></rect>
                <text font-family="AlibabaPuHuiTi-Medium, Alibaba PuHuiTi" font-size="18" font-weight="400" fill="#000000">
                    <tspan x="64" y="27">雨雀知识库</tspan>
                </text>
                <text id="UI/UX" font-family="AlibabaPuHuiTi-Regular, Alibaba PuHuiTi" font-size="14" font-weight="normal" fill="#000000" fill-opacity="0.4">
                    <tspan x="64" y="51">UI/UX</tspan>
                </text>
                <g id="编组-20" transform="translate(8.000000, 8.000000)">
                    <rect id="矩形" fill="#35BF6A" x="0" y="0" width="48" height="48"></rect>
                    <g id="编组" transform="translate(7.000000, 9.000000)" fill-rule="nonzero">
                        <g>
                            <g id="路径" transform="translate(2.000000, 0.000000)">
                                <g id="path-5-link" transform="translate(0.000000, 0.000000)" fill="#E5FBEF">
                                    <path d="M17.825386,0 L17.9717685,0 L18.1011053,0 L18.1011053,0 L18.232961,0.000660286992 L18.232961,0.000660286992 L18.3673032,0.00135806533 L18.3673032,0.00135806533 L18.5041146,0.00231496227 L18.5041146,0.00231496227 L18.6433732,0.00354149937 L18.6433732,0.00354149937 L18.7850582,0.00504819813 L18.7850582,0.00504819813 L18.929148,0.0068455801 L18.929148,0.0068455801 L19.0265332,0.00821052123 L19.0265332,0.00821052123 L19.1249716,0.00971244863 L19.1249716,0.00971244863 L19.2745895,0.0122290085 L19.2745895,0.0122290085 L19.4265413,0.0150713233 L19.4265413,0.0150713233 L19.5808053,0.0182499147 L19.5808053,0.0182499147 L19.6849219,0.0205609917 L19.6849219,0.0205609917 L19.8429922,0.0243234252 L19.8429922,0.0243234252 L20.0033179,0.0284501925 L20.0033179,0.0284501925 L20.1658775,0.0329518153 L20.1658775,0.0329518153 L20.2754811,0.036166346 L20.2754811,0.036166346 L20.4417166,0.0413161092 L20.4417166,0.0413161092 L20.6101293,0.0468687851 L20.6101293,0.0468687851 L20.7236031,0.0507996055 L20.7236031,0.0507996055 L20.8380289,0.054917292 L20.8380289,0.054917292 L20.9534001,0.0592249621 L20.9534001,0.0592249621 L21.0697101,0.0637257333 L21.0697101,0.0637257333 L21.1869532,0.0684227231 L21.1869532,0.0684227231 L21.3051226,0.0733190489 L21.3051226,0.0733190489 L21.4840999,0.0810441124 L21.4840999,0.0810441124 L21.6045578,0.0864524176 L21.6045578,0.0864524176 L21.7869383,0.0949600633 L21.7869383,0.0949600633 L21.9096449,0.100899832 L21.9096449,0.100899832 L22.0332402,0.107057642 L22.0332402,0.107057642 L22.220285,0.116710003 L22.220285,0.116710003 L22.3460738,0.123426554 L22.3460738,0.123426554 L22.4727288,0.130372058 L22.4727288,0.130372058 L22.6002439,0.137549631 L22.6002439,0.137549631 L22.7286125,0.144962392 L22.7286125,0.144962392 L22.8578286,0.152613457 L22.8578286,0.152613457 L22.9878857,0.160505945 L22.9878857,0.160505945 L23.1187774,0.168642972 L23.1187774,0.168642972 L23.2504975,0.177027656 L23.2504975,0.177027656 L23.3830398,0.185663116 L23.3830398,0.185663116 L23.5163975,0.194552467 L23.5163975,0.194552467 C28.3047495,0.517347114 29.5728968,3.91885109 29.7078363,4.32586951 L29.7149336,4.34772415 L29.7149336,4.34772415 L29.7204458,4.36562904 L29.7204458,4.36562904 L31.7991457,4.47727756 L31.7991457,4.47727756 C31.9100745,4.47727756 32,4.56598202 32,4.67540454 C32,4.75383257 31.9538032,4.82161725 31.8867872,4.85372542 C29.7530722,5.99262538 29.1012152,8.30681933 29.4844478,9.81426243 C29.6079595,10.3000957 29.7998571,10.7177266 30.0134916,11.1591491 L30.1484705,11.4370055 C30.6429905,12.457293 31.198224,13.6927228 31.2888924,16.1791653 C31.4918527,21.7450327 26.5320207,26.7474617 20.6632285,26.7474617 L20.5990086,26.7474868 L20.5990086,26.7474868 L20.4619376,26.7476889 L20.4619376,26.7476889 L20.2347536,26.7483707 L20.2347536,26.7483707 L20.0689125,26.7490779 L20.0689125,26.7490779 L19.7985733,26.7505172 L19.7985733,26.7505172 L19.6039621,26.7517296 L19.6039621,26.7517296 L19.3978428,26.7531436 L19.3978428,26.7531436 L19.0670861,26.7556438 L19.0670861,26.7556438 L18.7104364,26.7585986 L18.7104364,26.7585986 L18.3278935,26.7620078 L18.3278935,26.7620078 L17.777558,26.7672606 L17.777558,26.7672606 L17.3345977,26.7717306 L17.3345977,26.7717306 L16.5387902,26.7801907 L16.5387902,26.7801907 L15.6710573,26.7899133 L15.6710573,26.7899133 L14.7313989,26.8008988 L14.7313989,26.8008988 L14.1330797,26.808096 L14.1330797,26.808096 L13.2950425,26.8183997 L13.2950425,26.8183997 L12.1827631,26.8324154 L12.1827631,26.8324154 L10.9985583,26.8476941 L10.9985583,26.8476941 L9.99940808,26.8608261 L9.99940808,26.8608261 L8.41437229,26.8820393 L8.41437229,26.8820393 L7.30014142,26.8971915 L7.30014142,26.8971915 L5.23947223,26.9256526 L5.23947223,26.9256526 L3.03782916,26.9565886 L3.03782916,26.9565886 L1.03850288,26.985075 L1.03850288,26.985075 L0,27 L12.5502727,12.922051 L12.6640046,12.7941727 L12.6640046,12.7941727 L12.7774278,12.6669268 L12.7774278,12.6669268 L12.8905168,12.5402801 L12.8905168,12.5402801 L13.4500444,11.9148681 L13.4500444,11.9148681 L13.560586,11.7911171 L13.560586,11.7911171 L13.6706128,11.6677321 L13.6706128,11.6677321 L13.7800991,11.5446799 C13.7983003,11.5241971 13.8164779,11.5037268 13.8346314,11.4832682 L13.9432585,11.3606529 C13.9613133,11.3402387 13.9793429,11.3198349 13.9973467,11.2994409 L14.1050566,11.1771874 L14.1050566,11.1771874 L14.2121227,11.0551335 C15.4573728,9.63220734 16.5659385,8.24324678 17.3535954,6.65037344 C18.2279179,4.21448298 17.3378563,2.39682264 16.4292905,1.29547617 C16.3591404,1.21044149 16.2888799,1.129677 16.2193128,1.05322786 C15.9095873,0.662141666 16.1204709,0.0105725645 16.7102868,0.0105725645 C16.7583465,0.0105725645 16.8073828,0.00983987248 16.857391,0.00889469609 L16.9715475,0.00662894459 C16.9972792,0.00614330156 17.023253,0.0057020764 17.0494683,0.00537029506 L17.1583695,0.00408337108 L17.1583695,0.00408337108 L17.2699461,0.0029520662 L17.2699461,0.0029520662 L17.3458063,0.00228950463 L17.3458063,0.00228950463 L17.5405763,0.00097653837 L17.5405763,0.00097653837 L17.7016058,0.000305089457 L17.7016058,0.000305089457 L17.825386,0 L17.825386,0 Z" id="path-5"></path>
                                </g>
                                <g id="path-5-link" fill="url(#radialGradient-1)" fill-opacity="0.3">
                                    <path d="M17.825386,0 L17.9717685,0 L18.1011053,0 L18.1011053,0 L18.232961,0.000660286992 L18.232961,0.000660286992 L18.3673032,0.00135806533 L18.3673032,0.00135806533 L18.5041146,0.00231496227 L18.5041146,0.00231496227 L18.6433732,0.00354149937 L18.6433732,0.00354149937 L18.7850582,0.00504819813 L18.7850582,0.00504819813 L18.929148,0.0068455801 L18.929148,0.0068455801 L19.0265332,0.00821052123 L19.0265332,0.00821052123 L19.1249716,0.00971244863 L19.1249716,0.00971244863 L19.2745895,0.0122290085 L19.2745895,0.0122290085 L19.4265413,0.0150713233 L19.4265413,0.0150713233 L19.5808053,0.0182499147 L19.5808053,0.0182499147 L19.6849219,0.0205609917 L19.6849219,0.0205609917 L19.8429922,0.0243234252 L19.8429922,0.0243234252 L20.0033179,0.0284501925 L20.0033179,0.0284501925 L20.1658775,0.0329518153 L20.1658775,0.0329518153 L20.2754811,0.036166346 L20.2754811,0.036166346 L20.4417166,0.0413161092 L20.4417166,0.0413161092 L20.6101293,0.0468687851 L20.6101293,0.0468687851 L20.7236031,0.0507996055 L20.7236031,0.0507996055 L20.8380289,0.054917292 L20.8380289,0.054917292 L20.9534001,0.0592249621 L20.9534001,0.0592249621 L21.0697101,0.0637257333 L21.0697101,0.0637257333 L21.1869532,0.0684227231 L21.1869532,0.0684227231 L21.3051226,0.0733190489 L21.3051226,0.0733190489 L21.4840999,0.0810441124 L21.4840999,0.0810441124 L21.6045578,0.0864524176 L21.6045578,0.0864524176 L21.7869383,0.0949600633 L21.7869383,0.0949600633 L21.9096449,0.100899832 L21.9096449,0.100899832 L22.0332402,0.107057642 L22.0332402,0.107057642 L22.220285,0.116710003 L22.220285,0.116710003 L22.3460738,0.123426554 L22.3460738,0.123426554 L22.4727288,0.130372058 L22.4727288,0.130372058 L22.6002439,0.137549631 L22.6002439,0.137549631 L22.7286125,0.144962392 L22.7286125,0.144962392 L22.8578286,0.152613457 L22.8578286,0.152613457 L22.9878857,0.160505945 L22.9878857,0.160505945 L23.1187774,0.168642972 L23.1187774,0.168642972 L23.2504975,0.177027656 L23.2504975,0.177027656 L23.3830398,0.185663116 L23.3830398,0.185663116 L23.5163975,0.194552467 L23.5163975,0.194552467 C28.3047495,0.517347114 29.5728968,3.91885109 29.7078363,4.32586951 L29.7149336,4.34772415 L29.7149336,4.34772415 L29.7204458,4.36562904 L29.7204458,4.36562904 L31.7991457,4.47727756 L31.7991457,4.47727756 C31.9100745,4.47727756 32,4.56598202 32,4.67540454 C32,4.75383257 31.9538032,4.82161725 31.8867872,4.85372542 C29.7530722,5.99262538 29.1012152,8.30681933 29.4844478,9.81426243 C29.6079595,10.3000957 29.7998571,10.7177266 30.0134916,11.1591491 L30.1484705,11.4370055 C30.6429905,12.457293 31.198224,13.6927228 31.2888924,16.1791653 C31.4918527,21.7450327 26.5320207,26.7474617 20.6632285,26.7474617 L20.5990086,26.7474868 L20.5990086,26.7474868 L20.4619376,26.7476889 L20.4619376,26.7476889 L20.2347536,26.7483707 L20.2347536,26.7483707 L20.0689125,26.7490779 L20.0689125,26.7490779 L19.7985733,26.7505172 L19.7985733,26.7505172 L19.6039621,26.7517296 L19.6039621,26.7517296 L19.3978428,26.7531436 L19.3978428,26.7531436 L19.0670861,26.7556438 L19.0670861,26.7556438 L18.7104364,26.7585986 L18.7104364,26.7585986 L18.3278935,26.7620078 L18.3278935,26.7620078 L17.777558,26.7672606 L17.777558,26.7672606 L17.3345977,26.7717306 L17.3345977,26.7717306 L16.5387902,26.7801907 L16.5387902,26.7801907 L15.6710573,26.7899133 L15.6710573,26.7899133 L14.7313989,26.8008988 L14.7313989,26.8008988 L14.1330797,26.808096 L14.1330797,26.808096 L13.2950425,26.8183997 L13.2950425,26.8183997 L12.1827631,26.8324154 L12.1827631,26.8324154 L10.9985583,26.8476941 L10.9985583,26.8476941 L9.99940808,26.8608261 L9.99940808,26.8608261 L8.41437229,26.8820393 L8.41437229,26.8820393 L7.30014142,26.8971915 L7.30014142,26.8971915 L5.23947223,26.9256526 L5.23947223,26.9256526 L3.03782916,26.9565886 L3.03782916,26.9565886 L1.03850288,26.985075 L1.03850288,26.985075 L0,27 L12.5502727,12.922051 L12.6640046,12.7941727 L12.6640046,12.7941727 L12.7774278,12.6669268 L12.7774278,12.6669268 L12.8905168,12.5402801 L12.8905168,12.5402801 L13.4500444,11.9148681 L13.4500444,11.9148681 L13.560586,11.7911171 L13.560586,11.7911171 L13.6706128,11.6677321 L13.6706128,11.6677321 L13.7800991,11.5446799 C13.7983003,11.5241971 13.8164779,11.5037268 13.8346314,11.4832682 L13.9432585,11.3606529 C13.9613133,11.3402387 13.9793429,11.3198349 13.9973467,11.2994409 L14.1050566,11.1771874 L14.1050566,11.1771874 L14.2121227,11.0551335 C15.4573728,9.63220734 16.5659385,8.24324678 17.3535954,6.65037344 C18.2279179,4.21448298 17.3378563,2.39682264 16.4292905,1.29547617 C16.3591404,1.21044149 16.2888799,1.129677 16.2193128,1.05322786 C15.9095873,0.662141666 16.1204709,0.0105725645 16.7102868,0.0105725645 C16.7583465,0.0105725645 16.8073828,0.00983987248 16.857391,0.00889469609 L16.9715475,0.00662894459 C16.9972792,0.00614330156 17.023253,0.0057020764 17.0494683,0.00537029506 L17.1583695,0.00408337108 L17.1583695,0.00408337108 L17.2699461,0.0029520662 L17.2699461,0.0029520662 L17.3458063,0.00228950463 L17.3458063,0.00228950463 L17.5405763,0.00097653837 L17.5405763,0.00097653837 L17.7016058,0.000305089457 L17.7016058,0.000305089457 L17.825386,0 L17.825386,0 Z" id="path-5"></path>
                                </g>
                            </g>
                            <path d="M14.7821608,13.1254096 C9.26453162,19.15189 2.69764855,26.4843273 0.204958679,29.2387149 C-0.275228349,29.7693148 0.190183695,30.2703597 0.562143677,30.3324253 C19.1592133,33.435544 25.0638993,24.9296131 26.3791695,21.0412933 C28.1787143,15.7213178 25.6360489,13.1254096 24.1970788,12.2788771 C19.3176147,9.40833422 15.6972738,12.1259024 14.7821608,13.1254096 Z" id="Fill-12-Copy" fill="#FAFFFC"></path>
                        </g>
                    </g>
                </g>
            </g>
        </g>
    </g>
</svg>